<?xml version="1.0" encoding="utf-8"?>
<!-- Generator: Adobe Illustrator 19.2.1, SVG Export Plug-In . SVG Version: 6.00 Build 0)  -->
<svg version="1.1" id="Layer_1" xmlns="http://www.w3.org/2000/svg" xmlns:xlink="http://www.w3.org/1999/xlink" x="0px" y="0px"
	 viewBox="0 0 60.6 53" style="enable-background:new 0 0 60.6 53;" xml:space="preserve">
<style type="text/css">
	.st0{fill-rule:evenodd;clip-rule:evenodd;}
</style>
<g>
	<path class="st0" d="M54,50.6c-0.7-0.1-1.4-0.2-2.1-0.2c-0.9,0-1.8,0-2.6,0.1c-1.3,0-2.5,0.1-3.8,0.2c-1.7,0.1-3.4,0.3-5,0.3
		c-3.1,0.1-6.2,0.1-9.4,0.2c-1.3,0-2.7,0.1-4,0.2c-1.5,0.1-2.9,0.1-4.4,0.1c-1.9,0.1-3.8,0.2-5.8,0.4c-2,0.1-4,0.3-5.9,0.4
		c-0.7,0-1.4-0.1-2.1,0.1c-1.1,0.2-2,0-3.1-0.1C5.1,52,4.5,51.6,4,50.9c-0.3-0.6-0.6-1.2-0.9-1.8c0,0-0.1-0.1-0.1-0.1
		c-0.5-0.1-0.4-0.4-0.4-0.7c0-0.4-0.1-0.7-0.1-1.1c0-1.4,0-2.8,0-4.2c-0.1-1.8-0.3-3.7-0.4-5.5C2,36.8,2,36.2,1.9,35.5
		c-0.1-1.2-0.2-2.4-0.3-3.6c-0.1-2.1-0.3-4.3-0.4-6.4c-0.1-2.1,0-4.1,0-6.2c0-1.3-0.1-2.7-0.2-4c-0.1-1.6-0.2-3.2-0.3-4.7
		c-0.1-1,0.1-1.9,0.4-2.8c0.4-1.3,1.3-2.2,2.6-2.8c0.5-0.2,1.1-0.5,1.5-0.8c0.5-0.3,1.1-0.3,1.6-0.3c1.4-0.1,2.9-0.2,4.3-0.3
		c2-0.1,4-0.2,6-0.3C18.5,3,19.9,3,21.2,2.6C23,2.1,24.9,2.2,26.7,2c0.8-0.1,1.7-0.2,2.5-0.2c1.1,0,2.1,0,3.2-0.1
		c1.1,0,2.2-0.2,3.3-0.2c1.7-0.1,3.4-0.1,5-0.2c2.2,0,4.3-0.1,6.5-0.1c1,0,2.1,0,3.1-0.1c0.2,0,0.4-0.2,0.7-0.3
		c0.5-0.1,1.1-0.3,1.6-0.3c1.1,0,2.3,0.3,3.1,1.2c0.7,0.7,1.4,1.4,1.7,2.3c0.2,0.6,0.4,1.2,0.7,1.7c0.2,0.5,0.4,0.9,0.6,1.4
		c0,0.1,0.1,0.3,0.1,0.4c-0.3,1.7-0.1,3.5,0.1,5.2c0.1,1,0.1,2,0.2,3c0.1,1.2,0.1,2.5,0.1,3.7c0.1,2.1,0.1,4.1,0.2,6.2
		c0.1,1.5,0.2,2.9,0.3,4.4c0.1,2,0.2,4.1,0.2,6.1c0,1.5-0.1,2.9-0.1,4.4c0,0.8-0.1,1.6-0.1,2.5c0,0.4-0.1,0.7,0,1.1
		c0.1,1.3,0.1,2.7-0.4,3.9c-0.4,1-1,2-2.3,2.1C56,50.3,55,50.5,54,50.6z M7.4,41.7C7.4,41.7,7.4,41.7,7.4,41.7
		c0.1,1.3,0.2,2.6,0.3,3.9c0,0.9,0.2,1.6,1.1,1.9c0,0,0,0,0,0c0.6,0.3,1.1,0.7,1.8,0.6c0.9-0.1,1.8-0.1,2.7-0.1
		c1.3,0,2.6-0.1,3.9-0.1c1.2,0,2.4-0.1,3.6-0.2c1.9-0.1,3.8-0.1,5.7-0.2c1.2-0.1,2.4-0.2,3.6-0.3c1.6-0.1,3.2-0.2,4.8-0.4
		c1.8-0.1,3.7-0.3,5.5-0.4c2.4-0.1,4.8-0.2,7.1-0.3c1.8-0.1,3.6-0.2,5.3-0.4c0.4,0,0.7,0,1.1-0.1c1.2-0.3,1.7-1.1,1.7-2.3
		c0-1.1,0-2.3,0-3.4c0-1.4,0.1-2.9,0.1-4.3c0-1.1-0.1-2.2-0.2-3.3c-0.1-2.7-0.2-5.3-0.3-8c-0.2-2.5-0.5-5.1-0.7-7.6
		c-0.2-1.9-0.2-3.7-0.3-5.6C54.1,10,54.1,9,54,7.9c0-0.1,0-0.1,0-0.2c-0.4-0.8-1.7-1.4-2.5-1.2c-0.2,0.1-0.5,0-0.7-0.1
		c-0.3-0.2-0.5-0.2-0.9-0.2c-2.2,0.1-4.3,0.3-6.5,0.4c-1.6,0.1-3.2,0.2-4.7,0.3c-1.1,0.1-2.2,0.2-3.4,0.3c-1.1,0.1-2.1,0.1-3.2,0.2
		c-1.4,0.1-2.8,0.3-4.2,0.4c-2.2,0.2-4.4,0.3-6.6,0.5c-1.2,0.1-2.4,0.3-3.6,0.3c-2.8,0.1-5.6,0.4-8.4,0.8c-0.7,0.1-1.3,0.3-2,0.6
		c-0.4,0.1-0.6,0.4-0.7,0.9c0,0.5-0.1,1-0.1,1.4c-0.1,1.8-0.2,3.7-0.1,5.5c0.1,1.4,0.2,2.8,0.2,4.2c0,2.1,0.2,4.1,0.3,6.2
		c0,1.4,0,2.8,0,4.2c0,1.5,0.2,3.1,0.2,4.6C7.3,38.7,7.3,40.2,7.4,41.7z M57,28.2C57.1,28.2,57.1,28.2,57,28.2
		c0.1,0,0.1-0.1,0.1-0.1c0-1.3,0-2.6,0-4c0-0.1-0.2-0.3-0.2-0.4c-0.1,0-0.1,0-0.2,0.1C56.9,25.2,57,26.7,57,28.2z M3.5,15.1
		c-0.3,0.6-0.2,3.4,0.1,3.9C3.7,17.6,3.7,16.3,3.5,15.1z M51.3,3.3c-0.3-0.7-1-0.3-1.5-0.5C50,3.5,50,3.5,51.3,3.3z M56.1,17.1
		c0,0,0.1,0,0.1,0c0.2-0.3,0-2.6-0.1-3C56.1,15.1,56.1,16.1,56.1,17.1z M53,4.9c0.4,0.3,0.9,0.5,1.3,0.8C54.5,5,54.1,4.8,53,4.9z
		 M4.4,47.8c0,0,0.1,0,0.2,0c-0.1-0.5-0.2-1.1-0.3-1.6c-0.1,0-0.1,0-0.2,0C4.2,46.7,4,47.3,4.4,47.8z M37.7,49.3c0-0.1,0-0.1,0-0.2
		c-0.8,0.1-1.7,0.1-2.5,0.2c0,0,0,0.1,0,0.1C36,49.4,36.9,49.3,37.7,49.3z M57.2,38.7c0.1,0,0.1,0,0.2,0c0-0.4-0.1-0.9-0.1-1.3
		c0,0-0.1,0-0.1,0C57.2,37.8,57.2,38.3,57.2,38.7z M2.9,11.1c-0.3,0-0.4,0-0.7,0c0.1,0.2,0.2,0.4,0.2,0.6
		C2.6,11.5,2.7,11.3,2.9,11.1z M54.4,48.5c0.5,0.2,0.8,0.1,0.8-0.3C54.9,48.3,54.7,48.4,54.4,48.5z M11.6,7.6c0,0.1,0,0.1,0,0.1
		c0.4,0,0.8-0.1,1.2-0.1c0,0,0-0.1,0-0.1C12.5,7.5,12,7.5,11.6,7.6z"/>
</g>
</svg>
