<svg id="Layer_1" xmlns="http://www.w3.org/2000/svg" viewBox="0 0 1440 750"><style>.st0{fill:#3DE3CF;} .st1{fill:none;stroke:#FFFFFF;stroke-width:2;stroke-miterlimit:10;} .st2{fill:none;stroke:#FFFFFF;stroke-width:2;stroke-linecap:round;stroke-miterlimit:10;} .st3{fill:url(#SVGID_1_);} .st4{fill:none;}</style><path class="st0" d="M1440 750H0V588c5.3-6.3 6.4-9.1 11.6-15.3 59-71.5 107.9-133.5 228.4-133.5 131 0 198 118 432 118s299.3-174 415.4-174c116.2 0 215.7 125.2 352.6 125.2V750z" id="Layer_5"/><g id="rocket"><path class="st1" d="M-42.6 731c1.2-1.1 1.1-3 .1-4.1-17.9-18.5-43-27.7-67.8-25.9-6.7-6.4-15.3-10-24.6-10.2-9.4-.2-18.4 3.3-25.3 9.6-1.7 1.6-1 5.7 2.7 5.1 1.9-.3 3.8-.7 5.7-.7 4.6.1 8.9 1.6 12.5 4.2-.3.5-.4.9-.4 1.4l-.6 33.7c0 .5.1.9.3 1.4-3.8 2.5-8.1 3.8-12.7 3.7-1.8 0-3.7-.5-5.7-.9-4.1-.6-4.3 3.6-2.9 4.9 6.7 6.6 15.6 10.3 24.9 10.6 9.3.2 18.1-3.2 25-9.3 24.8 2.7 50.2-5.6 68.8-23.5zM-63.8 711.8l-.7 34.3"/><ellipse transform="rotate(-88.948 -95.884 729.255) scale(.99997)" class="st1" cx="-95.9" cy="729.3" rx="14.1" ry="14.1"/><path class="st1" d="M-110 700.9s-25.3 2.4-30.1 8.6M-110.4 754.6s-25.4-3.5-29.9-9.7"/><path class="st2" d="M-152 718.3l-23-8M-151 732.3l-22 8M-195 725.3h38"/></g><g id="Layer_2"><linearGradient id="SVGID_1_" gradientUnits="userSpaceOnUse" x1="348.825" y1="393.205" x2="1091.375" y2="-349.345" gradientTransform="matrix(1 0 0 -1 0 749.28)"><stop offset="0" stop-color="#AD6BFF"/><stop offset="1" stop-color="#74BCF7"/></linearGradient><path class="st3" d="M0 749.6v-44.7c390.6 0 503.6-202 642.9-195.7 139.3 6.3 125.3 188.5 321.4 188.5 173.3 0 208.3-118.5 277-118.5 68.8 0 72 109 198.7 125.7V750L0 749.6z"/></g><path class="rocket__line" d="M-384 607c260 0 314.8-85.8 320-92 59-71.5 205.5-180 326-180 131 0 202 132 436 132 134.9 0 310-119.7 402-249.7"/></svg>