<svg version="1.1" id="Layer_1" xmlns="http://www.w3.org/2000/svg" xmlns:xlink="http://www.w3.org/1999/xlink" x="0px" y="0px"
	 viewBox="0 0 1440 750" style="enable-background:new 0 0 1440 750;" xml:space="preserve">
<style type="text/css">
	.st0{fill:#3DE3CF;}
	.st1{fill:none;stroke:#FFFFFF;stroke-width:2;stroke-miterlimit:10;}
	.st2{fill:none;stroke:#FFFFFF;stroke-width:2;stroke-linecap:round;stroke-miterlimit:10;}
	.st3{fill:url(#SVGID_1_);}
	.st4{fill:none;}
</style>
<g id="Layer_5">
	<path class="st0" d="M1440,750H0V588c5.3-6.3,6.4-9.1,11.6-15.3c59-71.5,107.9-133.5,228.4-133.5c131,0,198,118,432,118
		s299.3-174,415.4-174c116.2,0,215.7,125.2,352.6,125.2V750z"/>
</g>
<g id="rocket">
	<g>
		<path class="st1" d="M-42.6,731c1.2-1.1,1.1-3,0.1-4.1c-17.9-18.5-43-27.7-67.8-25.9c-6.7-6.4-15.3-10-24.6-10.2
			c-9.4-0.2-18.4,3.3-25.3,9.6c-1.7,1.6-1,5.7,2.7,5.1c1.9-0.3,3.8-0.7,5.7-0.7c4.6,0.1,8.9,1.6,12.5,4.2c-0.3,0.5-0.4,0.9-0.4,1.4
			l-0.6,33.7c0,0.5,0.1,0.9,0.3,1.4c-3.8,2.5-8.1,3.8-12.7,3.7c-1.8,0-3.7-0.5-5.7-0.9c-4.1-0.6-4.3,3.6-2.9,4.9
			c6.7,6.6,15.6,10.3,24.9,10.6c9.3,0.2,18.1-3.2,25-9.3C-86.6,757.2-61.2,748.9-42.6,731z"/>
		<line class="st1" x1="-63.8" y1="711.8" x2="-64.5" y2="746.1"/>
		
			<ellipse transform="matrix(1.836208e-02 -0.9998 0.9998 1.836208e-02 -823.2549 619.9962)" class="st1" cx="-95.9" cy="729.3" rx="14.1" ry="14.1"/>
		<path class="st1" d="M-110,700.9c0,0-25.3,2.4-30.1,8.6"/>
		<path class="st1" d="M-110.4,754.6c0,0-25.4-3.5-29.9-9.7"/>
	</g>
	<line class="st2" x1="-152" y1="718.3" x2="-175" y2="710.3"/>
	<line class="st2" x1="-151" y1="732.3" x2="-173" y2="740.3"/>
	<line class="st2" x1="-195" y1="725.3" x2="-157" y2="725.3"/>
</g>
<g id="Layer_2">
		<linearGradient id="SVGID_1_" gradientUnits="userSpaceOnUse" x1="348.825" y1="393.205" x2="1091.375" y2="-349.345" gradientTransform="matrix(1 0 0 -1 0 749.28)">
		<stop  offset="0" style="stop-color:#AD6BFF"/>
		<stop  offset="1" style="stop-color:#74BCF7"/>
	</linearGradient>
	<path class="st3" d="M0,749.6v-44.7c390.6,0,503.6-202,642.9-195.7c139.3,6.3,125.3,188.5,321.4,188.5
		c173.3,0,208.3-118.5,277-118.5c68.8,0,72,109,198.7,125.7V750L0,749.6z"/>
</g>
	<path class="rocket__line" d="M-384,607c260,0,314.8-85.8,320-92c59-71.5,205.5-180,326-180c131,0,202,132,436,132
		c134.9,0,310-119.7,402-249.7"/>
</svg>
