<?xml version="1.0" encoding="utf-8"?>
<!-- Generator: Adobe Illustrator 19.2.1, SVG Export Plug-In . SVG Version: 6.00 Build 0)  -->
<svg version="1.1" id="Layer_1" xmlns="http://www.w3.org/2000/svg" xmlns:xlink="http://www.w3.org/1999/xlink" x="0px" y="0px"
	 viewBox="0 0 319 315" style="enable-background:new 0 0 319 315;" xml:space="preserve">
<style type="text/css">
	.st0{fill:none;}
	.st1{fill-rule:evenodd;clip-rule:evenodd;}
	.st2{fill:#1D1D1B;}
</style>
<g>
	<g>
		<g>
			<path class="st0" d="M300.7,275.4c-1.4,0.3-2.3,1.6-3.5,2.1c-0.3,0.1-0.4,0.6-0.2,0.9c0.2,0.3,0.4,0.3,0.6,0.1
				c1.1-0.9,2.6-1.2,3.5-2.6c3.1-2.7,4.3-6.6,5.3-10.8c-1-0.1-1.1,0.6-1.4,1.1c-0.8,1.7-1.2,3.6-2.1,5.4
				C302.3,273,301.1,273.9,300.7,275.4z"/>
		</g>
		<g>
			<path class="st0" d="M42,288.3c0,0,0.5,0.1,0.6-0.5c0.1-0.5-0.3-0.7-0.7-0.9c-0.2-0.1-0.5-0.2-0.7-0.2c-2.7-0.3-5.3-0.8-8-1
				c-5.4-0.3-10.3-4.2-11.4-9.9c-0.2-1-0.7-2-1-3c-0.2-0.5-0.5-0.7-0.9-0.5c-0.5,0.2-0.4,0.7-0.2,1.1c0.9,2.6,1.5,5.3,3,7.6
				c2.3,3.8,5.8,5.3,9.7,5.9C35.4,287.6,38.6,287.3,42,288.3z"/>
		</g>
		<g>
			<path class="st0" d="M188.5,300.1c0.6,1.1,1.4,1.2,2.3,1.3c5,0.6,10,0.2,15-0.5c0.9-0.1,1.8,0,2.8,0.2c1.6,0.4,3.3,1.1,5.2,0.8
				c-3.8-2.8-7.9-2.4-11.9-1.9c-3.6,0.4-7.1,0.7-10.6-0.1C190.5,299.8,189.6,299.3,188.5,300.1z"/>
		</g>
		<g>
			<path class="st0" d="M117.6,296.7c0.3,1,1,1.4,1.5,1.3c2.6-0.1,5,0.8,7.6,0.8c5,0,10.1-0.4,15.1,0.4c0.3,0.1,0.8,0.1,1.1-0.7
				c-1.6-0.6-3.1-1-4.8-1c-3.7,0-7.5,0-11.2,0c-1.5,0-3-0.1-4.4-0.6C121,296.4,119.4,296.7,117.6,296.7z"/>
		</g>
		<g>
			<path class="st0" d="M310.4,222.9c-1.4,1.5-0.4,3.2-0.8,4.6c-1.7,5.7-1.4,11.7-2.8,17.5c-0.1,0.4,0,0.8,0.3,0.9
				c0.3,0.2,0.7,0.1,0.9-0.2c0.6-1.1,1-2.2,0.9-3.5c-0.1-1.1-0.2-2.1,0-3.2c0.5-3.5,1-6.9,1.7-10.3
				C310.8,226.8,311.1,225,310.4,222.9z"/>
		</g>
		<g>
			<path class="st0" d="M36.2,11c0-0.6-0.4-0.8-1.2-0.5c-4.5,1.2-9,2.8-13,5.4c-1.8,1.2-3.2,2.9-4.5,4.7c-0.2,0.3-0.5,0.8-0.2,1.2
				c0.5,0.5,0.9,0,1.1-0.5c2-3.5,5.3-4.9,8.4-6.7c2.5-1.4,5.2-2,7.9-2.4C35.5,12.1,36.1,12.1,36.2,11z"/>
		</g>
		<g>
			<path class="st0" d="M262.9,297.8c-3.8,0.4-7.3-1.3-11.2-0.8c-4.6,0.6-9.2,1.4-13.9,1.1c-0.4,0-0.9,0-0.9,0.6
				c0,0.7,0.5,0.6,0.8,0.6c0.4,0,0.8,0,1.2,0c2.8,0,5.6-0.7,8.4-0.8c4.1-0.2,8.2-0.8,12.3,0.1C260.7,298.8,262,298.7,262.9,297.8z"
				/>
		</g>
		<g>
			<path class="st0" d="M5.8,170.2c0,1.4,0,2.7,0,4.1c0,0.5,0.2,1.1,0.8,1c0.5-0.1,0.4-0.7,0.4-1.1c0-5.6-0.2-11.1,0.4-16.7
				c0-0.2,0-0.4,0-0.5c0-0.4-0.2-0.7-0.6-0.7c-0.3,0-0.6,0.2-0.7,0.6c-0.1,0.3,0,0.5-0.1,0.8C5.3,161.8,6.3,166.1,5.8,170.2z"/>
		</g>
		<g>
			<path class="st0" d="M9.7,231.7c0,0.2,0.3-0.5-0.4-0.7c-0.7-0.1-0.7,0.6-0.8,1c-0.1,0.2-0.1,0.5-0.1,0.8c0.1,3.8-0.7,7.7,0,11.5
				c0.4,2.7,1.2,5.4,2.1,8c0.2,0.5,0.6,1,1.1,0.8c0.6-0.3,0.4-0.9,0.2-1.4c-0.8-1.9-1.5-4-1.8-6.1C9.1,241.2,9.4,236.7,9.7,231.7z"
				/>
		</g>
		<g>
			<path class="st0" d="M310.4,180.8c-0.4,1-0.5,2-0.5,3c0,4.7-0.1,9.5-0.6,14.2c-0.1,1.2,0,2.3,0.3,3.5c0.1,0.3,0.2,0.7,0.6,0.6
				c0.3-0.1,0.6-0.4,0.6-0.7c0-0.7,0-1.4-0.1-2.2c-0.2-1.3-0.2-2.7,0-4c0.5-4.4,0.1-8.8,0.5-13.2C311.3,181.6,311,181.1,310.4,180.8
				z"/>
		</g>
		<g>
			<path class="st0" d="M288.9,290.2c-1.3-0.8-1.7,0.4-2.4,0.9c-5.2,3.4-11,4.3-16.7,5.5c-0.4,0.1-1.1-0.2-1,0.6
				c0.1,0.7,0.5,0.6,1.1,0.5c1.7-0.4,3.4-0.9,5.1-1c4.2-0.4,8.1-2.3,11.8-4.4C287.6,292,288.6,291.5,288.9,290.2z"/>
		</g>
		<g>
			<path class="st0" d="M88.3,295.1c-0.4-1.5-1.1-1.6-2-1.7c-3.1-0.2-6.3-0.6-9.4-0.9c-3-0.2-6-0.1-8.8-1.4
				c-0.3-0.1-0.6-0.1-0.9,0.5c0.7,1.5,2.1,1.8,3.3,1.9c1.8,0.1,3.6,0.3,5.3,0.3C80,294,84.1,293.7,88.3,295.1z"/>
		</g>
		<g>
			<path class="st0" d="M8.4,211.5c-0.2-3.7-0.1-7.5,0.2-11.2c0.1-1.1,0.8-2.7-0.6-2.9c-1-0.1-0.8,1.7-0.8,2.7
				c-0.1,2.7,0.1,5.3-0.2,8c-0.2,2.1,0.1,4.3,0.2,6.4c0,0.5,0.2,0.9,0.7,0.9c0.4,0,0.7-0.5,0.7-1C8.6,213.5,8.5,212.5,8.4,211.5z"/>
		</g>
		<g>
			<path class="st0" d="M8.3,90.2c0.3-2,1-3.9,1.7-5.7c0.1-0.3,0.1-0.7,0.2-1c0-0.3,0-0.5,0-0.8c-0.4-2.9,0.2-5.7,0.6-8.5
				c0.1-0.7,0.1-1.5-0.1-2.1c-0.2-0.7-0.7-0.6-1.1-0.2c-0.3,0.2-1,0.6-0.5,0.8c1.3,0.7,0.5,1.6,0.4,2.4c-0.3,2.8-1,5.6-0.6,8.4
				c0.2,1.2-0.3,2.1-0.8,3C7.5,87.5,7.2,88.8,8.3,90.2z"/>
		</g>
		<g>
			<path class="st0" d="M309.2,97.9c-0.5,0-0.6,0.5-0.7,0.9c-0.6,2.4-0.9,4.9-0.8,7.4c0,2.2,0,4.5-0.2,6.7c-0.1,0.7-0.6,1.3,0.1,1.9
				c0.2,0.2,0.4,0.4,0.6,0.2c0.6-0.4,0.8-1.1,0.8-1.8c0-0.3-0.1-0.5,0-0.8c0.4-3.2-0.1-6.5,0.1-9.7c0.1-1.3,0.4-2.5,0.6-3.7
				C309.6,98.6,309.7,98.2,309.2,97.9z"/>
		</g>
		<g>
			<path class="st0" d="M303.3,59.2c-0.9,1.5-0.3,2.6-0.6,3.6c-0.6,2.6,0,5.3-0.2,8c-0.1,1.6,0.3,3.2,0.5,4.8
				c0.1,0.5,0.2,0.9,0.7,0.9c0.6,0,0.7-0.6,0.7-1.1c0-0.3-0.1-0.5-0.1-0.8c-0.4-3.4-0.6-6.8-0.5-10.2
				C304,62.8,304.1,61.2,303.3,59.2z"/>
		</g>
		<g>
			<path class="st0" d="M260.1,299.7c-4-1-8,0.5-12.1,0c-4-0.5-8.1-0.6-12.2-0.2c0.2,0.4,0.3,0.8,0.5,0.8
				C244.2,300.5,252.1,301.5,260.1,299.7z"/>
		</g>
		<g>
			<path class="st0" d="M7.8,112c-0.8,1.3-1.5,2.7-1.2,4.2c0.6,3.9,0.2,7.9,0.4,11.8c0.1,1.6,0,3.1-0.5,4.5c-0.2,0.6-0.4,1,0.3,1.2
				c0.6,0.1,0.8-0.3,0.9-0.9c0.1-1,0.1-2,0.2-2.9c0.5-3.3,0.4-6.6,0.4-9.9C8.3,117.4,7.6,114.8,7.8,112z"/>
		</g>
		<g>
			<path class="st0" d="M258.8,6.3c0,0.5,0.3,0.8,0.6,0.9c1.9,0.5,3.8,0.7,5.8,0.4c2.6-0.4,5.2-0.8,7.7-0.5c1.6,0.1,3.3,0.2,4.9,0.3
				c0.5,0,1,0.1,1.3-0.4c0.2-0.4,0.4-0.8,0.1-1.2c-0.2-0.4-0.5-0.3-0.8,0c-0.7,0.6-1.5,0.4-2.3,0.4c-3.7,0.1-7.4-0.3-11.1,0.4
				c-1.2,0.2-2.5,0.2-3.8-0.2C260.5,5.9,259.6,5.9,258.8,6.3z"/>
		</g>
		<g>
			<path class="st0" d="M106.1,10.6c1.3,0,2.3,1,3.6,0.8c3-0.6,5.9-0.9,8.9-0.8c1.4,0,2.9,0,4.3,0.1c0.5,0,1,0,1-0.7
				c0-0.8-0.5-1-1.1-0.8c-0.6,0.2-1.3,0.4-1.9,0.3c-3.4-0.4-6.8,0.4-10.2,0.4C109.2,9.8,107.6,9.5,106.1,10.6z"/>
		</g>
		<g>
			<path class="st0" d="M167.1,7.9c-0.5-0.6-0.9-0.6-1.3-0.6c-3.1,0-6.2,0.4-9.2,0c-2.7-0.3-5.3,0.9-8,0.2c-0.3-0.1-0.6,0.2-0.9,0.3
				c-0.2,0.1-0.3,0.4-0.2,0.7c0,0.1,0.2,0.3,0.3,0.4c0.5,0.1,0.9,0.1,1.4,0.1c2.4,0.2,4.7-0.6,7.1-0.5c2.9,0.1,5.7,0.1,8.6,0
				C165.6,8.5,166.4,8.8,167.1,7.9z"/>
		</g>
		<g>
			<path class="st0" d="M297.3,45.2c0.4-0.3,0.8-0.6,0.6-1.1c-0.9-1.5-1-3.4-1.6-5c-1.1-2.7-2.7-5-3.7-7.8c-0.1-0.3-0.3-0.6-0.8-0.5
				c-0.6,1.3,0.1,2.4,0.7,3.4c1.3,2.4,2.3,4.9,3.4,7.4C296.2,42.8,296.4,44.2,297.3,45.2z"/>
		</g>
		<g>
			<path class="st0" d="M239.7,7.5c0-0.5-0.2-0.9-0.7-0.9c-1.9-0.2-3.8-0.8-5.7-0.4c-3.4,0.7-6.9,1-10.4,0.4c-0.3,0-0.7,0-0.8,0.4
				c-0.2,0.6,0.3,0.7,0.7,0.8c2.1,0.6,4.2,0.7,6.2,0.3c3-0.6,6-1.6,9-0.3C238.6,7.9,239.2,8,239.7,7.5z"/>
		</g>
		<g>
			<path class="st0" d="M309,141.8c0-0.5-0.2-0.7-0.4-0.8c-0.3-0.1-0.5,0.1-0.5,0.3c-0.3,2.1-1.1,4.1-1.3,6.3
				c-0.2,2.6,0.2,5.2-0.1,7.8c-0.1,0.7-0.1,1.2,0.5,1.6c0.3,0.2,0.6,0.3,0.9,0c0.4-0.5,0.4-1,0.3-1.7c-0.5-2-0.5-4-0.3-6.1
				c0.3-2.3,0.2-4.6,1-6.8C309,142.2,309,141.9,309,141.8z"/>
		</g>
		<g>
			<path class="st0" d="M11.1,48.5c0,0-0.3,0.5,0.3,0.6c0.6,0.1,0.9-0.2,1.1-0.8c0.1-0.1,0-0.3,0-0.5c0.6-4.6,1.2-9.2,1.8-13.8
				c0.1-0.5,0.4-1.1-0.3-1.3c-0.6-0.2-0.8,0.3-1.1,0.8c-0.3,0.7-0.3,1.4-0.2,2.1c0.1,2.3-0.2,4.4-0.7,6.6
				C11.5,44.2,11.4,46.2,11.1,48.5z"/>
		</g>
		<g>
			<path class="st0" d="M55.3,10.1c-1,0-1.9,0-2.9,0c-0.2,0-0.5,0.1-0.5,0.4c-0.1,0.4,0.2,0.7,0.4,0.8c0.5,0.1,0.9,0.1,1.4,0.2
				c3.5,0,6.9,0,10.4,0.1c0.7,0,1.2-0.2,1.3-0.8c0-0.7-0.6-1-1.2-0.9c-0.8,0.2-1.8-0.1-2.6,0.4c-0.7,0.4-1.5,0.4-2.1,0.2
				C58.1,9.9,56.7,10.1,55.3,10.1z"/>
		</g>
		<g>
			<path class="st0" d="M201.1,8.5c0.9,0,1.9,0,2.8,0c0.3,0,0.6-0.1,0.7-0.6c0-0.5-0.3-0.7-0.6-0.6c-1.3,0.4-2.7,0.1-4,0.1
				c-3.3,0.2-6.6,0.9-9.9,0.7c-0.7,0-2-1-2.1,0.5c-0.1,1,1.4,0.7,2.2,1.1c0.2,0.1,0.5,0,0.7,0C194.2,9.2,197.6,8.6,201.1,8.5z"/>
		</g>
		<g>
			<path class="st0" d="M84.5,10.5c3,0.3,5.6,0.1,8.2-0.2c0.5-0.1,1,0,1-0.7C93.6,8.9,93,9,92.5,9.1c-2.1,0.4-4.3,0.4-6.4,0.1
				c-1.9-0.3-3.8-0.3-5.6,0.1c-0.5,0.1-1.3-0.2-1.2,0.7c0.1,0.8,0.9,0.5,1.4,0.5C82.1,10.7,83.5,10.3,84.5,10.5z"/>
		</g>
		<g>
			<path class="st0" d="M16,31.8c0.1-0.4-0.1-0.6-0.3-0.6c-0.4,0-0.5,0.3-0.5,0.7c0,0.2,0,0.6,0.3,0.6C15.8,32.5,15.9,32.1,16,31.8z
				"/>
		</g>
		<g>
			<path class="st1" d="M42,288.3c-3.4-1-6.6-0.7-9.7-1.3c-3.9-0.7-7.3-2.2-9.7-5.9c-1.4-2.3-2.1-5-3-7.6c-0.1-0.5-0.3-0.9,0.2-1.1
				c0.4-0.2,0.8,0,0.9,0.5c0.3,1,0.8,2,1,3c1.1,5.7,6,9.6,11.4,9.9c2.7,0.1,5.3,0.6,8,1c0.2,0,0.5,0.1,0.7,0.2
				c0.4,0.2,0.8,0.4,0.7,0.9C42.5,288.5,42.1,288.3,42,288.3z"/>
		</g>
		<g>
			<path class="st1" d="M175.6,299c1.1-0.8,2.1-0.3,2.9-0.1c3.5,0.7,7,0.5,10.6,0.1c4-0.5,8-0.8,11.9,1.9c-1.9,0.3-3.6-0.5-5.2-0.8
				c-1-0.2-1.9-0.3-2.8-0.2c-5,0.7-10,1.1-15,0.5C177,300.2,176.2,300.1,175.6,299z"/>
		</g>
		<g>
			<path class="st1" d="M117.6,296.7c1.7,0,3.3-0.4,4.9,0.2c1.5,0.5,2.9,0.7,4.4,0.6c3.7,0,7.5,0,11.2,0c1.6,0,3.2,0.4,4.8,1
				c-0.3,0.8-0.7,0.7-1.1,0.7c-5-0.8-10.1-0.3-15.1-0.4c-2.5,0-5-0.9-7.6-0.8C118.6,298.1,118,297.8,117.6,296.7z"/>
		</g>
		<g>
			<path class="st1" d="M310.4,222.9c0.7,2.1,0.5,4,0.1,5.8c-0.6,3.4-1.2,6.8-1.7,10.3c-0.2,1.1,0,2.2,0,3.2
				c0.1,1.3-0.3,2.5-0.9,3.5c-0.2,0.3-0.6,0.4-0.9,0.2c-0.3-0.2-0.4-0.6-0.3-0.9c1.4-5.7,1.1-11.8,2.8-17.5
				C310,226,309,224.4,310.4,222.9z"/>
		</g>
		<g>
			<path class="st1" d="M36.2,11c0,1.1-0.7,1.1-1.5,1.2c-2.7,0.3-5.4,0.9-7.9,2.4c-3.1,1.8-6.4,3.2-8.4,6.7
				c-0.3,0.4-0.6,0.9-1.1,0.5c-0.4-0.3-0.1-0.9,0.2-1.2c1.3-1.8,2.7-3.5,4.5-4.7c4.1-2.6,8.5-4.2,13-5.4
				C35.7,10.2,36.1,10.4,36.2,11z"/>
		</g>
		<g>
			<path class="st1" d="M252.1,297.8c-1,1-2.2,1-3.3,0.8c-4.1-0.9-8.2-0.3-12.3-0.1c-2.8,0.1-5.6,0.9-8.4,0.8c-0.4,0-0.8,0-1.2,0
				c-0.4,0-0.9,0.1-0.8-0.6c0-0.6,0.6-0.6,0.9-0.6c4.7,0.3,9.3-0.5,13.9-1.1C244.8,296.5,248.3,298.1,252.1,297.8z"/>
		</g>
		<g>
			<path class="st1" d="M5.8,170.2c0.4-4.2-0.5-8.4,0.3-12.5c0.1-0.3,0-0.5,0.1-0.8c0.1-0.4,0.4-0.6,0.7-0.6c0.3,0,0.6,0.2,0.6,0.7
				c0,0.2,0,0.4,0,0.5C6.9,163,7,168.6,7,174.2c0,0.4,0.1,1-0.4,1.1c-0.6,0.1-0.8-0.5-0.8-1C5.8,172.9,5.8,171.6,5.8,170.2z"/>
		</g>
		<g>
			<path class="st1" d="M9.7,231.7c-0.4,5.1-0.6,9.5,0.1,14c0.4,2.1,1,4.2,1.8,6.1c0.2,0.5,0.4,1.1-0.2,1.4
				c-0.5,0.2-0.9-0.2-1.1-0.8c-0.9-2.6-1.6-5.2-2.1-8c-0.6-3.9,0.2-7.7,0-11.5c0-0.3,0.1-0.5,0.1-0.8c0.2-0.5,0.2-1.2,0.8-1
				C10,231.1,9.8,231.8,9.7,231.7z"/>
		</g>
		<g>
			<path class="st1" d="M310.4,180.8c0.6,0.3,0.9,0.8,0.8,1.2c-0.4,4.4,0,8.8-0.5,13.2c-0.1,1.3-0.1,2.7,0,4
				c0.1,0.7,0.1,1.4,0.1,2.2c0,0.4-0.3,0.6-0.6,0.7c-0.4,0.1-0.5-0.3-0.6-0.6c-0.3-1.1-0.4-2.3-0.3-3.5c0.5-4.7,0.6-9.5,0.6-14.2
				C309.9,182.8,310,181.8,310.4,180.8z"/>
		</g>
		<g>
			<path class="st1" d="M285.3,289.7c-0.3,1.3-1.3,1.7-2.1,2.2c-3.8,2.1-7.6,3.9-11.8,4.4c-1.7,0.2-3.4,0.6-5.1,1
				c-0.5,0.1-1,0.2-1.1-0.5c-0.1-0.8,0.6-0.6,1-0.6c5.7-1.3,11.5-2.2,16.7-5.5C283.6,290.1,284,288.8,285.3,289.7z"/>
		</g>
		<g>
			<path class="st1" d="M88.3,295.1c-4.2-1.4-8.3-1.1-12.4-1.2c-1.8-0.1-3.6-0.3-5.3-0.3c-1.3-0.1-2.7-0.4-3.3-1.9
				c0.2-0.5,0.6-0.6,0.9-0.5c2.9,1.2,5.9,1.2,8.8,1.4c3.1,0.2,6.3,0.6,9.4,0.9C87.2,293.4,87.9,293.5,88.3,295.1z"/>
		</g>
		<g>
			<path class="st1" d="M8.4,211.5c0.1,1,0.1,2,0.2,3c0,0.5-0.3,0.9-0.7,1c-0.4,0-0.6-0.4-0.7-0.9c-0.1-2.1-0.5-4.3-0.2-6.4
				c0.3-2.7,0.2-5.3,0.2-8c0-1-0.2-2.8,0.8-2.7c1.3,0.2,0.6,1.8,0.6,2.9C8.3,204.1,8.3,207.8,8.4,211.5z"/>
		</g>
		<g>
			<path class="st1" d="M8.3,90.2c-1.1-1.4-0.8-2.6-0.1-3.8c0.5-0.9,1-1.7,0.8-3c-0.5-2.8,0.3-5.6,0.6-8.4c0.1-0.9,0.9-1.7-0.4-2.4
				c-0.5-0.3,0.3-0.6,0.5-0.8c0.4-0.4,1-0.5,1.1,0.2c0.2,0.7,0.2,1.4,0.1,2.1c-0.4,2.8-1,5.6-0.6,8.5c0,0.3,0,0.5,0,0.8
				c0,0.4-0.1,0.7-0.2,1C9.3,86.3,8.6,88.1,8.3,90.2z"/>
		</g>
		<g>
			<path class="st1" d="M309.2,97.9c0.5,0.2,0.4,0.7,0.4,1.1c-0.2,1.2-0.6,2.4-0.6,3.7c-0.1,3.2,0.3,6.5-0.1,9.7c0,0.3,0,0.5,0,0.8
				c0,0.8-0.2,1.4-0.8,1.8c-0.3,0.2-0.5-0.1-0.6-0.2c-0.6-0.6-0.1-1.2-0.1-1.9c0.2-2.2,0.2-4.5,0.2-6.7c0-2.5,0.2-5,0.8-7.4
				C308.6,98.4,308.6,97.9,309.2,97.9z"/>
		</g>
		<g>
			<path class="st1" d="M303.3,59.2c0.7,2,0.7,3.6,0.6,5.1c-0.1,3.4,0.1,6.8,0.5,10.2c0,0.3,0.1,0.5,0.1,0.8c0,0.6-0.1,1.1-0.7,1.1
				c-0.5,0-0.6-0.4-0.7-0.9c-0.2-1.6-0.6-3.2-0.5-4.8c0.2-2.7-0.4-5.4,0.2-8C303,61.8,302.4,60.7,303.3,59.2z"/>
		</g>
		<g>
			<path class="st1" d="M7.8,112c-0.2,2.7,0.5,5.4,0.4,7.9c-0.1,3.3,0,6.6-0.4,9.9c-0.1,1-0.1,2-0.2,2.9c-0.1,0.6-0.3,1.1-0.9,0.9
				c-0.7-0.2-0.5-0.6-0.3-1.2c0.5-1.4,0.6-2.9,0.5-4.5c-0.2-3.9,0.3-7.9-0.4-11.8C6.3,114.7,7,113.3,7.8,112z"/>
		</g>
		<g>
			<path class="st1" d="M261.2,8.6c0.8-0.2,1.7,0.1,2.4,0.5c1.2,0.7,2.4,1,3.6,1.1c3.7,0.2,7.3,1.5,11,2.2c0.8,0.2,1.5,0.6,2.3,0.1
				c0.3-0.2,0.6-0.3,0.8,0.2c0.2,0.5,0,0.9-0.3,1.2c-0.4,0.4-0.9,0.3-1.3,0.1c-1.6-0.5-3.2-0.9-4.8-1.4c-2.4-0.8-5.1-1-7.6-1.3
				c-2-0.2-3.8-0.8-5.6-1.8C261.3,9.4,261.1,9.1,261.2,8.6z"/>
		</g>
		<g>
			<path class="st1" d="M106.1,10.6c1.5-1.1,3.1-0.8,4.6-0.8c3.4,0,6.8-0.8,10.2-0.4c0.6,0.1,1.3-0.1,1.9-0.3c0.7-0.2,1.1,0,1.1,0.8
				c0,0.8-0.5,0.7-1,0.7c-1.4-0.1-2.9-0.1-4.3-0.1c-3,0-6,0.3-8.9,0.8C108.4,11.7,107.3,10.6,106.1,10.6z"/>
		</g>
		<g>
			<path class="st1" d="M167.1,7.9c-0.7,0.9-1.5,0.6-2.3,0.6c-2.9,0-5.7,0.1-8.6,0c-2.4-0.1-4.7,0.7-7.1,0.5c-0.5,0-0.9,0-1.4-0.1
				c-0.1,0-0.2-0.2-0.3-0.4c-0.1-0.3,0-0.5,0.2-0.7c0.3-0.1,0.6-0.4,0.9-0.3c2.7,0.6,5.4-0.5,8-0.2c3.1,0.4,6.2,0,9.2,0
				C166.2,7.3,166.6,7.3,167.1,7.9z"/>
		</g>
		<g>
			<path class="st1" d="M297.3,40.5c-0.8-1-1.1-2.3-1.6-3.5c-1-2.5-2-5-3.4-7.4c-0.5-1-1.3-2.1-0.7-3.4c0.5-0.2,0.7,0.2,0.8,0.5
				c1,2.8,2.6,5.1,3.7,7.8c0.7,1.6,0.8,3.4,1.6,5C298.1,39.8,297.7,40.2,297.3,40.5z"/>
		</g>
		<g>
			<path class="st1" d="M239.7,7.5c-0.5,0.5-1.1,0.4-1.6,0.2c-3.1-1.3-6-0.2-9,0.3c-2.1,0.4-4.2,0.4-6.2-0.3
				c-0.4-0.1-0.8-0.3-0.7-0.8c0.1-0.4,0.5-0.4,0.8-0.4c3.5,0.5,6.9,0.2,10.4-0.4c1.9-0.4,3.8,0.2,5.7,0.4
				C239.4,6.6,239.7,7,239.7,7.5z"/>
		</g>
		<g>
			<path class="st1" d="M309,141.8c0,0.1,0,0.4-0.1,0.6c-0.8,2.2-0.7,4.6-1,6.8c-0.3,2.1-0.2,4.1,0.3,6.1c0.2,0.7,0.2,1.2-0.3,1.7
				c-0.3,0.3-0.6,0.2-0.9,0c-0.6-0.4-0.6-0.9-0.5-1.6c0.4-2.6-0.1-5.2,0.1-7.8c0.2-2.2,1-4.1,1.3-6.3c0-0.2,0.3-0.5,0.5-0.3
				C308.9,141.2,309,141.4,309,141.8z"/>
		</g>
		<g>
			<path class="st1" d="M11.1,48.5c0.3-2.3,0.5-4.3,0.9-6.2c0.5-2.2,0.8-4.4,0.7-6.6c0-0.7-0.1-1.4,0.2-2.1c0.2-0.5,0.5-1,1.1-0.8
				c0.7,0.2,0.4,0.8,0.3,1.3c-0.6,4.6-1.2,9.2-1.8,13.8c0,0.2,0.1,0.4,0,0.5c-0.2,0.5-0.5,0.9-1.1,0.8C10.8,49,11.1,48.5,11.1,48.5z
				"/>
		</g>
		<g>
			<path class="st1" d="M55.3,10.1c1.4,0,2.8-0.1,4.2,0.4c0.6,0.2,1.4,0.2,2.1-0.2c0.8-0.5,1.7-0.2,2.6-0.4c0.7-0.2,1.2,0.2,1.2,0.9
				c0,0.6-0.6,0.8-1.3,0.8c-3.5-0.1-6.9-0.1-10.4-0.1c-0.5,0-1,0-1.4-0.2c-0.3-0.1-0.5-0.4-0.4-0.8c0-0.3,0.3-0.4,0.5-0.4
				C53.4,10.1,54.3,10.1,55.3,10.1z"/>
		</g>
		<g>
			<path class="st1" d="M201.1,8.5c-3.5,0.1-6.9,0.7-10.3,1.3c-0.2,0-0.5,0.1-0.7,0c-0.7-0.4-2.2-0.1-2.2-1.1
				c0.1-1.5,1.4-0.6,2.1-0.5c3.3,0.2,6.6-0.5,9.9-0.7c1.3-0.1,2.7,0.2,4-0.1c0.3-0.1,0.6,0.1,0.6,0.6c0,0.5-0.4,0.6-0.7,0.6
				C203,8.5,202,8.5,201.1,8.5z"/>
		</g>
		<g>
			<path class="st1" d="M84.5,10.5c-1-0.2-2.4,0.2-3.8,0.1c-0.5,0-1.3,0.3-1.4-0.5c-0.1-0.9,0.7-0.6,1.2-0.7
				c1.9-0.4,3.7-0.4,5.6-0.1c2.1,0.3,4.3,0.3,6.4-0.1C93,9,93.6,8.9,93.7,9.6c0.1,0.7-0.5,0.6-1,0.7C90.1,10.5,87.5,10.7,84.5,10.5z
				"/>
		</g>
		<g>
			<path class="st1" d="M300.7,275.4c0.4-1.5,1.6-2.4,2.2-3.7c0.9-1.7,1.3-3.6,2.1-5.4c0.3-0.5,0.4-1.2,1.4-1.1
				c-1,4.2-2.1,8.1-5.3,10.8C301,275.8,300.9,275.6,300.7,275.4z"/>
		</g>
		<g>
			<path class="st1" d="M300.7,275.4c0.2,0.2,0.3,0.4,0.5,0.6c-0.9,1.3-2.4,1.6-3.5,2.6c-0.2,0.1-0.5,0.2-0.6-0.1
				c-0.2-0.4-0.1-0.8,0.2-0.9C298.5,277,299.3,275.7,300.7,275.4z"/>
		</g>
	</g>
	<g>
		<path class="st2" d="M49.7,56.3c3.1,0,5.3,1.9,6.7,5.6c0.2,0.4,0.3,0.9,0.3,1.6c0,0.8-0.5,1.2-1.5,1.3c-0.8,0-1.4-1-1.6-3.1
			c-1.1-1.8-2.2-2.7-3.6-2.7h-0.7c-1.9,0-3,1.9-3.4,5.6v0.1c0,4.5,2.9,11.3,8.6,20.4c1.8,3.5,2.7,6.4,2.7,8.7c0,3.2-1.6,5.7-4.9,7.4
			l-1.6,0.3c-2.9,0-5.6-2-8.2-5.9c-0.5-0.9-0.8-1.8-0.8-2.8c0-1.6,0.5-2.5,1.6-2.7h0.4c0.7,0.5,1,0.9,1,1.3l-0.3,1.4V93
			c0,2,1.7,3.9,5,5.6l0.9,0.2h0.4c1.6,0,2.8-1.4,3.6-4.2v-0.6c0-3.3-2.2-8.3-6.5-14.8c-3.1-6.2-4.7-11-4.7-14.5
			c0-3.9,1.5-6.7,4.5-8.2L49.7,56.3z"/>
		<path class="st2" d="M62.3,58.4c0.5,0,0.9,0.4,1.3,1.2c-0.2,0.3-0.4,1-0.4,1.9l0,0.6l0.3,18.5c-0.2,8.4-0.1,14.5,0.3,18.4l0.1,0.4
			c-0.3,0.6-0.7,0.9-1.4,0.8c-1.4-0.1-2-2-1.7-5.8c-0.2-2.1-0.3-11.5-0.3-28.5c-0.2-1-0.2-2.4-0.1-4.1v-0.2
			C60.5,59.4,61.2,58.3,62.3,58.4z"/>
		<path class="st2" d="M72.2,83.2c1.8,0,2.9,1.6,3.6,4.7c-0.8,3.5-2.5,5.3-5,5.3h-0.2v0.1c0.5,2.8,1.8,4.3,4,4.3c1.7,0,3-1.4,4-4.3
			l1-0.4c0.7,0,1.1,0.5,1.3,1.6c0,1.9-1.5,3.8-4.5,5.5l-2.2,0.4c-2.7,0-4.7-1.9-6-5.8c-0.4-1.5-0.6-2.8-0.6-3.8v-0.6
			c0-3.2,1.3-5.5,4-6.9L72.2,83.2z M70.5,89.1L70.5,89.1l1,1.2c0.5,0,0.9-0.6,1.3-1.9v-0.8c-0.2-1-0.4-1.5-0.6-1.5h-0.3
			C71.5,86.1,71,87.1,70.5,89.1z"/>
		<path class="st2" d="M87.3,83.2c1.8,0,2.9,1.6,3.6,4.7c-0.8,3.5-2.5,5.3-5,5.3h-0.2v0.1c0.5,2.8,1.8,4.3,4,4.3c1.7,0,3-1.4,4-4.3
			l1-0.4c0.7,0,1.1,0.5,1.3,1.6c0,1.9-1.5,3.8-4.5,5.5l-2.2,0.4c-2.7,0-4.7-1.9-6-5.8c-0.4-1.5-0.6-2.8-0.6-3.8v-0.6
			c0-3.2,1.3-5.5,4-6.9L87.3,83.2z M85.6,89.1L85.6,89.1l1,1.2c0.5,0,0.9-0.6,1.3-1.9v-0.8c-0.2-1-0.4-1.5-0.6-1.5H87
			C86.6,86.1,86.1,87.1,85.6,89.1z"/>
		<path class="st2" d="M105.3,82.6c3.2,0,5.8,2.5,8.1,7.5l0.7,3.1c0,3.8-2.5,6-7.4,6.7h-0.3c-1.1,0-2.1-0.3-3-0.9h-0.5
			c0.5,12.9,0.7,21.6,0.7,26.1c-0.3,1.1-0.8,1.6-1.5,1.6c-1,0-1.5-0.8-1.5-2.4v-0.6c0-4.8-0.2-13.2-0.5-25.2
			c-0.4-5.3-0.6-9.4-0.6-12.2v-1c0-1.6,0.5-2.4,1.5-2.4h0.7c0.6,0.3,0.8,0.8,0.8,1.3c1-1,1.7-1.5,2.2-1.5L105.3,82.6z M103.5,90.4
			c-0.6,4.4,0.3,6.6,2.5,6.6h0.8c2.5,0,4-1.2,4.5-3.6v-0.4c0-2.1-1.1-4.2-3.3-6.5c-0.9-0.8-1.7-1.2-2.5-1.2
			C104.4,85.3,103.7,87,103.5,90.4z"/>
		<path class="st2" d="M130.2,54.5c0.7,0,1.1,0.5,1.2,1.6v2.6c0,6.3,0,14.8-0.1,25.3c1.2-1.2,2.2-1.7,3.2-1.7c2.5,0,4.2,2.8,4.9,8.2
			c0.1,4.1,0.3,7.6,0.7,10.6c0,0.5-0.5,1-1.5,1.5c-1.1-0.5-1.6-1.1-1.6-1.7l0.2-0.1v-0.2c-0.5-9.4-1-14.2-1.5-14.2
			c-0.4-0.8-0.7-1.2-1-1.3h-0.5c-1.6,1.4-2.3,3-2.3,5l0.1,10.1c-0.4,0.9-0.9,1.4-1.5,1.4c-1,0-1.7-1.4-2-4.3
			c0.2-1.9,0.3-3.5,0.3-4.9v-0.1l-0.1-0.1l0.1-0.1v-1.2l0.3-21.4c-0.4-3.5-0.6-6.9-0.6-10.3v-2.8C128.7,55.1,129.2,54.5,130.2,54.5z
			"/>
		<path class="st2" d="M146.8,83.2c1.8,0,2.9,1.6,3.6,4.7c-0.8,3.5-2.5,5.3-5,5.3h-0.2v0.1c0.5,2.8,1.8,4.3,4,4.3c1.7,0,3-1.4,4-4.3
			l1-0.4c0.7,0,1.1,0.5,1.3,1.6c0,1.9-1.5,3.8-4.5,5.5l-2.2,0.4c-2.7,0-4.7-1.9-6-5.8c-0.4-1.5-0.6-2.8-0.6-3.8v-0.6
			c0-3.2,1.3-5.5,4-6.9L146.8,83.2z M145.1,89.1L145.1,89.1l1,1.2c0.5,0,0.9-0.6,1.3-1.9v-0.8c-0.2-1-0.4-1.5-0.6-1.5h-0.3
			C146.1,86.1,145.6,87.1,145.1,89.1z"/>
		<path class="st2" d="M161.9,59c1,0,1.4,3,1.3,9c-0.1,6-0.2,10.3-0.2,12.8h0.1l2.8-0.4c0.9,0.1,1.4,0.6,1.4,1.4c0,1.1-1,1.6-3,1.6
			l-1.2,0.4l0.4,15.7c-0.1,1.1-0.6,1.6-1.5,1.6c-1,0-1.5-0.7-1.5-2.2v-3.7l-0.1-10.5l-0.2-0.5l-2.1,0.1c-0.9-0.2-1.3-0.7-1.3-1.5
			c0-1,1.1-1.5,3.2-1.5v-0.2c0-4,0.1-11,0.2-21C160.4,59.6,160.9,59.1,161.9,59z"/>
		<path class="st2" d="M49.7,117c2.2,0,3.7,1.9,4.3,5.6l0.1,0.5h0.1c0,0.8-0.6,1.2-1.8,1.3c-0.7,0-1.3-1.3-1.9-4l-0.8-0.6h-0.1
			c-1.7,0-2.5,3.8-2.5,11.4l0.4,10.1H49c1.6,0,2.4,0.5,2.4,1.6c0,0.6-0.4,1-1.3,1.2h-2.1v0.1c0.3,7.3,0.7,11.8,1,13.5
			c-0.3,1-0.7,1.5-1.3,1.5c-1.4,0-2.1-2.5-2.1-7.5l-0.6-7.5l-1.5,0.1h-1.7c-0.8,0-1.2-0.5-1.3-1.5c0-0.9,0.7-1.4,2.2-1.4h1.5
			l0.8-0.2l-0.5-10.9C44.4,121.5,46.2,117,49.7,117z"/>
		<path class="st2" d="M59.3,141.3c2.7,1,4.1,3.9,4.3,8.9v0.3c-0.1,4.2-1.2,6.7-3.2,7.6l-1.3,0.2c-3.3-0.8-5-3.3-5-7.5v-0.1
			c0-4.6,1.5-7.6,4.4-9.1L59.3,141.3z M56.8,150.2v1c0.3,2.9,1.2,4.4,2.7,4.4c0.8-0.9,1.3-2.7,1.3-5.4V150c-0.2-3.3-0.7-5.2-1.6-5.5
			C57.6,145.2,56.8,147.1,56.8,150.2z"/>
		<path class="st2" d="M70.4,116.6c1,0,1.4,3,1.3,9c-0.1,6-0.2,10.3-0.2,12.8h0.1l2.8-0.4c0.9,0.1,1.4,0.6,1.4,1.4
			c0,1.1-1,1.6-3,1.6l-1.2,0.4l0.4,15.7c-0.1,1.1-0.6,1.6-1.5,1.6c-1,0-1.5-0.7-1.5-2.2v-3.7l-0.1-10.5l-0.2-0.5l-2.1,0.1
			c-0.9-0.2-1.3-0.7-1.3-1.5c0-1,1.1-1.5,3.2-1.5v-0.2c0-4,0.1-11,0.2-21C68.9,117.2,69.4,116.7,70.4,116.6z"/>
		<path class="st2" d="M83.5,141.3c2.7,1,4.1,3.9,4.3,8.9v0.3c-0.1,4.2-1.2,6.7-3.2,7.6l-1.3,0.2c-3.3-0.8-5-3.3-5-7.5v-0.1
			c0-4.6,1.5-7.6,4.4-9.1L83.5,141.3z M81,150.2v1c0.3,2.9,1.2,4.4,2.7,4.4c0.8-0.9,1.3-2.7,1.3-5.4V150c-0.2-3.3-0.7-5.2-1.6-5.5
			C81.8,145.2,81,147.1,81,150.2z"/>
		<path class="st2" d="M91.3,114.9c1,0.2,1.5,0.6,1.5,1.3l-0.3,2.7v0.7c0.5,11.6,1.2,19.2,2.1,23l0.1,0.2h0.2c0.8-0.8,1.8-1.3,3-1.5
			c3.5,1,5.2,3.5,5.2,7.6v1.2c-0.2,4.8-1.7,7.7-4.5,8.9l-1.1,0.1H97l-0.2-0.1l-0.4,0.1v0.8c0,0.5-0.3,0.9-0.9,1.2h-0.6
			c-1,0-1.5-1.1-1.5-3.2c-0.2-1.3-0.6-2.6-1.3-3.8v-0.4l0.4-0.8l-0.3-2.9l0.2-1.6c-1.8-13.7-2.7-23.4-2.7-29.1
			C89.7,116.3,90.2,114.9,91.3,114.9z M95.4,148.5c0,5.1,0.5,7.6,1.6,7.6l0.2,0.2H98c1.6-1.2,2.3-3.4,2.3-6.6c0-2.6-0.7-4.4-2.1-5.3
			h-1C96,145.2,95.4,146.6,95.4,148.5z"/>
		<path class="st2" d="M110,140.8c1.8,0,2.9,1.6,3.6,4.7c-0.8,3.5-2.5,5.3-5,5.3h-0.2v0.1c0.5,2.8,1.8,4.3,4,4.3c1.7,0,3-1.4,4-4.3
			l1-0.4c0.7,0,1.1,0.5,1.3,1.6c0,1.9-1.5,3.8-4.5,5.5l-2.2,0.4c-2.7,0-4.7-1.9-6-5.8c-0.4-1.5-0.6-2.8-0.6-3.8v-0.6
			c0-3.2,1.3-5.5,4-6.9L110,140.8z M108.2,146.7L108.2,146.7l1,1.2c0.5,0,0.9-0.6,1.3-1.9v-0.8c-0.2-1-0.4-1.5-0.6-1.5h-0.3
			C109.2,143.7,108.7,144.7,108.2,146.7z"/>
		<path class="st2" d="M126.7,139.7c1.6,0,2.6,0.7,3,2.1c0,0.7-0.4,1.1-1.3,1.2h-0.4c-0.4-0.3-0.8-0.4-1.1-0.4h-0.4
			c-2.1,0.9-3.1,2.2-3.1,3.9v0.4c0.2,1,0.6,1.5,1.5,1.5h0.4l3.2-0.6c1.6,0.2,2.4,1,2.4,2.3c0,2-1.2,4.2-3.7,6.5
			c-1.2,0.9-2.3,1.3-3.5,1.3c-2.2-0.5-3.2-1.4-3.2-2.7c0.3-0.8,0.8-1.2,1.6-1.2l1.5,1h0.8c2.3-0.9,3.4-2.3,3.4-4.3l-0.2-0.2
			c-0.8,0.3-1.7,0.4-2.6,0.4c-2.3,0-3.7-1.5-4.3-4.5c0-2.7,1.5-4.9,4.5-6.7L126.7,139.7z"/>
		<path class="st2" d="M137.2,116.6c1,0,1.4,3,1.3,9c-0.1,6-0.2,10.3-0.2,12.8h0.1l2.8-0.4c0.9,0.1,1.4,0.6,1.4,1.4
			c0,1.1-1,1.6-3,1.6l-1.2,0.4l0.4,15.7c-0.1,1.1-0.6,1.6-1.5,1.6c-1,0-1.5-0.7-1.5-2.2v-3.7l-0.1-10.5l-0.2-0.5l-2.1,0.1
			c-0.9-0.2-1.3-0.7-1.3-1.5c0-1,1.1-1.5,3.2-1.5v-0.2c0-4,0.1-11,0.2-21C135.7,117.2,136.2,116.7,137.2,116.6z"/>
		<path class="st2" d="M152.5,141.8l2.8,0.5v-0.1c0.7,0,1.2,0.5,1.6,1.6l-0.1,3v2.1c0,3,0.4,5.3,1.3,6.8c-0.3,0.8-0.7,1.2-1.5,1.2
			c-1,0-1.8-1.2-2.2-3.6l-0.1-0.8h-0.4c-1.1,2.7-2.7,4.4-4.8,5.3l-0.7,0.2c-2.7-0.8-4-2.7-4-5.9v-0.3c0-4,1.9-7.1,5.8-9.5
			L152.5,141.8z M147.1,152.6c0.2,1.6,0.7,2.3,1.5,2.3h0.1c1.1,0,2.8-3.3,5.2-9.9v-0.1l-1.4-0.3h-0.1c-2.5,0-4.3,2.2-5.3,6.5V152.6z
			"/>
		<path class="st2" d="M168,140.9c3.2,0.3,4.4,4,3.8,11.4l-0.4,4.2c-0.2,1.1-0.7,1.7-1.6,1.6c-0.8-0.1-1.2-0.6-1.1-1.7l0.3-4.5
			c0.4-5.3,0-8.1-1.4-8.2c-1.5-0.1-2.5,2.7-3.2,8.3l0.2,5.1c-0.1,0.7-0.6,1-1.6,1c-1.2-0.1-1.6-1.8-1.3-5l-1.1-10.7
			c0.1-0.7,0.6-1.1,1.7-1.2c0.7,0,1,0.7,1.2,2.1l0.2,0C165.1,141.6,166.5,140.8,168,140.9z"/>
		<path class="st2" d="M183.5,117.6c0.4,0,0.8,0.3,1.2,0.8v3.5c0,10.4,0.8,21.6,2.5,33.7l1,3.1c-0.2,0.8-0.7,1.2-1.5,1.2
			c-1,0-1.7-1.2-2.1-3.5h-0.3c-1.2,1.1-2.3,1.6-3.4,1.6c-2.6,0-4.5-1.7-5.7-5c-0.4-1.1-0.6-2.4-0.6-3.9c0-3.6,1.2-6,3.6-7.4l1-0.1
			h0.1c0.9,0,2.1,0.4,3.4,1.3h0.2v-0.1c-0.7-8.1-1-14.7-1-19.8v-3.1C182,118.4,182.5,117.6,183.5,117.6z M177.5,149v1.1
			c0,2.3,0.8,4,2.5,5l1,0.1c1.5,0,2.2-1.5,2.2-4.4v-1.3c0-2.7-1.4-4.3-4.1-5C178,145.1,177.5,146.6,177.5,149z"/>
		<path class="st2" d="M213.6,113.6c0.9,0,1.4,0.6,1.4,1.8v3c0,4.1,1.3,16.4,3.8,36.9v0.8c0,1.5-0.5,2.2-1.5,2.2
			c-0.9-0.1-1.3-0.6-1.3-1.3v-1c0-1.8-0.8-8.4-2.4-19.6c-4.3,0.3-6.5,0.6-6.5,1l0.1,0.2v0.1c0.4,6.5,0.6,12.4,0.6,17.7v3.8
			c0,1.4-0.5,2.2-1.6,2.2c-0.7,0-1.1-0.5-1.2-1.6V156c0-6.2-0.2-12.3-0.6-18.1h-0.3c-0.8,0-1.4-0.3-1.8-1v-0.8
			c0.5-0.8,1.1-1.1,1.8-1.2c0-2.4-0.8-8.7-2.4-19c0-0.8,0.6-1.2,1.8-1.4c0.8,0,1.4,2.3,1.8,6.8c0.4,2,0.9,6.2,1.6,12.7h0.2l6.3-0.6
			c-1-8-1.5-13.8-1.5-17.3C212,114.5,212.5,113.6,213.6,113.6z"/>
		<path class="st2" d="M228.9,113.5h0.1c2.5,0.1,3.7,0.4,3.7,1v0.9c-0.2,0.5-0.6,0.8-1.2,1l-2.1-0.1h-1v0.1
			c0.4,25.1,1.1,37.6,2.1,37.6l5-0.7c0.7,0.3,1,0.8,1,1.3v0.1c0,1-1.9,1.7-5.8,2c-2.6,0.5-4.5,0.7-5.9,0.7c-0.7-0.3-1-0.7-1-1.4
			c0-1.1,1.2-1.6,3.5-1.6v-0.2c-0.8-5.1-1.4-17.7-1.7-37.8h-0.2l-4.3,0.8c-0.8-0.3-1.2-0.9-1.2-1.6c0-0.9,2-1.5,5.9-1.9
			C225.9,113.7,226.9,113.5,228.9,113.5z"/>
		<path class="st2" d="M241.7,112.6c0.8,0,1.2,0.6,1.4,1.8h-0.1l0.1,0.5c1.1,0,4-0.3,8.9-1c0.8,0.3,1.2,0.8,1.2,1.5
			c0,1-2.1,1.6-6.3,1.9l-4.1,0.6v2.1c0,1.5,0.6,7.4,1.8,17.9h6c0.8,0,1.3,0.5,1.5,1.4c0,1-0.7,1.5-2.2,1.5h-5.3v0.2l-0.1,9.7
			c0,2.3,0.2,4,0.7,5.1l9.3-0.6c1,0.1,1.5,0.6,1.5,1.3c0,1-1.1,1.5-3.3,1.5c-5.6,0.3-8.4,0.6-8.4,0.9c-1.1,0-1.9-1.7-2.3-5.2
			l-0.2-3.6l0.1-10.6l-1.7-19.4v-1.5c0-3.9,0.6-5.8,1.7-5.8H241.7z"/>
		<path class="st2" d="M268.2,112.5c2.8,0.3,4.5,2.8,5.1,7.7v2c-0.4,3.9-2.3,7.8-5.9,11.8c0.7,1.5,2.1,6.2,4.3,14.2l3.9,9
			c-0.4,0.8-0.9,1.2-1.6,1.1c-0.8,0-2.2-2.5-3.9-7.3c-1.2-2.4-2.6-6.8-4-13.3c-0.4-1.1-0.7-1.7-0.9-1.7l-3.1,1.6
			c0.1,6.8,0.3,13.3,0.8,19.4c-0.1,0.5-0.5,1-1.2,1.4l-0.5,0c-0.9-0.1-1.3-1-1.3-2.9c-0.8-17.1-1-29.1-0.3-36
			c-0.6-0.6-0.9-1.1-0.8-1.7c0-0.2,0.4-0.6,1-1.3c0.1-1.3,0.6-1.9,1.6-1.7l0.7,0.3C264.7,113.2,266.7,112.3,268.2,112.5z
			 M262.3,118.3c-0.3,6.8-0.5,12.2-0.3,16l0.4,0c3.1-1.4,5.6-4.8,7.6-10.1l0.3-2l0-0.4c0.3-2.8-0.4-5-1.9-6.4l-0.8,0
			C266.7,115.2,264.9,116.2,262.3,118.3z"/>
		<path class="st2" d="M49.3,198.5c3.2,0.3,4.4,4,3.8,11.4l-0.4,4.2c-0.2,1.1-0.7,1.7-1.6,1.6c-0.8-0.1-1.2-0.6-1.1-1.7l0.3-4.5
			c0.4-5.3,0-8.1-1.4-8.2c-1.5-0.1-2.5,2.7-3.2,8.3l0.2,5.1c-0.1,0.7-0.6,1-1.6,1c-1.2-0.1-1.6-1.8-1.3-5L41.9,200
			c0.1-0.7,0.6-1.1,1.7-1.2c0.7,0,1,0.7,1.2,2.1l0.2,0C46.4,199.2,47.8,198.4,49.3,198.5z"/>
		<path class="st2" d="M63.9,199.4l2.8,0.5v-0.1c0.7,0,1.2,0.5,1.6,1.6l-0.1,3v2.1c0,3,0.4,5.3,1.3,6.8c-0.3,0.8-0.7,1.2-1.5,1.2
			c-1,0-1.8-1.2-2.2-3.6l-0.1-0.8h-0.4c-1.1,2.7-2.7,4.4-4.8,5.3l-0.7,0.2c-2.7-0.8-4-2.7-4-5.9v-0.3c0-4,1.9-7.1,5.8-9.5
			L63.9,199.4z M58.5,210.2c0.2,1.6,0.7,2.3,1.5,2.3h0.1c1.1,0,2.8-3.3,5.2-9.9v-0.1l-1.4-0.3h-0.1c-2.5,0-4.3,2.2-5.3,6.5V210.2z"
			/>
		<path class="st2" d="M79,199.4l2.8,0.5v-0.1c0.7,0,1.2,0.5,1.6,1.6l-0.1,3v2.1c0,3,0.4,5.3,1.3,6.8c-0.3,0.8-0.7,1.2-1.5,1.2
			c-1,0-1.8-1.2-2.2-3.6l-0.1-0.8h-0.4c-1.1,2.7-2.7,4.4-4.8,5.3l-0.7,0.2c-2.7-0.8-4-2.7-4-5.9v-0.3c0-4,1.9-7.1,5.8-9.5L79,199.4z
			 M73.6,210.2c0.2,1.6,0.7,2.3,1.5,2.3h0.1c1.1,0,2.8-3.3,5.2-9.9v-0.1l-1.4-0.3H79c-2.5,0-4.3,2.2-5.3,6.5V210.2z"/>
		<path class="st2" d="M87,196.3c0.8,0,1.5,1,1.9,3H89c1.2-1.4,2.5-2.1,3.8-2.1c2.2,0.4,3.4,1.1,3.4,2.1c-0.3,0.9-0.8,1.3-1.5,1.3
			l-1.8-0.6h-0.5c-1.8,0.3-2.8,4.1-2.8,11.4v2.2c-0.2,1-0.6,1.5-1.3,1.5c-1,0-1.5-0.6-1.5-1.8v-5.4c0-4-0.5-7.5-1.5-10.5
			C85.7,196.6,86.2,196.3,87,196.3z"/>
		<path class="st2" d="M102.5,174.2c1,0,1.4,3,1.3,9c-0.1,6-0.2,10.3-0.2,12.8h0.1l2.8-0.4c0.9,0.1,1.4,0.6,1.4,1.4
			c0,1.1-1,1.6-3,1.6l-1.2,0.4l0.4,15.7c-0.1,1.1-0.6,1.6-1.5,1.6c-1,0-1.5-0.7-1.5-2.2v-3.7l-0.1-10.5l-0.2-0.5l-2.1,0.1
			c-0.9-0.2-1.3-0.7-1.3-1.5c0-1,1.1-1.5,3.2-1.5v-0.2c0-4,0.1-11,0.2-21C101,174.8,101.5,174.3,102.5,174.2z"/>
		<path class="st2" d="M115.6,198.9c2.7,1,4.1,3.9,4.3,8.9v0.3c-0.1,4.2-1.2,6.7-3.2,7.6l-1.3,0.2c-3.3-0.8-5-3.3-5-7.5v-0.1
			c0-4.6,1.5-7.6,4.4-9.1L115.6,198.9z M113,207.8v1c0.3,2.9,1.2,4.4,2.7,4.4c0.8-0.9,1.3-2.7,1.3-5.4v-0.3
			c-0.2-3.3-0.7-5.2-1.6-5.5C113.8,202.8,113,204.7,113,207.8z"/>
		<path class="st2" d="M126.7,198.4c1.8,0,2.9,1.6,3.6,4.7c-0.8,3.5-2.5,5.3-5,5.3h-0.2v0.1c0.5,2.8,1.8,4.3,4,4.3
			c1.7,0,3-1.4,4-4.3l1-0.4c0.7,0,1.1,0.5,1.3,1.6c0,1.9-1.5,3.8-4.5,5.5l-2.2,0.4c-2.7,0-4.7-1.9-6-5.8c-0.4-1.5-0.6-2.8-0.6-3.8
			v-0.6c0-3.2,1.3-5.5,4-6.9L126.7,198.4z M125,204.3L125,204.3l1,1.2c0.5,0,0.9-0.6,1.3-1.9v-0.8c-0.2-1-0.4-1.5-0.6-1.5h-0.3
			C126,201.3,125.5,202.3,125,204.3z"/>
		<path class="st2" d="M141.9,212.1c0.7,0,1.2,0.5,1.5,1.4c0,0.7-0.5,1.2-1.6,1.8c-0.8,0-1.3-0.5-1.5-1.6
			C140.8,212.6,141.3,212.1,141.9,212.1z"/>
	</g>
</g>
</svg>
