<?xml version="1.0" encoding="UTF-8" standalone="no"?>
<!-- Generator: Adobe Illustrator 15.0.2, SVG Export Plug-In . SVG Version: 6.00 Build 0)  -->

<svg
   xmlns:dc="http://purl.org/dc/elements/1.1/"
   xmlns:cc="http://creativecommons.org/ns#"
   xmlns:rdf="http://www.w3.org/1999/02/22-rdf-syntax-ns#"
   xmlns:svg="http://www.w3.org/2000/svg"
   xmlns="http://www.w3.org/2000/svg"
   xmlns:sodipodi="http://sodipodi.sourceforge.net/DTD/sodipodi-0.dtd"
   xmlns:inkscape="http://www.inkscape.org/namespaces/inkscape"
   version="1.1"
   id="Laag_1"
   x="0px"
   y="0px"
   width="123.30713"
   height="36.444328"
   viewBox="0 0 123.30713 36.444328"
   enable-background="new 0 0 612 792"
   xml:space="preserve"
   inkscape:version="0.48.5 r10040"
   sodipodi:docname="english.svg"><metadata
     id="metadata193"><rdf:RDF><cc:Work
         rdf:about=""><dc:format>image/svg+xml</dc:format><dc:type
           rdf:resource="http://purl.org/dc/dcmitype/StillImage" /></cc:Work></rdf:RDF></metadata><defs
     id="defs191" /><sodipodi:namedview
     pagecolor="#ffffff"
     bordercolor="#666666"
     borderopacity="1"
     objecttolerance="10"
     gridtolerance="10"
     guidetolerance="10"
     inkscape:pageopacity="0"
     inkscape:pageshadow="2"
     inkscape:window-width="856"
     inkscape:window-height="616"
     id="namedview189"
     showgrid="false"
     fit-margin-top="0"
     fit-margin-left="0"
     fit-margin-right="0"
     fit-margin-bottom="0"
     inkscape:zoom="1.1919192"
     inkscape:cx="156.21284"
     inkscape:cy="30.263745"
     inkscape:window-x="0"
     inkscape:window-y="0"
     inkscape:window-maximized="0"
     inkscape:current-layer="Laag_1" /><g
     id="g3"
     transform="translate(-246.56129,-362.98735)"
     style="fill:#d40000"><path
       clip-rule="evenodd"
       d="m 293.08,364.04 c -0.454,-0.027 -0.167,-0.793 -0.72,-0.72 -0.492,0.878 0.294,1.099 0.96,1.44 0.106,0.454 -0.326,1.447 0.48,1.2 -0.964,0.556 -2.957,0.083 -4.32,0.24 0.264,-0.856 1.021,-1.219 1.2,-2.16 -0.699,0.964 -2.095,-0.244 -1.68,-0.96 2.018,0.267 3.647,-0.406 4.8,0.48 -0.054,0.346 -0.717,0.084 -0.72,0.48 z"
       id="path5"
       inkscape:connector-curvature="0"
       style="fill-rule:evenodd;fill:#d40000" /><path
       clip-rule="evenodd"
       d="m 297.88,363.08 c -0.472,1.208 -1.529,1.83 -1.68,3.36 -0.279,-0.201 -0.644,-0.316 -1.2,-0.24 -0.047,-0.927 -0.009,-1.769 0.24,-2.4 -1.041,-0.161 -0.553,1.208 -1.68,0.96 -0.032,-2.032 2.304,-1.696 4.32,-1.68 z m -1.44,1.2 c 0.16,0 0.32,0 0.48,0 0.269,-0.345 0.259,-0.585 -0.24,-0.72 -0.013,0.307 -0.307,0.333 -0.24,0.72 z m -1.2,0.96 c 0.16,0 0.32,0 0.48,0 0,-0.16 0,-0.32 0,-0.48 -0.16,0 -0.32,0 -0.48,0 0,0.16 0,0.32 0,0.48 z"
       id="path7"
       inkscape:connector-curvature="0"
       style="fill-rule:evenodd;fill:#d40000" /><path
       clip-rule="evenodd"
       d="m 299.56,363.08 c -0.105,0.295 -0.307,0.493 -0.72,0.48 -0.112,-0.512 0.343,-0.457 0.72,-0.48 z"
       id="path9"
       inkscape:connector-curvature="0"
       style="fill-rule:evenodd;fill:#d40000" /><path
       clip-rule="evenodd"
       d="m 296.68,363.56 c 0.499,0.134 0.508,0.375 0.24,0.72 -0.16,0 -0.32,0 -0.48,0 -0.067,-0.387 0.227,-0.413 0.24,-0.72 z"
       id="path11"
       inkscape:connector-curvature="0"
       style="fill:#d40000;fill-rule:evenodd" /><path
       clip-rule="evenodd"
       d="m 305.56,363.8 c 0.24,0 0.48,0 0.72,0 0.067,0.388 -0.228,0.414 -0.24,0.72 -0.16,0 -0.32,0 -0.48,0 0,-0.24 0,-0.48 0,-0.72 z"
       id="path13"
       inkscape:connector-curvature="0"
       style="fill:#d40000;fill-rule:evenodd" /><path
       clip-rule="evenodd"
       d="m 254.44,364.04 c 0,0.32 0,0.64 0,0.96 -0.561,-0.079 -0.992,-0.289 -1.44,-0.48 0.221,-0.419 0.75,-0.53 1.44,-0.48 z"
       id="path15"
       inkscape:connector-curvature="0"
       style="fill:#d40000;fill-rule:evenodd" /><path
       clip-rule="evenodd"
       d="m 330.52,364.04 c -0.125,1.806 -1.852,0.08 0,0 l 0,0 z"
       id="path17"
       inkscape:connector-curvature="0"
       style="fill:#d40000;fill-rule:evenodd" /><path
       clip-rule="evenodd"
       d="m 333.88,364.04 c 0.466,-0.095 0.351,1.093 -0.24,0.72 0,-0.16 0,-0.32 0,-0.48 0.204,0.044 0.226,-0.093 0.24,-0.24 z"
       id="path19"
       inkscape:connector-curvature="0"
       style="fill:#d40000;fill-rule:evenodd" /><path
       clip-rule="evenodd"
       d="m 266.92,364.28 c 0.16,0 0.32,0 0.48,0 0,0.16 0,0.32 0,0.48 -0.16,0 -0.32,0 -0.48,0 0,-0.16 0,-0.32 0,-0.48 z"
       id="path21"
       inkscape:connector-curvature="0"
       style="fill:#d40000;fill-rule:evenodd" /><path
       clip-rule="evenodd"
       d="m 271.72,364.28 c 0.423,-0.076 0.428,1.345 -0.24,0.96 0.187,-0.214 0.258,-0.542 0.24,-0.96 z"
       id="path23"
       inkscape:connector-curvature="0"
       style="fill:#d40000;fill-rule:evenodd" /><path
       clip-rule="evenodd"
       d="m 278.68,364.76 c 0.035,-0.092 0.508,-0.424 0.72,-0.24 0.475,0.413 -1.064,1.157 -0.72,0.24 z"
       id="path25"
       inkscape:connector-curvature="0"
       style="fill:#d40000;fill-rule:evenodd" /><path
       clip-rule="evenodd"
       d="m 304.36,364.52 c 0.504,0.366 -0.253,1.491 -0.96,1.44 -0.043,-0.843 0.81,-0.789 0.96,-1.44 z"
       id="path27"
       inkscape:connector-curvature="0"
       style="fill:#d40000;fill-rule:evenodd" /><path
       clip-rule="evenodd"
       d="m 309.4,364.76 c 0.082,-0.289 0.639,-0.194 0.72,0 0.218,0.519 -0.879,0.556 -0.72,0 z"
       id="path29"
       inkscape:connector-curvature="0"
       style="fill:#d40000;fill-rule:evenodd" /><path
       clip-rule="evenodd"
       d="m 282.76,365 c -0.095,-0.466 1.093,-0.351 0.72,0.24 -0.16,0 -0.32,0 -0.48,0 0.044,-0.204 -0.094,-0.226 -0.24,-0.24 z"
       id="path31"
       inkscape:connector-curvature="0"
       style="fill:#d40000;fill-rule:evenodd" /><path
       clip-rule="evenodd"
       d="m 295.24,364.76 c 0.16,0 0.32,0 0.48,0 0,0.16 0,0.32 0,0.48 -0.16,0 -0.32,0 -0.48,0 0,-0.16 0,-0.32 0,-0.48 z"
       id="path33"
       inkscape:connector-curvature="0"
       style="fill:#d40000;fill-rule:evenodd" /><path
       clip-rule="evenodd"
       d="m 332.68,364.76 c 0.24,0 0.48,0 0.721,0 -0.028,0.612 -0.046,1.235 -0.721,1.2 0,-0.4 0,-0.8 0,-1.2 z"
       id="path35"
       inkscape:connector-curvature="0"
       style="fill:#d40000;fill-rule:evenodd" /><path
       clip-rule="evenodd"
       d="m 248.92,365 c -0.218,0.502 -0.708,0.731 -1.44,0.72 -0.14,-0.86 0.71,-0.73 1.44,-0.72 z"
       id="path37"
       inkscape:connector-curvature="0"
       style="fill:#d40000;fill-rule:evenodd" /><path
       clip-rule="evenodd"
       d="m 274.12,365 c 0.597,0.036 0.07,0.812 0,0.96 -0.719,-0.158 0.23,-0.513 0,-0.96 z"
       id="path39"
       inkscape:connector-curvature="0"
       style="fill:#d40000;fill-rule:evenodd" /><path
       clip-rule="evenodd"
       d="m 270.52,365.24 c 0.466,-0.095 0.351,1.093 -0.24,0.72 0,-0.16 0,-0.32 0,-0.48 0.204,0.044 0.226,-0.094 0.24,-0.24 z"
       id="path41"
       inkscape:connector-curvature="0"
       style="fill:#d40000;fill-rule:evenodd" /><path
       clip-rule="evenodd"
       d="m 313.48,365.24 c 0.319,0 0.64,0 0.96,0 0.28,0.833 -1.341,1.116 -0.96,0 z"
       id="path43"
       inkscape:connector-curvature="0"
       style="fill:#d40000;fill-rule:evenodd" /><path
       clip-rule="evenodd"
       d="m 331.72,365.24 c -0.045,0.675 -0.417,1.022 -1.2,0.96 0.309,-0.411 0.497,-0.944 1.2,-0.96 z"
       id="path45"
       inkscape:connector-curvature="0"
       style="fill:#d40000;fill-rule:evenodd" /><path
       clip-rule="evenodd"
       d="m 333.88,365.24 c 0.16,0 0.32,0 0.48,0 0,0.16 0,0.32 0,0.48 -0.16,0 -0.32,0 -0.48,0 0,-0.16 0,-0.32 0,-0.48 z"
       id="path47"
       inkscape:connector-curvature="0"
       style="fill:#d40000;fill-rule:evenodd" /><path
       clip-rule="evenodd"
       d="m 342.28,365.48 c 0.388,-0.067 0.413,0.227 0.72,0.24 -0.046,0.194 -0.241,0.239 -0.24,0.48 -0.16,0 -0.319,0 -0.479,0 -0.001,-0.24 -0.001,-0.48 -0.001,-0.72 z"
       id="path49"
       inkscape:connector-curvature="0"
       style="fill:#d40000;fill-rule:evenodd" /><path
       clip-rule="evenodd"
       d="m 247.96,370.04 c 0.7,-0.353 0.7,1.073 0,0.72 0,-0.24 0,-0.48 0,-0.72 z"
       id="path51"
       inkscape:connector-curvature="0"
       style="fill:#d40000;fill-rule:evenodd" /><path
       clip-rule="evenodd"
       d="m 337.48,373.4 c -0.23,0.49 -0.49,0.95 -0.721,1.44 -0.902,-0.357 -1.077,-0.182 -0.72,0.72 -0.638,-0.083 -0.81,-0.63 -0.96,-1.2 -0.863,0.461 -1.604,0.012 -1.44,-1.2 1.279,-0.248 2.299,-0.1 3.841,0.24 z"
       id="path53"
       inkscape:connector-curvature="0"
       style="fill-rule:evenodd;fill:#d40000" /><path
       clip-rule="evenodd"
       d="m 284.2,373.64 c -0.166,0.474 -0.641,0.64 -1.2,0.72 0,-0.24 0,-0.48 0,-0.72 0.597,-0.026 0.743,-0.45 1.2,0 z"
       id="path55"
       inkscape:connector-curvature="0"
       style="fill-rule:evenodd;fill:#d40000" /><path
       clip-rule="evenodd"
       d="m 341.32,377 c -1.553,0.208 -2.653,0.867 -4.08,1.2 -0.296,-0.744 -0.729,-1.352 -1.681,-1.44 0.858,-1.062 1.751,-2.089 2.641,-3.12 1.596,0.565 2.87,1.45 3.12,3.36 z"
       id="path57"
       inkscape:connector-curvature="0"
       style="fill-rule:evenodd;fill:#d40000" /><path
       clip-rule="evenodd"
       d="m 310.36,374.12 c 0.036,-0.597 0.812,-0.07 0.96,0 -0.036,0.597 -0.812,0.07 -0.96,0 z"
       id="path59"
       inkscape:connector-curvature="0"
       style="fill:#d40000;fill-rule:evenodd" /><path
       clip-rule="evenodd"
       d="m 247,374.12 c 0.24,0 0.48,0 0.72,0 0.102,0.501 -0.165,0.635 -0.24,0.96 -0.422,-0.058 -0.547,-0.413 -0.48,-0.96 z"
       id="path61"
       inkscape:connector-curvature="0"
       style="fill:#d40000;fill-rule:evenodd" /><path
       clip-rule="evenodd"
       d="m 323.56,374.12 c 1.007,-0.088 0.172,0.782 0.24,1.2 -0.558,-0.36 -0.366,-0.587 -0.24,-1.2 z"
       id="path63"
       inkscape:connector-curvature="0"
       style="fill:#d40000;fill-rule:evenodd" /><path
       clip-rule="evenodd"
       d="m 269.08,374.6 c -0.105,0.295 -0.307,0.493 -0.72,0.48 0.105,-0.295 0.307,-0.493 0.72,-0.48 z"
       id="path65"
       inkscape:connector-curvature="0"
       style="fill:#d40000;fill-rule:evenodd" /><path
       clip-rule="evenodd"
       d="m 332.2,374.84 c 0.512,-0.112 0.457,0.343 0.479,0.72 -0.194,-0.046 -0.239,-0.241 -0.479,-0.24 0,-0.16 0,-0.32 0,-0.48 z"
       id="path67"
       inkscape:connector-curvature="0"
       style="fill:#d40000;fill-rule:evenodd" /><path
       clip-rule="evenodd"
       d="m 322.6,375.32 c 0.896,0.413 1.362,1.03 2.4,0.72 0.175,0.655 -0.477,0.483 -0.48,0.96 -0.781,-0.419 -1.845,-0.555 -1.92,-1.68 z"
       id="path69"
       inkscape:connector-curvature="0"
       style="fill:#d40000;fill-rule:evenodd" /><path
       clip-rule="evenodd"
       d="m 344.92,375.8 c 0.204,-0.704 0.604,0.312 1.2,0 0,0.32 0,0.64 0,0.96 -0.783,0.063 -0.509,-0.931 -1.2,-0.96 z"
       id="path71"
       inkscape:connector-curvature="0"
       style="fill:#d40000;fill-rule:evenodd" /><path
       clip-rule="evenodd"
       d="m 260.2,377 c 0.633,-0.073 0.619,0.501 0.72,0.96 -0.213,0.187 -0.542,0.258 -0.96,0.24 0.526,-0.499 -0.21,-0.776 0.24,-1.2 z"
       id="path73"
       inkscape:connector-curvature="0"
       style="fill:#d40000;fill-rule:evenodd" /><path
       clip-rule="evenodd"
       d="m 345.16,377.48 c 0.454,-0.606 0.841,0.221 1.439,-0.24 0.303,1.047 0.071,1.067 -0.239,1.92 -0.462,-0.498 -0.524,-1.396 -1.2,-1.68 z"
       id="path75"
       inkscape:connector-curvature="0"
       style="fill:#d40000;fill-rule:evenodd" /><path
       clip-rule="evenodd"
       d="m 248.92,377.96 c 0.16,0 0.32,0 0.48,0 0,0.16 0,0.32 0,0.48 -0.16,0 -0.32,0 -0.48,0 0,-0.16 0,-0.32 0,-0.48 z"
       id="path77"
       inkscape:connector-curvature="0"
       style="fill:#d40000;fill-rule:evenodd" /><path
       clip-rule="evenodd"
       d="m 344.68,378.2 c 0.24,0 0.48,0 0.721,0 0.191,0.448 0.4,0.879 0.479,1.44 0.214,-0.187 0.542,-0.258 0.96,-0.24 0.044,0.474 0.306,2.945 -0.72,3.12 0.486,-0.888 -0.163,-1.429 0,-2.64 -0.923,0.494 0.196,1.741 -1.44,1.68 0.568,-1.217 0.957,-2.2 0,-3.36 z"
       id="path79"
       inkscape:connector-curvature="0"
       style="fill:#d40000;fill-rule:evenodd" /><path
       clip-rule="evenodd"
       d="m 299.8,378.44 c 0.16,0 0.32,0 0.48,0 0,0.16 0,0.32 0,0.48 -0.16,0 -0.32,0 -0.48,0 0,-0.16 0,-0.32 0,-0.48 z"
       id="path81"
       inkscape:connector-curvature="0"
       style="fill-rule:evenodd;fill:#d40000" /><path
       clip-rule="evenodd"
       d="m 272.92,378.92 c 1.068,-0.336 1.3,1.101 0.24,0.96 0.03,-0.43 -0.294,-0.506 -0.24,-0.96 z"
       id="path83"
       inkscape:connector-curvature="0"
       style="fill-rule:evenodd;fill:#d40000" /><path
       clip-rule="evenodd"
       d="m 330.04,378.92 c 0.261,0.06 0.163,0.478 0.479,0.48 -0.102,0.664 -0.754,0.012 -0.479,-0.48 z"
       id="path85"
       inkscape:connector-curvature="0"
       style="fill:#d40000;fill-rule:evenodd" /><path
       clip-rule="evenodd"
       d="m 352.6,379.88 c 0.282,0.358 0.998,0.283 0.96,0.96 -0.805,0.165 -0.877,-0.402 -0.96,-0.96 z"
       id="path87"
       inkscape:connector-curvature="0"
       style="fill:#d40000;fill-rule:evenodd" /><path
       clip-rule="evenodd"
       d="m 297.88,381.08 c 0.388,-0.068 0.413,0.227 0.72,0.24 0.095,0.466 -1.093,0.35 -0.72,-0.24 z"
       id="path89"
       inkscape:connector-curvature="0"
       style="fill:#d40000;fill-rule:evenodd" /><path
       clip-rule="evenodd"
       d="m 339.88,381.08 c 0.513,-0.112 0.457,0.343 0.48,0.72 -0.194,-0.045 -0.239,-0.241 -0.48,-0.24 0,-0.16 0,-0.32 0,-0.48 z"
       id="path91"
       inkscape:connector-curvature="0"
       style="fill:#d40000;fill-rule:evenodd" /><path
       clip-rule="evenodd"
       d="m 276.76,381.8 c 1.036,1.685 0.221,5.22 0.48,7.68 -1.059,0.657 -2.965,0.415 -4.32,0.24 -0.971,-4.891 2.212,-5.628 3.84,-7.92 z"
       id="path93"
       inkscape:connector-curvature="0"
       style="fill-rule:evenodd;fill:#d40000" /><path
       clip-rule="evenodd"
       d="m 298.6,381.8 c 0.24,0 0.48,0 0.72,0 0.318,0.462 -0.176,0.966 0.24,1.68 -0.899,0.019 -0.819,-0.941 -0.96,-1.68 z"
       id="path95"
       inkscape:connector-curvature="0"
       style="fill:#d40000;fill-rule:evenodd" /><path
       clip-rule="evenodd"
       d="m 331.72,381.8 c 0.16,0 0.32,0 0.48,0 0,0.16 0,0.32 0,0.48 -0.16,0 -0.32,0 -0.48,0 0,-0.16 0,-0.32 0,-0.48 z"
       id="path97"
       inkscape:connector-curvature="0"
       style="fill:#d40000;fill-rule:evenodd" /><path
       clip-rule="evenodd"
       d="m 308.2,382.76 c 0.737,-0.367 0.737,1.567 0,1.2 0,-0.4 0,-0.8 0,-1.2 z"
       id="path99"
       inkscape:connector-curvature="0"
       style="fill:#d40000;fill-rule:evenodd" /><path
       clip-rule="evenodd"
       d="m 344.92,383.96 c 0.16,0 0.32,0 0.48,0 0,0.16 0,0.32 0,0.48 -0.16,0 -0.32,0 -0.48,0 0,-0.16 0,-0.32 0,-0.48 z"
       id="path101"
       inkscape:connector-curvature="0"
       style="fill:#d40000;fill-rule:evenodd" /><path
       clip-rule="evenodd"
       d="m 337.24,384.44 c 0.408,-0.088 0.452,0.187 0.479,0.48 -0.204,-0.044 -0.227,0.094 -0.239,0.24 -0.281,-0.039 -0.203,-0.437 -0.24,-0.72 z"
       id="path103"
       inkscape:connector-curvature="0"
       style="fill:#d40000;fill-rule:evenodd" /><path
       clip-rule="evenodd"
       d="m 369.16,384.92 c -0.516,0.845 -1.054,1.667 -1.44,2.64 -0.849,-1.157 0.595,-3.156 1.44,-2.64 z"
       id="path105"
       inkscape:connector-curvature="0"
       style="fill:#d40000;fill-rule:evenodd" /><path
       clip-rule="evenodd"
       d="m 247.48,386.36 c 0.16,0 0.32,0 0.48,0 0,0.16 0,0.32 0,0.48 -0.16,0 -0.32,0 -0.48,0 0,-0.16 0,-0.32 0,-0.48 z"
       id="path107"
       inkscape:connector-curvature="0"
       style="fill:#d40000;fill-rule:evenodd" /><path
       clip-rule="evenodd"
       d="m 330.28,386.36 c 0.754,-0.034 0.824,0.616 0.96,1.2 -0.953,0.232 -0.745,-0.695 -0.96,-1.2 z"
       id="path109"
       inkscape:connector-curvature="0"
       style="fill:#d40000;fill-rule:evenodd" /><path
       clip-rule="evenodd"
       d="m 356.44,386.6 c -0.125,0.355 -0.355,0.605 -0.48,0.96 -0.315,-0.085 -0.378,-0.422 -0.72,-0.48 0.035,-0.525 0.605,-0.516 1.2,-0.48 z"
       id="path111"
       inkscape:connector-curvature="0"
       style="fill:#d40000;fill-rule:evenodd" /><path
       clip-rule="evenodd"
       d="m 309.4,386.84 c 0.466,-0.095 0.351,1.093 -0.24,0.72 0,-0.16 0,-0.32 0,-0.48 0.204,0.044 0.227,-0.094 0.24,-0.24 z"
       id="path113"
       inkscape:connector-curvature="0"
       style="fill:#d40000;fill-rule:evenodd" /><path
       clip-rule="evenodd"
       d="m 338.92,387.56 c 0.16,0 0.32,0 0.48,0 0,0.16 0,0.32 0,0.48 -0.16,0 -0.32,0 -0.48,0 0,-0.16 0,-0.32 0,-0.48 z"
       id="path115"
       inkscape:connector-curvature="0"
       style="fill:#d40000;fill-rule:evenodd" /><path
       clip-rule="evenodd"
       d="m 292.6,388.04 c -0.095,-0.466 1.093,-0.351 0.72,0.24 -0.16,0 -0.32,0 -0.48,0 0.044,-0.204 -0.093,-0.226 -0.24,-0.24 z"
       id="path117"
       inkscape:connector-curvature="0"
       style="fill:#d40000;fill-rule:evenodd" /><path
       clip-rule="evenodd"
       d="m 308.92,387.8 c 0.729,-0.088 0.498,0.782 0.72,1.2 -0.719,0.017 -1.218,-0.706 -0.72,-1.2 z"
       id="path119"
       inkscape:connector-curvature="0"
       style="fill:#d40000;fill-rule:evenodd" /><path
       clip-rule="evenodd"
       d="m 356.68,388.28 c 0.16,0 0.32,0 0.48,0 0,0.16 0,0.32 0,0.48 -0.16,0 -0.32,0 -0.48,0 0,-0.16 0,-0.32 0,-0.48 z"
       id="path121"
       inkscape:connector-curvature="0"
       style="fill:#d40000;fill-rule:evenodd" /><path
       clip-rule="evenodd"
       d="m 323.08,388.52 c 0.388,-0.068 0.413,0.227 0.72,0.24 0.096,0.466 -1.093,0.35 -0.72,-0.24 z"
       id="path123"
       inkscape:connector-curvature="0"
       style="fill:#d40000;fill-rule:evenodd" /><path
       clip-rule="evenodd"
       d="m 247.96,388.76 c 0.408,-0.088 0.453,0.188 0.48,0.48 -0.204,-0.044 -0.227,0.093 -0.24,0.24 -0.281,-0.039 -0.202,-0.438 -0.24,-0.72 z"
       id="path125"
       inkscape:connector-curvature="0"
       style="fill:#d40000;fill-rule:evenodd" /><path
       clip-rule="evenodd"
       d="m 273.88,396.2 c 0.512,-0.112 0.457,0.343 0.48,0.72 -0.194,-0.046 -0.239,-0.24 -0.48,-0.24 0,-0.16 0,-0.32 0,-0.48 z"
       id="path127"
       inkscape:connector-curvature="0"
       style="fill:#d40000;fill-rule:evenodd" /><path
       clip-rule="evenodd"
       d="m 323.32,396.44 c 0.038,-0.281 0.438,-0.203 0.72,-0.24 0.146,0.574 0.345,1.095 0.24,1.92 -0.45,-0.431 -0.618,-1.141 -0.96,-1.68 z"
       id="path129"
       inkscape:connector-curvature="0"
       style="fill:#d40000;fill-rule:evenodd" /><path
       clip-rule="evenodd"
       d="m 272.68,396.68 c 0.895,0.153 1.177,1.062 2.16,0.48 -0.164,0.956 -1.203,1.037 -1.92,1.439 0.105,-0.824 -0.095,-1.344 -0.24,-1.919 z"
       id="path131"
       inkscape:connector-curvature="0"
       style="fill:#d40000;fill-rule:evenodd" /><path
       clip-rule="evenodd"
       d="m 299.8,396.68 c 0.805,-0.164 0.877,0.403 0.96,0.96 -0.611,-0.03 -0.931,-0.349 -0.96,-0.96 z"
       id="path133"
       inkscape:connector-curvature="0"
       style="fill:#d40000;fill-rule:evenodd" /><path
       clip-rule="evenodd"
       d="m 328.36,396.68 c 0.722,-0.241 0.425,0.535 0.479,0.96 -0.421,-0.058 -0.546,-0.412 -0.479,-0.96 z"
       id="path135"
       inkscape:connector-curvature="0"
       style="fill:#d40000;fill-rule:evenodd" /><path
       clip-rule="evenodd"
       d="m 344.44,396.68 c 0.423,-0.076 0.428,1.345 -0.24,0.96 -0.101,-0.501 0.164,-0.635 0.24,-0.96 z"
       id="path137"
       inkscape:connector-curvature="0"
       style="fill:#d40000;fill-rule:evenodd" /><path
       clip-rule="evenodd"
       d="m 275.8,396.92 c 0.193,0.127 0.39,0.25 0.72,0.24 0.206,0.766 -0.378,0.742 -0.48,1.2 -0.328,-0.335 -0.518,-1.184 -0.24,-1.44 z"
       id="path139"
       inkscape:connector-curvature="0"
       style="fill:#d40000;fill-rule:evenodd" /><path
       clip-rule="evenodd"
       d="m 263.8,397.16 c 0.16,0 0.32,0 0.48,0 -0.044,0.204 0.094,0.227 0.24,0.24 -0.085,0.314 -0.422,0.377 -0.48,0.72 -0.326,-0.074 -0.199,-0.6 -0.24,-0.96 z"
       id="path141"
       inkscape:connector-curvature="0"
       style="fill:#d40000;fill-rule:evenodd" /><path
       clip-rule="evenodd"
       d="m 265.72,397.16 c 0.322,0.158 0.447,0.513 0.48,0.96 -0.722,0.242 -0.425,-0.535 -0.48,-0.96 z"
       id="path143"
       inkscape:connector-curvature="0"
       style="fill:#d40000;fill-rule:evenodd" /><path
       clip-rule="evenodd"
       d="m 268.84,397.16 c 0.597,0.036 0.07,0.812 0,0.96 -0.597,-0.036 -0.07,-0.812 0,-0.96 z"
       id="path145"
       inkscape:connector-curvature="0"
       style="fill:#d40000;fill-rule:evenodd" /><path
       clip-rule="evenodd"
       d="m 253.24,397.64 c 0.722,-0.241 0.425,0.535 0.48,0.96 -0.422,-0.058 -0.547,-0.412 -0.48,-0.96 z"
       id="path147"
       inkscape:connector-curvature="0"
       style="fill:#d40000;fill-rule:evenodd" /><path
       clip-rule="evenodd"
       d="m 294.52,398.12 c -0.105,0.295 -0.307,0.493 -0.72,0.479 -0.112,-0.511 0.343,-0.456 0.72,-0.479 z"
       id="path149"
       inkscape:connector-curvature="0"
       style="fill:#d40000;fill-rule:evenodd" /><path
       clip-rule="evenodd"
       d="m 366.28,398.12 c 0.408,-0.088 0.452,0.188 0.479,0.479 -0.204,-0.044 -0.227,0.094 -0.24,0.24 -0.281,-0.038 -0.202,-0.437 -0.239,-0.719 z"
       id="path151"
       inkscape:connector-curvature="0"
       style="fill:#d40000;fill-rule:evenodd" /><path
       clip-rule="evenodd"
       d="m 369.16,392.6 c -0.89,-0.274 -1.392,-0.023 -1.92,-0.24 -0.535,0.246 0.313,1.104 0,1.92 0.86,-0.316 0.075,-0.788 0.479,-1.44 0.99,0.463 1.951,0.11 1.92,1.92 -0.15,1.179 -0.814,-0.604 -1.68,-0.24 0.076,0.563 0.379,0.901 0.24,1.68 0.162,-0.768 1.09,-0.16 1.2,-0.48 0.572,0.434 0.135,1.879 0,2.4 -0.532,0.132 -0.342,-0.458 -0.721,-0.48 -0.63,0.5 -0.128,1.013 -0.479,1.44 -0.796,0.082 -3.831,0.956 -3.84,-0.48 -0.854,-0.373 -0.146,0.815 -0.721,0.721 -12.943,-0.133 -23.07,-0.257 -37.92,-0.24 -9.303,0.01 -19.19,0.784 -28.08,0 -0.878,-0.077 -0.996,-0.197 -1.2,-0.48 -0.855,-0.035 -1.529,0.925 -2.64,0.48 -0.67,-0.269 -0.25,-0.175 -1.44,0 -2.299,0.337 -5.232,0.026 -7.92,0 -5.199,-0.052 -10.303,-0.24 -15.6,-0.24 -3.732,0 -7.561,0.422 -11.04,0 -0.992,-0.12 -0.695,-0.537 -1.68,0 -0.722,0.242 -0.425,-0.534 -0.48,-0.96 -0.901,-0.181 -0.523,0.917 -1.2,0.96 -2.585,-0.282 -4.854,0.426 -6.96,-0.479 -1.918,-4.207 -0.136,-10.672 -0.72,-17.521 -0.205,-2.405 0,-5.414 0,-8.16 0,-3.616 -0.299,-7 0.48,-8.88 2.315,-1.195 8.085,-0.72 12.72,-0.72 3.956,0 8.005,0 11.52,0 0.512,-0.112 0.457,0.343 0.48,0.72 1.408,-0.716 1.751,-0.604 4.32,-0.72 1.062,-0.037 -0.113,0.678 0.48,0.96 0.639,-10e-4 0.612,-0.668 0.96,-0.96 2.987,-0.019 7.039,-0.123 8.64,0.48 0.131,0.931 -1.036,0.564 -1.2,1.2 0.609,0.11 0.68,0.761 0.96,1.2 -0.255,0.618 -1.383,0.13 -1.44,-0.24 -1.551,0.596 -6.289,1.073 -7.44,-0.24 -0.346,0.054 -0.084,0.716 -0.48,0.72 -6.56,0 -13.12,0 -19.68,0 -0.861,-0.019 -0.831,-0.929 -1.44,-1.2 -1.164,0.805 0.098,0.578 0.24,1.2 -1.149,-0.05 -2.639,0.238 -3.12,-0.48 0.254,0.757 -1.755,0.406 -2.88,0.48 0,5.2 0,10.4 0,15.6 0.166,0.646 -0.496,0.464 -0.72,0.72 1.007,1.025 1.239,5.739 0,6.72 0.054,0.346 0.716,0.083 0.72,0.48 -0.073,2.299 0.109,3.446 -0.48,5.04 0.003,0.477 0.655,0.306 0.48,0.96 1.145,0.301 4.31,-0.704 3.6,0.72 0.554,0.073 0.267,-0.694 0.72,-0.72 8.916,0.025 16.757,-0.005 25.92,0 0.975,0.225 0.965,1.435 1.92,1.68 1.282,-0.745 -0.73,-1.222 -0.24,-1.68 1.02,-0.219 1.208,0.391 1.44,0.959 0.617,-0.022 0.343,-0.937 0.96,-0.959 9.966,0.364 26.114,0.208 39.84,0.24 0.871,-0.231 0.201,1.078 0.96,0.96 0.03,-0.431 -0.294,-0.506 -0.24,-0.96 0.704,1.062 1.594,-0.792 1.44,0.96 0.662,0.103 0.225,-0.895 0.72,-0.96 0.532,-0.132 0.342,0.458 0.72,0.48 1.189,-0.822 5.521,-0.48 8.88,-0.48 3.011,0 6.25,-0.261 8.4,0 0.355,0.043 0.845,0.48 0.72,0.48 0.345,0 0.82,-0.425 1.2,-0.48 6.899,-1.011 14.702,0.697 19.44,0.24 0.534,-6.127 0.114,-14.417 0.239,-20.16 -0.208,-0.929 0.587,-0.854 0.721,-1.44 -0.027,-0.85 -0.794,0.51 -0.721,-0.24 0.426,-2.303 -0.222,-4.605 0,-7.92 -2.001,-0.158 -4.638,0.318 -6.239,-0.24 -0.001,-1.2 0.84,-0.373 1.2,0 0.703,-0.416 1.114,-1.126 1.199,-2.16 -0.375,-0.667 -0.98,1.711 -1.439,0.96 0,-0.56 0,-1.12 0,-1.68 1.2,0 2.399,0 3.6,0 0.03,0.431 -0.294,0.506 -0.24,0.96 0.723,0.242 0.426,-0.535 0.48,-0.96 6.276,-0.972 4.596,5.187 4.56,9.36 -0.036,4.3 0.421,9.292 -0.479,12 0.508,-0.004 0.815,5.667 0.479,6.96 -0.04,0.162 -1.148,-0.101 -0.478,0.959 z m -1.44,-5.04 c 0.387,-0.974 0.925,-1.795 1.44,-2.64 -0.845,-0.516 -2.289,1.483 -1.44,2.64 z M 253,364.52 c 0.448,0.191 0.879,0.401 1.44,0.48 0,-0.32 0,-0.64 0,-0.96 -0.69,-0.05 -1.219,0.061 -1.44,0.48 z m 13.92,0.24 c 0.16,0 0.32,0 0.48,0 0,-0.16 0,-0.32 0,-0.48 -0.16,0 -0.32,0 -0.48,0 0,0.16 0,0.32 0,0.48 z m 4.56,0.48 c 0.668,0.384 0.664,-1.037 0.24,-0.96 0.018,0.418 -0.053,0.746 -0.24,0.96 z m 7.92,-0.72 c -0.212,-0.185 -0.685,0.147 -0.72,0.24 -0.344,0.917 1.195,0.173 0.72,-0.24 z m 3.6,0.72 c 0.16,0 0.32,0 0.48,0 0.373,-0.591 -0.815,-0.706 -0.72,-0.24 0.146,0.014 0.284,0.036 0.24,0.24 z m -35.52,0.48 c 0.732,0.011 1.222,-0.218 1.44,-0.72 -0.73,-0.01 -1.58,-0.14 -1.44,0.72 z m 26.64,0.24 c 0.07,-0.147 0.597,-0.924 0,-0.96 0.23,0.447 -0.719,0.802 0,0.96 z m -3.84,-0.48 c 0,0.16 0,0.32 0,0.48 0.591,0.373 0.706,-0.815 0.24,-0.72 -0.014,0.146 -0.036,0.284 -0.24,0.24 z m -22.32,5.28 c 0.7,0.353 0.7,-1.073 0,-0.72 0,0.24 0,0.48 0,0.72 z m 119.76,2.4 c 0.003,-0.477 0.655,-0.305 0.48,-0.96 -0.586,-0.231 -0.795,1.078 -0.48,0.96 z m -120.24,1.92 c 0.076,-0.325 0.342,-0.458 0.24,-0.96 -0.24,0 -0.48,0 -0.72,0 -0.067,0.547 0.058,0.902 0.48,0.96 z m 1.44,3.36 c 0.16,0 0.32,0 0.48,0 0,-0.16 0,-0.32 0,-0.48 -0.16,0 -0.32,0 -0.48,0 0,0.16 0,0.32 0,0.48 z m -1.44,8.4 c 0.16,0 0.32,0 0.48,0 0,-0.16 0,-0.32 0,-0.48 -0.16,0 -0.32,0 -0.48,0 0,0.16 0,0.32 0,0.48 z m 0.72,2.64 c 0.013,-0.146 0.036,-0.284 0.24,-0.24 -0.027,-0.293 -0.072,-0.568 -0.48,-0.48 0.038,0.282 -0.041,0.681 0.24,0.72 z m 25.68,7.2 c 0.241,0 0.286,0.194 0.48,0.24 -0.023,-0.377 0.032,-0.832 -0.48,-0.72 0,0.16 0,0.32 0,0.48 z m 50.4,1.44 c 0.104,-0.825 -0.095,-1.346 -0.24,-1.92 -0.282,0.037 -0.682,-0.041 -0.72,0.24 0.342,0.539 0.51,1.249 0.96,1.68 z m -51.36,0.48 c 0.717,-0.402 1.756,-0.483 1.92,-1.439 -0.982,0.581 -1.265,-0.327 -2.16,-0.48 0.145,0.574 0.345,1.094 0.24,1.919 z m 27.84,-0.96 c -0.083,-0.557 -0.155,-1.124 -0.96,-0.96 0.029,0.611 0.349,0.93 0.96,0.96 z m 28.08,0 c -0.055,-0.425 0.242,-1.201 -0.479,-0.96 -0.068,0.548 0.057,0.902 0.479,0.96 z m 15.36,0 c 0.668,0.385 0.663,-1.036 0.24,-0.96 -0.076,0.325 -0.341,0.459 -0.24,0.96 z m -68.16,0.72 c 0.102,-0.458 0.686,-0.435 0.48,-1.2 -0.331,0.01 -0.527,-0.113 -0.72,-0.24 -0.278,0.256 -0.088,1.105 0.24,1.44 z m -12,-0.24 c 0.058,-0.343 0.395,-0.405 0.48,-0.72 -0.146,-0.014 -0.284,-0.036 -0.24,-0.24 -0.16,0 -0.32,0 -0.48,0 0.041,0.36 -0.086,0.886 0.24,0.96 z m 2.16,0 c -0.033,-0.447 -0.158,-0.802 -0.48,-0.96 0.055,0.425 -0.242,1.202 0.48,0.96 z m 2.64,0 c 0.07,-0.147 0.597,-0.924 0,-0.96 -0.07,0.148 -0.597,0.924 0,0.96 z m -15.12,0.48 c -0.055,-0.425 0.242,-1.201 -0.48,-0.96 -0.067,0.548 0.058,0.902 0.48,0.96 z m 40.08,0 c 0.413,0.014 0.615,-0.185 0.72,-0.479 -0.377,0.022 -0.832,-0.033 -0.72,0.479 z m 72.72,0.24 c 0.014,-0.146 0.036,-0.284 0.24,-0.24 -0.027,-0.292 -0.071,-0.567 -0.479,-0.479 0.036,0.281 -0.043,0.68 0.239,0.719 z"
       id="path153"
       inkscape:connector-curvature="0"
       style="fill-rule:evenodd;fill:#d40000" /><path
       clip-rule="evenodd"
       d="m 298.36,363.32 c 0.115,0.287 0.268,1.324 1.2,1.44 0.687,-0.033 0.439,-1.001 0.48,-1.68 4.535,-0.128 6.812,0.418 10.32,0 0.132,0.532 -0.459,0.342 -0.48,0.72 0.65,0.518 0.853,-0.569 1.44,-0.72 0.767,-0.197 3.35,-0.022 4.319,0 4.396,0.1 10.009,0.41 15.601,0.24 0.829,-0.083 -0.131,1.127 0.72,1.44 0.392,0.108 0.392,-1.308 0,-1.2 1.283,-0.557 3.598,-0.083 5.28,-0.24 0,0.32 0,0.64 0,0.96 0.393,-0.16 1.004,-1.453 0.96,0 0.893,0.253 0.471,-0.809 0.96,-0.96 3.669,0.26 7.672,-0.323 10.56,0 0.394,0.044 0.465,0.086 0.48,0.48 0.532,0.132 0.342,-0.458 0.72,-0.48 0.744,0.056 0.749,0.851 0.96,1.44 0.041,-0.387 1.098,-0.944 0.48,-1.2 2.081,-0.559 5.198,-0.081 7.68,-0.24 -0.473,0.858 0.111,1.281 0,2.4 -0.224,0.256 -0.886,0.075 -0.72,0.72 -2.241,-0.392 -6.566,0.835 -7.44,-0.72 -0.487,1.21 -0.953,-0.132 -1.439,0.72 -1.04,0 -2.08,0 -3.12,0 0.487,-1.037 -0.667,-1.677 -1.681,-1.92 -0.409,1.289 0.921,0.84 0.721,1.92 -0.646,0.166 -0.464,-0.496 -0.721,-0.72 -0.895,1.265 -3.794,0.525 -5.76,0.72 -0.646,0.166 -0.464,-0.496 -0.72,-0.72 -0.302,0.059 -0.242,0.477 0,0.48 -10.707,0.551 -24.835,0.191 -34.56,0 -1.623,-0.032 -3.144,0.33 -4.56,0 -0.368,-0.086 -0.484,-0.054 -0.48,-0.48 -0.603,-0.05 -1.286,1.171 -1.2,-0.24 -0.631,-0.071 -0.189,0.931 -0.96,0.72 -0.633,-1.064 0.836,-1.804 0.96,-2.88 z m 7.2,1.2 c 0.16,0 0.32,0 0.48,0 0.013,-0.307 0.308,-0.333 0.24,-0.72 -0.24,0 -0.48,0 -0.72,0 0,0.24 0,0.48 0,0.72 z m 24.96,-0.48 c -1.852,0.08 -0.125,1.806 0,0 l 0,0 z m 3.12,0.24 c 0,0.16 0,0.32 0,0.48 0.591,0.374 0.706,-0.815 0.24,-0.72 -0.014,0.147 -0.036,0.284 -0.24,0.24 z m -30.24,1.68 c 0.707,0.051 1.464,-1.074 0.96,-1.44 -0.15,0.651 -1.003,0.597 -0.96,1.44 z m 6.72,-1.2 c -0.081,-0.194 -0.638,-0.289 -0.72,0 -0.159,0.556 0.938,0.519 0.72,0 z m 22.56,1.2 c 0.675,0.035 0.692,-0.588 0.721,-1.2 -0.24,0 -0.48,0 -0.721,0 0,0.4 0,0.8 0,1.2 z m -18.24,-0.72 c -0.32,0 -0.641,0 -0.96,0 -0.381,1.116 1.24,0.833 0.96,0 z m 16.08,0.96 c 0.783,0.062 1.155,-0.285 1.2,-0.96 -0.703,0.016 -0.891,0.549 -1.2,0.96 z m 3.36,-0.48 c 0.16,0 0.32,0 0.48,0 0,-0.16 0,-0.32 0,-0.48 -0.16,0 -0.32,0 -0.48,0 0,0.16 0,0.32 0,0.48 z m 8.4,0.48 c 0.16,0 0.319,0 0.479,0 -0.001,-0.241 0.194,-0.286 0.24,-0.48 -0.307,-0.013 -0.332,-0.308 -0.72,-0.24 10e-4,0.24 10e-4,0.48 10e-4,0.72 z"
       id="path157"
       inkscape:connector-curvature="0"
       style="fill-rule:evenodd;fill:#d40000" /><path
       clip-rule="evenodd"
       d="m 368.2,372.2 c 0.175,0.655 -0.478,0.483 -0.48,0.96 -0.315,0.118 -0.106,-1.191 0.48,-0.96 z"
       id="path159"
       inkscape:connector-curvature="0"
       style="fill:#d40000;fill-rule:evenodd" /><path
       clip-rule="evenodd"
       d="m 275.56,379.88 c 0.215,0.425 0.974,0.306 0.72,1.2 -1.036,0.884 -1.756,2.083 -3.12,2.64 -0.757,-1.849 0.646,-3.477 1.68,-4.32 -0.232,-1.048 -1.233,-1.326 -1.68,-2.16 0.132,-0.888 0.222,-0.864 0.24,-2.16 -0.625,1.321 -0.642,-1.087 -0.24,-1.44 1.738,-0.114 3.427,0.19 4.56,0 0.71,0.81 1.135,1.904 1.92,2.64 0.186,0.936 -0.887,1.245 -0.24,1.92 0.913,0.353 0.047,-1.073 0.96,-0.72 0.881,1.439 1.834,2.806 2.64,4.32 0.218,-1.858 -0.016,-4.059 0,-6.24 2.003,0.003 1.922,-2.078 4.08,-1.92 0.36,3.853 0.147,11.129 0.24,16.08 -1.44,0 -2.88,0 -4.32,0 -1.654,-2.906 -3.773,-5.347 -5.28,-8.4 0.278,-0.201 0.643,-0.316 1.2,-0.24 -0.271,-1.391 0.495,-1.746 0.72,-2.64 -1.491,-0.551 -2.779,1.017 -4.08,1.44 z"
       id="path161"
       inkscape:connector-curvature="0"
       style="fill-rule:evenodd;fill:#d40000" /><path
       clip-rule="evenodd"
       d="m 311.8,377.96 c -0.267,0.533 -0.949,0.65 -1.2,1.2 -0.465,0.565 0.521,-2.113 1.2,-1.2 z"
       id="path163"
       inkscape:connector-curvature="0"
       style="fill:#d40000;fill-rule:evenodd" /><path
       clip-rule="evenodd"
       d="m 354.76,378.92 c 0.655,-0.175 0.483,0.477 0.96,0.48 -0.596,0.128 -0.977,0.227 -1.92,0.48 -0.372,-1.013 1.333,0.053 0.96,-0.96 z"
       id="path165"
       inkscape:connector-curvature="0"
       style="fill:#d40000;fill-rule:evenodd" /><path
       clip-rule="evenodd"
       d="m 332.92,373.16 c 0.373,1.387 1.527,1.993 1.92,3.36 -0.989,-0.562 -1.45,0.336 -1.92,0.96 1.476,1.965 5.324,1.556 7.44,2.88 0.759,1.338 1.555,1.762 1.68,3.36 0.368,4.708 -5.423,6.859 -9.84,5.76 -0.663,-0.057 -0.548,-0.892 -0.96,-1.2 -0.513,-0.112 -0.457,0.343 -0.48,0.72 -1.678,-0.882 -3.479,-1.641 -3.359,-4.32 1.78,0.101 2.798,-0.562 4.319,-0.72 0.307,1.706 3.696,2.752 5.04,1.2 -0.441,-2.084 -3.554,-1.67 -5.52,-2.4 -0.183,-0.067 -0.313,-0.651 -0.48,-0.72 -1.108,-0.455 -2.333,-0.308 -2.399,-1.92 -0.178,-1.058 0.776,-0.983 0.96,-1.68 -0.511,-0.519 -0.894,0.243 -1.44,-0.24 0.694,-0.302 -0.106,-1.58 1.44,-1.44 -1.429,-2.164 1.532,-3.403 3.599,-3.6 z m -0.72,2.16 c 0.24,0 0.285,0.194 0.479,0.24 -0.022,-0.377 0.032,-0.832 -0.479,-0.72 0,0.16 0,0.32 0,0.48 z m -1.68,4.08 c -0.316,-0.002 -0.219,-0.42 -0.479,-0.48 -0.276,0.492 0.376,1.144 0.479,0.48 z m 9.36,2.16 c 0.241,-10e-4 0.286,0.194 0.48,0.24 -0.023,-0.377 0.032,-0.832 -0.48,-0.72 0,0.16 0,0.32 0,0.48 z m -8.16,0.72 c 0.16,0 0.32,0 0.48,0 0,-0.16 0,-0.32 0,-0.48 -0.16,0 -0.32,0 -0.48,0 0,0.16 0,0.32 0,0.48 z m 5.76,2.88 c 0.013,-0.146 0.035,-0.284 0.239,-0.24 -0.027,-0.293 -0.071,-0.568 -0.479,-0.48 0.037,0.283 -0.041,0.681 0.24,0.72 z m -6.24,2.4 c -0.136,-0.584 -0.206,-1.234 -0.96,-1.2 0.215,0.505 0.007,1.432 0.96,1.2 z m 4.08,0 c 0.664,0.317 0.823,-0.949 0.479,-0.24 -0.335,-0.018 -0.917,0.054 -0.479,0.24 z m 3.6,0.48 c 0.16,0 0.32,0 0.48,0 0,-0.16 0,-0.32 0,-0.48 -0.16,0 -0.32,0 -0.48,0 0,0.16 0,0.32 0,0.48 z"
       id="path167"
       inkscape:connector-curvature="0"
       style="fill-rule:evenodd;fill:#d40000" /><path
       clip-rule="evenodd"
       d="m 322.84,381.56 c 0.105,-0.525 1.06,0.455 0.48,0.72 -0.345,-0.054 -0.084,-0.717 -0.48,-0.72 z"
       id="path169"
       inkscape:connector-curvature="0"
       style="fill:#d40000;fill-rule:evenodd" /><path
       clip-rule="evenodd"
       d="m 304.36,385.88 c 0.268,0.219 0.076,0.446 0.24,1.2 -1.073,0.041 -0.62,-0.845 -0.24,-1.2 z"
       id="path171"
       inkscape:connector-curvature="0"
       style="fill-rule:evenodd;fill:#d40000" /><path
       clip-rule="evenodd"
       d="m 321.64,388.04 c -0.098,-0.578 0.438,-0.521 0.24,-1.2 0.152,0.597 0.768,1.364 0.48,1.68 -0.244,-0.156 -0.249,-0.552 -0.72,-0.48 z"
       id="path173"
       inkscape:connector-curvature="0"
       style="fill:#d40000;fill-rule:evenodd" /><path
       clip-rule="evenodd"
       d="m 335.8,387.32 c 0.344,-0.708 0.185,0.557 -0.479,0.24 -0.439,-0.186 0.143,-0.258 0.479,-0.24 z"
       id="path175"
       inkscape:connector-curvature="0"
       style="fill:#d40000;fill-rule:evenodd" /><path
       clip-rule="evenodd"
       d="m 258.28,373.64 c 3.329,0.091 8.388,-0.064 12.48,0 0.083,1.118 0.578,2.831 0,3.84 -2.188,-0.247 -3.795,0.319 -5.76,-0.24 0.205,-0.829 0.622,-0.167 0.96,-0.48 0.022,-0.02 -0.342,-1.152 0.48,-0.72 -1.507,-1.02 -1.964,1.07 -3.84,0.48 1.019,0.261 0.676,1.884 0.72,3.12 2.261,0.693 4.672,-0.326 6.24,0.24 -0.11,1.17 0.251,2.812 -0.24,3.6 -1.92,0 -3.84,0 -5.76,0 -0.288,0.75 -0.13,1.729 0,2.4 2.062,0.392 5.392,-0.009 7.44,0.24 0.041,1.72 -2.204,1.156 -2.88,2.16 10e-4,1.656 2.15,0.219 2.64,1.68 -0.533,-0.065 -1.186,0.079 -1.92,0 -1.496,-0.161 -0.997,-0.206 -2.4,0 -2.32,0.34 -5.015,-0.249 -7.92,0 -0.263,-4.164 -0.268,-10.534 -0.24,-16.32 z m 10.08,1.44 c 0.413,0.013 0.615,-0.185 0.72,-0.48 -0.413,-0.013 -0.615,0.185 -0.72,0.48 z m -8.4,3.12 c 0.418,0.018 0.747,-0.054 0.96,-0.24 -0.101,-0.459 -0.087,-1.033 -0.72,-0.96 -0.45,0.424 0.286,0.701 -0.24,1.2 z"
       id="path177"
       inkscape:connector-curvature="0"
       style="fill-rule:evenodd;fill:#d40000" /><path
       clip-rule="evenodd"
       d="m 296.92,373.16 c 1.849,0.151 3.909,0.091 4.56,1.44 2.038,0.282 2.202,2.438 3.12,3.84 -0.649,0.471 -1.593,0.647 -2.64,0.72 -0.331,-0.359 0.034,-1.377 0.72,-1.44 -1.033,-1.017 -0.858,1.21 -1.68,1.2 0.295,-1.175 -0.828,-0.933 -0.72,-1.92 -1.364,0.47 -1.742,-1.013 -3.12,-1.2 -0.166,-0.916 0.976,-1.156 0.24,-1.92 -0.244,0.156 -0.248,0.552 -0.72,0.48 0.272,-0.754 -0.069,-0.634 0.24,-1.2 z"
       id="path179"
       inkscape:connector-curvature="0"
       style="fill-rule:evenodd;fill:#d40000" /><path
       clip-rule="evenodd"
       d="m 322.6,374.36 c 0.946,0.307 0.624,-0.657 0.96,-0.96 0.561,0 1.12,0 1.681,0 1.428,0.794 -0.18,2.68 0.72,3.36 -0.286,0.754 -1.324,0.756 -1.44,1.68 0.193,0.204 0.988,-0.016 1.44,0.48 -0.324,4.036 -0.11,6.178 0,9.36 -0.214,0.187 -0.542,0.258 -0.96,0.24 -0.118,0.758 1.191,0.089 0.96,0.96 -0.974,-0.306 -3.273,0.714 -3.12,-0.72 -0.285,0.595 -0.87,0.89 -1.92,0.72 -0.386,-5.236 -0.052,-10.329 -0.24,-16.08 0.725,-0.323 1.916,-0.323 2.641,0 -0.099,0.462 -0.932,0.189 -0.722,0.96 z m 1.2,0.96 c -0.068,-0.418 0.767,-1.288 -0.24,-1.2 -0.126,0.613 -0.318,0.84 0.24,1.2 z m 0.72,1.68 c 0.004,-0.477 0.655,-0.305 0.48,-0.96 -1.038,0.31 -1.504,-0.308 -2.4,-0.72 0.075,1.125 1.139,1.261 1.92,1.68 z m -1.2,5.28 c 0.579,-0.265 -0.375,-1.245 -0.48,-0.72 0.396,0.003 0.135,0.666 0.48,0.72 z m -0.96,6.24 c 0.287,-0.316 -0.328,-1.083 -0.48,-1.68 0.198,0.679 -0.338,0.622 -0.24,1.2 0.471,-0.072 0.476,0.324 0.72,0.48 z m 1.44,0.24 c -0.307,-0.013 -0.332,-0.308 -0.72,-0.24 -0.373,0.59 0.816,0.706 0.72,0.24 z"
       id="path181"
       inkscape:connector-curvature="0"
       style="fill-rule:evenodd;fill:#d40000" /><path
       clip-rule="evenodd"
       d="m 296.92,376.52 c -0.38,0.9 -1.861,0.699 -1.68,2.16 -0.81,-0.151 -0.589,-1.332 -1.44,-1.44 -0.26,0.059 -0.163,0.477 -0.48,0.48 0.073,0.887 1.02,0.9 1.44,1.44 -0.19,2.75 0.153,4.967 0.96,6.72 1.779,0.465 3.856,0.314 4.08,-1.44 -0.365,-1.042 -1.749,-0.135 -2.64,-0.24 -0.483,-0.718 -0.136,-2.265 -0.24,-3.36 0.647,-0.472 2.097,-0.143 3.12,-0.24 -0.206,0.766 0.378,0.742 0.48,1.2 0.704,-0.203 -0.144,-0.772 0,-1.2 1.096,0.504 2.656,-0.352 4.08,0 0,1.68 0,3.36 0,5.04 -1.565,-0.755 -1.169,-3.471 -2.4,-4.56 -0.748,0.055 0.155,2.093 -1.2,1.2 0.506,1.203 -0.147,2.664 1.44,3.6 0.686,-0.508 -1.179,-1.354 -0.24,-2.16 2.763,0.622 0.082,4.212 1.92,5.76 -0.179,0.542 -1.346,0.094 -1.92,0.24 -0.347,-0.373 -0.505,-0.936 -0.72,-1.44 -5.917,4.421 -12.38,-0.312 -12.24,-6.96 0.073,-3.448 1.809,-5.557 4.08,-7.44 1.329,0.352 2.128,1.232 2.64,2.4 0.067,0.504 0.641,-0.348 0.96,0.24 z m 1.68,4.8 c -0.307,-0.013 -0.333,-0.308 -0.72,-0.24 -0.373,0.59 0.815,0.706 0.72,0.24 z m 0.96,2.16 c -0.416,-0.714 0.078,-1.218 -0.24,-1.68 -0.24,0 -0.48,0 -0.72,0 0.141,0.739 0.061,1.699 0.96,1.68 z m -6.72,4.8 c 0.16,0 0.32,0 0.48,0 0.374,-0.59 -0.815,-0.706 -0.72,-0.24 0.147,0.014 0.284,0.036 0.24,0.24 z"
       id="path183"
       inkscape:connector-curvature="0"
       style="fill-rule:evenodd;fill:#d40000" /><path
       clip-rule="evenodd"
       d="m 349,373.16 c 0.14,1.94 -0.292,4.452 0.24,6 1.601,-0.044 2.758,-0.531 4.08,0.48 0.258,-1.907 -0.974,-3.84 -0.24,-6.48 2.179,-0.007 3.015,-0.146 5.04,0 -0.032,5.863 -0.082,10.447 0,16.08 -1.66,-0.089 -4.121,0.129 -5.04,0 0.291,-1.177 -0.719,-2.576 0.479,-3.6 -0.649,0.147 -0.507,-1.654 -0.72,-2.64 -1.254,0.041 -2.274,-0.316 -3.359,0 -0.658,1.516 -0.348,4.356 -0.24,6.24 -1.785,0.183 -3.837,-0.016 -5.28,0 0.257,-0.464 0.167,-1.273 1.2,-0.96 0.15,-1.129 0.879,-1.68 1.439,-2.4 -1.184,-0.345 -1.335,1.161 -2.399,1.44 -0.406,-3.796 -0.061,-8.712 -0.24,-13.44 0.176,-1.133 1.309,1.377 1.92,0 -0.213,-0.567 -1.34,0.551 -1.2,-0.72 1.461,0.167 2.12,-0.16 4.32,0 z m -2.88,3.6 c 0,-0.32 0,-0.64 0,-0.96 -0.596,0.312 -0.996,-0.704 -1.2,0 0.691,0.029 0.417,1.023 1.2,0.96 z m 0.24,2.4 c 0.311,-0.853 0.542,-0.873 0.239,-1.92 -0.599,0.461 -0.985,-0.367 -1.439,0.24 0.676,0.284 0.738,1.182 1.2,1.68 z m -1.68,2.4 c 1.637,0.061 0.518,-1.186 1.44,-1.68 -0.163,1.211 0.486,1.752 0,2.64 1.025,-0.175 0.764,-2.646 0.72,-3.12 -0.418,-0.018 -0.746,0.054 -0.96,0.24 -0.079,-0.561 -0.288,-0.992 -0.479,-1.44 -0.24,0 -0.48,0 -0.721,0 0.957,1.16 0.568,2.143 0,3.36 z m 9.12,-1.68 c 0.943,-0.253 1.324,-0.352 1.92,-0.48 -0.477,-0.003 -0.305,-0.655 -0.96,-0.48 0.373,1.013 -1.332,-0.053 -0.96,0.96 z m -0.24,0.96 c 0.038,-0.677 -0.678,-0.602 -0.96,-0.96 0.083,0.558 0.155,1.125 0.96,0.96 z m -8.64,3.6 c 0.16,0 0.32,0 0.48,0 0,-0.16 0,-0.32 0,-0.48 -0.16,0 -0.32,0 -0.48,0 0,0.16 0,0.32 0,0.48 z m 10.32,2.64 c 0.342,0.058 0.404,0.395 0.72,0.48 0.125,-0.355 0.355,-0.605 0.48,-0.96 -0.595,-0.036 -1.165,-0.045 -1.2,0.48 z m 1.44,1.68 c 0.16,0 0.32,0 0.48,0 0,-0.16 0,-0.32 0,-0.48 -0.16,0 -0.32,0 -0.48,0 0,0.16 0,0.32 0,0.48 z"
       id="path185"
       inkscape:connector-curvature="0"
       style="fill-rule:evenodd;fill:#d40000" /><path
       clip-rule="evenodd"
       d="m 307.24,373.4 c 1.731,0.324 3.348,0.125 4.8,0.24 0.696,3.694 0.043,7.042 0.479,11.76 1.683,0.558 4.399,0.082 6.48,0.24 -0.12,1.32 0.265,3.145 -0.24,4.08 -2.429,-0.606 -4.806,0.118 -7.2,0 -0.444,-0.022 -0.497,-0.399 -0.96,-0.48 -0.491,-0.086 -1.638,0.919 -1.68,-0.24 -0.374,0.346 -0.474,0.966 -1.439,0.72 -0.546,-2.415 -0.091,-5.83 -0.24,-8.64 0.529,0.19 0.312,1.128 0.96,1.2 0.005,-0.805 0,-1.6 -0.96,-1.44 0.656,-1.396 -0.421,-5.17 0,-7.44 z m 4.08,0.72 c -0.147,-0.07 -0.924,-0.597 -0.96,0 0.148,0.07 0.924,0.597 0.96,0 z m -0.72,5.04 c 0.251,-0.55 0.934,-0.667 1.2,-1.2 -0.679,-0.913 -1.665,1.765 -1.2,1.2 z m -2.4,4.8 c 0.737,0.367 0.737,-1.567 0,-1.2 0,0.4 0,0.8 0,1.2 z m 0.96,3.12 c 0,0.16 0,0.32 0,0.48 0.591,0.373 0.706,-0.815 0.24,-0.72 -0.013,0.146 -0.036,0.284 -0.24,0.24 z m 0.48,1.92 c -0.222,-0.418 0.009,-1.288 -0.72,-1.2 -0.498,0.494 10e-4,1.217 0.72,1.2 z"
       id="path187"
       inkscape:connector-curvature="0"
       style="fill-rule:evenodd;fill:#d40000" /></g></svg>