<svg id="Layer_1" xmlns="http://www.w3.org/2000/svg" viewBox="0 0 100 100"><style>.st0{fill-rule:evenodd;clip-rule:evenodd}.st1,.st2{fill:none}.st2{fill-rule:evenodd;clip-rule:evenodd}</style><path class="st0" d="M48.4 99.4c-2.3.3-4.6 0-6.8-.5-1-.2-2.1-.3-3.1-.6-2.4-.6-4.8-1.2-7-2.4-1.4-.7-2.7-1.4-4.1-2.1-1.1-.6-2.1-1.3-3.1-1.8-.8-.4-1.7-.7-2.4-1.2-1.6-1-3.1-2-4.6-3.1-.9-.6-1.8-1.2-2.5-1.9-1.2-1.1-2.6-2.3-3.6-3.6-1.8-2.4-3.6-4.9-5.2-7.6-1.4-2.3-2.5-4.8-3.1-7.4-.5-1.8-1.1-3.5-1.5-5.2-.3-1.4-.5-2.7-.4-4.2 0-.9-.3-1.8-.4-2.7-.5-3-.6-6-.4-9 .1-1.1.1-2.2.2-3.2.2-1.6.5-3.2.9-4.7 1-4 2.6-7.8 4.8-11.3 1.5-2.4 3.2-4.7 4.9-7 1.4-1.9 2.9-3.8 4.5-5.6.8-.9 1.9-1.7 2.9-2.5 1.4-1.2 2.9-2.4 4.4-3.5.9-.6 1.9-1.1 2.8-1.5 1.4-.7 2.8-1.3 4.3-1.8 2.1-.9 4.2-1.8 6.4-2.5 2.1-.6 4.3-.9 6.5-1.3C45.3.8 47.9.5 50.4.1c3.3-.4 6.6-.2 9.8.7 2.2.6 4.4.9 6.5 1.5 1.2.3 2.3.9 3.5 1.3 1 .4 1.9 1 2.9 1.2 1 .2 1.6 1 2.4 1.5.8.5 1.7 1 2.5 1.6 1.3.9 2.6 1.8 3.8 2.7 1.3 1.1 2.6 2.2 3.8 3.4 1.6 1.6 3.2 3.1 4.6 4.9 1.3 1.7 2.4 3.6 3.5 5.5.6 1 1.3 2 1.8 3.1s1 2.2 1.3 3.4c1.1 3.8 2.1 7.7 2.5 11.6.2 1.7.2 3.3.4 5 .1 1.4.4 2.8.3 4.1 0 1.8-.2 3.6-.5 5.3-.3 2.1-.6 4.1-1.1 6.1-.5 2.5-1.5 4.9-2.7 7.1-1.1 2.1-2.1 4.3-3.5 6.2-1.6 2.4-3.5 4.6-5.4 6.8-1 1.2-2.1 2.4-3.1 3.6-1.4 1.7-3.1 2.9-4.8 4.2-2.3 1.7-5 2.8-7.6 3.8-1.9.7-3.9 1.2-5.8 1.8-2.2.6-4.4 1.3-6.7 1.7-2.2.4-4.5.6-6.7.9-.6.1-1.1 0-1.7.1-.2 0-.4.2-.6.3-.4.7-1.1.6-1.4-.1zm.9-48.1v6.9c.1 2.4.2 4.7.3 7.1.1 2.1.1 4.1.2 6.2.1 1.6.3 3.1.4 4.6.1 2.2.2 4.5.3 6.7.2 2.6.4 5.1.5 7.7.1 2.2.3 4.5.9 6.6h.9c.7-.1 1.4-.2 2.1-.2.8-.1 1.6-.1 2.3-.3 1.6-.3 3.1-.7 4.7-1.1 1.3-.3 2.6-.6 3.8-1 1.2-.4 2.4-.8 3.6-1.3 1.2-.4 2.4-.8 3.6-1.3 1.2-.5 2.4-1.1 3.4-1.8 1.8-1.3 3.5-2.8 5.2-4.3.5-.4 1-.9 1.5-1.5 1.8-2.2 3.5-4.5 5.2-6.7.6-.7 1.2-1.4 1.7-2.1 2-2.9 3.4-6.1 4.7-9.3.6-1.5 1-3.1 1.4-4.7.2-.5.2-1.1.3-1.7h-.1c-.1.2-.1.5-.2.7.6-3.3 1.1-6.6 1.3-9.9H97v1.6c-.1-.4-.1-.8-.1-1.1 0-.5-.2-.7-.6-.8-1.2-.2-2.4-.4-3.6-.5-1.7-.1-3.3-.1-5 0-1.3 0-2.6.2-3.9.3l-9.6.6c-3 .2-5.9.3-8.9.4-.6 0-1.2.1-1.8.2-.6.2-1.2.5-1.7-.2l-.2-.1c-1.1.1-2.2.1-3.3.2h-.6c-.4-.1-.8-.2-1.1-.2-.5 0-1.1.1-1.6.1-1.7.1-3.7.1-5.7.2zm-47-.2c1.2.2 2.3.6 3.5.1.3-.1.6-.1.8 0 1.4.4 2.7.6 4.1.6h2.9c.9 0 1.7-.2 2.6-.3 2.3-.1 4.6-.2 6.9-.4 2.2-.1 4.5-.3 6.7-.5 1.2-.1 2.3-.3 3.5-.5.3 0 .7-.1 1-.1.8 0 1.6.1 2.4.1l5.4-.3c1-.1 2.1-.3 3.1-.4.3 0 .7 0 1 .1.5.1.7.1.6-.4-.1-1.2-.1-2.4-.1-3.6V34.6c0-1 .2-1.9.2-2.9 0-2.1.1-4.2 0-6.4-.1-2.8-.2-5.7-.4-8.5-.1-2.1-.3-4.2-.4-6.3-.1-2.3-.3-4.7-.4-7 0-.7-.3-.8-.9-.7-2.2.5-4.3.9-6.5 1.3-1 .2-2.1.3-3.1.7C32.5 6 29.7 7.2 27 8.5c-1.8.8-3.5 1.7-4.9 3.1-.7.7-1.5 1.2-2.3 1.9-1.4 1.3-2.9 2.7-4.2 4.1-.8.8-1.4 1.9-2.1 2.8-1.7 2.3-3.3 4.5-4.9 6.8-2 2.9-3.4 6.1-4.4 9.4-.5 1.7-1 3.4-1.3 5.2-.2 1.3-.3 2.6-.4 3.9-.2 1.8-.2 3.6-.2 5.4zm12.5 12.6c-.1 0-.2 0-.3.1v.5c.3 1.9.6 3.9 1 5.8.5 2.7 1.1 5.4 1.6 8.1.1.7.5 1.3 1 1.8.1 0 .1 0 .2-.1-1.1-5.4-2.3-10.8-3.5-16.2zm46.1-33.6c0-4.4-.1-8.7-1.2-13-.7 4.5.6 8.7 1.2 13zM41.6 68.3c-.4.3-.7.6-1 .8-.3.2-.4.4-.4.7.1 1 .1 2 .3 2.9.2 1 .6 1.9 1 2.8 0 0 .1 0 .1-.1v-7.1zm30.9-42.1h.2c-.1-.5-.1-1-.2-1.6-.2-1.1-.4-2.3-.8-3.3-1-2.2-2.2-4.2-3.3-6.3-.3-.5-.6-1-.9-1.6-.1 0-.1.1-.2.1 2.2 4 3.7 8.4 5.2 12.7zM44 71.8c-.4 2.9-.4 8.1 0 8.8.9-1.6.9-7 0-8.8zm36-37.2c0 1.3-.1 2.6 0 3.9 0 .5.4 1 .7 1.6.6-1.7.5-3.2.4-4.8 0-.2-.1-.3-.3-.4-.2-.1-.5-.2-.8-.3zm-53.2 53c1.3 1 2.5 2 3.7 2.9 0-.1.1-.1.1-.1-1.1-1.6-2.2-3.3-3.4-5-.1.8.5 1.6-.4 2.2zM14.1 82l-.6-4.2c-.1 0-.1-.1-.2-.1-.3 1.2-1.1.7-1.8.7.1.8 1.6 2.8 2.6 3.6zm21.2-18.6c-.8.7-.8 1-.3 1.7.1.2.2.5.2.7V68c.1 0 .2 0 .2.1.1-.5.1-1 .4-1.4.7-1.2-.3-2.2-.5-3.3zm-14.8 24l.1-.1c-.3-.7-.7-1.5-1-2.2 0-.1-.1-.2-.2-.2-.5-.1-1-.1-1.6-.1.1.4.2.7.4.9.8.6 1.6 1.2 2.3 1.7zM7.8 70.8c.1 0 .1 0 .2-.1l-2.4-6.9c-.1 0-.2.1-.2.1.5 2.4 1.4 4.7 2.4 6.9zm73.5-40.3c.2-.7.3-1.3.4-1.8 0-.1 0-.3-.1-.4-.6-.6-1.2-1.1-1.9-1.8.5 1.4 1 2.6 1.6 4zM35 86.9l-.1.1c.8 1.3 1.6 2.6 2.8 3.8 0-.9-.1-1.5-.7-2-.7-.5-1.3-1.2-2-1.9zm-2-26.6c-.1 0-.1-.1-.2-.1-.4.6-.8 1.4-1.3 1.9-.6.6-.3 1.1.1 1.9.5-1.4.9-2.6 1.4-3.7zm3.3 23.2c-.6.1-1 .2-1.7.4.8.7 1.4 1.3 2 1.9.1 0 .1-.1.2-.1-.2-.8-.3-1.5-.5-2.2zm14.5-34.3c-.6-.7-.4-1.8-1.7-1.7 0 .6.1 1.2.1 1.9.6-.1 1-.1 1.6-.2zM69.5 5.7c-1.1-.4-2.1-.9-3.2-1.3 0 .1 0 .1-.1.2.9.6 1.8 1.3 2.8 1.9.1-.2.3-.5.5-.8zM22.4 88.5c1.1.6 2 1.2 3 1.7-.9-1.7-1.5-2-3-1.7zM57.7 8.8c.1 0 .1 0 .2-.1 0-.4.1-.9-.1-1.1-.6-.6-1.3-1.2-2-1.7-.1 0-.1.1-.2.1.7 1 1.4 1.9 2.1 2.8zm-4.2.6c.2-.4.5-.8.7-1.2.1-.1.1-.3 0-.3-.3-.5-.7-.9-1-1.3-.1 0-.2.1-.2.1.2 1 .3 1.9.5 2.7zm7.4 32.2c-.6.2-1.1.3-1.5.5v.2c.5.3.9.7 1.4 1 .1 0 .1-.1.2-.1-.1-.5-.1-1-.1-1.6zM60.7 12c.6-1.2.5-1.8-.5-2.3-.2.8-.2 1.6.5 2.3zm27.9 8.1c-.7-.8-1.4-1.6-2.2-2.5.1 1.6 1 2.2 2.2 2.5zm-11 28.3v.2c1.3-.1 2.7-.2 4-.3-.5-.5-3.4-.3-4 .1zM49.9 28.7h.3c-.2-1.8-.5-3.7-.7-5.5h-.2c.2 1.8.4 3.7.6 5.5zm39.6-7.3h-.1c0 .2 0 .5-.1.7-.3 1.2-.3 1.2 1 1l.1-.1c-.3-.6-.6-1.1-.9-1.6zM54.6 21h.2c-.2-1.1-.3-2.3-.5-3.4h-.2c-.1 1.2.1 2.3.5 3.4zm15.8 13.3h.2c.1-1.2.3-2.3.4-3.5h-.2c-.1 1.1-.7 2.3-.4 3.5zm4 9.1v-2.3h-.2l-.6 2.1c.3.1.5.1.8.2zM42.2 93.8c-.5-.6-1.1-1.2-1.6-1.8l-.2.2c.1 1 .6 1.5 1.8 1.6zm-10.5-21c-.1 0-.1 0-.2.1.3 1.6.7 3.3 1 4.9.1 0 .2 0 .3-.1-.4-1.6-.7-3.3-1.1-4.9zm52-33.6h-.2c.1 1.3.2 2.6.4 3.9.3-1.3-.1-2.5-.2-3.9zM26.4 80.6c-.1 0-.1 0-.2.1l.6 3c.1 0 .1 0 .2.1.1-.2.3-.4.3-.5-.2-1-.6-1.9-.9-2.7zm-1.9-16.9c-.4.4.1 2.7.8 4.1-.2-1.4-.5-2.7-.8-4.1zm46.7-21v-2.1h-.1c-.2.6-.4 1.3-.7 1.9.3.1.5.1.8.2zM48.4 87.8c.1 0 .1 0 .2-.1-.1-1.1-.3-2.1-.4-3.2-.1 1-.1 1.9 0 2.8-.1.2.1.4.2.5zM37.5 62c.2-.7.4-1.3.5-1.9-1.1.9-1.1 1-.5 1.9zm15.4-20.2c-.5.4-.8 1.9-.5 2.5.2-.9.4-1.7.5-2.5zm7.6 7.4c.4-.1.8-.1.9-.2.1-.4 0-.8 0-1.2h-.2c-.3.4-.4.8-.7 1.4zm-5.9-21.4v2.5c.4-.2.4-.2 0-2.5zm18.5 6.9V37c.5-1 .5-1.4 0-2.3zM59.6 40c.7-.1.7-.3.2-1.6 0 .6-.1 1.1-.2 1.6zm32.5 3.5c.9-.3.9-.5.4-1.3-.1.4-.2.8-.4 1.3zM57 43h-.2c-.2.6-.3 1.2-.5 1.7.1 0 .2 0 .2.1.2-.7.4-1.2.5-1.8zM43.7 95.8l-.6-1.2c-.1 0-.1.1-.2.1.1.4 0 .9.8 1.1zM57.5 2.4c.6.8.9.8 1.2.3-.4-.1-.7-.2-1.2-.3zm6.1 39.8h-.2c0 .4 0 .8.1 1.2h.2c.3-.4.1-.8-.1-1.2zm-8.3 6.7c-.2-.3-.3-.5-.5-.8-.1.4-.2.6-.3.9.3 0 .5 0 .8-.1z"/></svg>