<svg id="Layer_1" xmlns="http://www.w3.org/2000/svg" viewBox="0 0 100 100"><style>.st0{fill-rule:evenodd;clip-rule:evenodd}.st1,.st2{fill:none}.st2{fill-rule:evenodd;clip-rule:evenodd}</style><path class="st0" d="M45.3 99.7c-1.2-.1-2.4-.1-3.5-.2-1.3-.1-2.5-.1-3.8-.2-.7-.1-1.4-.3-2.2-.3-1.8 0-3.5.1-5.3.2-.5 0-1 .2-1.4.4-.9.4-1.9.5-2.8-.2-.3-.2-.7-.4-1.1-.4-.7-.1-1.1-.5-1.4-1-.1-.2-.3-.5-.5-.6-.6-.3-.7-.8-.7-1.4-.2-1.9-.3-3.9-.5-5.8l-.3-5.7c-.1-2-.3-3.9-.4-5.9 0-.7-.1-1.5-.1-2.2 0-2.4-.1-4.9-.1-7.3v-5.3-4.5c0-1-.2-2-.2-2.9 0-2.1.1-4.2.1-6.4 0-1.1-.1-2.2-.2-3.3v-2.6-3.3c0-1 0-1.9.1-2.9 0-1.2.1-2.4.1-3.6 0-1 .2-2 .1-3 0-2.3-.1-4.6-.2-7 0-1.5-.1-3 0-4.5.1-2.9.3-5.9.5-8.8 0-.8.2-1.5.3-2.3v-.4c-.2-.8 0-1.6.2-2.4.1-.3.3-.6.5-1 .5-.8 1-1.5 1.5-2.3.5-.8 1.1-1.2 2-1.3.9-.1 1.7-.3 2.6-.4.4.1.8.1 1.2.5.1.1.2.1.3.1.8.2 1.7.1 2.5-.1 1-.3 2.1-.3 3.1-.3 1-.1 2 0 3.1-.1.6 0 1.2-.2 1.8-.2C41.8.7 43 .6 44.2.6c1.2-.1 2.3-.1 3.5-.1h2.9c.6 0 1.1 0 1.7-.1.7 0 1.4 0 2.1-.1 1 0 2-.1 3-.2 2-.1 3.9 0 5.9.2 1.3.1 2.6.1 3.9.2 1.1 0 2.2.1 3.3.1 1.1 0 2.3 0 3.4-.1 1.7-.1 3.2.5 4.4 1.7.3.3.5.8.6 1.3 0 1.2.1 2.5.1 3.7 0 1.6-.1 3.2-.4 4.8-.2 1-.1 2-.3 3-.3 1.5.1 3 .2 4.5l.3 7.8c.1 2.2 0 4.5 0 6.7v5.4c0 2.7.1 5.4.1 8.2 0 1.2 0 2.3-.1 3.5-.1 1.9-.2 3.7-.2 5.6 0 1.8-.1 3.6-.1 5.4 0 2.5.1 5.1.1 7.6 0 2.1-.1 4.3-.1 6.4 0 1.4.1 2.8 0 4.1-.1 2-.2 3.9-.4 5.9-.2 2.2-.5 4.4-.7 6.6-.1.8.1 1.6.2 2.4 0 .4.1.8-.2 1.1-.1.1-.2.3-.1.5.1.8-.4 1.1-1 1.5-.7.5-1.5.7-2.3 1-.9.4-1.8.3-2.6.4-1.3.2-2.7.2-4.1.1-2.3-.1-4.7.1-7 .2-.8.1-1.6-.1-2.4-.1l-3.3-.3h-1c-1.6.3-3.3.3-4.9.2-1.1 0-2.2-.1-3.2-.2-.2.1-.2.1-.2.2zM28.7 79c.9 0 1.8.1 2.7.1h4.9c1.3 0 2.6.1 3.9.1h3c1.1 0 2.2-.1 3.3-.1 1 0 2 .2 3 .2 2.2-.1 4.3-.3 6.5-.4 1.2-.1 2.4-.4 3.7-.2.5.1 1.1.1 1.6 0 1.4 0 2.8-.2 4.3-.2 1.1 0 2.2.2 3.3.2.3 0 .7 0 .9-.2.5-.4 1.1-.4 1.6.1.1.1.3.2.4.1.1 0 .2-.2.2-.3 0-.3.1-.6.1-.9 0-.9-.1-1.9 0-2.8.2-1.3 0-2.6-.1-4-.1-1.5-.3-3-.3-4.4-.1-1.7-.1-3.4-.1-5.2v-1c-.3-2.6-.5-5.2-.3-7.9 0-.9.1-1.7.1-2.6v-4c.1-1.3.3-2.7.3-4 .1-3.4.1-6.9.1-10.3 0-1.7.1-3.3.1-5 0-1.9-.1-3.8-.2-5.7 0-1.4.1-2.7.1-4.1 0-2.2.1-4.4.1-6.6 0-.9 0-.9-1-1h-.3c-1.1 0-2.3.1-3.4.1h-2.4c-1.4 0-2.8.1-4.1.1-2 0-4.1-.1-6.1-.1-1.1 0-2.2.1-3.2.1-.8 0-1.6.1-2.3.1h-3.2c-2.2.1-4.4.2-6.6.4l-4.2.3c-1.9.2-3.8.3-5.7.1-.7-.1-1.4-.1-2.1-.2v.4c0 1.4.1 2.7.1 4.1 0 1.1-.1 2.1-.2 3.2 0 1.4.1 2.7.1 4.1 0 2.6 0 5.1-.1 7.7v3.6c0 1.5-.1 3 0 4.4 0 1.9.2 3.8.2 5.8 0 2.2 0 4.4.3 6.6.2 1.7.2 3.3.3 5 .1 1.9.1 3.8.2 5.6v3.9c.1 1.8.3 3.6.3 5.4.1 1.9 0 3.7 0 5.6.1 1.5-.1 2.6.2 3.8zm27.4 9.8c-.1-.5-.1-.9-.1-1.4-.2-1-.6-1.8-1.4-2.4-.6-.5-1.4-.9-2.1-1.4-.4-.2-.8-.3-1.3-.1-.4.2-.9.1-1.4.1-.5 0-1-.1-1.4.1-.6.3-1.1.7-1.6 1.1-.1.1-.2.2-.2.3-.3.8-.7 1.6-1 2.5-.4 1-.2 2 0 3 .1.7.1 1.4.7 1.8.7.5 1.5.9 2.3 1.3.8.3 1.6.5 2.4.7.4.1.8.1 1.1 0 1.3-.3 2.2-1.2 3-2.2.3-.4.4-.9.5-1.4.3-.7.4-1.4.5-2zM54.2 8.3V8c-3.1-.1-6.1-.2-9.3-.3.3.8.3.8 1.1.8h.1c1.2 0 2.5 0 3.7-.1.8 0 1.6-.1 2.4-.1h2zm-14.9.5v-.2c-3.6 0-7.2 0-10.9.3.2.1.4.2.6.2.5.1 1.1.1 1.6.1.4 0 .9.1 1.3.1 1.5-.1 2.9-.2 4.4-.3 1-.1 2-.2 3-.2zm33.6 44h.1c0-.5.1-1 .1-1.5.1-.7.1-1.4.1-2.1.1-1.6.3-3.3.4-4.9 0-.5-.1-1-.2-1.5h-.2c0 3.5-.2 6.7-.3 10zm3.7-10.7c.1 4.1.1 8.1.2 12.1.1-.3.1-.7.1-1 0-1.5.1-3.1.1-4.6 0-2 0-4-.1-6.1 0-.2-.2-.3-.3-.4zm-14.2 43h-.1c-.3 2.4-.2 4.8-.1 7.3.2-.1.3-.2.3-.4v-3.3-2.1c0-.5 0-1-.1-1.5zm-38.8-4.6v-.4c0-.9-.1-1.7 0-2.6.1-.8-.3-1.6-.1-2.5.1-.5 0-1.1-.1-1.6 0-.4-.1-.8-.2-1.1-.2 2.7.1 5.5.4 8.2zm18.2 1.4v-.2h-3.7l.3.9c0 .1.2.1.3.1.8-.2 1.5-.3 2.3-.5.3 0 .5-.1.8-.3zm34.8-10.4c.1 0 .1 0 0 0 .1-2.2.1-4.4.1-6.6-.5 0-.6.3-.6.7.1 1.3.3 2.6.4 4 .1.6.1 1.2.1 1.9zm-4.4 15.6c.4-.6.4-.6.8-.2.1-.6.2-1.1.3-1.7-.4 0-.7-.1-1.1-.1v2zm4-1.3h.2c.1-2.6.2-5.2.4-7.8h-.2c-.2 2.6-.3 5.2-.4 7.8zm-38.6 1.6h-.2c0 1.7-.2 3.4.1 5.2h.1v-5.2zM61.5 98c-.8-.5-3.2-.5-3.7 0h3.7zm-22.2-4.7c.4-.3.4-4 0-4.9v4.9zm1.1 4.6v-.2c-1.1-.5-2.3-.7-3.7-.3 1.4.2 2.5.3 3.7.5zM33 93c0 .1 0 .1 0 0 0 .7.1 1.3-.5 1.7 0 0 0 .3.1.3.2.1.4.2.5.2 0-.4 0-.7.1-1 .4-.5.4-.7-.2-1.2zm-.2-5.4h.1c.4-1.3.4-2.9 0-3.5 0 1.2 0 2.3-.1 3.5zm40 9.1h.1c.1-.4.2-.7.4-1.2-.7.1-.8-.3-.9-.8-.4.9.1 1.4.4 2zM49.6 98c.8-.1 1.6-.1 2.4-.2-.8-.5-1.9-.4-2.4.2zm-5.4-16.4c.9.1 1.7-.4 2.1-1.1-.5-.2-.6-.2-.8.2-.1.2-.3.4-.5.5-.2.1-.5.2-.8.4zm26.3 2.5h-.1v4.3h.1v-4.3zm4.9-63h.3c-.1-1.2-.2-2.3-.3-3.5h-.1c0 1.2 0 2.4.1 3.5zm-3.2 61.4h.1c.1-.7.1-1.5.2-2.2 0 0-.1 0-.1-.1-.1.1-.4.2-.4.3 0 .7.1 1.4.2 2zm4.3-70.9c.2-.5.3-.9.4-1.4 0-.3-.1-.4-.4-.4-.1 0-.3.2-.2.2 0 .6.1 1.1.2 1.6zM68 80.2c-.1.3-.1.6-.3.7-.5.4-.2.9-.1 1.3.1-.4.1-.8.3-1.1.2-.3.6-.5.9-.8-.2-.1-.5-.1-.8-.1zm1.2 16.6c.7-.3.7-.4.5-1.2-.3.1-.5.3-.8.4.1.3.2.5.3.8zM62.9 95c-.1-.5-.1-1-.2-1.5h-.2c-.1.2-.3.5-.3.8 0 .3.2.7.7.7zm1.7-5.8h.1v-3h-.1v3zm-24-87v.2c.4 0 .9-.1 1.3-.1h.4c.4.1.4.1.3-.4-.7.1-1.4.2-2 .3zm33.1 29.9h.1v-4.3h-.1v4.3zm-15 63.1c.7-.1 1.2-1 1-1.6-.3.4-.6 1-1 1.6zM26.3 5.6c.8-.2.8-.2.5-.9-.7.3-.7.3-.5.9zM76.8 4c0-.8-.1-.9-.9-1.3v.5l.1-.1c.3.3.5.6.8.9zM24 89c.3-1 .2-2-.2-2.2.1.6.1 1.4.2 2.2zm35.2-5.8v-.7c0-.1-.1-.3-.2-.4 0 0-.3 0-.3.1s-.1.3 0 .5.3.3.5.5zm-36-14.1l-.1.1c.3.2.7.5 1 .8 0-.9 0-.9-.9-.9zM53.4 4.8c-.6-.3-1.2-.3-1.5.1.3-.1.6-.1.9-.1l.2.2c.1-.1.2-.1.4-.2zm10 3.4c-.5-.3-1-.1-1.5 0h1.5zM30.9 90s-.1 0 0 0c-.1.6-.1 1.1-.1 1.6h.1V90zm16.6 8v-.2h-1.2v.1c.4.1.8.1 1.2.1zM74.8 5.8s.1 0 .1-.1c-.1-.3-.2-.5-.4-.7 0 0-.2.1-.4.1.4.2.6.5.7.7zm-47 74.8c-.4-.1-.6-.2-.9-.3.1.2.1.4.2.5.2 0 .5-.1.7-.2zM24 7.3c.1 0 .2 0 .2.1.1-.3.1-.6.2-.9h-.2c-.1.1-.1.4-.2.8zm47.3 90.3c-.1-.2-.1-.3-.2-.5-.2.2-.4.3-.5.4v.1h.7z"/><path class="st0" d="M61.8 37.9c-.1 1.9-.5 3.6-1.3 5.2-.4.8-.6 1.7-1 2.5-.2.6-.5 1.1-.7 1.7-.6 1.3-1.1 2.6-1.3 4.1v2.8c0 .2.1.5 0 .6-.1.5-1 .9-1.4.9-.9-.1-1.8-.1-2.7-.3-.9-.1-1.8 0-2.7 0-.5 0-1-.1-1.4-.2-.5-.1-1-.2-1.6-.2-.8-.1-1.6-.1-2.4-.1-1 0-2 0-3 .1-.4 0-.7.1-1.1.1H41c-.5-.2-.5-.3-.3-.8.2-.3.2-.6.3-.9.1-.5.1-1.1.2-1.6.1-1.6-.4-2.9-1.2-4.2-.4-.7-.8-1.5-1.2-2.3-.2-.5-.3-1.1-.5-1.6-.3-.9-.6-1.8-.8-2.7-.3-1.3-.4-2.6-.3-3.9.2-1.3.4-2.6 1-3.7.3-.6.7-1.2 1.1-1.8.7-1.1 1.7-1.9 2.6-2.8.2-.2.4-.2.7-.4.6-.3 1.1-.8 1.8-1 .8-.3 1.6-.4 2.4-.6.6-.1 1.2-.3 1.8-.4.3-.1.7-.1 1-.1h3.1c.5 0 1.1.3 1.6.4 1.1.2 1.9.8 2.8 1.3.2.1.3.3.4.5.4.5.9.9 1.2 1.4.9 1.2 1.5 2.6 1.9 4 .3 1 .6 1.9.9 2.9.3.3.2.7.3 1.1zM42.2 54.1c.7 0 1.4-.1 2-.1l.1-.1c.3-.7.5-1.4.7-2.1.3-1.1.5-2.2.7-3.3.2-1.2.4-2.3.6-3.5.1-.5 0-.4-.4-.6-.5-.2-1-.5-1.3-1-.5-.8-.8-1.7-.8-2.8 0-.8.1-1.5.9-1.9.3-.2.7-.3 1-.4.6-.2 1.4.3 1.5 1 .1 1.1.3 2.1.4 3.1v.9c0 .2.1.3.3.2.5-.1.9-.3 1.3-.6.3-.2.4-.4.2-.7-.1-.2-.1-.3-.2-.5-.3-1-.4-2 .2-2.9.1-.2.3-.4.4-.6.2-.6.7-1 1.3-1.1.3-.1.6-.1.8.1.4.3.6.9.6 1.4 0 .6-.1 1.2-.4 1.8-.3.6-.6 1.3-.9 1.9-.1.3-.1.5.2.6.3.1.6.2.8.2.5 0 .6 0 .7-.5.2-1.2.5-2.3.7-3.5.2-.9.7-1.6 1.6-1.9.2-.1.5-.1.7-.1.5.1 1.1.9 1.1 1.4-.1.8-.1 1.6-.5 2.3-.5 1.1-1.2 2-2.2 2.7-.1.1-.2.2-.2.3-.2 1.2-.5 2.3-.4 3.5 0 .7.1 1.4 0 2-.1 1.3 0 2.6.6 3.8.2.4.4.8.5 1.1.1.2.1.4.3.4.2 0 .5 0 .6-.3.1-.4.2-.9.2-1.3s-.1-.9 0-1.3c.2-1.3.6-2.6 1.1-3.9.4-.9.8-1.9 1.2-2.8.2-.5.3-1 .6-1.5.5-1.1 1-2.2 1.2-3.5.2-1.2.5-2.3.2-3.5-.2-.8-.4-1.5-.7-2.3-.4-1-.6-2.1-1.2-3.1-.5-.9-1.1-1.8-1.9-2.5-1-1-2.2-1.4-3.5-1.6h-1.2c-.4 0-.8-.1-1.1 0-.9.1-1.8.2-2.8.4-.7.1-1.4.1-2 .5-.1.1-.2 0-.3.1-.2 0-.3 0-.5.1-.7.4-1.5.8-2.1 1.3-1.2.8-2 2-2.7 3.1-.8 1.3-1.3 2.8-1.4 4.4-.1 1.3-.1 2.5.2 3.8.2 1 .5 2 .8 3 .2.8.5 1.5.8 2.2.5 1.1 1.1 2.2 1.6 3.3.4.8.4 1.7.4 2.6-.2.7-.3 1.4-.4 2.3zm11.2.2c0-.1-.1-.3-.2-.5-.5-1-.7-2.1-.7-3.2v-3.1c0-.7.1-1.4.1-2.2 0-.4.1-.9.1-1.4-.8 0-1.5-.1-2.2-.5h-.2c-.6.5-1.4.8-2.2.9-.3 0-.4.2-.4.5-.1.8-.2 1.5-.3 2.3l-.6 2.4c-.2 1-.5 2-.8 3-.1.4-.2.9-.3 1.3.6 0 1.1.1 1.7.1.8.1 1.7.2 2.5.3.4 0 .7.1 1.1.1.8.2 1.5.1 2.4 0zm-7-10.9c0-.1.1-.1 0 0 .1-.2.1-.2.1-.3 0-1.1-.2-2.1-.4-3.2 0-.2-.2-.3-.3-.5l-.4.4c-.5 1 .1 3 1 3.6zm8.3-1.8c.8-.6 1.4-2.8.9-3.4-.6 1.1-.6 2.3-.9 3.4zm-4.1-.4c.6-.8.9-2.2.6-2.7-.5.6-.9 1.9-.6 2.7zM40.6 65.3c0-.5.1-.9.5-1.2.2-.1.4-.2.6-.1.6.4 1.3.4 2 .4.7.1 1.5.1 2.2.1 1.1.1 2.3.1 3.4.2.8 0 1.7.1 2.5.1.4 0 .8.1 1.2.1.3 0 .5-.1.8-.1.6 0 1.1-.1 1.7-.1.3 0 .7.3.6.7-.1.6-.2 1.2-.3 1.7-.1.5-.3 1-.5 1.5-.1.4-.6.6-1.1.6-.2 0-.5 0-.7.1-.1 0-.2.1-.3.1-.6-.1-1.1-.1-1.7.1-.8.2-1.5 0-2.3 0-.8 0-1.6-.1-2.5-.1h-2.1c-.6 0-1.2 0-1.8-.1-.7-.1-1.1-.7-1.5-1.3-.4-.6-.5-1.3-.8-1.9.1-.4.1-.6.1-.8zm4.4 3h1.1c.1 0 .2-.1.2-.1 0-.1-.1-.3-.2-.3-.3-.1-.6-.1-.9-.2 0 .1-.1.3-.2.6zm4 0c-.2-.3-.4-.5-.7-.8-.1.2-.1.5-.2.8h.9zm.2-2c.1-.3.1-.4.1-.7h-.6c.1.3.2.5.5.7zM41.4 60c.5 0 1 .1 1.6.1 1.3 0 2.5 0 3.8.1 1.1.1 2.1.2 3.2.3h1.7c.8 0 1.5.1 2.3.1.7 0 1.4 0 2.1-.1.6 0 1.1 0 1.5.6.3.5.3 1 .1 1.6-.1.2-.2.5-.3.7-.2.3-.5.5-.9.6-.2 0-.5.2-.7.2-.8 0-1.6-.1-2.5 0-.8 0-1.6 0-2.5-.1-.4-.1-.8.1-1.1.1h-2c-.9-.1-1.9-.2-2.8-.3-1.1-.1-2.2-.2-3.2-.4-.5-.1-1-.2-1.3-.6-.5-.5-.5-1.2-.1-1.8.1-.2.3-.4.5-.6.2-.2.5-.3.7-.4-.1-.2-.1-.1-.1-.1zm12.4 3.2c.4 0 .8.1 1.2.1.4 0 .8-.1 1.1-.5.1-.1.1-.3-.1-.3s-.6 0-.7.1c-.3.2-.7.3-1 .2-.4-.1-.4.1-.5.4zm-3.3-.1V63c-1.4 0-2.8-.1-4.2-.1v.1c1.4.2 2.8.3 4.2.1zm.2-1.1c0-.5-1-.8-1.5-.6l1.5.6zm-6.2.4c-.2-.2-.4-.2-.6 0 .3.2.4.2.6 0zM40.1 57.6c.1-1.1.7-2 1.8-2h.1c.4.4 1 .2 1.5.3.5.1 1 .1 1.6.1.6 0 1.2.1 1.8.1h3.5c.5 0 .9.1 1.4.1.3 0 .6-.1.9 0 .5 0 1 .1 1.4.1h1c.3 0 .7-.1 1-.1.2 0 .5.1.7.3.5.6.9 1.2.9 2 0 .4-.3.7-.7.8-.2.1-.4.1-.6.2-.4.2-.7.3-1.2.2-.4-.1-.8.1-1.2 0-.5 0-1-.2-1.5-.3h-3.6c-.7 0-1.3.1-2 .1-.8 0-1.6-.1-2.5-.2-.6 0-1.2-.1-1.8-.1-.5.1-.9.1-1.4 0-.2-.1-.4-.1-.6-.3-.1-.4-.5-.9-.5-1.3zm8.2.9l-1.8-.3h-1.9c.1.5 2.8.7 3.7.3zm4.1-1.3c0 .1.1.3.1.4.3.5.7.8 1.2 1 .1.1.2 0 .4 0-.1-.1-.1-.2-.2-.3-.4-.2-.7-.4-.9-.8-.1-.3-.3-.4-.6-.3zm-3.1-.2c.3.4 1.1.5 1.5.2-.1-.1-.2-.2-.3-.2h-1.2zm-6.4-.1c0-.1 0-.1 0 0-.5-.1-.5 0-.4.3.2-.1.3-.2.4-.3z"/><path class="st0" d="M53.8 71.1c-.1.6-.1 1.2-.2 1.8-.1.4-.3.6-.7.7l-1.8.3c-.6.1-1.3.1-1.9.1-.6 0-1.3-.1-1.9-.2-.4 0-.7 0-1.1-.1-.4 0-.8 0-1.2-.1-.4 0-.7-.1-1.1-.2-.4-.2-.7-.4-.8-.9-.1-.6-.3-1.1-.5-1.7 0-.1 0-.4.1-.5.3-.3.5-.6 1-.5.2 0 .5-.1.8-.1.2 0 .4.1.6.1.4.1.9.1 1.3.1.3 0 .6 0 .9.1.7.2 1.4.1 2.1 0 .6 0 1.2 0 1.8-.1.3 0 .6-.1.8-.2.3-.1.6-.2.9-.2.4 0 .6.2.7.7.2.4.2.6.2.9z"/></svg>