<svg id="Layer_1" xmlns="http://www.w3.org/2000/svg" viewBox="0 0 100 100"><style>.st0{fill-rule:evenodd;clip-rule:evenodd}.st1,.st2{fill:none}.st2{fill-rule:evenodd;clip-rule:evenodd}</style><path class="st0" d="M75.7 24.6c-.2 4-1.1 7.4-2.7 10.8-.8 1.7-1.4 3.6-2.1 5.3-.5 1.2-1 2.3-1.5 3.5-1.2 2.7-2.3 5.5-2.7 8.5-.1.6 0 1.2 0 1.8v4.2c0 .5.2.9.1 1.4-.2 1-2 1.9-3 1.8-1.9-.2-3.8-.3-5.7-.6-1.9-.3-3.8 0-5.7.1-1 .1-2-.2-3-.4-1.1-.2-2.2-.4-3.3-.5-1.7-.2-3.3-.3-5-.3-2.1 0-4.1.1-6.2.1-.8 0-1.6.2-2.4.2h-.3c-1.1-.4-1.1-.6-.5-1.6.3-.6.5-1.2.6-1.9.2-1.1.3-2.2.4-3.4.2-3.3-.9-6.1-2.5-8.9-.9-1.6-1.8-3.2-2.5-4.8-.5-1.1-.7-2.3-1-3.5-.5-1.9-1.2-3.8-1.6-5.7-.6-2.7-.9-5.3-.6-8.1.4-2.7.9-5.3 2.1-7.8.6-1.3 1.5-2.6 2.3-3.8 1.4-2.3 3.6-4 5.4-5.9.4-.4.9-.5 1.4-.8 1.2-.7 2.4-1.6 3.7-2.1 1.6-.6 3.3-.8 5-1.2C45.7.7 47 .4 48.2.1c.7 0 1.4-.1 2.1-.1 2.2 0 4.3-.1 6.5.1 1.1.1 2.2.7 3.3.9 2.2.4 4 1.6 5.9 2.7.4.2.6.6.9.9.9 1 1.8 1.9 2.6 3 1.8 2.6 3.2 5.4 4 8.4.5 2 1.3 4 1.8 6 .3 1 .3 2 .4 2.6zM34.6 58.5c1.4-.1 2.8-.1 4.2-.2.1 0 .2-.1.2-.2.5-1.5 1.2-2.9 1.6-4.5.6-2.3 1.1-4.5 1.5-6.8.5-2.4.9-4.9 1.3-7.3.2-1 .1-.9-.8-1.3-1.1-.4-2.1-1-2.7-2-1.1-1.8-1.7-3.7-1.6-5.8.1-1.6.3-3.1 1.9-4 .7-.4 1.4-.5 2.2-.8 1.3-.4 2.9.7 3.1 2.1.3 2.2.7 4.4.9 6.6.1.7 0 1.3 0 2 0 .4.2.6.7.5 1-.3 1.9-.6 2.7-1.2.6-.4.7-.9.5-1.5-.1-.3-.3-.7-.4-1.1-.7-2.1-.8-4.1.5-6.1.3-.4.6-.8.8-1.3.5-1.2 1.4-2 2.6-2.4.5-.2 1.3-.2 1.7.1.9.7 1.2 1.8 1.3 2.9.1 1.3-.3 2.5-.8 3.7-.6 1.3-1.2 2.6-1.9 3.9-.3.6-.2 1 .4 1.2.6.2 1.2.4 1.8.5 1 .1 1.2-.1 1.4-1.1.5-2.4 1.1-4.8 1.5-7.3.4-1.9 1.4-3.3 3.3-4 .4-.2 1-.3 1.4-.2 1 .2 2.3 1.8 2.2 2.9-.2 1.7-.3 3.4-1 4.9-1 2.2-2.5 4.2-4.6 5.6-.3.3-.5.5-.5.7-.5 2.4-1 4.8-.9 7.4.1 1.4.1 2.8.1 4.2-.2 2.8 0 5.4 1.3 7.9.4.8.8 1.6 1.1 2.4.1.4.1.7.7.7.5 0 1.1 0 1.2-.6.2-.9.3-1.8.4-2.8 0-.9-.2-1.8-.1-2.7.4-2.8 1.3-5.5 2.3-8.1.8-2 1.6-3.9 2.4-5.9.4-1 .7-2.2 1.2-3.2 1.1-2.3 2.1-4.7 2.6-7.2.5-2.4 1-4.8.3-7.3-.4-1.6-.9-3.2-1.4-4.7-.8-2.2-1.3-4.5-2.5-6.5-1.1-2-2.4-3.7-3.9-5.3-2-2.1-4.7-2.8-7.4-3.4-1-.2-1.9-.2-2.9-.3-.8 0-1.6-.1-2.4 0-1.9.2-3.9.5-5.8.8-1.5.2-3 .2-4.3 1.1-.2.1-.5.1-.7.1-.3.1-.7 0-.9.2-1.5.9-3.1 1.7-4.5 2.8-2.4 1.7-4.2 4.1-5.8 6.6-1.8 2.8-2.6 5.9-3 9.1-.3 2.7-.2 5.3.4 7.9.5 2.1 1 4.2 1.6 6.2.5 1.6 1 3.1 1.7 4.6 1.1 2.4 2.3 4.6 3.4 7 .9 1.8.9 3.6.8 5.5.1 1.7-.2 3.3-.4 5zm23.4.6c-.1-.3-.2-.7-.3-1-1.1-2.1-1.5-4.3-1.5-6.6v-6.4c0-1.5.2-3 .3-4.5.1-.9.2-1.8.3-2.8-1.7 0-3.2-.3-4.7-1-.1-.1-.4 0-.5.1-1.3 1.1-3 1.6-4.6 1.9-.7.1-.8.4-.9 1-.2 1.6-.3 3.2-.6 4.8-.3 1.7-.8 3.4-1.2 5.1-.5 2.1-1.1 4.2-1.6 6.2-.2.9-.4 1.8-.6 2.8 1.3.1 2.4.2 3.5.3 1.8.2 3.5.4 5.3.6.8.1 1.5.3 2.3.2 1.5-.3 3.1-.5 4.8-.7zm-14.6-23l.1-.1v-.6c0-2.3-.4-4.5-.8-6.6-.1-.3-.4-.6-.6-.9-.3.3-.6.5-.8.9-1 2 .2 6.2 2.1 7.3zm17.5-3.7c1.7-1.3 2.9-5.8 1.8-7-1.3 2.2-1.3 4.7-1.8 7zm-8.6-.8c1.3-1.6 2-4.7 1.3-5.6-1.3 1.2-2 4-1.3 5.6zM31.2 82c-.1-1 .1-1.9 1.1-2.6.4-.3.9-.4 1.2-.1 1.3.9 2.8.8 4.3.9 1.6.1 3.1.2 4.7.3 2.4.1 4.7.2 7.1.3 1.8.1 3.5.1 5.3.2.8 0 1.6.2 2.4.2.6 0 1.1-.2 1.7-.2 1.2-.1 2.3-.2 3.5-.2.7 0 1.4.7 1.4 1.4-.1 1.2-.4 2.4-.7 3.6-.3 1.1-.7 2.1-1 3.1-.3.8-1.2 1.3-2.4 1.2-.5-.1-1 .1-1.4.1-.2 0-.4.1-.6.1-1.2-.2-2.3-.2-3.5.1-1.6.5-3.2.1-4.8 0-1.7-.1-3.5-.3-5.2-.3-1.4 0-2.9.1-4.3.1-1.3 0-2.6 0-3.8-.2-1.5-.3-2.4-1.5-3.2-2.8-.8-1.2-1.2-2.6-1.7-4-.1-.3 0-.8-.1-1.2zm9.3 6.2h2.3c.2 0 .5-.2.5-.3-.1-.2-.2-.6-.3-.7-.6-.2-1.3-.3-1.9-.4-.2.5-.4.9-.6 1.4zm8.3.2c-.5-.5-.9-1.1-1.4-1.6-.1.5-.2 1-.3 1.6h1.7zm.4-4.2c.1-.6.2-.9.3-1.4-.5 0-.8 0-1.3.1.3.4.6.8 1 1.3zM33 70.9c1.1.1 2.2.1 3.3.2 2.7.1 5.3.1 8 .2 2.2.1 4.4.4 6.7.5 1.2.1 2.4 0 3.6 0 1.6.1 3.2.3 4.8.3 1.5 0 3 0 4.4-.1 1.2-.1 2.4 0 3.1 1.2.7 1.1.7 2.2.2 3.3-.2.5-.4 1-.7 1.4-.4.7-1 1.1-1.9 1.3-.5.1-1 .3-1.5.3-1.7 0-3.5-.1-5.2-.1-1.7.1-3.4 0-5.2-.3-.8-.1-1.6.2-2.4.2-1.4 0-2.8.1-4.2 0-2-.1-3.9-.4-5.9-.6-2.3-.3-4.6-.5-6.8-.9-1-.2-2-.4-2.7-1.3-1-1.1-1.1-2.4-.3-3.7.3-.4.6-.9 1-1.3s1-.6 1.6-.9c0 .2.1.2.1.3zm26 6.7c.9.1 1.7.2 2.5.2.9 0 1.7-.2 2.3-1 .2-.3.2-.6-.2-.6-.5 0-1.2 0-1.5.3-.7.5-1.4.6-2.2.3-.7-.1-.8.2-.9.8zm-7-.2v-.3c-2.9-.1-5.9-.2-8.8-.2v.2c2.9.5 5.8.8 8.8.3zm.5-2.4c0-1-2.1-1.7-3.3-1.2l3.3 1.2zm-13.1.9c-.5-.5-.8-.5-1.3-.1.6.5.9.5 1.3.1zM30.2 65.8c.1-2.3 1.5-4.2 3.7-4.1.1 0 .2 0 .3.1.9.9 2 .5 3.1.6 1.1.1 2.2.1 3.4.2 1.2.1 2.5.1 3.7.2 2.5.1 4.9 0 7.4.1 1 0 2 .2 2.9.2.7 0 1.3-.1 2-.1 1 0 2 .2 3 .3.7 0 1.4 0 2.1-.1.7 0 1.4-.2 2.1-.2.5 0 1.1.2 1.5.6 1.1 1.2 1.9 2.5 1.8 4.2 0 .9-.5 1.5-1.4 1.7-.4.1-.8.3-1.2.4-.8.3-1.5.6-2.4.5-.8-.1-1.7.1-2.5.1-1-.1-2.1-.5-3.1-.5-1.1-.1-2.1 0-3.2.1H49c-1.4 0-2.8.2-4.2.1-1.7-.1-3.4-.2-5.2-.4-1.3-.1-2.6-.3-3.8-.1-1 .1-1.9.2-2.9-.1-.4-.1-.9-.3-1.2-.6-.8-1.1-1.4-2.2-1.5-3.2zm17.1 2c-1.2-.2-2.5-.5-3.7-.6-1.3-.1-2.6 0-3.9 0 .2.9 5.9 1.4 7.6.6zM56 65c.1.3.2.5.3.8.6 1 1.5 1.6 2.5 2.1.2.1.5 0 .8-.1-.1-.2-.3-.5-.5-.6-.8-.3-1.4-.9-1.8-1.7-.2-.5-.6-.6-1.3-.5zm-6.6-.3c.7.9 2.2 1.1 3.2.4-.3-.2-.4-.4-.7-.4-.8-.1-1.5 0-2.5 0zm-13.3-.3l-.2-.2c-.8 0-.9.1-.7.8.4-.2.6-.4.9-.6zM58.9 94c-.1 1.2-.3 2.5-.4 3.8-.1.8-.7 1.2-1.4 1.4-1.2.3-2.5.4-3.7.5-1.4.1-2.7.3-4.1.3-1.3 0-2.6-.3-4-.4-.7-.1-1.5-.1-2.2-.1-.8-.1-1.6-.1-2.4-.2-.7-.1-1.5-.1-2.2-.4-.8-.4-1.6-.8-1.7-1.9-.2-1.2-.7-2.4-1-3.6-.1-.3 0-.8.2-1 .6-.5 1.1-1.2 2.1-1 .5.1 1.1-.2 1.6-.2.4 0 .9.2 1.3.2.9.1 1.8.2 2.8.3.6.1 1.3 0 1.9.2 1.5.3 2.9.1 4.3 0 1.3-.1 2.5-.1 3.8-.2.6 0 1.2-.2 1.8-.4.6-.1 1.2-.3 1.8-.4.9 0 1.4.5 1.5 1.5V94z"/></svg>