<svg id="Layer_1" xmlns="http://www.w3.org/2000/svg" viewBox="0 0 100 100"><style>.st0{fill-rule:evenodd;clip-rule:evenodd}.st1,.st2{fill:none}.st2{fill-rule:evenodd;clip-rule:evenodd}</style><path class="st0" d="M63.7 41.7c5.2-7.7 10-15.5 14.6-23.6-.7-.5-1.4-.9-2.1-1.4-.5-.3-1-.7-1.4-1.1-.6-.5-.6-.9-.1-1.5.2-.2.4-.5.5-.8l2.4-7.2c.3-.8.6-1.7.9-2.5.2-.8.4-1.7.6-2.5.1-.2.1-.5.3-.7.4-.4 2.1-.3 2.5 0 .4.3.8.7 1.3 1 1 .6 1.9 1.2 2.9 1.8.6.4 1.3.7 2 1.1.7.4 1.4.8 2 1.2 2.1 1.3 4.2 2.7 6.4 4 .4.3.9.5 1.4.6.6.2 1 .6.9 1.3.2.1.3.1.4.2 1.1.6 1.1.9.3 1.7-2.9 2.7-5.9 5.5-8.8 8.2-.7.6-1.3 1.2-1.9 1.9-.8.8-1 .8-1.9.2-.4-.3-.9-.6-1.3-.9-.1-.1-.3-.1-.5-.2C79.8 30 74 37 69.7 45.2c.1.1.3.3.5.4 1.2.7 2.5 1.4 3.7 2.1.3.2.5.4.8.5l1.5.9c.2.1.4.4.6.6.1.2.2.4.4.6.6.8.7 1 0 1.9-1.5 2-3 3.9-4.5 5.8-1.3 1.6-2.5 3.2-3.8 4.8-.3.4-.5.9-.7 1.3 1.9 1.7 3.8 3.3 5.6 5 2.2 2.2 4.2 4.5 6.3 6.7.9.9 1.8 1.8 2.7 2.6 3.3 3.4 5.9 7.3 7.9 11.7.3.7.6 1.3.7 2 .1.6 0 1.3-.2 2-.1.6-.5 1.2-.6 1.8-.5 1.9-2.1 3.2-4 3.2h-.3c-1.8.7-3.7.5-5.5.4-1.7-.1-3.4 0-5 0-2.4 0-4.7-.1-7.1-.1-4.6.1-9.2.3-13.7.3-3 0-6-.1-9-.2-2.6-.1-5.1-.2-7.7-.4-2-.1-4.1-.4-6.1-.5-.9-.1-1.8-.1-2.7-.1-3.1 0-6.1-.2-9.1-.6-1.1-.1-2.2 0-3.3-.1-1.5-.1-3-.1-4.5-.2-1.1-.1-2.3-.1-3.4-.2-.7-.1-1.5-.2-2.2-.2-.7 0-1.4 0-2.1.1-.2 0-.5.1-.6 0-1.3-.5-2.6-.6-3.3-1.5-1.1-1.4-1.1-2.8-.7-4.5.3-1.2.9-2.3 1.7-3.3 1.9-2.4 3.9-4.9 5.9-7.2 2-2.2 4-4.3 6.2-6.2 2.8-2.4 5.7-4.5 8.8-6.5 1.6-1.1 3.3-2.1 5-3 1.4-.8 2.7-1.8 4.1-2.6.9-.6 2-1 2.9-1.6.6-.3 1.2-.7 1.8-1 .7-.3 1.3-.7 2-1 .5-.2 1.1-.4 1.6-.6 1.4-.6 2.8-1.2 4.3-1.3.6 0 1-.2 1.3-.7 1-1.8 2-3.5 3-5.3l4.8-9.6c.5-1.1.9-2.3 1.3-3.5.4-.2.7-.4 1.2-.5.3-.1.7 0 1 .1 1.3.8 2.5 1.6 3.7 2.4.9.5 1.8 1.1 2.8 1.8zM95 12.9c-.8-.6-1.4-1.1-2-1.7-1.9-1.6-4.2-2.7-6.4-3.9-1.6-.9-3.3-1.8-5.1-2.7-.8 3.2-2 6.2-2.6 9.4 3.1 2 6 3.9 9.1 5.9 2.4-2.3 4.6-4.6 7-7zm-64 71c-2.2.2-4.3 1-6 2.5-.6.5-1.1 1.3-1.5 2-.4.7-.2 1.4.4 1.8 1.3 1 2.8 1.7 4.5 1.4 1.9-.3 3.8-.9 5.4-2 .8-.5 1.4-1.3 1.7-2.1.5-1.3 0-2.3-1.2-2.7-.5-.2-1-.2-1.5-.3l-1.8-.6zm7.6-12.8V71h.5c1.4-.1 2.8-.3 3.7-1.6l.3-.3c1.1-.6 1.6-1.7 2.1-2.8.5-1.1 0-2.3-1.1-2.7-.6-.3-1.3-.3-2-.2-1.1.3-2.4.4-3.3 1.2-1.1 1-2.2 2.1-3.3 3.2-1 1.1-.7 2.3.7 2.8.8.3 1.6.4 2.4.5zm8.3 11.2c2.8-.2 4.6-1 5.5-3.7.4-1.1.2-2.1-.7-2.9-1.4-1.4-1.3-1.4-3.2-1-1.9.4-3.4 1.5-4.5 3.1-.6.9-.7 1.9-.1 2.8.8 1.1 1.9 1.7 3 1.7zm28.3 5.6c-1-1.1-2.1-1-3.2-1-2.2 0-3.7 1.1-4.8 2.8-.6 1 0 2.2 1.1 2.4 1.5.3 2.9.1 4.3-.2.9-.2 1.7-.7 2-1.6.3-.9.4-1.7.6-2.4zm-52.7-7.3v.1c1-.3 2-.6 2.9-1 1.6-.7 2.1-2.2 2.1-3.8 0-.7-.3-1-.9-1.1h-.7l-2.4.3c-1 .1-1.8.5-2.2 1.4-.2.5-.5 1-.7 1.5-.6 1.6-.2 2.3 1.6 2.5.1.1.2.1.3.1zm25.1 17.1c-2.9-.2-5.8-.6-8.7-.2 2.9.3 5.8.4 8.7.2zm23.5-48.8v-.3c-.4-.2-.8-.5-1.2-.7-.4.8-.7 1.4-1 2.1.7-.6 1.3-1.2 2.2-1.1zm-54 44.4v.2h1.1c.1-.3.2-.5.3-.9-.6.2-1 .5-1.4.7zm7.8-9.3c.8-.2 1.5-.5 2-1.1-.8.1-1.4.5-2 1.1zm21.4 1c.6.1 1.2.5 1.9 0-.7-.3-1.3-.5-1.9 0zM59 42.5c.8-.8.8-.8.1-1.3-.3.4-.5.8-.1 1.3zm16.2 35.2c-.3-.4-.5-.7-1-.9.1.7.2 1.1 1 .9zm-32.5-4.8c.3-.2.5-.5.7-.7-.1-.1-.1-.2-.2-.2-.3.1-.7.2-1.2.3.3.3.4.4.7.6zM29.6 94.8c1 .4 1 .4 1.5 0h-1.5zm4.8 2.3v-.2c-.3 0-.7-.1-1-.1v.2c.2.3.6.2 1 .1zM14.9 79.9l-.2-.2c-.3.3-.6.6-1 1.1.9 0 .9-.6 1.2-.9zm33.7-21.3c.6.3.6.3 1.1 0h-1.1zM39.4 77c.3.4.4.6.6.9.3-.8.3-.8-.6-.9zm16.9-35.7c.1 0 .2.1.2.1.1-.4.3-.7.4-1.1 0 0-.1 0-.1-.1-.2.4-.4.8-.5 1.1zM29.1 67.1c0-.1-.1-.1-.1-.2l-.9.6c0 .1.1.1.1.2l.9-.6zm.4 10.1v-1.1 1.1zm9.1 16.9c-.3-.8-.5-.3-.9 0h.9zm45.4.2c0 .1-.1.2-.1.3.3.1.5.1.8.2v-.1c-.3-.2-.5-.3-.7-.4zm-56.4-1v-.1h-1v.2c.3-.1.6-.1 1-.1zm37.8-47.2c.4-.1.7-.1 1-.2-.6-.3-.6-.3-1 .2zM22.2 91c-.4-.6-.4-.6-.6-.1.2.1.4.1.6.1zm30.1-5.1c.7.2.8-.1.9-.6-.3.2-.5.3-.9.6zm18.6 7.9v.1h.8v-.1h-.8zM35.7 72.4v.3c.2 0 .4 0 .6-.1v-.2h-.6zM19.3 84.7c.4-.6.3-.8-.2-1.1.1.4.2.6.2 1.1zm42.5-27c-.1 0-.1-.1-.2-.1l-.3.6.1.1c.1-.2.2-.4.4-.6z"/></svg>