<svg id="Layer_1" xmlns="http://www.w3.org/2000/svg" viewBox="0 0 100 100"><style>.st0{fill-rule:evenodd;clip-rule:evenodd}.st1,.st2{fill:none}.st2{fill-rule:evenodd;clip-rule:evenodd}</style><path class="st1" d="M83.5 59.6c-.5-.4-.4-1-.5-1.4 0-.1.1-.1.2-.2.6-.3 1.2-.6 1.7-1 .3-.3.4-.7.1-1-.1-.2-.4-.3-.5-.5-.5-.8-1.4-.9-2.2-.9-.7 0-1.4.1-2.1.1-1.8.2-3.5.2-5.3.1-2.6-.2-5.2-.3-7.8-.2-2.9.1-5.9 0-8.9.1-1.5 0-3 .1-4.5.1-1.9 0-3.8 0-5.7.1-2.2.1-4.4 0-6.6-.1-1.7-.1-3.3-.1-5-.1-1.5 0-3.1.1-4.6.2l-6.6.3c-2.2.1-4.5.3-6.7.3-1.2 0-2.4.1-3.5-.3-.7-.2-1.3 0-1.9.4-.4.3-.5.6-.4 1 .4 1.2.3 2.5.2 3.7-.1 2.2 0 4.3.3 6.4.2 1.2.2 2.4.2 3.7-.1 2.5-.3 5.1-.2 7.6.1 2 0 3.9 0 5.9 0 1.6 0 3.2.1 4.7.1 1.6.3 3.3.8 4.8.3.9.7 1.8 1 2.8.1.3.2.7.4.9.6.8 1.3 1.2 2.3 1.2 1.2.1 2.5.2 3.7.2 2.1.1 4.3.1 6.4.1.6 0 1.2.2 1.8.6 1.3.9 3.1 1.2 4.4-.1.1-.1.2-.1.4-.1h2c1.1 0 2.1 0 3.2-.1 1.6-.1 3.2-.2 4.8 0 2 .3 3.9.4 5.9.3.4 0 .8.1 1.2.1 1.6 0 3.2-.1 4.7 0 2.5.1 4.9.2 7.4.2 2 0 3.9-.1 5.9-.1 1.7 0 3.3.1 5 .1h1.8c1.3-.1 2.6 0 4-.1 1.1-.1 2.2 0 3.2 0 1.3-.1 2.5-.2 3.7-.7.6-.2 1-.6 1.1-1.3 0-.3 0-.6.1-.9.3-1.3.6-2.6.8-3.9.2-1.3.4-2.6.5-4 .3-2.4.1-4.7-.3-7.1-.2-1.3-.4-2.5-.6-3.8-.2-1.7-.4-3.4-.7-5.1-.3-1.5-.4-3.1-.3-4.6.1-1.3 0-2.6 0-3.9-.1-1.6-.1-3.2-.4-4.8-.1-.6-.3-1.2-.7-1.7-.3-.6-.7-.9-1.4-.6-.2.1-.4.1-.5.4-.1.3-.1.5.2.8.4.3.5.5.5.9-.8-.7-1.8-.6-2.1.5zM20.6 44.7c-.5 0-1.3 0-2.2-.2-.7-.2-1-.5-.9-1.3.1-1.1.2-2.2.3-3.4.1-1.3.3-2.5.4-3.8.2-1.8.7-3.5 1.2-5.2.4-1.2.8-2.4 1.5-3.6.1-.3.2-.3.5-.1.8.7 1.5 1.4 2.1 2.3.8 1 2 1 2.6.3.5-.5 1-.9 1.5-1.3.7-.5.6-1.3 0-1.6-.6-.4-1.1-.9-1.6-1.4-.7-.7-1.4-1.3-2-2-.2-.2-.3-.3-.1-.6.4-.4.8-.8 1.1-1.2.7-.8 1.4-1.4 2.2-2.1 1-1 2.1-1.8 3.2-2.6.7-.6 1.6-1 2.3-1.6 1-.8 2-1.3 3-2 1.1-.7 2.2-1.3 3.4-1.9 1.3-.6 2.7-1.3 4.1-1.7.3-.1.6-.2 1-.3.8-.2 1.6-.4 2.4-.7.1 0 .2-.1.3.1.1 1.1.5 2.2.5 3.4 0 .5.1 1.1-.1 1.6-.1.2-.1.4.1.6.4.5 1.4.7 2 .3.2-.1.4-.2.7-.2.5 0 1 .2 1.5.2.6.1.9-.1 1-.6.1-.6 0-1.1 0-1.6.1-1.4 0-2.7 0-4.1 0-1 0-1 .9-1.1.9 0 1.7-.1 2.6.2.5.2 1 .3 1.6.4 1.5.2 3 .3 4.5.7 1.1.3 2.3.7 3.3 1.3 1 .5 1.9 1.1 2.8 1.7.7.4 1.5.8 2 1.4.5.7 1.1 1.2 1.7 1.8.5.4 1 .8 1.4 1.3.9 1.4 1.7 2.9 2.3 4.5.8 2 1.1 4.1 1.4 6.2 0 .3-.1.2-.3.3-1.8.5-3.7 1-5.5 1.5-1 .3-1.7.7-2 1.7-.1.2 0 .4 0 .6.3.6.6 1.2.7 2 0 .3.3.6.6.8.6.4.9.4 1.5-.1.2-.1.3-.4.6-.4 1.2-.3 2.5-.6 3.7-.9.8-.2.8-.2.8.6-.1 1.1 0 2.2-.1 3.3 0 1.2-.3 2.4-.4 3.6-.1 1.1-.2 2.2-.3 3.2-.1.5-.5 1-.2 1.6 0 .1-.1.2-.2.2-.7.2-1.4.4-2.1.4-2.2.1-4.4.6-6.7.7-.7 0-1.4.1-2.1.2-1.3 0-2.6-.2-3.9-.5-.2 0-.3 0-.4-.2-.2-.4-.6-.5-.9-.6-.4-.1-.8 0-1.1.2-.3.3-.3.6-.1.9.2.3.2.7.3 1.1.1.4.2.7-.1 1-.1.1-.1.4 0 .5.1.2.1.3.1.5-.1.9-.1 1.7-.2 2.6-.1.9.5 1.4 1.4 1.3.3-.1.7-.1 1-.1 1.6-.1 3.1 0 4.7-.1s3.2-.2 4.9-.2c.7 0 1.4-.1 2.1-.1.8 0 1.5-.1 2.3-.2 1.6-.2 3.2-.3 4.9-.4 1.2 0 2.4-.2 3.6-.1.9.1 1.7-.3 2.6-.4.4-.1.7-.4.7-.7.1-1.5.5-2.9.5-4.3 0-1.9 0-3.8.1-5.7.1-1.9-.1-3.8-.3-5.7-.2-1.3-.3-2.6-.3-4-.1-1.7-.2-3.4-.5-5.1-.2-1.2-.5-2.4-.8-3.5-.3-1.7-.8-3.3-1.4-5-.5-1.4-1.2-2.7-1.9-4-.6-1.2-1.2-2.4-1.9-3.6-.7-1.3-1.8-2.4-2.9-3.3-1-.9-2.1-1.6-3.3-2.2-.8-.4-1.7-.8-2.5-1.2-1.2-.5-2.4-1.1-3.7-1.3-2.1-.1-3.8-.7-5.6-1C61 .4 59.4.1 57.8 0h-2.9c-1.2 0-2.4.1-3.6.2-1.1 0-2.1.1-3.2.3-1.8.3-3.6.6-5.3 1-1.2.3-2.5.6-3.7.9-1.6.3-3.2.7-4.7 1.3-2.3.8-4.7 1.6-6.7 3-1.7 1.1-3.4 2.3-4.9 3.7-2.2 2.1-4.1 4.4-5.9 6.9-.5.7-1 1.4-1.5 2.2-.9 1.6-1.8 3.3-2.6 5-.5 1-.9 2-1.2 3-.4 1.3-.7 2.5-1 3.8-.2 1.1-.5 2.2-.6 3.3-.1 1-.1 2.1 0 3.1.1 1.5.2 2.9.4 4.4.1 1.2.4 2.5.6 3.7.1.8.2 1.5.3 2.3.2 1.5.6 2.9.5 4.5 0 .4.5 1 .8.9.4-.1.8.1 1.2.2.3.1.6.1.9-.1.6-.3 1.2-.4 1.8-.5.4 0 .8-.2 1.2-.1.7.1 1.4 0 2.1 0 .9-.1 1.7-.3 2.6-.5 1.1-.2 2.2-.3 3.4-.4 1.6-.2 3.2-.2 4.7-.4 1.5-.1 2.9-.2 4.4 0 1.6.2 3.2 0 4.7.5.5.2.9 0 1.3-.4.2-.3.3-.7.1-1-.2-.4-.3-.8-.3-1.2 0-.8 0-1.6.2-2.3.1-.4.2-.8.2-1.2 0-.8-.5-1.2-1.3-1-.3.1-.5.2-.8.3-.7.2-1.3 0-2 0-.8 0-1.6-.2-2.4-.4-.8-.2-1.6-.4-2.5-.4h-4.9c-2 0-4.1.1-6.6.1zm35.1.6c-.1-1-.3-2.5-1.1-4-.9-1.7-2.3-2.7-4.3-2.6-.3 0-.6-.1-.6-.4-.2-.9-.8-1.6-1.1-2.5-.6-1.6-1.4-3-2.1-4.6-.4-1-.9-2-1.4-2.9-.7-1.5-1.3-3-1.9-4.5-.4-1-.9-2-1.3-3s-1-2-1.5-3c-.2-.4-.3-.7-.2-1.2.2-.6-.5-1.4-1.2-1.1-.5.2-1 0-1.4-.3-.1-.1-.2-.2-.4-.3-.4-.3-.8-.3-1.2 0-.6.4-.7 1-.8 1.6-.2.9-.3 1.8-.6 2.7-.2.6-.2 1.3.1 2 .3.5.5 1 .8 1.4 1.2 2 2.4 4 3.4 6.2 1.2 2.4 2.1 4.9 3.2 7.4.6 1.2 1.1 2.5 1.6 3.7.4.8.7 1.7 1.1 2.5.2.3.2.6-.1.9-.3.4-.7.8-.9 1.3-.4.9-.3 1.7 0 2.6.6 1.6 1.6 2.8 2.8 3.9 1.1 1 3.8.9 5.2-.1.5-.3 1-.7 1.4-1 1.7-1.1 2.5-2.4 2.5-4.7z"/><path class="st0" d="M83.5 59.6c.3-1 1.3-1.2 2-.4 0-.4-.1-.6-.5-.9-.3-.2-.2-.5-.2-.8.1-.3.3-.3.5-.4.7-.3 1.1 0 1.4.6.3.5.5 1.1.7 1.7.3 1.6.3 3.2.4 4.8.1 1.3.1 2.6 0 3.9-.1 1.5.1 3.1.3 4.6.3 1.7.5 3.4.7 5.1.1 1.3.4 2.5.6 3.8.4 2.3.6 4.7.3 7.1-.1 1.3-.3 2.7-.5 4-.2 1.3-.5 2.6-.8 3.9-.1.3-.1.6-.1.9-.1.7-.5 1-1.1 1.3-1.2.4-2.4.6-3.7.7-1.1 0-2.2-.1-3.2 0-1.3.1-2.6 0-4 .1-.6.1-1.2 0-1.8 0-1.7 0-3.3 0-5-.1-2-.1-3.9.1-5.9.1-2.5 0-4.9-.1-7.4-.2-1.6-.1-3.2 0-4.7 0-.4 0-.8-.1-1.2-.1-2 .1-3.9 0-5.9-.3-1.6-.2-3.2-.1-4.8 0-1.1 0-2.1 0-3.2.1h-2c-.1 0-.3 0-.4.1-1.3 1.2-3.1 1-4.4.1-.6-.4-1.1-.5-1.8-.6-2.1 0-4.3 0-6.4-.1-1.2-.1-2.5-.2-3.7-.2-.9-.1-1.7-.5-2.3-1.2-.2-.3-.3-.6-.4-.9-.3-.9-.7-1.8-1-2.8-.5-1.6-.7-3.2-.8-4.8-.1-1.6 0-3.2-.1-4.7v-5.9c-.1-2.5.1-5.1.2-7.6 0-1.2 0-2.4-.2-3.7-.3-2.1-.4-4.3-.3-6.4.1-1.2.1-2.5-.2-3.7-.1-.4 0-.7.4-1 .6-.5 1.2-.6 1.9-.4 1.2.4 2.3.3 3.5.3 2.3 0 4.5-.2 6.7-.3l6.6-.3c1.5-.1 3.1-.2 4.6-.2 1.7 0 3.3 0 5 .1 2.2.1 4.4.2 6.6.1 1.9-.1 3.8-.1 5.7-.1 1.5 0 3-.1 4.5-.1 3-.1 5.9 0 8.9-.1 2.6-.1 5.2-.1 7.8.2 1.8.2 3.5.1 5.3-.1.7-.1 1.4-.2 2.1-.1.8 0 1.7.1 2.2.9.1.2.3.3.5.5.3.3.2.7-.1 1-.5.4-1.1.7-1.7 1-.1 0-.2 0-.2.2.2.3.1.9.6 1.3zM33.9 70.8c-.1.2-.4.2-.6.3-.9.5-1.9 1.1-3 1-.3 0-.3.2-.2.4.2.8.2 1.6.2 2.4 0 .3.1.4.4.2.3-.2.5-.4.9-.4.1 0 .2-.1.2-.2v-.4c.3-1.3 1-2.3 2.1-3.1 0 0 .1 0 0-.2h.3c.4-.1.8-.4 1.3-.4.6 0 1.3-.1 1.9.2.2.1.4.1.3-.2-.2-1-.3-2-.4-3 0-.1-.1-.3-.2-.3-.2 0-.2.1-.3.2-.4.7-.7 1.5-1.3 2.1-.4.6-.9 1.1-1.6 1.4zm-5.9-7c-.1.9.2 1.6.3 2.4 0 .3.3.3.5.4.8.2 1.6.1 2.3-.4 1.1-.7 1.9-1.6 1.5-3-.1-.4-.3-.9-.6-1.2-.5-.5-.9-1.1-1.8-1-.2 0-.4-.1-.5-.3-.2-.3-.4-.2-.5 0-.8.9-1.3 1.9-1.2 3.1zm41.6 4.9c0 .6.1 1.1.4 1.6.2.4.5.6.9.7 1.1.2 2.6-.8 2.9-1.9.2-1 0-2-.4-3-.1-.3-.2-.6-.5-.2 0 .1-.2.1-.2.1-.4 0-.8-.1-1.2-.4-.4-.3-.4-.3-.6.2-.1.3-.2.7-.6.8-.1 0-.2.1-.2.2-.2.6-.5 1.2-.5 1.9zM63.3 98c5-.2 9.9.1 14.9-.1-.4-.2-.7-.4-1-.7-.1-.1-.2-.2-.4 0-.2.3-.5.4-.8.4-.3.1-.6 0-.9.1-1 .2-1.3 0-1.7-.9-.1-.2-.2-.5-.2-.8-.1-.2 0-.4-.2-.6-.2.1-.1.2-.1.3 0 .8-.7 1.4-1.4 1.4-.2 0-.4 0-.5.2-.9.8-2 .3-2.3-.5-.3-.6-.5-1.2-.6-1.8-.1-.4-.1-.9-.2-1.3h-.1c0 .7-.7 1-.9 1.6 0 .1-.2.2-.3.3-.2.2-.5.1-.7.3-.9.9-1.7 1.5-2.6 2.1zm4.8-33.4c-.2.2-.2.3-.3.5l-.3 2.1c-.1.4-.1.7-.4 1-.1.1-.1.3-.1.5l-.3 3.6c0 .3.1.5.4.6.6.3.8.7.7 1.3-.1.3-.1.6-.1.8.1.8.1 1.6.2 2.4 0 .3-.1.7.2 1 0-.2.1-.4.1-.7.2-1.4.3-2.8.6-4.2.1-.6.5-.9 1-1 .1 0 .3 0 .4-.1 0-.2-.2-.2-.3-.2-.5-.3-1-.7-1.4-1.2-.9-1.3-1-2.8-.3-4.1.4-1-.1-1.6-.1-2.3zm6.5 13.7c.3-.4.1-.9.1-1.2.2-1.2.1-2.5.1-3.7-.1-.9.2-1.3 1.1-1.4.2 0 .3-.1.4-.3.2-.3-.1-.5-.1-.8-.1-1 .1-2 .2-3 .1-.9-.1-1.7-.3-2.6-.1-.2-.2-.3-.3-.1-.2.2-.5.4-.8.3-.3-.1-.2.2-.1.3.2.4.3.9.4 1.3.5 1.6.1 3.6-1.7 4.6-.2.1-.2.2 0 .3.3.3.5.6.5 1.1.1 1.3.2 2.5.3 3.8 0 .5 0 .9.2 1.4zM60.7 95.8c1.1-.1 1.8-.7 1.7-1.9 0-.2-.1-.5-.1-.7-.1-.8-.3-1.4-1.2-1.6-.1 0-.2-.1-.4 0-1.2.9-1.8 2-1.2 3.5.2.5.6.7 1.2.7zM47.4 69.2c0 .2 0 .4.1.6.1.5.2.7.8.6 1-.1 1.6-.7 2.1-1.5.2-.4.2-.7 0-1.1-.4-.7-1.1-1.2-1.6-1.8-.2-.3-.3-.2-.5 0-.1.1-.2.3-.3.4-.5.9-.6 1.8-.6 2.8zm-5.2 22c.1.2.1.3.2.4.9 1.2 2.4 1.8 3.9 1.2.7-.3 1-.9 1.6-1.2.7-.5 1-1.2 1.3-1.9 0-.1.1-.2.1-.3.6-1.2.5-2.3-.2-3.4-.3-.5-.7-.7-1.2-.8.1.2.3.3.3.5.5.9 1 1.8.9 2.9-.1 1.3-1.1 2.5-2.3 2.6-.4 0-.8.1-1.1.4-.9.4-1.7.4-2.6.1-.3-.1-.5-.4-.9-.5zm17.5-10.4c0-.1 0-.3-.1-.5-.4-.5-.7-1.1-1.1-1.7-.3-.4-.4-.4-.8-.1-.5.4-.8 1-.9 1.7-.1.2 0 .4.2.6.2.2.3.4.3.7 0 .4.2.7.3 1 0 .2.2.2.4.2.8.1 1.8-1 1.7-1.9zM32.5 93.5c.8 0 1.9-.9 2.1-1.6 0-.2.1-.5-.2-.5-.6 0-.7-.4-.8-.8-.1-.3-.3-.6-.7-.5-1 .1-1.7 1-1.9 1.7-.1.5.1.7.5.8.3.1.7.1.7.6 0 .3.2.3.3.3zm39.3-6.8c0 .6 1 1.3 1.5 1.2.5-.2 1-.4 1.3-.9.2-.3.5-.6-.1-.9-.1 0-.1-.2-.2-.3-.2-.3-.4-.7-.6-1-.2-.3-.3-.3-.6-.2-.6.1-1.4 1.3-1.3 2.1zM42.9 60.2c0-.6-.2-1.1-.5-1.5-.3-.7-.4-.7-1.2-.4-.1 0-.1.1-.2 0-.4 0-.5.2-.4.6.1.8.2 1.5.1 2.3-.1.5.2.7.7.7.8-.1 1.5-.8 1.5-1.7zm19.7 3.1c-.1-.8-.5-1.5-1-2.1-.3-.3-.5-.3-.9-.1-.8.6-1.1 2.4 0 3.1.5.3 1 .3 1.4 0 .3-.1.5-.4.5-.9zm17.2 17c.6.2.9.6.8 1.2 0 .3.2.4.4.2.2-.1.2-.3.5-.3.6 0 1.1-.1 1.6-.1.2 0 .3.1.5.2.4.2.7.3 1 0h.1c.2-.2.5-.4.4-.8-.1-.6 0-1.2-.1-1.8 0-.2.1-.4-.1-.5-.2-.1-.2.2-.4.4 0 0-.1.1-.1.2-.3.6-.8 1.1-1.4 1.4-.6.4-1.3.6-2.1.3-.3-.1-.7-.2-.9-.4.1-.2-.1-.2-.2 0zm-42.4-2.7c0 .2 0 .4.1.6.1.4.3.7.7.8.4.1 1-.2 1.2-.5.6-.9.1-2.4-.7-3.1-.2-.2-.3 0-.4.1-.6.6-.9 1.3-.9 2.1zm45.4-2.4c.1-.5-.2-.8-.6-1.1-.5-.5-.5-.5-.9.1l-.1.1c-.6.8-.8 1.7-.6 2.6.1.2.1.3.4.3.9-.1 1.9-1 1.8-2zm-1.6-15.1c-.4 0-.8 0-1 .3-.4.6-.7 1.3-.4 2 .2.7.7.8 1.3.4.6-.4 1.2-1.9 1.1-2.7 0-.2-.1-.3-.3-.2-.3.2-.5.3-.7.2zm-35.6.7c-.1 0-.1 0 0 0l-.9.3c-.1.1-.2.1-.3.3-.4.9-1 1.6-2.1 1.8-.5.1-1.1.1-1.6-.1-.4-.2-.5.2-.6.4-.1.2.2.2.3.2.2.1.4.2.4.5 0 .2.1.4.4.3.3-.1.6-.2.9-.1.1 0 .2 0 .2-.1.1-.4.3-.5.7-.4h.2c.3-.4.8-.6 1-1 .6-.6 1-1.4 1.4-2.1zm14-1c-1-.2-1-.2-1.5.7-.4.7-.7 1.4-1.4 1.9-.1 0-.1.1-.1.2s.1.1.2.1c.5.1.8.3 1 .9.2 1.1.3 2.1.5 3.2 0 .1-.1.3.1.3.1 0 .1-.2.1-.3 0-.4 0-.8-.1-1.2 0-.3-.1-.7.3-.9.2-.1 0-.2 0-.3-.8-1.2-.7-3.6.9-4.6zm-3 30c-.5 0-1 .1-1.5-.1-.4-.1-.6 0-.7.3-.1.2-.1.3-.2.5-.3 1.1-.3 2.2-.3 3.3 0 .4.3.5.7.6.1 0 .3.1.4-.1.1-.2-.1-.3-.2-.4-.4-.2-.4-.6-.3-.9.2-.5.2-1 .5-1.4l.3-.6c.4-.4.8-.8 1.3-1.2zm9-5.8c0-.1-.1-.2-.2-.3-.3-.1-.4-.3-.5-.6-.2-.3-.3-.3-.4 0-.4.6-.9 1.2-1.5 1.8-.2.2-.5.4-.5.6 0 .2.4.2.6.4l.1.1c.1.1.2.1.3-.1.2-.3.7-.5 1-.4.5.2.5-.1.6-.3.1-.4.3-.8.5-1.2zm16.8.9c-.3.4-.3.8-.4 1.3-.2 1-.4 1.9-.6 2.9-.1.3-.1.5.4.4.4 0 .8-.2 1.2-.2.2 0 .2-.1.2-.3l-.3-1.5c-.2-.9-.4-1.7-.5-2.6zm2.2-12.2s.1 0 .1-.1c-.1-1.1-.2-2.2-.3-3.4 0-.3-.3-.2-.4-.2-.3.1-.5 0-.7-.2l-.5-.5c-.1-.1-.1-.2-.2-.1-.1 0-.1.1-.1.2-.1.5-.1 1-.4 1.5 1.5.4 1.9 1.7 2.5 2.8zm-60.9 6.2c-.1-.6-.3-1.3-.7-1.9-.1-.2-.2-.1-.3 0-.6.4-.9.9-1.2 1.4-.1.1-.1.3 0 .4.3.4.6.7 1 .9.7.3 1.2 0 1.2-.8zm-2.3 11.9c0 .6.2.9.5 1.4.3.3.5.2.7 0 1-1 .8-2.2-.3-3-.2-.2-.4-.1-.5.1-.2.4-.4.9-.4 1.5zm-1.6-21.5s.2 0 .3-.1c.7-.3 1-1 .8-1.8-.1-.2-.2-.3-.4-.3-.4 0-.9 0-1.3.1-.3 0-.5.2-.7.5-.3.7.5 1.6 1.3 1.6zm60.3.6c-.1-.4-.2-.8-.2-1.2 0-1 .1-2-.1-3 0-.1 0-.2-.1-.2s-.2.1-.2.2c-.2.4-.3.8-.3 1.2 0 .3 0 .6-.2.8-.4.6-.4 1.4-.5 2-.1.2 0 .3.2.2.5 0 .9.1 1.4 0zm-9.7 2.5c.4.3.6.6.6 1 0 .7.1 1.3.1 2 0 .9.1 1.7.1 2.6 0 .1 0 .4.1.4.2 0 .1-.2.2-.4 0-.3.1-.5.1-.8.1-1.5.2-3 .2-4.5 0-.1 0-.2-.1-.2-.4.1-.8-.1-1.3-.1zm-48.2 9.2c-.1 0-.1-.1-.1-.1-1.4-.3-2.6-1.7-2.5-3.2 0-.2-.1-.3-.2-.5s-.2-.2-.3 0c-.3.4-.5.8-.3 1.3.2.7.6 1.3 1 1.8.7.9 1.5 1.1 2.4.7zm30.1 8.2v.2c0 .1-.1.3.1.3s.2-.2.2-.3c.1-.5.3-1 .4-1.5.1-.6.3-.7.9-.5.2.1.4-.1.6-.3.2-.2-.1-.2-.2-.3-.1-.2-.3-.4-.4-.6-.2-.3-.3-.7-.7-.9-.2-.1-.3-.2-.3.1-.3 1.4-.4 2.6-.6 3.8zm-10.8-15c.3.4.5.9.7 1.4.3.7.5 1.5 0 2.2-.5.8-.7 1.7-1.4 2.3-.1.1-.2.1-.1.2s.2 0 .3 0c.2-.2.5-.4.7-.6.6-.6 1.1-1.1 1.2-2 .3-1.4-.4-2.6-1.4-3.5zM60.8 83c-.3 0-.3.2-.4.3-.7.6-1.5 1.1-2.5.9-.4-.1-.7.4-1.1.3 0 0 0 .1-.1.1-.1.3.1.7.5.6.8 0 1.6-.3 2.4-.7.6-.4.8-1 1.2-1.5zm1.2-6.6c.6.8 1.1 1.6 1.4 2.5.3.9.3 1.9.1 3 1.2-1.6.8-4.3-1.5-5.5zm11.5 6.5c-.2-.3-.5-.5-.7-.6-.2-.1-.3-.1-.4.1-.4.5-.8.8-1.5.5-.1 0-.3-.1-.3.1-.3.7-.6 1.4-.7 2.2 0 .1 0 .3.1.3.2 0 .2-.2.2-.3.4-.9.9-1.7 1.8-2.2.5-.2 1-.1 1.5-.1zM25.4 72.1c1 .4 1.5 1.2 2 2 .1-.5.2-.9.3-1.3 0-.2.2-.4 0-.5-.3-.3-.7-.5-1.1-.7-.1-.1-.2-.1-.3 0-.1.3-.5.3-.9.5zm10.1-7.2c0-.5-.1-1-.3-1.5-.1-.2-.1-.4-.3-.4-.2 0-.2.3-.3.5v.2c-.1.9.1 1.7 0 2.6 0 .2.1.3.3.2.2-.1.3-.1.5-.3.1-.4.2-.8.1-1.3zM19.3 87.4c.2.1.4 0 .5 0 .3-.1.7-.2 1-.2.6.1 1.2 0 1.8.1.3 0 .3-.2.4-.3.1-.1.1-.1 0-.2-.4-.3-.8-.6-1.3-.5-.9.1-1.7.4-2.4 1.1zm18.2 8.1c.1 0 1-.8 1-.9-.4-.4-.3-1.1-.8-1.5-.1-.1-.1-.3-.3-.2-.1 0-.1.2-.1.4-.1.6-.1 1.1-.3 1.6-.2.5-.2.5.5.6zm-13.3-1c-.2-.1-.3 0-.4.1-1.4.7-2.7.7-4-.2-.2-.1-.3-.2-.5-.2-.1 0-.3-.1-.3.1 0 .1.1.2.2.2 1 .9 2.1 1.2 3.4 1.1.6-.2 1.1-.6 1.6-1.1zm1.9-20.1c-.2-.4-.4-.7-.7-.9-1-.6-2.1-.5-3.3-.2l.1.1c.5.1 1.1.4 1.6.3.5 0 1 .1 1.4.3.4.2.5.5.9.4zm12.3 8.9h-1.2c-.3 0-.6-.1-.8 0-.2.2 0 .5-.1.8 0 .3.2.5.4.7.3.2.4-.1.6-.2.3-.3.6-.8 1.1-1.3zM22.8 71.1c.3 0 .6-.1.8-.2.2-.1.2-.2 0-.4-.3-.3-.6-.5-.9-.8-.3-.2-.7 0-1 .4-.2.3 0 .5.2.7.2.3.6.3.9.3zM82 93.9c0-.1.1-.3-.1-.4-.2-.1-.3.1-.4.2-.7.6-.9 1.5-1.2 2.3 0 .1-.1.1 0 .2s.2 0 .2 0c.7-.6 1.3-1.3 1.5-2.3zm-3.1-34.8c-.5-.1-1-.2-1.4-.1-.1 0-.3 0-.2.2.1.5.2 1.1.3 1.6 0 .1.2.3.3.3.1 0 .2-.2.2-.3.1-.6.3-1.1.8-1.7zM20.2 92.7c-.9-1.2-.7-2.4-.3-3.7-.7.3-1.1.8-1 1.4.1.8.5 1.6 1 2.2.1.1.1.2.3.1zM36 61.2v-.1c-.3-.7-.6-1.3-.5-2 0-.2-.1-.2-.2-.2h-1.5c.8.6 1.5 1.5 2.2 2.3zm35.7 28c-.1 0-.1.1-.1.2.1.5.1.9.2 1.4 0 .1 0 .2.1.2s.1-.1.1-.1c.2-.4 1-.9 1.5-.6.2.1.3.1.4-.1.1-.2 0-.4-.3-.4-.6-.3-1.2-.4-1.9-.6zm-26.4-.7c0-.4-.1-.7-.2-1-.1-.1-.2-.2-.3 0-.3.5-.6 1-.5 1.6 0 .3.3.4.6.5.3.1.3-.2.4-.4.2-.3 0-.5 0-.7zM26 77.3c0-.1 0-.2-.1-.3-.1-.2-.1-.5-.3-.5-.3 0-.6.1-.9.2-.1 0 0 .1 0 .2.2.4.4.9.4 1.3 0 .2.1.3.3.1.4-.3.5-.7.6-1zm26.7-17.2c-.4.6-.9 1.1-1.3 1.7-.1.1 0 .2.1.2.2.1.4.3.6.4.1.1.3.1.3-.1.1-.8.4-1.4.3-2.2zm-.9 9.6s-.1 0 0 0c-.6.7-1.3 1.3-2.2 1.6-.2.1-.2.4-.1.6.1.3.3 0 .4 0 .6-.2.8-.6 1.2-1 .3-.3.5-.8.7-1.2zM45 67.6c.1-.1.1-.2.2-.2.4-1.3 1.2-2.3 2.4-3 .1 0 .2-.1.1-.2s-.2-.1-.3 0c-.9.3-1.5 1-2 1.9-.3.4-.5.8-.4 1.5zM31.8 97.3v.1h1.3c.8.1 1.1 0 1.5-.8.1-.1.1-.2 0-.3-.1-.1-.2 0-.2 0-.8.6-1.7.9-2.6 1zm18.5-17.6c.1-.7.1-1.5.3-2.1 0-.1-.1-.1-.1-.1-.3-.1-.4 0-.5.4-.2.6-.2 1.2.3 1.8zm14.6-10.9s.1 0 0 0c.1-.1.1-.2.2-.2.1-.8 0-1.5.1-2.3 0-.1 0-.1-.1-.1-.2 0-.4 0-.6.1-.1 0 0 .2 0 .4 0 .1.1.2.1.3.1.5.2 1.2.3 1.8zm-44.7 2.9c-.1-.3-.2-.5-.3-.7-.1-.1-.1-.2-.3-.3-.5 0-1-.2-1.5-.5 1 1.3 1.4 1.5 2.1 1.5zm33.3 26.1c-.3-.2-.4-.5-.7-.4-.5.1-1.1-.1-1.6 0-.1 0-.3-.1-.3.1s.1.3.3.3h2.3zm14.4-12.1c0-.4-.2-.7-.3-1.1l-.1-.1c-.1 0-.1.1-.1.2-.1.4-.1.9-.2 1.3s.2.4.4.5c.3 0 .1-.2.2-.4.1-.1.1-.2.1-.4zM25.6 60.9c0 .1 0 .2.1.2.1.1.2 0 .2 0 .3-.3.5-.5.7-.8.2-.2-.1-.4-.1-.6 0-.1-.2 0-.3.1-.3.2-.6.6-.6 1.1zM52 56.5c-1.3 0-2.5-.1-3.8 0-.2 0-.3 0-.3.2s.1.2.3.2c.4 0 .7-.2 1.1-.3 1 0 1.9-.1 2.7-.1zM37.1 72.8c-.2-.3-.4-.4-.7-.4-.8.2-1.2.7-1.6 1.3.7-.5 1.4-.8 2.3-.9zm43 19.7c-.5.2-.9.6-1.3 1-.1.2-.2.4-.2.7 0 .1 0 .3.2.4.2.1.2-.2.3-.3.1-.4.3-.8.5-1.1.1-.2.3-.5.5-.7zM17.6 59.1c.3 0 .4-.1.3-.4-.2-.4-.4-.8-.5-1.3 0-.2-.2-.2-.4-.2-.1 0-.2.1-.1.2.2.5.3 1 .4 1.5.1.2.2.2.3.2zM57 75.8c.7-.3 1.3-.2 2.1-.2-.3-.2-.5-.4-.8-.4-.9-.3-1-.2-1.3.5v.1zM27.3 86.6v-.2c0-.2.1-.4-.2-.4-.3 0-.5.1-.4.4v.8c0 .2.1.3.3.2.2-.2.4-.5.3-.8zm33.3-30.3c1.4.6 2.8 0 4.3 0h-4.3zm-42.7 9.5c.1 0 .1 0 .2-.1.5-.2 1-.4 1.5-.4.1 0 .2 0 .2-.1 0-.2-.1-.3-.2-.5-.1-.1-.2 0-.3 0-.4.4-.9.7-1.5.7-.1 0-.2.1-.1.2 0 .2.1.2.2.2zm17.3 22c-.3-.3 0-.9-.4-1-.3-.1-.8-.4-1.1 0 .4.3 1 .6 1.5 1zm3.5 9.7v-.1l-2.4-.3c-.2 0-.4.2-.4.3 0 .3.2.1.3.1h2.5zm-21.8-3.6c-.2-.3-.4-.5-.5-.8-.2-.4-.4-.9-.5-1.4 0-.1-.1-.2-.2-.2s-.1.1-.1.2c.2.6.3 1.3.5 1.9.2.3.4.3.8.3zm45.9-19.6c.5.3.9.6 1.4 1 .1.1.2.3.3.1.1-.1 0-.3-.2-.4-.2-.1-.4-.2-.5-.4-.3-.5-.5-.8-1-.3zm1.7-14.8c.4.2.7.5.9.9 0 .1.1.1.2.1l.1-.1c.2-.8 0-1-.8-1-.1 0-.2 0-.4.1zm16.2 19.2c.3.4.7.5 1.1.5.1 0 .3 0 .3-.1 0-.4.3-.5.5-.8-.6.2-1.2.5-1.9.4zm4.2 19c.8.1 1.6-.3 1.5-.9-.4.3-1.1.3-1.5.9zm-1.1-33.9c0-.5 0-.9-.1-1.2 0-.2.1-.4-.1-.5-.2-.1-.2.3-.3.4-.1.1-.1.3-.2.4-.1.1-.1.2 0 .3.4.1.4.4.7.6zm-20.1 1.7c0-.3-.1-.4-.3-.3-.3.2-.6.3-1 .4-.3.1-.2.3-.2.4.1.2.2.1.3 0 .3-.2.6-.4.9-.4.2.1.3.1.3-.1zm5.7-4.6h.1c0-.5.1-.9.1-1.4 0-.2-.1-.3-.3-.3-.1 0-.2.1-.2.2.1.6.1 1.1.3 1.5zm-30.8 21v-.1h-.5c-.4 0-.9 0-1.2-.3-.1-.1-.2-.2-.3 0 0 .1-.2.4.1.5.6 0 1.3 0 1.9-.1zm-5.7-13.2c-.8.1-1.5.6-2.4.8 1 0 1.7-.4 2.4-.8zm22.3-4c.1-.5.1-.9.3-1.3 0-.1.1-.3-.1-.3s-.5.1-.5.4c.1.5.1.8.3 1.2zM41.6 86.6c-.3.9.3 1.6.6 2.3 0 .1.1.1.2 0s0-.1 0-.2c-.5-.5-.6-1.3-.8-2.1zM16.8 75.7c.8-.7.8-1.2 0-1.5.1.5.1.9 0 1.5zM44.6 78c-.2.2-.1.4-.1.5-.1.2-.1.4-.2.5 0 .1-.1.2 0 .2.1.1.2 0 .3-.1.4-.3.5-.6 0-1.1zm-18 19.1h1c.2 0 .3 0 .2-.2-.1-.2-.1-.5-.3-.4-.3.2-.7.3-.9.6zm33.7-19.2l.9 1.8c0-.8-.3-1.4-.9-1.8zm-9.8-18.1c.4-.2.6-.6.8-.9 0-.1.2-.2 0-.3-.1-.1-.2 0-.3.1-.1.4-.4.7-.5 1.1zm-4.9 21.6l.6.3c.1 0 .2.1.2 0 .1-.1 0-.2 0-.2-.1-.6-.3-.6-.8-.1zm-29.7-19c.1-.5.1-1-.1-1.5-.2.5-.1 1 .1 1.5zm22.4 25.1c.2-.3.1-.5.1-.8 0-.1 0-.3-.2-.3s-.2.2-.2.3c0 .3 0 .6.3.8zm47.4-28c0 .3-.1.5-.1.7v.6c0 .1.1.3.3.2.1 0 .1-.2.1-.3-.1-.3-.1-.7-.3-1.2zM55 96.6c.5.4 1 .6 1.5.4-.5-.2-1.1-.2-1.5-.4zM46.7 87c.1.4.2.7.2 1.1 0 .1 0 .2.1.2s.1-.2.1-.3c.1-.4-.1-.7-.4-1zm-15.1 7.8c-.5-.1-.9-.5-1.4-.5.4.5.9.5 1.4.5zm-1.4-5.1c.3-.2.6-.3.9-.5.1-.1.2 0 .2-.2 0-.1-.1-.1-.2-.2s-.2 0-.3.1c-.1.3-.4.5-.6.8zM52 67.8c0-.5-.1-.7-.3-1 0-.1-.1-.3-.2-.2-.1.1-.1.2 0 .3.1.3.3.5.5.9zm9.8 29.3c-.3 0-.7 0-1 .1-.1 0-.2 0-.2.1s.1.1.1.2c.3.2.8 0 1.1-.4zM29.6 86.2h.7c.1 0 .3-.1.2-.3-.1-.1-.2-.2-.3-.1-.2.1-.4.2-.6.4zm33.5 2.7c.3.2.5.3.8.3.1 0 .3.1.3-.1s-.1-.2-.3-.2h-.8zM36.4 75.2c-.5.3-.7.8-.6 1.3.2-.5.3-.9.6-1.3zM78 81.3c.4 0 .5-.2.6-.5-.5-.2-.5-.2-.6.5zM44.7 56.5c.4.2.7.3 1.1.2.1 0 .2-.1.2-.2s0-.1-.1-.1c-.4.2-.8 0-1.2.1zm15.6 30.3c.4.1.8.4 1.3 0-.4-.1-.8-.3-1.3 0zm-34.8-6.4c-.6.2-.6.7-.8 1 .3-.2.6-.5.8-1zm23.9 12.1c-.2.1-.4.3-.4.5 0 .1.3.2.4.1.3-.2.1-.4 0-.6zM26.9 56.7v.1c.5 0 .9.1 1.4-.1h-1.4zm34.5 23.4c-.1.4 0 .7 0 1 0 .1 0 .1.1.1l.1-.1c0-.3.1-.6-.2-1zm-16.5 2.7c-.3 0-.6-.1-.9-.1-.1 0-.2.1-.2.2s.1.1.2.1c.4 0 .6.1.9-.2zm7.5-10.6c.4-.3.7-.7.8-1.1-.3.4-.6.7-.8 1.1zM14.8 57.7c.2-.2.4-.3.4-.6 0-.1-.3-.1-.4-.1-.2.2 0 .4 0 .7zm3.6 5.1c-.3-.2-.4-.3-.7-.2-.1 0-.1.2 0 .3.3.1.5 0 .7-.1zm36.4-3.9c-.2 0-.3.2-.3.4 0 .1 0 .2.1.2.3 0 .2-.3.3-.5.1 0 0-.1-.1-.1zM27 83.5c-.1-.1 0-.3-.2-.3s-.2.2-.2.3c0 .2.1.2.2.2s.2 0 .2-.2zm26.3-27c.5 0 1 0 1.5-.1-.5-.1-1 0-1.5.1zm23.9 25.6c0-.2-.2-.1-.3-.1-.1 0-.2 0-.1.1s.1.3.2.3c.2 0 .2-.2.2-.3zm-57.9-6.7c-.3.1-.5.2-.7.6.4-.2.6-.4.7-.6zm-1.5 19.8c.1.4.2.5.7.5-.3-.2-.4-.4-.7-.5zM20.6 44.7c2.5 0 4.7-.2 6.8-.2h4.9c.9 0 1.7.1 2.5.4.8.2 1.6.4 2.4.4.7 0 1.3.2 2 0 .3-.1.5-.3.8-.3.8-.2 1.3.2 1.3 1 0 .4-.1.8-.2 1.2-.3.8-.2 1.6-.2 2.3 0 .4.1.8.3 1.2.1.3.1.7-.1 1-.3.4-.8.6-1.3.4-1.5-.6-3.1-.3-4.7-.5-1.5-.2-2.9-.1-4.4 0-1.6.1-3.2.2-4.7.4-1.1.2-2.3.2-3.4.4-.9.2-1.7.4-2.6.5-.7.1-1.4.1-2.1 0-.4-.1-.8.1-1.2.1-.6 0-1.3.1-1.8.5-.3.2-.6.2-.9.1-.4-.1-.7-.3-1.2-.2-.3.1-.8-.5-.8-.9.1-1.5-.3-3-.5-4.5-.1-.8-.2-1.5-.3-2.3-.2-1.2-.5-2.5-.6-3.7-.1-1.4-.2-2.9-.4-4.4-.1-1-.1-2.1 0-3.1.1-1.1.4-2.2.6-3.3.3-1.3.6-2.5 1-3.8.3-1 .7-2 1.2-3 .8-1.7 1.7-3.4 2.6-5 .4-.8 1-1.5 1.5-2.2 1.7-2.5 3.6-4.8 5.9-6.9 1.3-1.3 3-2.5 4.7-3.6 2.1-1.4 4.4-2.2 6.7-3 1.6-.5 3.1-1 4.7-1.3 1.3-.2 2.5-.6 3.7-.9 1.8-.4 3.5-.8 5.3-1 1.1-.2 2.1-.3 3.2-.3C52.6.2 53.8 0 55 0h2.9c1.6.1 3.1.3 4.7.6 1.7.4 3.4 1 5.2 1.4 1.3.3 2.5.8 3.7 1.3.9.4 1.7.8 2.5 1.2 1.2.6 2.3 1.4 3.3 2.2 1.2 1 2.2 2 2.9 3.3.6 1.2 1.2 2.4 1.9 3.6.7 1.3 1.4 2.6 1.9 4 .6 1.6 1.1 3.3 1.4 5 .2 1.2.5 2.3.8 3.5.3 1.7.4 3.4.5 5.1.1 1.3.2 2.6.3 4 .2 1.9.4 3.8.3 5.7-.1 1.9-.1 3.8-.1 5.7 0 1.5-.4 2.9-.5 4.3 0 .3-.3.6-.7.7-.9.2-1.7.5-2.6.4-1.2-.1-2.4.1-3.6.1-1.6.1-3.2.2-4.9.4-.8.1-1.5.2-2.3.2-.7 0-1.4.1-2.1.1-1.6 0-3.2.1-4.9.2-1.6.1-3.1 0-4.7.1-.3 0-.7 0-1 .1-.9.2-1.5-.3-1.4-1.3.1-.9.1-1.7.2-2.6 0-.2 0-.3-.1-.5s-.2-.4 0-.5c.3-.3.2-.7.1-1-.1-.4-.1-.7-.3-1.1-.2-.3-.1-.7.1-.9.3-.3.7-.4 1.1-.2.4.1.7.3.9.6.1.2.3.2.4.2 1.3.3 2.6.5 3.9.5.7 0 1.4-.1 2.1-.2 2.2-.1 4.4-.6 6.7-.7.7 0 1.4-.2 2.1-.4.1 0 .2-.1.2-.2-.3-.6.2-1.1.2-1.6.1-1.1.2-2.2.3-3.2.1-1.2.4-2.4.4-3.6 0-1.1 0-2.2.1-3.3 0-.8 0-.8-.8-.6-1.2.3-2.5.6-3.7.9-.3.1-.4.3-.6.4-.6.5-.9.5-1.5.1-.3-.2-.5-.5-.6-.8-.1-.7-.5-1.3-.7-2-.1-.2-.1-.4 0-.6.3-1 1-1.5 2-1.7 1.9-.5 3.7-1 5.5-1.5.2 0 .3 0 .3-.3-.3-2.1-.7-4.2-1.4-6.2-.6-1.6-1.4-3.1-2.3-4.5-.4-.5-.9-.9-1.4-1.3-.6-.5-1.2-1.1-1.7-1.8s-1.3-1-2-1.4c-.9-.6-1.8-1.1-2.8-1.7-1.1-.6-2.2-1-3.3-1.3-1.5-.5-3-.6-4.5-.7-.5-.1-1.1-.2-1.6-.4-.9-.3-1.7-.3-2.6-.2-.9 0-.9.1-.9 1.1 0 1.4.1 2.7 0 4.1 0 .5.1 1.1 0 1.6s-.4.7-1 .6c-.5 0-1-.2-1.5-.2-.2 0-.5.1-.7.2-.6.4-1.5.2-2-.3-.2-.2-.2-.4-.1-.6.2-.5.1-1.1.1-1.6 0-1.2-.4-2.3-.5-3.4 0-.2-.1-.2-.3-.1-.5 0-1.3.2-2.1.5-.3.1-.6.3-1 .3-1.4.4-2.7 1.1-4.1 1.7-1.2.5-2.3 1.1-3.4 1.9-1 .7-2.1 1.2-3 2-.7.6-1.6 1-2.3 1.6-1.1.9-2.2 1.7-3.2 2.6-.7.7-1.5 1.4-2.2 2.1-.4.4-.8.8-1.1 1.2-.2.3-.1.4.1.6.7.7 1.4 1.3 2 2 .5.5 1 1 1.6 1.4.6.4.7 1.1 0 1.6-.5.4-1 .8-1.5 1.3-.6.7-1.8.7-2.6-.3-.6-.8-1.3-1.6-2.1-2.3-.3-.2-.4-.1-.5.1-.6 1.1-1.1 2.3-1.5 3.6-.5 1.7-1 3.4-1.2 5.2-.2 1.2-.3 2.5-.4 3.8-.1 1.1-.3 2.2-.3 3.4 0 .8.2 1.1.9 1.3.8.1 1.7.1 2.2.1zm1.6-28.5c.2.1.3.1.4 0 .8-.4 1.7-.7 2.4-1.2 2.6-1.8 5.4-3.4 8.2-5 .2-.1.4-.2.5-.4-.2-.1-.4 0-.5 0-.4.1-.8.1-1.3 0-.1 0-.2-.1-.3 0-1.3.6-2.7 1-3.8 1.9-1.9 1.6-3.8 3.1-5.6 4.7zm14-5.3c-.1.3.1.3.3.2.5-.3 1-.5 1.6-.8 2.6-1.2 5.3-2.2 8.1-3 .2-.1.5-.1.6-.3.4-.5.9-.7 1.5-.4.2.1.3 0 .5-.1.1-.1.1-.2 0-.2-.1-.2-.2-.1-.4-.1-1.6.3-3.2.8-4.8 1.2-1.6.4-3.1.8-4.7 1.3-1.1.3-2.1.7-3.2 1.1-.1 0-.2 0-.2.2 0 .1.1.1.2.1.4.1.7.3.5.8zm43 .8c-.1 0-.1 0 0 0-.2.4-.5.5-.8.8-.1 0 0 .2.1.2.7 1.5 1.4 2.9 2.2 4.4.7 1.3 1.5 2.6 2.2 3.9.1.1.2.2.3.2.1-.1.1-.2 0-.3-.5-1.6-.9-3.1-1.7-4.6-.7-1.4-1.4-2.8-2.2-4.3 0-.2 0-.3-.1-.3zm-55 38.9c-.5-.1-1-.2-1.4-.3-1.3-.4-2.5-.6-3.9-.6-.9 0-1.7 0-2.4.6-.3.3-.7.4-1.1.4h-.6c-.1 0-.2 0-.2.1-.1.1 0 .1.1.2.4.4 1 .4 1.5.4.4 0 .9 0 1.3-.1.8-.1 1.6.1 2.4 0 .5 0 1.1-.2 1.6-.3.9-.1 1.8-.3 2.7-.4zm45.2.7c-.3-.3-.7-.2-1-.2-.8-.2-1.6-.4-2.4-.5-.9-.1-1.8-.3-2.7-.6-.6-.2-1.1-.5-1.8-.4-.3.1-.7 0-.6.5 0 .1-.1.2-.1.3-.4.7-.3 1 .6 1.1 1.8.1 3.5.1 5.3 0 .9 0 1.8-.1 2.7-.2zm1-3.8c.1.1.2.1.2.1.9 0 1.7.2 2.6.3.3 0 .7.2 1 .1.3-.1.7-.1 1.1-.1.2 0 .4.1.5.3.1.5.4.5.8.5h.8c.3-.1.6.1 1-.1-.7-.2-.6-.7-.6-1.2 0-.3.1-.7 0-1-.2.3-.5.3-.7.4-.5.2-1 .2-1.5.3-1.5.3-3.1.3-4.7.4 0-.1-.2 0-.5 0zm-4-44.3c1.7.5 3.1 1.4 4.7 2.2.3.2.7.4 1.1.3.5-.1.9.1 1.3.4.3.2.5.4.8.6.9.8 1.5 1.8 2.5 2.4.6.4 1.1.8 1.7 1.3.1-.1 0-.2 0-.3-.5-.8-1.2-1.4-1.9-2.1-1.1-1-2.2-1.8-3.4-2.5-1.6-.9-3.3-1.5-5-2.1-.6 0-1.2-.2-1.8-.2zm-8.9-.1c-.5-.4-1.2-.7-1-1.5.1-.2-.1-.1-.2-.1-1.2-.1-2.3 0-3.5 0-.9 0-1.9 0-2.8.2 1.3.1 2.5.4 3.7.7 1.3.3 2.5.9 3.8.7zM14.6 25.6c-.7.7-2.4 7-2.2 7.7.3-.3.5-.7.8-.9.3-.1.3-.3.3-.5.1-1.4.3-2.7.6-4.1.1-.7.3-1.5.5-2.2zM49.1 3.2c-.2-.1-.3-.1-.5-.1-1.4 0-2.8.1-4.1.6-.8.2-1.5.5-2.3.9-.1.1-.2.1-.2.2s.2.1.3.1c.5 0 .9-.1 1.4-.2 1.3-.3 2.5-.7 3.8-1 .5-.2 1.1-.2 1.6-.5zM29 14.6s0-.1-.1-.1c-.5.2-1 .5-1.4.8-1.5 1-3 2.1-4.4 3.3l-.3.3c-.2.2-.2.6 0 .8.1.2.3-.1.4-.2 1.2-1 2.5-2 3.7-3.1.8-.6 1.4-1.2 2.1-1.8zm2.5 31.6c.5.3.9.6 1.4.7.8.2 1.7.2 2.5.2.5 0 1.1.4 1.1.8 0 .5.2.3.4.3.6 0 1.2-.3 1.8.1h.2c.1-.3.1-.5 0-.8 0-.2-.3-.1-.4-.2-1.7-.1-3.4-.4-5.1-.9-.5-.2-1.2-.3-1.9-.2zM16.2 36h.1c.1-.5.2-.9.3-1.4.3-1.2.6-2.5.9-3.7.2-.8.5-1.6.8-2.4.4-.8.8-1.6 1.2-2.3 0-.1.2-.2.1-.3-.1-.1-.2.1-.2.2-.6 1-1.1 2-1.7 3-.4.8-.9 1.7-1.1 2.6-.1.8-.2 1.6-.3 2.3 0 .7-.2 1.3-.1 2zM64.1 7.9c1.5.3 2.7 1.3 4.1 2-.2-.7-.4-1.2-.5-1.7 0-.2-.1-.2-.3-.2-.7-.1-1.3-.3-2-.5-.5-.2-1-.1-1.3.4zM29.2 46.1H29c-1.9.1-3.8 0-5.7.2-1.4.1-2.9.1-4.4 0-.7 0-1.2.3-1.8.6.7.1 1.3 0 1.9-.1 1.3-.1 2.6-.3 3.9-.3 1.7-.1 3.4-.2 5.1-.2.3 0 .8.2 1.2-.2zm-7.9-31.5h.2c1.4-1.1 2.8-2.3 4.2-3.4.1 0 .1-.1.1-.2-.1-.2-.8-.3-.9-.2-.4.4-.8.7-1.2 1.1-.9.9-1.6 1.8-2.4 2.7zm55.2 3.9c.4.8.7 1.6 1 2.3.1.1 0 .4.2.4.2-.1.5-.2.4-.5-.1-1-.6-1.7-1.6-2.2zM59.2 1.6c.6.3 1.1.5 1.6.7.3.1.5.4.8.3.5-.1 1.1-.3 1.7-.3-1.3-.2-2.6-.7-4.1-.7zm19.4 49.1c1.2 0 2.4-.2 3.6-.4-.2-.1-.2-.5-.6-.5-1.1.1-2 .6-3 .9zM61.9 6.9c-1.9-.6-3.8-.7-5.7-.8 1.9 0 3.7 1 5.7.8zm17.6 20c-.2-.8-.4-1.6-.6-2.3-.1-.2-.2-.2-.3-.1-.1.1-.2.2-.2.3.1.6.2 1.3.3 1.9.1.4.4.2.6.3.1.1.2 0 .2-.1zM40.4 3.6c-.3.1-.5.1-.8.2-.1 0-.4 0-.4.2-.1.4-.4.5-.7.7-.5.3-.9.4-1.4.8 1.8-.4 2.2-.6 3.3-1.9zm45 34.3c0 .4 0 .9-.1 1.3-.1 1.1.1 2.3-.2 3.4 0 .1.1.1.2.1.2 0 .2-.2.2-.3 0-1.2.1-2.4.1-3.6-.1-.3 0-.6-.2-.9zM32.8 6c-1.2.3-4 1.8-4.3 2.3 1.5-.7 2.9-1.5 4.3-2.3zM79 32.8c.2-.1.1-.4.3-.4.2 0 .2.2.2.4 0 .1.1.2.2.2s.1-.1.1-.2c0-.3 0-.7.1-1 0-.2 0-.3-.3-.2-.6.2-.8.5-.6 1.2zM71.2 8.6c.3.2.4.8.9.7.5-.1 1 .1 1.4.5.1.1.2.2.4.2-.6-1.1-1.8-1-2.7-1.4zm3.2 2c.8.9 1.6 1.8 2.3 2.6-.3-.9-1.4-2.2-2.3-2.6zm-4.2-.5c.4.8.7 1.7 1.6 2.1-.3-.9-1-1.4-1.6-2.1zM19 18.6c-.5-.4-.5-.4-.8.1-.3.4-.5.8-.8 1.2-.1.2-.3.4-.3.8.6-.7 1.1-1.6 1.9-2.1zM49.8 13c.3 0 .5 0 .7-.1.1 0 .2-.1.1-.2 0-.1-.1-.1-.2-.1-.3 0-.7-.1-1-.2-.2-.1-.3 0-.3.2.1.5.5.4.7.4zM12.2 34c-.4.9-.2 1.6-.2 2.4.2-.8.2-1.5.2-2.4zm69.6-9.4V24c0-.3.1-.6-.2-.9-.1-.1-.1-.2-.2-.1-.1 0-.1.2-.1.3.3.4.3.9.5 1.3zM31.8 49c-.4-.2-.9-.2-1.4 0 .5.2 1 0 1.4 0zm-16-9.1c.3-.4.1-.7.1-1.1-.2.3-.3.7-.1 1.1z"/><path class="st0" d="M55.7 45.3c.1 2.4-.8 3.7-2.1 4.7-.5.4-1 .7-1.4 1-1.4 1-4.1 1.1-5.2.1-1.2-1.1-2.3-2.3-2.8-3.9-.3-.9-.4-1.7 0-2.6.2-.5.6-.9.9-1.3.2-.3.2-.6.1-.9-.4-.8-.8-1.6-1.1-2.5-.6-1.2-1.1-2.5-1.6-3.7-1.1-2.4-2-5-3.2-7.4-1-2.1-2.2-4.2-3.4-6.2-.3-.5-.6-.9-.8-1.4-.4-.6-.4-1.3-.1-2 .3-.9.4-1.8.6-2.7.1-.6.2-1.2.8-1.6.4-.3.8-.4 1.2 0 .1.1.3.2.4.3.4.4.9.5 1.4.3.7-.3 1.4.6 1.2 1.1-.1.5 0 .8.2 1.2l1.5 3c.4 1 .9 2 1.3 3 .6 1.5 1.2 3 1.9 4.5.5 1 1 1.9 1.4 2.9.6 1.6 1.5 3 2.1 4.6.3.8.9 1.6 1.1 2.5.1.3.3.4.6.4 2-.1 3.4.9 4.3 2.6.4 1.4.6 3 .7 4zM36.5 18.4c.9-.4 1.1-.4 1.5.5 1.1 2.5 2.1 4.9 3.3 7.3.6 1.2 1.2 2.3 1.7 3.5.7 1.3 1.3 2.6 1.8 4 0 .1 0 .2.1.1.1 0 .1-.1 0-.2-.2-.5-.4-1-.5-1.5l-1.5-3.6-1.8-3.9c-.7-1.5-1.4-3-2-4.5-.3-.8-.7-1.6-1-2.4-.1-.3-.1-.6-.6-.6-.4 0-.9 0-1 .5.1.4 0 .6 0 .8zm15.3 26.7c0-.5-.1-1-.5-1.3-.2-.1-.3-.1-.5 0-.7.7-.8 2.2-.4 3 .1.2.2.2.3.1.5-.5.9-1.1 1.1-1.8zm-.9 4.9H50c-.7-.2-1.4-.5-2.1-.9-.6-.4-1-.8-1.2-1.6-.1-.5-.1-1.1-.9-1.2-.1 0-.1-.2-.2-.2.1.3.1.6.2.9.3 1 1 1.8 1.8 2.5.9.8 2.2 1.1 3.3.5zm-4.4-8.8c.1 0 .6-.7.5-.9-.2-.5-.3-1-.5-1.6-.1-.3-.1-.5-.5-.3-.2.1-.5.1-.7.1-.2 0-.3.1-.2.3.4.7.7 1.5 1.1 2.2.1.2.1.2.3.2zm-8.4-17.9c0-.4-.2-.7-.4-.9-.3-.8-.8-1.5-1-2.3 0-.1-.1-.2-.2-.2-.2.1-.1.2 0 .3.1.5.4 1 .6 1.4.2.5.5 1.1 1 1.7zm4.7 9.9c-.1-1.1-.7-2-1.3-3 .3 1.1.8 2.1 1.3 3zm9.8 8.1c-.2-.4-.5-.6-.8-.8-.1-.1-.2-.1-.3 0-.1.4-.5.5-.8.7.6 0 1.2-.1 1.9.1zm-3.8 6.3c-.3-.9-.3-1.8-.2-2.7-.6.7-.5 1.7.2 2.7zm5.2-1.1c-.5.5-.5 1.1-.8 1.5.4-.4.7-.8.8-1.5zm-9.9-10.3c-.2-.3-.1-.8-.5-1.1 0 .5.4.8.5 1.1z"/><path class="st2" d="M28 63.8c-.1-1.2.4-2.2 1.2-3.1.2-.2.3-.2.5 0 .1.2.3.3.5.3.9-.1 1.3.5 1.8 1 .3.3.5.7.6 1.2.4 1.4-.4 2.3-1.5 3-.7.4-1.5.5-2.3.4-.2 0-.4-.1-.5-.4-.1-.8-.4-1.5-.3-2.4zM69.6 68.7c0-.7.3-1.3.5-1.9 0-.1.1-.2.2-.2.4-.1.5-.5.6-.8.1-.5.2-.5.6-.2.3.3.7.4 1.2.4.1 0 .2 0 .2-.1.3-.4.4-.1.5.2.3 1 .6 2 .4 3-.2 1.1-1.8 2.1-2.9 1.9-.4-.1-.7-.3-.9-.7-.3-.5-.4-1.1-.4-1.6zM63.3 98c.9-.6 1.7-1.3 2.5-2 .2-.2.5-.1.7-.3.1-.1.3-.2.3-.3.1-.6.8-.9.9-1.6h.1c.1.4.1.9.2 1.3.1.6.3 1.3.6 1.8.4.8 1.4 1.4 2.3.5.2-.2.3-.2.5-.2.8 0 1.4-.6 1.4-1.4 0-.1 0-.2.1-.3.1.2.1.4.2.6.1.3.1.5.2.8.4.9.7 1.1 1.7.9.3-.1.6 0 .9-.1.3-.1.6-.2.8-.4.1-.2.3-.1.4 0 .3.3.7.5 1 .7-4.8.1-9.8-.1-14.8 0zM68.1 64.6c0 .7.5 1.3.1 2.1-.7 1.4-.6 2.8.3 4.1.3.5.8.9 1.4 1.2.1.1.2.1.3.2-.1.1-.3 0-.4.1-.5.2-.9.4-1 1l-.6 4.2c0 .2-.1.4-.1.7-.3-.3-.2-.7-.2-1-.1-.8-.1-1.6-.2-2.4 0-.3 0-.6.1-.8.2-.6-.1-1-.7-1.3-.3-.1-.4-.3-.4-.6l.3-3.6c0-.2 0-.4.1-.5.4-.2.4-.6.4-1l.3-2.1c.1.1.1-.1.3-.3zM74.6 78.3c-.2-.5-.2-1-.2-1.4-.1-1.3-.2-2.5-.3-3.8 0-.4-.2-.8-.5-1.1-.2-.1-.2-.2 0-.3 1.8-1.1 2.2-3.1 1.7-4.6-.1-.4-.2-.9-.4-1.3-.1-.1-.2-.3.1-.3.3.1.6-.1.8-.3.2-.1.3-.1.3.1.2.8.4 1.7.3 2.6-.1 1-.3 2-.2 3 0 .3.3.5.1.8-.1.2-.2.3-.4.3-.9.1-1.1.5-1.1 1.4.1 1.2.1 2.5-.1 3.7 0 .4.2.8-.1 1.2zM60.7 95.8c-.5 0-.9-.3-1.1-.8-.6-1.5 0-2.6 1.2-3.5.1-.1.2 0 .4 0 .8.2 1.1.8 1.2 1.6 0 .2.1.5.1.7 0 1.3-.7 1.9-1.8 2zM47.4 69.2c0-1 .1-1.9.6-2.8.1-.1.2-.3.3-.4.2-.2.3-.3.5 0 .5.6 1.2 1.1 1.6 1.8.2.4.3.7 0 1.1-.5.8-1.2 1.3-2.1 1.5-.5.1-.7-.1-.8-.6-.1-.3-.1-.4-.1-.6zM42.2 91.2c.4.1.6.4 1 .5.9.3 1.7.3 2.5-.2.3-.2.7-.3 1.1-.4 1.2-.1 2.2-1.3 2.3-2.6.1-1.1-.4-2-.9-2.9-.1-.2-.2-.3-.3-.5.6.1 1 .4 1.2.8.7 1.1.8 2.2.2 3.4-.1.1-.1.2-.1.3-.3.7-.6 1.4-1.3 1.9-.5.4-.9 1-1.6 1.2-1.4.6-3 0-3.9-1.2-.1 0-.2-.1-.2-.3zM59.7 80.8c0 .9-1 2-1.9 2-.2 0-.3 0-.4-.2-.1-.3-.3-.6-.3-1 0-.3-.1-.5-.3-.7-.2-.2-.2-.3-.2-.6.2-.6.4-1.2.9-1.7.4-.3.5-.3.8.1.4.6.7 1.1 1.1 1.7.4.1.3.3.3.4zM32.5 93.5c-.1 0-.3 0-.3-.1 0-.5-.4-.6-.7-.6-.5-.1-.6-.4-.5-.8.2-.8.9-1.6 1.9-1.7.4-.1.6.2.7.5.2.4.3.8.8.8.3 0 .2.3.2.5-.2.5-1.3 1.4-2.1 1.4zM71.8 86.7c0-.8.7-2 1.3-2.2.3-.1.5-.1.6.2.2.4.4.7.6 1 .1.1.1.3.2.3.6.3.2.6.1.9-.3.5-.8.8-1.3.9-.6.2-1.5-.5-1.5-1.1zM42.9 60.2c0 .9-.7 1.6-1.4 1.7-.5 0-.8-.2-.7-.7.1-.8 0-1.5-.1-2.3-.1-.3 0-.6.4-.6h.2c.7-.3.8-.2 1.2.4.2.4.4.9.4 1.5zM62.6 63.3c.1.4-.1.7-.5.9-.5.3-1 .3-1.4 0-1.1-.7-.8-2.5 0-3.1.4-.2.6-.2.9.1.4.7.9 1.3 1 2.1zM79.8 80.3c.1-.2.3-.2.4-.1.3.2.6.3.9.4.7.4 1.4.2 2.1-.3.6-.4 1-.8 1.4-1.4 0-.1 0-.1.1-.2s.2-.4.4-.4c.2.1.1.3.1.5 0 .6 0 1.2.1 1.8 0 .4-.2.6-.4.8h-.1c-.4.2-.7.2-1 0-.1-.1-.3-.2-.5-.2-.5 0-1.1.1-1.6.1-.2 0-.3.2-.5.3-.3.2-.5.1-.4-.2-.1-.5-.4-.9-1-1.1zM37.4 77.6c0-.8.3-1.5.8-2.1.1-.1.2-.3.4-.1.8.7 1.3 2.1.7 3.1-.2.3-.8.5-1.2.5-.4-.1-.7-.4-.7-.8 0-.2-.1-.4 0-.6zM33.9 70.8c.1.1 0 .2-.1.3-1 .8-1.8 1.8-2.1 3.1v.4c0 .1 0 .2-.2.2-.4-.1-.6.2-.9.4-.3.2-.4.1-.4-.2 0-.8 0-1.6-.2-2.4 0-.2-.1-.4.2-.4 1.1.1 2.1-.5 3-1 .4-.1.6-.2.7-.4zM82.8 75.2c.1 1-.9 1.9-1.8 2-.2 0-.3-.1-.4-.3-.3-1 0-1.8.6-2.6l.1-.1c.5-.5.4-.5.9-.1.3.3.7.6.6 1.1zM81.2 60.1c.2.1.4 0 .6-.1.2-.1.3 0 .3.2.2.7-.5 2.2-1.1 2.7-.6.4-1.1.2-1.3-.4-.3-.8 0-1.4.4-2 .3-.4.7-.4 1.1-.4z"/><path class="st2" d="M33.9 70.8c.7-.3 1.2-.8 1.6-1.3.5-.6.9-1.4 1.3-2.1.1-.2.1-.2.3-.2.2 0 .2.1.2.3.1 1 .1 2 .4 3 .1.3-.1.3-.3.2-.6-.2-1.3-.2-1.9-.2-.5 0-.9.3-1.3.4 0-.1-.1 0-.3-.1zM45.6 60.8c-.4.7-.8 1.5-1.2 2.1-.3.4-.7.6-1 1h-.2c-.4-.1-.6 0-.7.4 0 .1-.1.1-.2.1-.3-.1-.6-.1-.9.1-.3.1-.4-.1-.4-.3 0-.2-.2-.4-.4-.5-.1-.1-.4 0-.3-.2.1-.2.2-.5.6-.4.5.2 1.1.2 1.6.1 1.1-.2 1.7-.9 2.1-1.8.1-.1.1-.2.3-.3 0-.1.3-.2.7-.3-.1 0-.1 0 0 0zM59.6 59.8c-1.6 1-1.7 3.4-.9 4.5.1.1.2.2 0 .3-.4.2-.3.6-.3.9 0 .4.1.8.1 1.2 0 .1 0 .3-.1.3-.2 0-.1-.2-.1-.3-.2-1.1-.2-2.2-.5-3.2-.1-.5-.4-.8-1-.9-.1 0-.2 0-.2-.1s.1-.1.1-.2c.7-.5 1-1.2 1.4-1.9.5-.8.5-.8 1.5-.6zM56.6 89.8c-.5.4-.9.8-1.3 1.3-.2.2-.2.4-.3.6-.3.4-.3 1-.5 1.4-.1.3 0 .7.3.9.1.1.3.2.2.4-.1.2-.3.1-.4.1-.3-.1-.6-.2-.7-.6-.1-1.1 0-2.2.3-3.3 0-.2.1-.3.2-.5.1-.3.3-.5.7-.3.5.1 1 0 1.5 0zM65.6 84c-.2.4-.4.8-.5 1.2-.1.3-.2.5-.6.3-.3-.1-.7.1-1 .4-.1.2-.2.1-.3.1 0 0-.1 0-.1-.1-.2-.2-.6-.2-.6-.4s.4-.4.5-.6c.6-.5 1.1-1.1 1.5-1.8.2-.3.3-.3.4 0 .1.2.2.5.5.6.1 0 .2.1.2.3zM82.4 84.9c.2.9.3 1.7.5 2.6l.3 1.5c0 .2 0 .3-.2.3-.4 0-.8.2-1.2.2-.4 0-.4-.1-.4-.4.2-1 .4-1.9.6-2.9.1-.4.1-.9.4-1.3zM84.6 72.7c-.6-1.1-1-2.4-2.4-2.8.3-.5.3-1 .4-1.5 0-.1 0-.2.1-.2s.1.1.2.1c.1.2.3.3.5.5s.4.4.7.2c.1-.1.4-.1.4.2.1 1.1.2 2.2.3 3.4-.1 0-.2.1-.2.1zM23.7 78.9c0 .8-.5 1.1-1.2.9-.5-.2-.7-.5-1-.9-.1-.1-.1-.3 0-.4.3-.6.7-1.1 1.2-1.4.1-.1.2-.1.3 0 .4.5.6 1.2.7 1.8zM21.4 90.8c0-.6.2-1.1.5-1.5.1-.2.3-.3.5-.1 1 .9 1.3 2.1.3 3-.2.2-.5.3-.7 0-.5-.5-.6-.8-.6-1.4zM19.8 69.3c-.9 0-1.6-.9-1.3-1.6.1-.3.3-.5.7-.5.4 0 .9 0 1.3-.1.2 0 .3.1.4.3.2.8 0 1.6-.8 1.8-.1 0-.2.1-.3.1zM80.1 69.9c-.5.1-1-.1-1.4.1-.2 0-.3 0-.2-.2.2-.7.2-1.4.5-2 .1-.2.2-.5.2-.8 0-.4.1-.8.3-1.2 0-.1.1-.2.2-.2s.1.1.1.2c.2 1 .1 2 .1 3 0 .3.1.7.2 1.1zM70.4 72.4c.5 0 .9.2 1.3.1.1 0 .1.1.1.2-.1 1.5-.1 3-.2 4.5 0 .3-.1.5-.1.8 0 .2.1.4-.2.4-.2 0-.1-.2-.1-.4 0-.9-.1-1.7-.1-2.6 0-.7-.1-1.3-.1-2 0-.4-.2-.8-.6-1zM22.2 81.6c-1 .4-1.8.2-2.4-.7-.4-.6-.8-1.2-1-1.8-.1-.5.1-.9.3-1.3.1-.2.2-.1.3 0 .1.2.2.3.2.5-.2 1.5 1.1 2.9 2.5 3.2 0 0 .1 0 .1.1zM52.3 89.8c.2-1.2.4-2.4.5-3.6 0-.3.1-.2.3-.1.3.2.5.6.7.9.1.2.3.4.4.6.1.1.4.1.2.3-.1.2-.3.3-.6.3-.6-.2-.8-.1-.9.5-.1.5-.3 1-.4 1.5 0 .1-.1.3-.2.3-.2 0-.1-.2-.1-.3.1-.3.1-.3.1-.4zM41.5 74.8c1 1 1.7 2.1 1.4 3.6-.1.8-.7 1.4-1.2 2-.2.2-.5.4-.7.6-.1.1-.2.1-.3 0-.1-.1 0-.2.1-.2.7-.6 1-1.5 1.4-2.3.4-.7.2-1.5 0-2.2-.2-.6-.4-1.1-.7-1.5zM60.8 83c-.4.6-.6 1.1-1.2 1.5-.8.4-1.5.6-2.4.7-.4 0-.6-.3-.5-.6 0 0 0-.1.1-.1.4.1.7-.4 1.1-.3 1 .2 1.8-.3 2.5-.9 0-.1.1-.3.4-.3zM62 76.4c2.3 1.2 2.7 3.9 1.5 5.5.2-1.1.2-2-.1-3-.3-.9-.9-1.7-1.4-2.5zM73.5 82.9c-.5 0-1-.1-1.4.1-.9.5-1.4 1.3-1.8 2.2-.1.1 0 .3-.2.3-.1 0-.1-.2-.1-.3.1-.8.3-1.5.7-2.2.1-.2.2-.1.3-.1.7.2 1.1 0 1.5-.5.1-.2.2-.2.4-.1s.4.3.6.6zM25.4 72.1c.4-.2.8-.2 1-.5.1-.1.2-.1.3 0 .4.2.7.4 1.1.7.2.1 0 .4 0 .5-.1.4-.2.8-.3 1.3-.6-.8-1.1-1.5-2.1-2zM35.5 64.9c0 .5-.1.9-.3 1.2-.1.2-.3.3-.5.3-.2.1-.3 0-.3-.2.1-.9-.1-1.7 0-2.6v-.2c.1-.2 0-.4.3-.5.2 0 .3.2.3.4.4.6.6 1.1.5 1.6zM19.3 87.4c.7-.7 1.5-1 2.4-1.2.5-.1.9.2 1.3.5.1.1.1.1 0 .2s-.2.4-.4.3c-.6-.1-1.2 0-1.8-.1-.3-.1-.7.1-1 .2-.2.1-.3.2-.5.1zM37.5 95.5c-.7-.1-.7-.1-.5-.7.2-.5.2-1.1.3-1.6 0-.1 0-.3.1-.4.2 0 .2.2.3.2.5.4.5 1 .8 1.5.1.2-.9 1-1 1zM24.2 94.5c-.5.5-1 .9-1.8 1-1.3.2-2.4-.1-3.4-1.1-.1-.1-.2-.1-.2-.2.1-.1.2-.1.3-.1.2 0 .4.1.5.2 1.3 1 2.6.9 4 .2.3 0 .4-.1.6 0zM26.1 74.4c-.4.1-.5-.3-.8-.3-.5-.1-1-.3-1.4-.3-.6 0-1.1-.2-1.6-.3l-.1-.1c1.1-.3 2.2-.4 3.3.2.2.2.4.5.6.8zM38.4 83.3c-.5.4-.8 1-1.2 1.3-.2.1-.3.4-.6.2-.2-.2-.4-.4-.4-.7.1-.3-.1-.7.1-.8.2-.1.5 0 .8 0h1.3zM22.8 71.1c-.3 0-.6 0-.9-.3-.2-.2-.4-.4-.2-.7.3-.4.7-.6 1-.4.3.2.6.5.9.8.2.1.2.3 0 .4-.2.2-.5.2-.8.2zM82 93.9c-.1 1-.7 1.6-1.4 2.3-.1.1-.2.1-.2 0-.1-.1 0-.1 0-.2.3-.8.5-1.7 1.2-2.3.1-.1.2-.2.4-.2 0 .1-.1.3 0 .4zM78.9 59.1c-.4.5-.7 1.1-.9 1.7 0 .1 0 .3-.2.3s-.3-.1-.3-.3c-.1-.5-.2-1.1-.3-1.6 0-.2.1-.2.2-.2.5 0 1 .1 1.5.1zM20.2 92.7c-.2.1-.3 0-.3-.1-.5-.6-.9-1.4-1-2.2-.1-.6.3-1.2 1-1.4-.4 1.2-.6 2.5.3 3.7zM36 61.2c-.7-.8-1.4-1.6-2.2-2.4h1.5c.2 0 .3.1.2.2-.1.7.2 1.4.5 2v.2zM71.7 89.2c.7.2 1.4.3 2 .5.2 0 .3.2.3.4-.1.2-.2.2-.4.1-.6-.3-1.3.1-1.5.6 0 .1 0 .1-.1.1s-.1-.1-.1-.2c0-.5-.1-.9-.2-1.4-.1-.1-.1-.1 0-.1zM45.3 88.5c0 .2.1.5 0 .7-.1.2-.1.4-.4.4-.3-.1-.6-.2-.6-.5 0-.6.2-1.1.5-1.6.1-.1.2-.1.3 0 .2.3.3.6.2 1zM26 77.3c-.1.4-.3.8-.5 1.1-.1.2-.2 0-.3-.1-.1-.5-.2-.9-.4-1.3 0-.1-.1-.2 0-.2.3-.1.6-.2.9-.2.2 0 .2.3.3.5v.2zM52.7 60.1c.1.8-.2 1.5-.4 2.2 0 .2-.2.1-.3.1-.2-.1-.4-.2-.6-.4-.1-.1-.1-.1-.1-.2.5-.6 1-1.2 1.4-1.7zM51.8 69.7c-.2.4-.4.9-.7 1.2-.3.4-.6.9-1.2 1-.1 0-.3.3-.4 0-.1-.2-.1-.6.1-.6.9-.3 1.5-.9 2.2-1.6-.1 0 0 0 0 0zM45 67.6c-.1-.7.1-1.1.4-1.6.5-.8 1.1-1.5 2-1.9.1 0 .2-.1.3 0 0 .1-.1.1-.1.2-1.2.7-2 1.7-2.4 3-.1.1-.1.2-.2.3zM31.8 97.3c.9-.1 1.8-.4 2.6-.9.1 0 .2-.1.2 0 .1.1 0 .2 0 .3-.4.7-.6.8-1.5.8h-1.3v-.2zM50.3 79.7c-.5-.6-.6-1.2-.3-1.9.1-.4.2-.5.5-.4.1 0 .2 0 .1.1-.2.7-.2 1.5-.3 2.2zM64.9 68.8l-.3-1.8c0-.1 0-.2-.1-.3-.1-.1-.1-.3 0-.4.2-.1.4-.1.6-.1.1 0 .1.1.1.1-.1.8.1 1.5-.1 2.3-.1 0-.1.1-.2.2.1 0 0 0 0 0zM20.2 71.7c-.7 0-1-.2-2.1-1.5.5.3 1 .5 1.5.5.2 0 .2.1.3.3 0 .3.1.5.3.7zM53.5 97.8h-2.4c-.2 0-.3-.1-.3-.3 0-.2.2-.1.3-.1.5-.1 1.1.1 1.6 0 .4-.1.6.2.8.4zM67.9 85.7c0 .1 0 .3-.1.4 0 .1.1.4-.2.4-.2 0-.5-.1-.4-.5.1-.4.1-.9.2-1.3 0-.1 0-.2.1-.2l.1.1c.1.4.3.8.3 1.1zM25.6 60.9c.1-.5.3-.9.6-1.2.1-.1.3-.2.3-.1.1.2.3.4.1.6-.2.3-.5.6-.7.8-.1.1-.1.1-.2 0-.2.1-.2 0-.1-.1zM52 56.5c-.9 0-1.8.1-2.7.2-.4 0-.7.2-1.1.3-.2 0-.3 0-.3-.2s.1-.2.3-.2c1.3-.2 2.6-.1 3.8-.1zM37.1 72.8c-.9.1-1.6.4-2.3 1 .4-.6.8-1.1 1.6-1.3.3-.1.5 0 .7.3zM80.1 92.5c-.2.3-.4.5-.6.8-.2.3-.4.7-.5 1.1 0 .1-.1.3-.3.3-.2 0-.1-.2-.2-.4 0-.3.1-.5.2-.7.4-.6.8-.9 1.4-1.1zM17.6 59.1c-.2 0-.2 0-.3-.1-.1-.5-.2-1.1-.4-1.5-.1-.1 0-.2.1-.2s.3 0 .4.2c0 .5.3.9.5 1.3.1.2 0 .3-.3.3zM57 75.8v-.1c.3-.7.4-.7 1.3-.5l.8.4c-.8 0-1.5-.1-2.1.2zM27.3 86.6c.1.3-.1.6-.4.8-.2.1-.3 0-.3-.2 0-.3.1-.6 0-.8 0-.3.2-.4.4-.4.3 0 .2.2.2.4.1 0 .1.1.1.2zM60.6 56.3h4.3c-1.5 0-2.9.5-4.3 0zM17.9 65.8c-.1 0-.2 0-.2-.1s0-.2.1-.2c.6 0 1.1-.3 1.5-.7.1-.1.2-.1.3 0 .1.1.2.3.2.5 0 .1-.1.1-.2.1-.5 0-1 .2-1.5.4 0-.1-.1-.1-.2 0zM35.2 87.8c-.5-.4-1.1-.7-1.6-1 .4-.5.8-.2 1.1 0 .5.1.2.6.5 1zM38.7 97.5h-2.5c-.1 0-.4.1-.3-.1 0-.1.2-.4.4-.3l2.4.3v.1zM16.9 93.9c-.3 0-.6 0-.7-.3-.3-.6-.4-1.2-.5-1.9 0-.1 0-.2.1-.2s.2.1.2.2c.1.5.3.9.5 1.4 0 .2.1.5.4.8zM62.8 74.3c.5-.5.8-.2 1 .2.1.2.3.4.5.4.2.1.2.2.2.4-.1.2-.2 0-.3-.1-.5-.3-1-.6-1.4-.9zM64.5 59.5c.1-.2.3-.1.4-.1.8-.1 1 .2.8 1 0 .1 0 .1-.1.1s-.1 0-.2-.1c-.2-.3-.5-.7-.9-.9zM80.7 78.7c.6.1 1.2-.2 1.8-.3-.2.2-.5.4-.5.8 0 .1-.2.1-.3.1-.3-.2-.7-.3-1-.6zM84.9 97.7c.3-.6 1-.6 1.5-.9.1.6-.7 1-1.5.9zM83.8 63.8c-.3-.3-.3-.5-.6-.7-.1-.1-.1-.1 0-.3.1-.1.1-.3.2-.4.1-.1 0-.4.3-.4.2 0 .1.3.1.5v1.3zM63.7 65.5c.1.1 0 .2-.1.2-.4 0-.6.2-.9.4-.1.1-.3.2-.3 0-.1-.1-.1-.4.2-.4.3-.1.7-.2 1-.4 0-.2.1-.1.1.2zM69.4 60.9c-.2-.5-.3-1-.4-1.5 0-.1.1-.2.2-.2.2 0 .3.1.3.3 0 .5 0 .9-.1 1.4.1 0 .1 0 0 0zM38.6 81.9c-.6.1-1.3.1-1.9.1-.3 0-.1-.3-.1-.5s.2 0 .3 0c.4.3.8.3 1.2.3h.5v.1zM32.9 68.7c-.7.4-1.5.8-2.4.8.9-.2 1.6-.7 2.4-.8zM55.2 64.7c-.2-.4-.2-.7-.3-1.1-.1-.3.3-.4.5-.4s.1.2.1.3c-.2.3-.1.8-.3 1.2zM41.6 86.6c.2.8.3 1.5.8 2.2 0 .1.1.1 0 .2h-.2c-.2-.8-.8-1.5-.6-2.4zM16.8 75.7c.1-.6.1-1 0-1.5.8.3.8.8 0 1.5zM44.6 78c.4.5.4.8-.1 1.2-.1.1-.2.1-.3.1-.1-.1 0-.2 0-.2.1-.2.2-.4.2-.5.1-.2 0-.5.2-.6zM26.6 97.1c.3-.3.6-.4.9-.5.3-.1.3.2.3.4.1.2 0 .2-.2.2-.3 0-.7 0-1-.1zM60.3 77.9c.5.5.9 1 .9 1.8-.3-.6-.5-1.2-.9-1.8zM50.5 59.8c.1-.4.3-.7.5-1.1.1-.1.2-.2.3-.1.1.1 0 .2 0 .3-.1.4-.4.7-.8.9zM45.6 81.4c.5-.5.7-.5.9 0 0 .1.1.2 0 .2-.1.1-.2 0-.2 0-.3 0-.5-.1-.7-.2zM15.9 62.4c-.3-.5-.3-1-.1-1.5.2.5.2 1 .1 1.5zM38.3 87.5c-.3-.2-.3-.5-.3-.8 0-.2 0-.3.2-.3s.2.2.2.3c-.1.3 0 .5-.1.8zM85.7 59.5c.2.5.2.9.3 1.2 0 .1.1.2-.1.3-.1 0-.3-.1-.3-.2v-.6c0-.2.1-.4.1-.7zM55 96.6c.5.1 1 .1 1.5.4-.5.2-1.1.1-1.5-.4zM46.7 87c.3.3.5.6.5 1.1 0 .1 0 .2-.1.3-.2 0-.1-.1-.1-.2-.2-.5-.3-.8-.3-1.2zM31.6 94.8c-.5 0-1.1 0-1.4-.5.5 0 1 .4 1.4.5zM30.2 89.7c.2-.3.4-.5.6-.8.1-.1.2-.2.3-.1.1.1.2.1.2.2s-.1.1-.2.2c-.2.2-.6.3-.9.5zM52 67.8c-.2-.4-.4-.6-.6-.9-.1-.1-.1-.3 0-.3.1-.1.2.1.2.2.3.2.4.5.4 1zM61.8 97.1c-.3.4-.8.5-1 .3-.1 0-.1-.1-.1-.2s.1-.1.2-.1c.3.1.6.1.9 0zM29.6 86.2c.2-.1.4-.3.6-.4.1-.1.3 0 .3.1.1.1-.1.3-.2.3h-.7zM63.1 88.9h.8c.2 0 .3 0 .3.2s-.2.1-.3.1c-.3 0-.5-.1-.8-.3zM36.4 75.2c-.2.4-.4.8-.6 1.3-.2-.6 0-1 .6-1.3zM78 81.3c.1-.7.1-.7.6-.5 0 .3-.2.6-.6.5zM44.7 56.5c.4-.1.8 0 1.1 0 .1 0 .1 0 .1.1s-.1.2-.2.2c-.3 0-.6-.1-1-.3zM60.3 86.8c.5-.2.8-.1 1.3 0-.5.4-.8.1-1.3 0zM25.5 80.4c-.2.5-.5.8-.8 1 .2-.3.2-.7.8-1zM49.4 92.5c0 .2.3.4 0 .6-.1.1-.4 0-.4-.1 0-.3.3-.4.4-.5zM26.9 56.7h1.4c-.5.2-.9.1-1.4.1v-.1zM61.4 80.1c.3.4.2.7.2 1l-.1.1c-.1 0-.1 0-.1-.1 0-.3-.1-.6 0-1zM44.9 82.8c-.3.2-.6.1-.8.2-.1 0-.2 0-.2-.1s.1-.2.2-.2c.3.1.6.1.8.1zM52.4 72.2c.2-.4.6-.7.8-1.1-.1.5-.4.8-.8 1.1zM14.8 57.7c-.1-.3-.2-.5 0-.6.1-.1.3-.1.4.1 0 .1-.2.2-.4.5zM18.4 62.8c-.3.1-.5.2-.7.1-.1-.1-.1-.2 0-.3.3-.2.5 0 .7.2zM54.8 58.9c.1 0 .2 0 .2.1-.1.2-.1.4-.3.5-.1 0-.2-.1-.1-.2 0-.2 0-.4.2-.4zM27 83.5c0 .2-.1.2-.2.2s-.3 0-.2-.2c0-.1.1-.3.2-.3s.1.2.2.3zM53.3 56.5c.5-.1 1-.2 1.5-.1-.5.1-1 .1-1.5.1zM77.2 82.1c-.1.1 0 .3-.2.3s-.2-.2-.2-.3c0-.1.1-.2.1-.1.1 0 .3-.1.3.1zM19.3 75.4c-.1.2-.3.5-.7.6.2-.4.5-.5.7-.6zM17.8 95.2c.3.1.4.3.7.5-.5.1-.6-.1-.7-.5zM22.2 16.2c1.8-1.7 3.7-3.1 5.6-4.6 1.1-.9 2.5-1.3 3.8-1.9.1-.1.2 0 .3 0 .4.1.9.1 1.3 0 .2-.1.3-.2.5 0-.1.3-.4.3-.5.4-2.8 1.6-5.5 3.2-8.2 5-.8.5-1.6.8-2.4 1.2-.1 0-.3 0-.4-.1zM36.2 10.9c.1-.5-.1-.7-.5-.8-.1 0-.2 0-.2-.1s.1-.1.2-.2c1.1-.4 2.1-.8 3.2-1.1 1.6-.5 3.1-.9 4.7-1.3s3.2-.9 4.8-1.2c.2 0 .3-.1.4.1 0 .1.1.2 0 .2-.1.1-.3.1-.5.1-.6-.3-1.2-.1-1.5.4-.1.2-.4.2-.6.3-2.8.8-5.5 1.8-8.1 3-.5.2-1 .5-1.6.8-.2.1-.3 0-.3-.2zM79.2 11.7c.1 0 .1.1.2.2.7 1.4 1.4 2.8 2.2 4.3.7 1.5 1.2 3 1.7 4.6 0 .1.1.2 0 .3-.2.1-.2 0-.3-.2-.7-1.3-1.5-2.6-2.2-3.9-.8-1.4-1.5-2.9-2.2-4.4 0-.1-.1-.2-.1-.2.2-.2.5-.3.7-.7-.1 0-.1 0 0 0zM24.2 50.6c-.9.1-1.8.3-2.7.4-.5.1-1.1.2-1.6.3-.8.1-1.6-.1-2.4 0-.4 0-.9.1-1.3.1-.6 0-1.1 0-1.5-.4-.1-.1-.2-.1-.1-.2 0-.1.1-.1.2-.1h.6c.4 0 .8-.1 1.1-.4.7-.6 1.6-.6 2.4-.6 1.3 0 2.6.2 3.9.6.4.1.9.2 1.4.3zM69.4 51.3c-.9.1-1.8.1-2.7.2-1.8.1-3.5.1-5.3 0-.9-.1-1-.3-.6-1.1.1-.1.1-.2.1-.3-.1-.5.3-.4.6-.5.6-.1 1.2.2 1.8.4.9.3 1.8.4 2.7.6.8.1 1.6.3 2.4.5.4.1.7 0 1 .2zM70.4 47.5c.2-.1.4-.1.6-.1 1.6 0 3.1-.1 4.7-.4.5-.1 1-.1 1.5-.3.3-.1.5-.2.7-.4.1.4 0 .7 0 1 0 .5-.1.9.6 1.2-.3.2-.7.1-1 .1h-.8c-.4 0-.7 0-.8-.5 0-.2-.3-.3-.5-.3-.4 0-.7 0-1.1.1-.4.1-.7-.1-1-.1-.9-.1-1.7-.2-2.6-.3-.1.2-.2.2-.3 0zM66.4 3.2c.6 0 1.1.2 1.6.3 1.7.6 3.4 1.2 5 2.1 1.2.7 2.4 1.5 3.4 2.5.7.6 1.4 1.3 1.9 2.1 0 .1.1.1 0 .3-.6-.4-1.1-.9-1.7-1.3-1-.7-1.6-1.7-2.5-2.4-.2-.2-.5-.4-.8-.6-.4-.3-.8-.5-1.3-.4-.4.1-.7-.1-1.1-.3-1.3-.9-2.8-1.7-4.5-2.3zM57.5 3.1c-1.4.1-2.5-.4-3.8-.7-1.2-.2-2.4-.6-3.7-.7.9-.2 1.9-.2 2.8-.2 1.2-.1 2.3-.1 3.5 0 .1 0 .3-.1.2.1-.2.9.5 1.1 1 1.5zM14.6 25.6c-.2.7-.3 1.5-.5 2.2-.3 1.4-.4 2.7-.6 4.1 0 .2-.1.4-.3.5-.4.2-.6.5-.8.9-.3-.7 1.5-7 2.2-7.7zM49.1 3.2c-.5.2-1.1.3-1.6.4-1.3.4-2.5.8-3.8 1.1-.4.1-.9.2-1.4.2-.1 0-.3 0-.3-.1s.1-.2.2-.2c.7-.4 1.5-.7 2.3-.9 1.3-.4 2.7-.6 4.1-.6.2 0 .3 0 .5.1zM29 14.6c-.7.6-1.3 1.2-2 1.7-1.2 1-2.5 2.1-3.7 3.1-.1.1-.3.4-.4.2-.1-.2-.1-.5 0-.8l.3-.3c1.4-1.2 2.8-2.3 4.4-3.3.4-.3.9-.6 1.4-.8-.1.1 0 .2 0 .2zM31.5 46.2c.7-.1 1.4 0 2 .2 1.7.5 3.4.8 5.1.9.2 0 .4-.1.4.2.1.3 0 .5 0 .8 0 .1-.1.1-.2 0-.6-.4-1.2-.1-1.8-.1-.3 0-.5.1-.4-.3 0-.4-.6-.8-1.1-.8-.8 0-1.7 0-2.5-.2-.6-.1-1-.4-1.5-.7zM16.2 36c-.1-.6.1-1.3.2-1.9.1-.8.1-1.6.3-2.3.2-1 .6-1.8 1.1-2.6.5-1 1.1-2 1.7-3 .1-.1.1-.2.2-.2.2.1 0 .2-.1.3-.4.8-.9 1.5-1.2 2.3-.4.8-.6 1.6-.8 2.4-.3 1.2-.6 2.4-.9 3.7-.1.5-.2.9-.3 1.4-.1-.1-.2-.1-.2-.1zM64.1 7.9c.3-.6.8-.7 1.4-.5.6.2 1.3.4 2 .5.1 0 .3 0 .3.2 0 .6.3 1.1.5 1.7-1.5-.6-2.7-1.5-4.2-1.9zM29.2 46.1c-.4.3-.8.2-1.2.2-1.7.1-3.4.1-5.1.2-1.3.1-2.6.3-3.9.3-.6 0-1.2.1-1.9.1.6-.4 1.1-.7 1.8-.6 1.5.1 2.9.1 4.4 0 1.9-.2 3.8-.1 5.7-.2h.2zM21.3 14.6c.8-.9 1.5-1.8 2.4-2.6.4-.4.8-.7 1.2-1.1.1-.1.8 0 .9.2 0 .1 0 .1-.1.2-1.4 1.1-2.8 2.3-4.2 3.4-.1-.1-.1-.1-.2-.1zM76.5 18.5c1 .5 1.5 1.1 1.6 2.1 0 .3-.2.5-.4.5-.3.1-.2-.2-.2-.4-.3-.6-.6-1.4-1-2.2zM59.2 1.6c1.5 0 2.8.4 4.1.7-.6 0-1.1.2-1.7.3-.3.1-.5-.2-.8-.3-.5-.1-1-.4-1.6-.7zM78.6 50.7c1-.3 2-.8 3.1-.9.3 0 .3.3.6.5-1.3.2-2.5.4-3.7.4zM61.9 6.9c-2 .2-3.8-.7-5.7-.8 1.9.1 3.8.2 5.7.8zM79.5 26.9l-.1.1c-.2-.1-.5.1-.6-.3-.1-.6-.2-1.3-.3-1.9 0-.1.1-.2.2-.3.1-.1.3-.2.3.1.1.8.3 1.5.5 2.3zM40.4 3.6c-1.1 1.3-1.5 1.5-3.3 1.9.5-.4.9-.5 1.4-.8.3-.2.6-.3.7-.7.1-.2.3-.2.4-.2.3-.1.5-.1.8-.2zM85.4 37.9c.2.3.2.6.2.9 0 1.2 0 2.4-.1 3.6 0 .2 0 .3-.2.3-.1 0-.2 0-.2-.1.3-1.1 0-2.3.2-3.4.1-.4.1-.9.1-1.3zM32.8 6c-1.4.8-2.8 1.6-4.3 2.3.2-.5 3.1-2 4.3-2.3zM79 32.8c-.2-.8-.1-1 .6-1.2.3-.1.3 0 .3.2 0 .3 0 .7-.1 1 0 .1 0 .2-.1.2s-.2-.1-.2-.2 0-.3-.2-.4c-.2 0-.1.3-.3.4zM71.2 8.6c1 .3 2.2.2 2.7 1.4-.2 0-.3-.1-.4-.2-.4-.4-.8-.6-1.4-.5-.6.1-.6-.5-.9-.7zM74.4 10.6c.9.4 2.1 1.7 2.3 2.6-.8-.9-1.6-1.7-2.3-2.6zM70.2 10.1c.6.6 1.3 1.2 1.6 2.1-.9-.3-1.2-1.3-1.6-2.1zM19 18.6c-.8.5-1.3 1.3-2 2 0-.4.2-.5.3-.8.2-.4.5-.8.8-1.2.4-.4.4-.4.9 0zM49.8 13c-.3 0-.6 0-.6-.5 0-.2.1-.3.3-.2.3.2.6.2 1 .2.1 0 .2 0 .2.1s-.1.2-.1.2c-.3.2-.5.3-.8.2zM12.2 34c0 .9 0 1.7-.2 2.4 0-.8-.1-1.6.2-2.4zM81.8 24.6c-.2-.4-.3-.9-.4-1.4 0-.1-.1-.2.1-.3.1 0 .1.1.2.1.3.2.2.6.2.9 0 .3-.1.5-.1.7zM31.8 49c-.5 0-.9.2-1.4 0 .5-.2 1-.2 1.4 0zM15.8 39.9c-.1-.4-.1-.8.1-1.1 0 .4.1.7-.1 1.1zM36.5 18.4c.1-.3.1-.5.1-.7.2-.5.6-.5 1-.5s.4.3.6.6c.3.8.7 1.6 1 2.4.6 1.5 1.3 3 2 4.5l1.8 3.9c.5 1.2 1.1 2.4 1.5 3.6.2.5.3 1 .5 1.5 0 .1.1.1 0 .2-.1 0-.1-.1-.1-.1-.5-1.4-1.2-2.7-1.8-4-.6-1.2-1.2-2.3-1.7-3.5-1.2-2.4-2.3-4.9-3.3-7.3-.5-.9-.7-1-1.6-.6zM51.8 45.1c-.1.7-.6 1.3-1.1 1.8-.1.1-.2.1-.3-.1-.4-.8-.4-2.3.4-3 .2-.2.3-.1.5 0 .4.3.4.8.5 1.3zM50.9 50c-1.1.6-2.4.3-3.2-.4-.8-.7-1.4-1.5-1.8-2.5-.1-.3-.2-.6-.2-.9.2 0 .1.1.2.2.7.1.8.7.9 1.2.1.7.5 1.2 1.2 1.6.7.4 1.3.7 2.1.9.2-.1.4-.2.8-.1zM46.5 41.2c-.2 0-.2-.1-.2-.1-.3-.7-.7-1.5-1.1-2.2-.1-.2 0-.2.2-.3.2 0 .5 0 .7-.1.4-.2.4 0 .5.3.1.5.3 1.1.5 1.6 0 .2-.5.8-.6.8zM38.1 23.3c-.5-.6-.8-1.2-1-1.7-.2-.5-.5-.9-.6-1.4 0-.1-.1-.2 0-.3.1 0 .2.1.2.2.3.8.7 1.5 1 2.3.2.2.4.5.4.9zM42.8 33.2c-.5-1-1-1.9-1.3-3 .6 1 1.2 1.9 1.3 3zM52.6 41.3c-.6-.2-1.3-.1-1.9-.1.4-.2.7-.3.8-.7 0-.1.2-.1.3 0 .3.2.6.4.8.8zM48.8 47.6c-.7-1-.8-2-.2-2.7-.1.9-.1 1.8.2 2.7zM54 46.5c0 .7-.4 1.1-.8 1.5.3-.4.3-1 .8-1.5zM44.1 36.2c-.1-.4-.5-.6-.5-1.1.3.4.3.8.5 1.1z"/></svg>