<svg id="Layer_1" xmlns="http://www.w3.org/2000/svg" viewBox="0 0 100 100"><style>.st0{fill-rule:evenodd;clip-rule:evenodd}.st1,.st2{fill:none}.st2{fill-rule:evenodd;clip-rule:evenodd}</style><path class="st0" d="M31.8 49.2v-3.1c-.1-2.4-.1-4.8-.2-7.2-.1-2.8 0-5.6-.6-8.4-.6-3.2-1.2-6.4-2.1-9.4-.3-1-.6-1.1-1.6-.9-1.1.2-2.1.7-3 1.4-1.5 1.3-3 2.7-3.7 4.6-.5 1.3-1.2 1.5-2.3.3 1.8-4.3 4.8-7.3 9.7-8.3-.9-2.5-1.8-5-3.8-6.9-1.5-1.5-3.1-2.9-5-4l-.9-.6c.2-1.1 1.3-.7 1.8-1.2-.5-.2-.9-.5-1.3-.7.2-.6.6-.8 1.1-.8 1.8.1 3.5.5 4.7 1.8 1.8 1.8 3.6 3.6 5.1 5.7 1.3 2 2.5 4 3 6.3.4 2 .9 3.9 1.4 5.8.2.6.9 1.1 1.5.8.6-.3 1.2-.8 1.8-1.3.4-.3.6-.8.9-1.3 1.4-2 3.3-3.2 5.8-3.4 1.7-.1 3.1.6 4.3 1.7.4.4.6 1 .8 1.5.6 1.1 1 2.3 1.7 3.4.7 1.2 1.4 1.3 2.6.7 1-.5 1.7-1.3 2.4-2.2.8-1 1.6-2 2.5-2.9 1.1-1.1 2.5-2 4.2-1.7.5.1.8-.2 1.1-.6 1.3-1.8 2.5-3.6 4.1-5.2 1.8-1.8 3.5-3.6 5.3-5.3 1.8-1.8 3.5-3.5 5.4-5.2.9-.8 1.8-1.4 2.8-2.1l1.2-.6c.4.5.3.9 0 1.2-.5.6-1.1 1.1-1.6 1.6-.6.6-1.3 1.1-1.9 1.7 0 .1.1.2.1.3.2 0 .4 0 .6-.1.4-.3.8-.5 1.2-.9.4-.4.7-.4 1.2-.4.4 0 .8.1.8.5 0 .3-.2.7-.4.9-1.5 1.4-3.1 2.7-4.6 4.2-2.2 2.2-4.5 4.4-6.6 6.8-1.5 1.7-3.2 3.5-4.2 5.6-.2.4-.3.7-.1 1.2.5 1.1.8 2.2 1.3 3.3.4.9.5.9 1.4.8.9-.1 1.6-.5 2.1-1.2.9-1.2 1.7-2.4 2.3-3.7.3-.7.9-1.3 1.4-1.9.1-.1.5-.3.6-.2.2.2.3.5.3.7 0 .2-.1.5-.2.7-.3.8-.7 1.5-1 2.3-.1.2-.1.4-.3.6-.5.7-1.1 1.5-1.6 2.2-.7 1.1-1.6 1.8-2.9 2.1-.3.1-.7.2-1 .3-1.2.3-1.8.1-2.5-1-.2-.3-.4-.7-.6-1-.2-.5-.4-.9-.7-1.5-.8 1.1-1.2 2.3-1.4 3.5-.6 3.6-1 7.2-1.6 10.7-.3 1.9-.6 3.9-.9 5.8-.1 1.1-.1 2.2-.2 3.4 1.2.1 2.3.2 3.4.2h3.2c.5 0 1 .1 1.4-.1 1-.3 2.1-.2 3.1-.1.9 0 1.9.1 2.8 0 1.3-.1 2.3.5 2.7 1.8.4 1.3.5 2.6.4 3.9l-.6 12.6c-.3 5.8-.5 11.6-.8 17.4v.7c.4 3.9.1 7.8.2 11.7 0 .8-.3 1.5-.2 2.4.1.5-.4.6-.8.7-1 .2-2.1.3-3.1.4-.5 0-1.1 0-1.5-.1-.7-.3-1.4-.4-2.2-.3-2.1.1-4.3.2-6.4.2-1.9 0-3.7-.1-5.6-.1h-3.9c-1.5 0-2.9-.1-4.4-.1-4.8 0-9.5.1-14.3.1-2.7 0-5.3-.1-8-.1-1 0-2 0-2.9.1-1.3.1-2.7-.1-3.9-.4-1.1-.2-2.1-1.6-2.1-2.8v-2c0-1.3-.1-2.6-.1-3.9v-4.2l-.3-14.3c0-.9 0-1.9.1-2.8.2-2 .2-4-.1-6-.1-.8 0-1.6-.1-2.4-.1-1.2-.3-2.4-.3-3.7-.1-1.2-.1-2.3.1-3.5.2-1 .6-1.9 1-2.8.1-.3.4-.5.7-.6 1-.4 2-.8 3.1-.9l6.9-.3c.9 0 1.8.1 2.8.1zM69 92.3v-4l.3-10.3c.1-2.4.4-4.8.5-7.2.1-3.9.1-7.9.1-11.8 0-1.1-.1-2.3-.2-3.5-.6-.1-1.1-.2-1.7-.2H56.7c-2.8 0-5.5.2-8.3.2-3.2 0-6.3-.1-9.5-.1-3 0-6 .1-9 .2-1.5 0-3 .2-4.6.3v1.8c0 3.9.3 7.7.1 11.6-.2 2.8 0 5.5-.1 8.3 0 1.9-.3 3.7-.3 5.6 0 2.5.2 5 .4 7.5 0 .4.1.9.1 1.4.9.1 1.7.2 2.5.2h5.9c1.7 0 3.4.1 5.2.1 2.9-.1 5.9-.3 8.8-.3 3.5 0 7 0 10.4.1 2.2 0 4.4.1 6.6.2 1.4-.2 2.7-.1 4.1-.1zm-6.3-71.8c-1 0-2.2.3-2.6.9-.9 1.2-2.1 2.2-2.9 3.4-1 1.5-2.4 2.7-4.4 2.9-1.7.1-2.7-.3-3.5-1.8-.7-1.4-1.3-2.8-2.1-4.1-.2-.4-.5-.7-.8-.9-1.4-.9-3.1-.9-4.5.1-.9.6-1.4 1.4-2 2.2-1.2 1.7-2.6 3.3-5 3.2-.1 0-.2.1-.3.1.5 3.7 1 7.4 1.4 11.1.4 3.7.4 7.4.2 11.2 7-.2 13.7-.4 20.6-.6 0-.2.1-.4.2-.7.3-2 .6-4 .7-6.1.2-2.5.6-4.9 1.1-7.3.6-2.7.9-5.5 1.8-8.1.3-.8.6-1.5.8-2.3.4-.9.8-2 1.3-3.2zM39.3 53.3c-4-.2-8-.4-11.9.2 4 0 8-.1 11.9-.2zm-19.5-.7c1 .3 1 .3 1 1.4v1h.1l.9-3c-.3-.2-.6-.3-1-.5-.5.1-1 .3-1 1.1zm4.7 45c-.9-.8-2.5-1-3.9-.5.5.3.8.7 1.2.7.9 0 1.8-.1 2.7-.2zm20.9-2.9c-1.9.1-3.9.1-5.8.2v.2c2-.1 3.9.2 5.8-.4zM19.6 63.2h.2c.3-1.3.1-4.1-.3-5.1 0 1.6.1 3.3.1 5.1zm38.5 34.3v.1c.8.1 1.5.2 2.3.2.7 0 1.5.1 2.3-.5-1.7.1-3.1.1-4.6.2zm-37.9-2.8c.7-.3.5-.7.5-1 0-.4 0-.8-.1-1.2 0-.3-.1-.7-.2-1h-.2v3.2zm38.9-46.4c.1 0 .3 0 .4.1.3-.8.2-1.7.2-2.6h-.2c-.2.7-.3 1.6-.4 2.5zM24.4 94.1c-.8-.3-.8-.3-.7-1V92c-.5.5-.5.8-.2 2.3.2 0 .5-.1.9-.2zm7.9 3.6s0 .1 0 0c.9.1 1.8.1 2.7.1v-.1h-2.7zm13.5-46.6s0 .1 0 0c.7.1 1.3.1 1.9.1v-.1h-1.9zm-22.4 2v1.3c.4-.8.4-.8 0-1.3zM75 50.7c.4.2.6.4.9.5-.1-.7-.4-.7-.9-.5zm-4.4 44.2c0-.1.1-.1.1-.2h-1.5v.2h1.4zm2.4 2c.1.1.2.1.2.1h.1v-.8H73c-.1.3 0 .5 0 .7zm-11.8-1.5c.1-.1.2-.2.2-.3 0-.1-.1-.2-.2-.3 0 .1-.2.1-.2.2s.1.2.2.4zm2-70.3c-.1 0-.1 0-.2-.1-.1.3-.2.6-.3.8 0 0 .1 0 .1.1.2-.3.3-.6.4-.8zM33.5 48.7h.2c0-.3-.1-.5-.1-.8h-.1v.8z"/><path class="st0" d="M37.8 68.6c-1.8.4-3.4.9-4.9 1.9-1 .7-1.9 1.5-2.9 2.2-.4.3-.8.4-1.3.8-.1-1.1-.5-1.9-1.2-2.5-.2-.2-.3-.7.1-.9.3-.3.9-.3 1.2 0 .4.4.7.8 1.1 1.2.9-.6 1.8-1.3 2.7-1.9-.3-.7-.5-1.4-.8-2.1-.2-.4-.2-.7.3-1 .5-.2.9-.1 1.2.3.3.5.4 1 .7 1.4.1.1.1.2.3.4 1-.3 2.1-.6 3.1-1 .1-.7-.5-1-.9-1.4-.4-.4-.6-.8-.8-1.3-.4-1.3.4-2.7 1.7-3 .9-.2 2.4.6 2.8 1.4.6 1.2 1.2 2.3 1.8 3.5.8-.1 1.5-.1 2.3-.2.1-.9 0-1.8 0-2.6-.1-.7 0-.9.5-1 .5-.1.9.2 1 .8.1.4 0 .8.1 1.2 0 .4.1.8.1 1.2 2 .1 3.8.1 5.7.2.4-.6.4-1.4.5-2.1.1-.8.3-1 .8-.9.6.1.8.4.8 1.1-.1.8-.3 1.5-.4 2.4 1.6.4 3.1.9 4.8 1.3.3-.7.5-1.2.7-1.8.2-.5.5-.7.9-.6.4.1.6.5.4 1-.2.6-.5 1.2-.7 2 1.4.9 2.9 1.7 4.5 2.7.6-.8 1.2-1.6 1.9-2.5.9.6.9.7.5 1.4-.2.3-.5.6-.6 1-.2.5-.5 1-.6 1.5-.1.4-.2.7-.6.7-.4.1-.7.1-1-.2-1.7-2-4.1-3.1-6.4-4-2.5-1-5-1.7-7.6-2-1.6-.2-3.1-.1-4.6.2-.6.1-1.2.2-1.9.3.7 1.7 1.6 3.1 2.6 4.4.8 1.1 1.5 2.3 2.3 3.4.2.4.5.6 1 .6 1.6-.1 2.5.8 3.2 2.1.2.3.3.7.6 1 .4.5.4 1 .3 1.6-.2 1.6-1.8 3.5-3.4 3.6-3 .2-4.9-.6-5.3-3.6-.1-.5.1-1.1.2-1.6.2-.5.1-.8-.1-1.2-1.5-2.3-2.9-4.6-4.4-6.9-.9-.7-1.6-1.5-2.3-2.5z"/></svg>