<svg id="Layer_1" xmlns="http://www.w3.org/2000/svg" viewBox="0 0 100 100"><style>.st0{fill-rule:evenodd;clip-rule:evenodd}.st1,.st2{fill:none}.st2{fill-rule:evenodd;clip-rule:evenodd}</style><path class="st0" d="M1.2 65.6c-.3-4.6-.6-9-.9-13.5-.1-2.1 0-4.2 0-6.3 0-.6.1-1.2-.1-1.7-.7-1.6.6-2.6 1-3.9.1-.3.7-.5 1.2-.5 3.7-.2 7.4-.4 11.1-.5 1.1 0 2.3.1 3.4.3.9.1 1.6-.2 2.2-.9 4.5-5.3 9-10.5 13.4-15.7 2.6-3.1 5-6.3 7.5-9.4.9-1.1 1.6-2.3 2.4-3.5.4-.7 1.1-1 1.8-.7.7.3 1.5.8 1.4 1.8-.1 1.1.5 2.4-.6 3.4-.3.3-.1 1.2 0 1.8.3 2.2.4 4.3-.3 6.5-.4 1.1.1 2.6.4 3.9.6 3.2.6 6.4.8 9.6.1 1.8.4 3.5.5 5.3.1.9 0 1.9 0 2.8-.1 1.8.8 3.6.3 5.4.9 1.8.2 3.8.5 5.7.3 1.9.4 3.9.4 5.9 0 .9-.1 1.9-.2 2.8v.8c-.1 1.1 1.6 2.1.2 3.2 0 1.1-.1 2.3 0 3.4 0 1.2.1 2.4.2 3.6.2 2.2.4 4.3.6 6.4.1 1.4-.1 2.7.5 4.1.3.7-.1 1.9-.5 2.7-.3.6-1.8.5-2.8-.2-3.4-2.3-7-4.2-9.9-7.2-.8-.8-2-1.4-3-2.1-3.8-2.4-7.5-4.8-11.3-7.2-1.2-.8-2.6-.9-4-.7-.6.1-1.3.3-1.9.2-2.9-.4-5.7 0-8.6.4-1 .1-2 .2-3.1.2-1.5 0-2.1-.6-2.1-2.1-.5-1.3-.5-2.7-.5-4.1zm38.1-48.2c.2 0 .3.1.5.1.1-.4.1-.8.2-1.2-.1 0-.2 0-.4-.1l-.3 1.2zM100 43.2c-.2 4.1-.5 8.1-.7 12.2 0 .5-.2 1-.3 1.5-.2 1.4-.7 2.9-.7 4.3s-.6 2.6-.9 3.8c-.1.7-.3 1.3-.3 2-.1 1.2-.1 2.4-.3 3.6-.1.5-.8.9-.9 1.4-.2.9-.2 1.8-.2 2.8 0 .3.1.6 0 .7-1.9 2.2-1.5 5.1-2.4 7.5-.5 1.2-1.6 2-1.4 3.5-1.5.3-.9 1.5-1 2.4 0 .1 0 .3-.1.4-1.2 1.7-1.3 3.8-2.5 5.5-.9 1.2-3.5 1.4-4.8.2-.8-.7-1.5-1.7-2.1-2.7-.2-.4-.1-1.1.1-1.6 1.1-2.6 2.3-5.1 3.5-7.7 1.4-3.1 2.1-6.4 2.9-9.7 1.1-4.8 2.2-9.6 3.2-14.4.2-1.1.3-2.1.4-3.2.3-5.8.9-11.6.3-17.4-.4-4-1.6-7.9-2.6-11.8-1.5-5.6-4-10.8-7.9-15.2-.4-.5-.7-1.1-1-1.6-1.5-3.2-.1-5.2 3.8-5.6 1.9-.2 3 1 3.9 2.3 4.3 6.4 7.6 13.2 9.7 20.7 1.2 4.4 1.9 8.7 1.8 13.3 0 .4.1.9.1 1.3V43c.3.2.4.2.4.2zM92.1 67c-.1 0-.2-.1-.3-.1-.4 1.7-.9 3.5-1.3 5.2.1 0 .3.1.4.1.4-1.7.8-3.5 1.2-5.2zm1.8-29.8c-.5.3-.8.5-1.3.8.5.3.9.5 1.4.8-.1-.6-.1-1-.1-1.6z"/><path class="st0" d="M68.9 82.2c.2-.5.3-1 .5-1.5 2-4.8 3.8-9.6 4.2-14.8.4-5.4 1-10.8 1.2-16.2.1-4.3-.5-8.5-2.1-12.6-1.1-2.9-2.6-5.7-3.9-8.5-.5-1.2-1-2.4-1.5-3.5-.4-.9-.2-1.6.6-2.1 1.3-.9 2.5-1.8 3.7-2.6.7-.5 1.3-.2 1.9.3 1.5 1.1 2 2.9 2.8 4.5.3.6.5 1.2.7 1.8.1.2.2.4.2.5-.6 2.1.9 3.7 1.3 5.5.4 1.9 1.1 3.6 1.6 5.5.8 2.9 1.5 5.9 2.2 8.8.2.7.1 1.5.1 2.3 0 .8-.1 1.7.1 2.5.5 3 .5 6 .2 8.9-.2 2.1-.8 4.1-1.3 6.1-.6 2.6-1.4 5.2-2 7.9-.4 1.9-.6 3.8-.9 5.6-.2 1.3-.5 2.6-1.5 3.6-1.2 1.3-2.5 1.7-4 .7-.8-.5-1.4-1.2-2.2-1.8-.5-.5-1.1-.6-1.9-.9zM52.7 34.1c1.2-.8 2.5-1.6 3.8-2.5.8-.5 1.3-.3 2 .3 2.1 2 3.3 4.6 4.7 7.1.9 1.6 1.3 3.5 1.9 5.3.2.7.5 1.5.6 2.2.2 1.3.3 2.7.5 4 .6 5 .6 9.9-.9 14.7-.6 2-1.1 4-1.8 6-.2.6-.5 1.2-.8 1.7-.7 1-1.2 1.2-2.4.9-.6-.1-1.2-.3-1.9-.3-1.5-.2-2.6-1.7-2.2-3.1 1.9-6.2 2.3-12.6 2.2-19.1-.1-4-1.4-7.8-3.2-11.3-.3-.7-.8-1.3-1.3-1.9-.9-.9-1.6-2-1.2-4z"/></svg>