<svg id="Layer_1" xmlns="http://www.w3.org/2000/svg" viewBox="0 0 100 100"><style>.st0{fill-rule:evenodd;clip-rule:evenodd}.st1,.st2{fill:none}.st2{fill-rule:evenodd;clip-rule:evenodd}</style><path class="st0" d="M75.8 17.9c4.3-.9 8.5-.9 12.8-.9 1.6 0 3.3-.2 4.9-.2 1.3-.1 2.6-.4 3.9.1.2.1.4 0 .6 0 .9-.1 1.2.1 1.2 1 .1.7-.1 1.5 0 2.2.1 1.9-.2 3.8.2 5.7.2 1.1.1 2.3.2 3.4.1 3.1.2 6.1.3 9.2v.3c.3 1.9-.1 3.8-.2 5.7 0 2.4-.6 4.8-.2 7.2.1.5-.1 1.2-.2 1.7 0 .3-.1.7-.1 1V61.4c-.5 2.2-.1 4.4-.2 6.6-.1 2.3 0 4.5-.1 6.8 0 1.5-.1 3-.1 4.5 0 .8 0 1.7-.1 2.5-.1 1.2-.2 2.3-.3 3.5-.2 2.1-.5 4.2-1.6 6.1-.8 1.4-1.9 2.7-3.4 3.5-1.1.6-2.2 1.1-3.5 1.1-.9 0-1.9-.1-2.8-.2-.9-.1-1.8-.4-2.7-.6-1.1-.3-1.8-1.1-2.5-1.9-.7-.6-1.3-1.3-2-1.9-1.5-1.4-2.3-3.1-2.6-5.1-.5-2.6-.5-5.2-.6-7.9-.1-3.6-.2-7.2-.3-10.9 0-1.7-.1-3.4-.1-5.2 0-1.8-.1-3.5-.1-5.3v-9.1-9.4c0-2.5 0-5-.1-7.5-.1-2.9 0-5.8-.4-8.7-.1-1.4.1-2.9.1-4.4zm21 .9h-3.2c-1.9.1-3.8.1-5.7.2-2.7.1-5.3.2-8 .3-.7 0-1.4.2-2.3.3.1 2.4.3 4.7.4 7 .1 2.3 0 4.7.1 7 0 2.3.1 4.6.2 6.8 1.6.5 3.1.5 4.7.4 2.9-.1 5.9-.2 8.8.1.9.1 1.9 0 2.9 0 .2 0 .5 0 .6-.2.7-.6 1.6-.7 2.5-.3.1-7.2-.6-14.3-1-21.6zM85.2 81.5h.2c.8-3.3 0-6.4-.4-9.9-.1.4-.1.5-.1.6 0 2.3-.1 4.6-.1 6.9 0 .8.2 1.6.4 2.4zm4.9-7.6c-.2 2.2-.7 4.5-.1 6.7.7-2.2.4-4.5.1-6.7zm.6-19.8c-.1 0-.2 0-.3.1-.1.9-.3 1.8-.3 2.7 0 .9.1 1.8.1 2.7h.2c.3-1.6.6-3.2.6-4.8.1-.2-.2-.4-.3-.7zm-5.2-9.7c-.5.7-.5.7-.4 1.6.1 1.3.3 2.7.4 4 0 .2.1.4.1.6-.1-2 .7-4.1-.1-6.2zm4.6-1.9c0 .1-.1.2-.1.3.2.1.4.3.5.3 1-.3 1.5.1 1.8 1 0 .1.1.2.2.4.4-.5.8-1 1.3-1.6-1.3-.2-2.5-.3-3.7-.4zm4.5 3.4h-.2c-.6 1.3-.5 2.7-.6 4.1 0 .1.3.2.7.5 0-1.7.1-3.1.1-4.6zM94.4 58c-.1 0-.2-.1-.2-.1-.4.3-.7.8-.7 1.3.1 1.1.2 2.2.3 3.2h.1c.2-1.4.3-2.9.5-4.4zm-1.6 15.7c1.1-1.6.3-3.3.5-5H93c0 1.6-.1 3.3-.2 5zm-10.1 6c.3-1.4-.4-2.8-.6-4.1-.1 1.4.1 2.8.6 4.1zM91 47h-.2c-.4 2-.4 2.8.1 3.5-.1-.7-.2-1.2.3-1.5.1-.1.2-.3.2-.5-.2-.4-.3-1-.4-1.5zm.3 38.1c-.5.9-.1 1.5.5 2.2l.4-.8c-.4-.6-.6-1-.9-1.4zm-4.4 8.2c1.1.5 2.2.7 3.3.3l-3.3-.3zm-3.3-5.1c.5-.2 1-.3 1.4-.5l-.9-1.5c-.2.7-.3 1.3-.5 2zm-2.8-30.7c1-1.2 1-1.4.3-2.7-.1.9-.2 1.7-.3 2.7zm4.7 6.1c-.5 1.4-.5 1.6-.2 2.3.3-.7.3-.8.2-2.3zm9 25.7c-.8.2-1 .4-1 .8 0 .1.2.3.3.5.3-.5.5-.9.7-1.3zm-7.3-31.4h.3c.1-.4.2-.8-.5-1.2.1.5.2.9.2 1.2zm.5 2h-.2c0 .4 0 .8.1 1.2h.1v-1.2zm.3-13.6h.2c0-.2 0-.5-.1-.7H88v.7zm3.1 42.8h.2c.1-.2.1-.4.2-.6-.2.1-.4.1-.4.1-.1.2 0 .3 0 .5zM40.7 19.3v-1.4h2.5c3.7-.1 7.3-.1 11-.2.8 0 1.6-.2 2.4-.2h5.8c.7 0 1.6.7 1.8 1.6.3 1.5.5 3 .6 4.5.3 5.9 0 11.8-.1 17.7-.1 4 .1 8 .1 12.1 0 2.6-.2 5.1-.3 7.7v2c0 1.8 0 3.5-.1 5.3 0 1.6-.1 3.2-.2 4.8 0 .4.1.7.1 1.1.1.5.1 1.1.1 1.6V79.5c-.1 1.7-.2 3.4-.2 5.1-.1 2.2-.1 4.3-.1 6.5 0 .4-.2.8-.4 1.1-.7 1.5-1.6 2.8-3 3.9-1 .8-2.1 1.1-3.2 1.6-.8.3-1.7.5-2.6.8-1.4.4-2.8.3-4.1-.3-.5-.2-.9-.5-1.4-.6-2.7-.9-4.4-2.8-6-5.1-1.2-1.6-1.5-3.4-1.6-5.3-.2-2.7-.2-5.4-.4-8.1-.1-2.7-.4-5.3-.5-8-.2-3.1-.4-6.1-.5-9.2-.1-4.7-.1-9.3-.1-14 0-3.6.3-7.1.2-10.7-.1-4.2 0-8.4-.5-12.6-.2-1.3 0-2.6-.5-3.9-.1-.2.2-.5.3-.7.2-.4.5-.5.9-.7zm1.7 34.8c.3 0 .5.1.6.1 2.3.2 4.6-.3 6.9-.3h5.4c1.2 0 2.5.2 3.7.1 1.1-.1 2.2-.5 3.4-.3.1 0 .2-.1.3-.1v-2.9c0-5.2.1-10.3.1-15.5 0-3.8 0-7.5-.1-11.3 0-1.3-.3-2.6-.5-3.9-.3 0-.5-.1-.7-.1-2-.3-3.9-.3-5.9-.2-3.9.2-7.8.2-11.6.3-.8 0-1.6.2-2.2.3.2 3.8.4 7.4.6 11.1.1 2.2.2 4.4.2 6.6 0 4.2-.1 8.5-.2 12.7v3.4zM44.6 67c-.4 2.1-.2 4.1.1 6.1.3 2.4.7 4.9 1 7.3.2 1.1.5 2 1 3 0-1.3-.2-2.6-.4-3.8-.1-.9-.4-1.7-.5-2.6-.1-1.7-.1-3.4-.2-5v-3.3c-.8-.3-1-.9-1-1.7zm10.8 7.6c.1 0 .2.1.3.1.8-.5.5-1.5.6-2.2.1-1 0-2.1 0-3.3-.4.2-.7.3-.9.4v5zm2.7-6.2v5.8c.2.1.4.2.9.4-.1-2-.2-3.9-.4-5.8 0-.1-.2-.2-.5-.4zm-4.8 1.8c-.7.3-.7.3-.7.8 0 1-.1 2-.1 3 0 .2.1.5.1.8.4-.2.7-.3 1.1-.4-.2-1.4-.3-2.8-.4-4.2zm-.5 7.1v9c.5-2.3.6-7.6 0-9zm-5.2-6.5c-.3 1.8-.1 4.6.3 5.1h.1c0-1.6.1-3.2.1-4.8 0-.1-.3-.2-.5-.3zm2.4-1.4h-.3c.1 2.1.2 4.2.3 6.6.2-.3.4-.4.4-.5-.1-2-.2-4.1-.4-6.1zm7.3 26c.9-.4 1.6-.7 2.3-1.1-.2-.3-.4-.5-.6-.8-.5.7-1.5.7-1.7 1.9zm4.7-6.1c-.2.8-.3 1.7-.5 2.5.8-.7.7-1.6.5-2.5zm-12-3.2c-.1.9-.3 1.8.3 2.8.2-1.1-.1-2-.3-2.8zm-2.2-19.3c-.7.7-.7.8 0 1.4v-1.4zm-3.9 18h-.1c0 .4.1.7.1 1.1h.1c-.1-.3-.1-.7-.1-1.1zm10 11.2v.2c.2 0 .4-.1.7-.1v-.2c-.3 0-.5 0-.7.1zm-2.6-38.4h.2v-.5h-.3c0 .2.1.3.1.5zM26 67.8c.1 0 .2.1.4.1 1.1.4 1.2 1.1.2 1.8-.2.2-.4.3-.7.4 0 .6-.1 1.2-.1 1.7 0 2.7 0 5.4-.1 8.1-.1 2.3-.1 4.5-.4 6.8-.3 2.2-.6 4.5-1.8 6.5-.9 1.6-2.3 2.8-3.9 3.5-1.2.5-2.4.9-3.7 1-1.6 0-3.3 0-4.8-.7l-2.4-1.2c-.9-.5-1.6-1.1-2.2-1.9-1.4-2-2.3-4.1-2.6-6.5-.4-2.9-.9-5.8-.9-8.8-.1-5.4-.5-10.8-.8-16.2-.1-2.6-.4-5.1-.4-7.7-.1-2.7 0-5.4 0-8.1 0-5.8 0-11.7.1-17.5 0-2 0-4.1-.1-6.1 0-.4-.1-.9-.2-1.3-.1-.9.2-1.4 1.1-1.5.9-.1 1.9-.1 2.8-.1 2.1-.1 4.2-.2 6.2-.4.7-.1 1.3-.2 1.9-.4 1-.2 1.9-.2 2.9 0 1.6.2 3.3.1 4.9.1.8 0 1.7-.1 2.5-.2.7 0 1 .3 1 .9.3 4.2.6 8.3.8 12.5.2 3.3 0 6.5-.2 9.8-.2 4-.2 8.1-.1 12.1.1 3 0 6 0 9v1.2c.3.9.5 2 .6 3.1zm-22.1-46c0 .3-.1.4-.1.5 0 5.8.1 11.5.1 17.3 0 4-.1 7.9-.1 11.9.2 3.7.5 7.5.7 11.3.1 1.5.2 2.9.3 4.4h.5c.8.2 1.7-.2 2.5.5.2.1.6 0 .9-.1.3 0 .8-.2.9 0 .8.8 1.8.5 2.7.5l6.9-.3c1.3-.1 2.6-.2 4-.2v-.7-3.5-8.7c0-1.9-.2-3.7-.2-5.6.1-3.3.3-6.5.4-9.8 0-1 .2-2.1.1-3.1l-.6-11.7c-.1-1.1-.3-2.2-.5-3.3-1.4-.1-3-.2-4.5-.2-.4 0-.9 0-1.3-.1-.8-.3-1.6-.2-2.4 0-.9.1-1.7.2-2.6.3-2.3.2-4.5.3-6.8.5-.3 0-.5.1-.9.1zm11.4 51.9H15v5c0 .1.2.2.4.4 0-1.9.1-3.7-.1-5.4zM11 80.8c.2-1.6 0-3.1-.6-4.6 0 1.5.1 3.1.6 4.6zm1.4 6.8c-.1 1.4 0 2.7.6 4 .5-1.4-.4-2.7-.6-4zm10.9-12.1c.2-2.1.1-3.7-.5-4.4-.1 1.5.4 3 .5 4.4zM11 71.7c.1 0 .2 0 .2-.1.1-.5.1-1 .2-1.6-.5 0-.8 0-1.4.1.5.7.8 1.1 1 1.6zm10.9 20.8c-1.2-.1-1.5.2-1.1 1.4.7-.4.7-.4 1.1-1.4zm-5.8 3.3c.7-.1 1.2-.2 1.7-.2v-.2c-.5-.2-.9-.3-1.5-.5 0 .3-.1.5-.2.9zm-7.3-6.3c0 .7 0 .7.5 1.1 0-.5 0-.5-.5-1.1zM1.4 3.9c2.9-.1 5.9-.3 9-.3 1.3 0 2.5-.1 3.7-.4 1.1-.2 2.2-.1 3.3-.1h2.5c.7 0 1.5-.1 2.2-.1.3 0 .7.1.9.2.4.3.8.4 1.3.4.6-.1.8.4.8 1 0 1.5.1 3 .1 4.5 0 1.3-.1 2.7.4 4 .1.2 0 .5 0 .8 0 .7-.1 1.3-.1 2 0 .8-.2 1.2-1.1 1.3-2.1.2-4.3.4-6.4.6-3.3.4-6.7.3-10.1.4-1.8 0-3.7.1-5.5.2-.6 0-1 0-1.2-.7 0-.1 0-.2-.1-.3-.9-.7-.6-1.7-.6-2.6V14c0-1.1-.2-2.1-.1-3.2.2-1.6 0-3.1-.4-4.7-.1-.6-.1-1 .5-1.4.4 0 .6-.4.9-.8zM13.9 16c-.2-3.5-.3-6.9-.5-10.4-.5.1-1 .1-1.5.2-.7 1.7-.4 8.8.4 10.2h1.6zm3.7-.3c-.3-3.5-.1-7-.6-10.5h-1.4c-.3 3.6-.1 7.1.6 10.7.4-.1.9-.2 1.4-.2zM5.2 5.8c-.1.5-.1.9-.1 1.3v4.7c0 1 .2 2 .3 2.9 0 .3-.1.8-.3 1-.2.2-.7.1-1 0-.4-.2-.7-.4-1.1-.8 0 .4-.1.8-.1 1.2H7v-1.3C6.8 11.9 6.6 9 6.3 6c0-.1-.1-.1-.2-.2h-.9zm13.9-.4c0 .3-.1.5-.1.8l.3 6.9c0 .8.1 1.6.6 2.3.7.2.7-.3.7-.8-.1-3.1-.2-6.1-.2-9.2h-1.3zM10 16.1c-.1-1.8-.3-3.5-.3-5.2-.1-1.7 0-3.4 0-5.2-.4 0-.8.1-1.4.1.2 3.5.5 6.9.7 10.3h1zM23.1 5.5c-.7.5-.7.5-.6 3.1 0 1.1.1 2.1.2 3.2s-.1 2.2.2 3.4c.3-.2.5-.3.5-.4.1-.4.1-.7.1-1.1-.3-2-.3-4-.2-6-.1-.7-.2-1.5-.2-2.2zm-20.9.8c.5 1.9.4 3.9.4 5.8 0 .7.2 1.4.3 2.1h.3c.2-2.7.2-5.3 0-8-.5 0-.7 0-1 .1zM54.8 16.4c-2.4 0-4.8-.1-7.2 0-2.3.1-4.5.4-6.8.7-.9.1-1.4-.3-1.5-1.3 0-1.5-.2-3-.2-4.6 0-1.5 0-3 .1-4.5.1-.9.3-1.7.5-2.6.1-.3.4-.4.7-.3 1.7.7 3.5.3 5.2.2 1.2 0 2.4 0 3.6-.1 1.2-.1 2.5-.3 3.7-.4 2.5-.2 5-.3 7.6-.4.4 0 .8 0 1.2-.1.5-.1.9 0 1.2.3.1.1.3.2.4.3.3.1.7.1.8.2.2.3.2.8.2 1.2v4.4c0 1.4.2 2.8.2 4.3 0 .6-.1 1.3-.3 1.9-.1.5-.6.7-1.1.8h-1.5c-2.2-.1-4.5-.1-6.8 0 0-.1 0 0 0 0zM44.5 6.3c0 .2-.1.4-.1.5.1 2 .1 4.1.2 6.1 0 .5.3 1 .4 1.5.5 0 1-.1 1.4-.1-.1-2.8-.2-5.4-.3-8h-1.6zm11.6 7.9c-.5-2.9.3-5.8-.1-8.7-.5 0-.9.1-1.5.1.1 2.9-.2 5.7.1 8.6h1.5zm-8-8.1c.1 2.4.1 4.7.3 7 .1 1 .4 1.1 1.4 1-.1-2.7-.1-5.4-.2-8.1-.5 0-1 .1-1.5.1zm11.3-.7c-.5 0-.9.1-1.4.1 0 1.3.1 2.5 0 3.7-.1 1.6-.3 3.1.3 4.6 0 .1.1.1.2.2.3 0 .6-.1.9-.1V5.4zm-16.7 9.3c-.1-2.8-.1-5.5-.2-8.3-.5 0-.8.1-1.2.1-.3 2.8-.5 5.6.4 8.3.3-.1.6-.1 1-.1zm19.8-.8c0-.9.1-1.7.1-2.5 0-1.4-.1-2.8-.2-4.2V5.4c-.9-.1-1-.1-1 .7 0 1.9 0 3.8-.1 5.7v2.1c.5.1.8.1 1.2 0zm-9.8.2c-.1-2.8.1-5.5-.1-8.3-1 0-1 0-1 .8 0 1.4 0 2.8.1 4.3 0 1.1.2 2.2.2 3.3.3 0 .5-.1.8-.1zM87 14.7c-2.5.1-5 .2-7.5.4-.9.1-1.9.3-2.8.5-1 .2-1.4-.1-1.6-1.1 0-.2 0-.4-.1-.5-.5-.5-.4-1.2-.5-1.9-.1-2.2-.3-4.5-.4-6.7v-.7c0-1.4.3-1.7 1.6-1.9 1.1-.1 2.1-.1 3.2-.2 1.2-.1 2.4.2 3.6-.4.2-.1.5 0 .7 0 .4 0 .9.2 1.3.2.8 0 1.7-.1 2.5-.2.4 0 .7-.2 1-.3.4-.1.8 0 1.2 0 .4 0 .7.1 1.1.1 1.9-.1 3.7-.3 5.6-.5.8-.1 1.1.4 1.5.9.1.1.1.4.2.5 1 .5.7 1.3.7 2.1-.1 2.2-.1 4.5-.2 6.7 0 .5 0 1.1.1 1.6.1.9-.2 1.5-1.1 1.4-1.7-.2-3.3.1-4.9 0-1.8 0-3.5.1-5.2 0 0 .1 0 0 0 0zm-5.3-1.9c-.2-2.7-.3-5.3-.5-8.1-.7.1-1.2.1-1.8.2 0 .5 0 .8.1 1.2.1 1.4.3 2.8.4 4.3.1.9.2 1.7.8 2.5.3-.1.6-.1 1-.1zm-3.4.3c-.3-2.8-.6-5.4-.9-8.1-.5.1-.9.2-1.4.3.5 2.7.3 5.3.9 8 .5-.1.8-.2 1.4-.2zm11-8.8c0 1.7-.1 3.4-.1 5 0 .8 0 1.6.1 2.4.1.9.4.9 1.4.6-.7-2.6-.1-5.3-.4-8.1-.3.1-.6.1-1 .1zm3.1-.1c-.3 3.4-.1 6.4.5 7.6.5-.5.6-1 .6-1.7 0-1.5.1-3 .2-4.5V4c-.6 0-.9.1-1.3.2zm-6.1.3c0 .3-.1.5 0 .7 0 1.6.1 3.1.1 4.7 0 .7 0 1.3.1 2 0 .4.2.9.9.7-.1-2.7.2-5.4 0-8.1h-1.1zm-3 .2c.1 1.9.1 3.7.2 5.6 0 .7.1 1.4.3 2.1 0 .2.3.3.5.6V4.8c-.4-.1-.6-.1-1-.1zm12.5 7.9c.2-.3.3-.4.3-.6.1-2.4.1-4.8.2-7.2 0-.3 0-.7-.6-.8-.1 2.8-.6 5.6.1 8.6z"/></svg>