<svg id="Layer_1" xmlns="http://www.w3.org/2000/svg" viewBox="0 0 100 100"><style>.st0{fill-rule:evenodd;clip-rule:evenodd}.st1,.st2{fill:none}.st2{fill-rule:evenodd;clip-rule:evenodd}</style><path class="st0" d="M43.9 62.3v.5c0 .5-.1 1-.3 1.4-.3.6-.5 1.3-.9 1.9-.6.8-1.3 1.4-2.2 1.9-1.5.8-3.1.8-4.7.2-1.7-.7-3-1.8-3.6-3.6-.3-.7-.5-1.5-.5-2.3 0-.1 0-.2-.1-.3-.1 0-.2.1-.2.1-.7.6-1.5 1-2.4 1.4-1 .4-1.9.7-3 .8-.8.1-1.7 0-2.5-.2-1-.3-2-.7-2.9-1.3-1.6-1-2.5-2.5-2.7-4.4 0-.6.1-1.2.3-1.8.7-2 2.1-3.3 4-4.1 1-.4 2.1-.7 3.2-.7.7 0 1.3.1 2 .1h.3c-.1-.2-.2-.3-.3-.4-.6-.8-1.2-1.7-1.7-2.6-.5-.9-.4-1.9.1-2.8.8-1.5 2-2.3 3.5-2.9 1-.3 2-.5 3-.5.8 0 1.5.2 2.2.5.2.1.4.2.6.2h.1c.7.5 1.5.9 2 1.6.1.2.3.3.4.5.2.3.4.6.7.9 0-.1.1-.2.1-.3.1-.5.4-.9.7-1.4.4-.7.8-1.4 1.3-2.1.8-1.2 1.8-2.1 2.9-2.8.8-.5 1.6-.8 2.4-.9.5-.1 1.1 0 1.7 0h.6c.1 0 .2 0 .3.1.2.1.3.2.5.2 1.2.3 2.3.7 3.4 1.3 1.3.6 2.2 1.6 2.9 2.9.3.6.6 1.1.9 1.7.4.8.5 1.7.5 2.6 0 1.4-.3 2.7-1 3.9-.2.3-.2.3-.1.8.2.1.5.2.8.3.7.2 1.3.5 1.9.9.1 0 .2.1.3 0 .3 0 .5.1.5.4 0 .1.1.2.1.3.3.3.5.6.8.7l.1.1c.5.7.9 1.3 1.3 2 .6 1 .7 2.1.2 3.2-.5 1-1.2 1.9-2 2.6-.6.6-1.3 1.2-2.1 1.6-1.1.7-2.2 1.2-3.5 1.5-1 .2-2.1.2-3.1.2-2.1-.1-3.8-1-5.3-2.3-.5-.5-1-1-1.5-1.6.1 0 0 0 0 0zm-3-4.9c-.2-.1-.2-.1-.2.2v.1l-.3.3c.1.1.1.2.1.3 1.8-1.1 3.6-2.2 5.3-3.4-.1-.1-.2-.1-.3-.2-.1-.1-.2-.1-.4 0-.3.2-.7.5-1 .7-.3.2-.7.4-1.1.6v-.1c-.1.1-.2.1-.3.2l-.2.2h-.1c-.2 0-.2.1-.2.2-.2 0-.2 0-.2.2-.2 0-.3 0-.3.2-.1 0-.2 0-.2.1s-.1.2-.2.2-.1 0-.2.1c0-.1-.1-.1-.2.1zm14.2-2.2c.2-.1.2-.1.1-.3 0 .1-.1.2-.1.3h-.3c0 .1 0 .1.1.1-.2.1-.4.2-.5.2-.1 0-.1.2-.3 0h-.2c-.2.1-.5.2-.7.4-.1.1-.1.2 0 .3.5-.2 1-.4 1.4-.7.1-.1.3-.1.3-.3.1.2.1.1.2 0zM39.8 55c.1 0 .2-.1.4-.1-.7.5-1.5 1.1-2.2 1.6-.2.1-.4.2-.5.5.1 0 .2-.1.3-.2 1.1-.8 2.2-1.6 3.3-2.3l3-2.1c.2-.1.4-.2.5-.5.3-.1.4-.1.6-.4-.2.2-.4.3-.6.4-.8.5-1.5 1-2.3 1.4-.2.1-.3.2-.5.1l.1.1c-.1.3-.3-.2-.5.1.1 0 .1.1.2.1l-.9.6c.1-.1.2-.2.3-.4-.1 0-.2.1-.3.1-.1.1-.1.1 0 .2-.2.2-.4.4-.7.5 0-.2-.1-.2-.2-.1.1.2.1.3 0 .4-.1 0-.2 0-.3.2.2-.1.2-.2.3-.2zm-8-1.7c.2 0 .4-.1.5-.3.2 0 .3-.1.4-.2v-.1c-.1.1-.3.2-.4.3-.2 0-.4.2-.5.3-.1 0-.2 0-.2.2l.2-.2zm9.4-1.6c.2-.2.4-.3.6-.5.3-.1.4-.3.6-.4-.3.1-.5.2-.6.4-.2 0-.4.2-.5.3-.1.1 0 .1-.1.2-.3 0-.3.1-.4.3.2-.1.3-.2.4-.3zm-11.6 5.5c.5-.3 1-.5 1.5-.8.2-.1.5-.3.7-.4v-.1c-.9.4-1.7.8-2.6 1.2.1 0 .2.1.2.1-.3.2-.7.3-1 .5.4 0 .8-.3 1.2-.5zm-3.9 1.3c-.4 0-.8.3-1.1.5.3-.1.6-.2 1.1-.5-.1.1-.1.1 0 0 .2 0 .3-.1.5-.2-.2 0-.4 0-.5.2zm22.4-11.7c.4 0 .6-.3.9-.4 0 0 0-.1-.1-.1-.3-.1-.5.1-.7.4 0 0 0 .1-.1.1v-.2c-.2.1-.3.2-.4.3-.2.1-.2.1-.2.3.2-.1.4-.3.6-.4zm-11.8 5.4c-.4.2-.8.5-1.2.7-.2.1-.3.2-.4.3-.1 0-.2 0-.2.2l.2-.2h.2c.5-.3.9-.6 1.4-.9v-.1c.1 0 .2-.1.3-.1V52c-.1.1-.2.1-.3.2zm15.2 10.2c-.2 0-.3.1-.5.1-.3.1-.5.3-.8.4-.2.1-.3.2-.5.3h.3c.5-.2 1-.5 1.5-.8.1-.1.3-.2.4-.3V62c-.2.2-.4.1-.4.4zm-7.9-7.5c-.1 0-.1 0-.2.1-.4.3-.8.5-1.1.8-.3.2-.6.5-.9.7h.1c.4-.3.8-.5 1.2-.8.3-.2.6-.5.9-.8.3 0 .5-.2.7-.4-.3.1-.3.1-.7.4zm3.3 4.3c-.7.4-1.5.9-2.2 1.3-.1.1-.3.2-.4.3v.1c.1-.1.3-.2.4-.2.5-.3 1-.6 1.6-.9.2-.1.3-.2.5-.4.1-.1.1-.2.1-.2.2 0 .2 0 .3-.2-.1 0-.2.1-.3.2zm-9.5-1.4c-.1 0-.2 0-.2.1-1 .6-1.9 1.2-2.9 1.8-.1.1-.2.2-.3.4.2-.1.3-.2.4-.2 1-.6 1.9-1.2 2.9-1.9 0-.1.1-.2.1-.2.1.1.2 0 .2-.1-.1 0-.1 0-.2.1zm6-8.7c-.2.1-.4.2-.6.4-.6.4-1.2.9-1.8 1.3-.3.3-.7.5-1 .8-.2.1-.1.1-.1.3.1 0 .1-.1.2-.1.7-.6 1.5-1.1 2.2-1.7.3-.3.7-.5 1-.8.1 0 .2-.1.1-.2.1 0 .2 0 .2-.1.2-.2.5-.3.7-.5l.1-.1c-.3.2-.6.5-1 .7zm.2-2.9c-.2.1-.4.2-.5.4-.7.5-1.5 1-2.2 1.5-.6.5-1.3.9-1.9 1.4-.3.2-.6.3-.7.6-.3.2-.6.3-.8.4-.3.2-.6.4-.8.6-.2 0-.4.2-.6.3 0 0 0 .1.1.1.2-.1.3-.3.5-.4.1 0 .2-.1.3-.1.4-.2.8-.4 1.2-.7.2-.1.3-.1.5-.2 1.4-1.1 2.9-2.2 4.3-3.3l.6-.6c.1 0 .2-.1.3-.2l-.1-.1c0 .1-.1.2-.2.3zm4.9 5c.1 0 .1-.1.2-.1.7-.4 1.4-.8 2.1-1.3.4-.3.9-.6 1.3-.9-.2-.3 0-.5 0-.7-1.2.7-2.4 1.5-3.7 2.2.3.3.3.6.1.8-.2-.1-.2-.1-.3.1.1 0 .2 0 .3-.1zm.1 3.3h-.1c-.2.1-.4.1-.5.2-.5.3-1 .5-1.5.8-.3.2-.5.5-.9.3 0 0-.1 0-.2.1-.6.3-1.1.6-1.7.9L41 58.6c-.3.2-.5.3-.7.5l.6.3c.4-.2.8-.5 1.2-.8.5-.3 1-.6 1.5-1 .6-.4 1.2-.6 1.7-1.1 0 0 .1 0 .1-.1l3-1.8c.1.1.1 0 .2-.1zm-11.5-2c0 .1 0 .1 0 0 .2 0 .4-.1.6-.2.5-.2.9-.4 1.3-.7.9-.6 1.8-1.3 2.6-2l2.7-2.1c.1-.1.2-.1.2-.2.1-.1.1-.3.2-.4-.1 0-.1.1-.2.1-.4.3-.8.7-1.2 1l-.9.6c-.5.3-.9.7-1.4 1.1-.4.3-.8.5-1.2.8-.2.2-.5.2-.5.6l-.1.1c-.6.4-1.2.7-1.8 1.1-.1.1-.2.2-.3.2zm1.3.3s-.1 0 0 0c-.4.1-.8.3-1.2.5-1 .6-2.1 1.2-3.1 1.8-.2.1-.4.2-.4.4 0 .1-.1.1-.2.2-.3.2-.7.4-1 .6-.5.4-1 .6-1.5.9-.1 0-.2.1-.2.2-.1.3-.3.4-.5.4-.4.1-.7.3-1.1.4-.1 0-.2.1-.3.2.3.1.3.1.4 0l.1-.1c.3.1.6-.2.8-.3.4-.2.8-.2 1-.7l.1-.1c.3-.2.5-.3.8-.5.7-.4 1.5-.9 2.2-1.3l3.3-2.1c.2-.2.5-.3.8-.5zm13.4-.9c-.2 0-.4.2-.6 0H51c-.5.3-1 .6-1.6.8-.7.3-1.3.7-2 1-.1 0-.2.1-.2.2l.3.3c1.4-.8 2.7-1.5 4.1-2.3.1.2.1.1.2 0zm-10.1-.1l-.3.3c-.3.2-.6.4-.9.7h-.1c-.4.3-.7.6-1.1.9 0 0-.1.1-.1.2h.3c.3-.2.5-.3.8-.5 1.1-.8 2.3-1.6 3.4-2.5.1-.1.3-.2.4-.3 0 0 .1-.1.1-.2h-.1c-.1.1-.2.1-.3.2-.4.3-.9.6-1.3.9h-.2c0 .2-.1.3-.4.4.1-.1.2-.2.2-.3H42c-.1.1-.1.2-.2.3.1-.2 0-.2-.1-.1zm-4 6.7c-.1 0-.2 0-.3.1-.7.4-1.4.9-2.1 1.4-.4.2-.7.5-1.1.7l-.3.3c.2.1.3.1.5.1.2-.2.4-.3.7-.5.6-.4 1.3-.8 1.9-1.3.1 0 .1-.1.1-.1 0-.2.1-.3.2-.4.2-.1.3-.2.4-.3zm-2.2-1.9c.7-.5 1.3-1 2-1.5-.2-.1-.3-.2-.4-.3-.8.4-1.6 1-2.3 1.5.5-.1.5-.1.7.3zm14.3 0c0-.1-.1-.1 0 0-.2 0-.4.1-.6.2-.3.2-.6.3-1 .5-.7.4-1.4.8-2 1.1-.4.2-.7.6-1.2.6l-.1.1c-.3.2-.6.3-.9.5-.3.2-.5.4-.8.6.1.1.2.2.4.1.3-.2.6-.3.9-.5 0-.3 0-.3.2-.4.3-.2.6-.3.9-.5 1.2-.7 2.5-1.4 3.7-2.1.2-.1.3-.2.5-.2zm-10.5-1.9s0 .1 0 0c.1 0 .2 0 .3-.1 1-.7 2.1-1.4 3.1-2.1.8-.5 1.6-1.1 2.4-1.6.2-.1.4-.3.6-.4.1-.1.1-.2 0-.2-.3.2-.7.4-1 .7-.4.3-.9.7-1.4.9-.1 0-.1.1-.2.1-.1.2-.3.3-.5.4-.2.1-.4.1-.5.3 0 .1-.2.1-.3.1v.3c-.1 0-.2-.1-.2-.1 0 .1-.1.2-.1.2h-.2c-.1.1-.2.3-.4.4-.6.2-1.1.7-1.6 1.1zM37 57.2c-.2-.1-.3-.2-.5-.3-.5.4-1.1.7-1.6 1.1 0 .2 0 .3.1.5.7-.5 1.4-.9 2-1.3zm-.5 10c-.3.1-.5.1-.7 0-.2-.2-.1-.4-.2-.7-.3.2-.6.3-.9.4.3.3 1.2.8 1.7.9 0-.2 0-.4.1-.6zm-3.3-16.9c-.1 0-.1 0 0 0-.5.2-1 .4-1.5.7-.5.3-1 .6-1.6.9-.2.1-.2.2 0 .4 1-.7 2-1.3 3.1-2zm12.1-5.4c.7-.1 4.2-1.8 4.5-2.2-.4.2-.8.4-1.2.5-.4.2-.7.4-1.1.5-.4.2-.8.4-1.2.5-.5.3-.9.5-1 .7zm-9.5 6.8c0-.1 0-.1 0 0-1.4.8-2.7 1.6-4.1 2.5l.2.2c1.3-1 2.6-1.9 3.9-2.7zm-8-5.5c.2.1.3 0 .4-.1.6-.6 1.3-1.2 1.9-1.8.3-.2.5-.5.7-.8-.3-.1-.3-.1-.4.1l-.1.1c-.3.4-.7.7-1 1.1-.5.5-1 .9-1.5 1.4zm25.8 15.7c.1.2.2.1.4 0 .6-.3 1.1-.6 1.7-1 .3-.2.6-.5 1-.7-1.2.5-2.1 1.2-3.1 1.7zm3 1c0-.1 0-.1 0 0-.2 0-.4.1-.6.2l-.9.6c-.2.1-.4.2-.6.4-.2.2-.4.3-.7.5 0 .1.1.1.1.2.2-.1.3-.1.3-.3 0-.1.1-.2.2-.2.5-.3 1.1-.6 1.6-.9.4-.3.5-.4.6-.5zm-5.4-20.3c-.8.3-1.4 1-2.1 1.3v.1c.8-.3 1.5-.6 2.3-.9-.1-.2-.1-.3-.2-.5zM32.4 58.9c-.3.2-.7.4-1 .6-.3.2-.7.4-1 .6-.3.2-.7.3-1 .6.2-.1.5-.1.7-.3.5-.2 1-.5 1.5-.7.4-.2.7-.4.8-.8zm0-12.4c-.2-.2-.4-.1-.5 0l-2.1 1.8v.1c.8-.6 1.7-1.3 2.6-1.9zM18.6 59.4c.3.9.6 1.6 1.2 2.1l.6-.3c-.2 0-.3 0-.5-.1s-.4-.2-.5-.4c-.3-.2-.3-.3 0-.6-.2-.1-.5-.4-.8-.7zm9.9 1.7c-.9.4-1.8.8-2.6 1.1v.1c.8-.2 1.7-.5 2.5-.8 0-.1 0-.2.1-.4zm29-4c-.9.6-1.9 1.2-2.8 1.8-.2.1-.3.2-.4.3 1.1-.5 2.2-1.2 3.2-2.1zm-6.9-1.9s-.1 0 0 0c-1.2.5-2.4 1-3.5 1.8v.1c1.2-.6 2.3-1.3 3.5-1.9zm-20.4-8.8s-.1-.1 0 0c-.2 0-.3 0-.3.1-.1.1-.3.2-.4 0-.1 0-.1-.1-.2-.1-.2.1-.3.3-.4.4.1.2.1.4.1.5.4-.3.8-.5 1.2-.9zm26.1 10c-.7.4-1.3.8-2 1.2-.1.1-.3.2-.4.3-.1 0-.1.1-.1.2.9-.5 1.8-1 2.5-1.7zM38 61.1c-.1-.1-.1-.1 0 0-.1-.1-.2-.1-.2 0-.6.3-1.2.7-1.7 1-.2.1-.4.3-.5.4 0 0-.1.1-.1.2.7-.6 1.6-1.1 2.5-1.6zm4.9-7.2c-1.1.7-2.1 1.4-3.1 2.2.3-.1 2.9-1.9 3.1-2.2zm-3.6 9.8c-.5.3-.9.6-1.5 1 .6 0 1.1-.4 1.6-.6 0-.1 0-.3-.1-.4zm17-4.8c-.8.3-1.5.8-2.3 1.2l.1.1c.8-.3 1.5-.8 2.2-1.3zm-2.9-1.5c.3 0 1.8-1 2-1.3-.5.2-1.7 1-2 1.3zm-5.5 6.4c-.1 0-.1 0 0 0-.4.1-.6.3-.9.6.4.2.6.4 1 .5 0-.1 0-.2-.1-.3-.1 0-.1-.1-.2-.1-.3-.1-.3-.4-.1-.6.1 0 .2 0 .3-.1zm4.9-10.9c.3 0 1.1-.6 1.3-1-.4.1-.7.3-1 .5v.1c-.2.1-.3.2-.3.4zm-16.9-8.4c-.1-.1-.2-.2-.3-.1-.4.3-.8.7-1.2 1l-.5.5c.7-.4 1.3-.9 2-1.4zM52 55.6l-.2-.2c-.1-.1-.3-.1-.4 0-.1.1-.3.1-.5.2-.2 0-.3.1-.3.3.2 0 .3-.1.5-.1.1 0 .3-.1.4-.1.2.1.3 0 .5-.1zm9.2 3.9c-.3.2-.6.4-.8.6.1.2.2.3.2.5.4-.3.5-.7.6-1.1zm-18.9 5.3h.3l.3-.6c-.3 0-.5.1-.8.2.1.2.2.3.2.4zm-20.5-8.7c-.1-.1-.1-.2-.2-.1-.2.1-.5.2-.7.3l-.3.3.1.1c.3-.2.7-.3 1.1-.6zm14.1-9.4c0 .1.1.1 0 0 .5-.2 1-.5 1.5-.8l-.2-.2c-.4.4-.8.7-1.3 1zm5.7 13.7c.7-.3 1.3-.8 2-1.2v-.1c-.8.4-1.4.8-2 1.3zm9 3.4c.1 0 .2.1.2.1.4-.2.7-.5 1.1-.7v-.1c-.5.1-.9.3-1.3.7zm-9.1-19.2c.6-.4 1.5-1.2 1.6-1.5-.6.5-1 1-1.6 1.5zm6.7 15.9c-.2.2-.5.1-.6.5.1 0 .1.1.2.2l.6-.3c-.1-.2-.1-.3-.2-.4zM47 62.8c-.4.2-.9.3-1.2.7.1.1.1.1.2.1.2-.4.8-.4 1-.8zm-12.7-14c.7-.3 1.3-.8 2-1.2 0 0 0-.1.1-.1-.8.4-1.5.9-2.1 1.3zm11.6-8.3c.5-.2 1-.4 1.5-.8-.6.1-1 .5-1.5.8zm-24 22.4s0-.1 0 0c-.1-.3-.5-.3-.4-.7-.2.1-.4.1-.7.2.4.2.7.3 1.1.5zm17.4 3.6c0-.3-.1-.4-.3-.3-.2.1-.3.2-.5.3.3.2.5.1.8 0zM26.6 49.2c.3.5.6.9.9 1.3v-.2c-.1-.2-.3-.4-.4-.6-.1-.2-.3-.4-.5-.5zm22.3 15.6c-.2.1-.3.2-.5.4.3.1.5.2.8.3-.3-.3-.3-.3-.3-.7zm-9.6.6c0-.1-.1-.1 0 0-.5.1-.9.3-1.2.4v.1c.4-.1.8-.2 1.1-.3 0-.1.1-.2.1-.2zm-5.5-21.9c.3.2.5.4.7.5.1-.1.2-.1.3-.2-.4-.2-.7-.3-1-.3zm9.4 19.7c-.2.1-.4.2-.6.2l.4.4c.1-.1.2-.3.2-.6zm-.1-1.2v.5h.3v-.6c-.1 0-.2.1-.3.1zm-15.5-9.5c-.2-.1-.2-.1-.3-.1-.2.1-.4.2-.7.3-.1.1-.2.1-.3.2v.1c.4-.2.9-.4 1.3-.5zm26.8 12.8c.4-.1.8-.2 1.2-.5-.3 0-.9.3-1.2.5zm-10-10.9s0 .1.1.1c.4-.3.9-.6 1.3-.9-.5.2-1 .5-1.4.8zm4.1-9.6c-.5.1-1.1.3-1.4.5.5-.1 1-.3 1.4-.5zm9.9 13.9c.5-.1 1.2-.5 1.4-.8-.3.2-.5.3-.7.5-.2.1-.4.2-.7.3zm-9 6.8c.3.1.5.2.8.2-.2-.1-.3-.3-.5-.4 0 0-.1.1-.3.2zm5.5-14c.2-.3.3-.5.4-.9l-.6.6c0 .1.1.2.2.3zm-27-6.8c-.5.2-.8.5-.8.8.3-.3.6-.5.8-.8zm16.2-1.6c-.2.1-.3.2-.5.3.2.2.2.2.7-.1 0-.1-.1-.2-.2-.2zm9.7-.3h.4c-.1-.2-.2-.3-.3-.4-.1-.1-.2-.2-.3-.4 0 .3.1.5.2.8zm1.7 19c.3 0 .9-.4 1-.6-.3.2-.6.4-1 .6zm5.5-3c.1.2.2.3.3.5 0-.2 0-.4.1-.7-.2.1-.3.2-.4.2zm-11.4-.6c.2-.2.4-.3.5-.5v-.1c-.2.1-.4.2-.7.3.1.1.2.2.2.3zm.8-10.1c.4-.1.7-.3 1-.4-.4 0-.7.2-1 .4zm-5 1.5s0-.1 0 0c-.4.1-.6.3-.9.5v.1c.3-.3.7-.4.9-.6zm2.9-1.5c-.4.1-.8.3-.9.5.3-.2.6-.3.9-.5zm4.9-4c-.3-.1-.6.1-.8.3.4 0 .6-.2.8-.3zM26.1 59.4s-.1 0 0 0c-.3 0-.5.2-.8.2l-.1.1v.1c.3-.1.6-.2.9-.4zM38 47.6c.6-.2.6-.2.7-.5-.3.2-.5.4-.7.5zm10.6-5.1c-.3 0-.5.1-.7.4.2-.1.4-.3.7-.4zm-11.4 18c.3-.1.7-.2.9-.5-.3.2-.6.3-.9.5zm1.9 6.6c-.2-.1-.4-.1-.6.2.2 0 .4-.1.6-.2zM57 53.3c0 .2 0 .3.1.4.1 0 .2-.1.3-.1v-.1c-.2 0-.3-.1-.4-.2zm.9 4.6c0-.1-.1-.2-.2-.1s-.3.2-.4.3v.1c.3-.2.4-.2.6-.3zm-1.2 6.5c.2-.1.3-.2.5-.4-.2-.1-.3-.1-.5.4zm-1.2-15c0-.3 0-.5.1-.8-.1.2-.1.3-.2.5s-.1.3.1.3zm-14.7-2.8s.1 0 0 0c.3-.1.5-.3.8-.5-.4 0-.5.3-.8.5zm10.8 5.1c.4 0 .6-.1.7-.4-.2.1-.4.2-.7.4zm-1 5.7c.1-.1.1-.1.2-.1-.1-.1-.1-.2-.2-.3-.1 0-.1.1-.2.1.1 0 .1.1.2.3zm.8 8.3v.1h.4c0-.1-.1-.2-.1-.3-.1 0-.2.1-.3.2zm7.2-8.6c.3-.1.5-.2.7-.3v-.1c-.3.1-.5.2-.7.4zM43.2 45.6c.5-.3.6-.3.6-.6-.2.2-.5.3-.6.6zm-11.7-1.9c.2-.1.4-.3.6-.5-.4 0-.4.3-.6.5zm-5.1 5.2c.1-.3.1-.4-.2-.6 0 .3.1.4.2.6zm23.2 5.9s0-.1 0 0c-.3.1-.5.1-.7.3v.1c.3-.2.5-.3.7-.4zm10.2 7c-.4.1-.4.1-.2.3 0-.1.1-.2.2-.3zm-6.5 3.8c-.2-.3-.3-.1-.4.1.1 0 .3 0 .4-.1zm-27-11.5s0-.1 0 0c-.2 0-.4 0-.5.1v.1c.2-.1.4-.2.5-.2zm6.8.9c0-.1-.1-.1 0 0-.2 0-.4.1-.6.3v.1c.2-.2.4-.3.6-.4zm15.5 6.5c.2-.1.3-.2.5-.3-.2 0-.4.1-.5.3zm-5.9-1c-.2 0-.3.1-.5.2v.1c.3-.1.4-.2.5-.3zm5.7-8.5c-.3 0-.4.1-.5.3.2 0 .3-.1.5-.3zm9.8 8.1c-.1 0-.1-.1 0 0-.2 0-.3.1-.5.2v.1c.2-.2.3-.2.5-.3zM24 63.6v-.1c-.1-.1-.2 0-.4 0 .2.1.3.1.4.1zm4.7-1.5c.1 0 .1 0 0 0 .2.1.3.1.3-.2-.1.1-.2.1-.3.2zm13-6.1c-.1 0-.2.1-.3.2.1 0 .2-.1.3-.2zm13.9-2.8c.1-.1.2-.1.3-.2-.1 0-.2-.1-.3-.1.1.1.1.2 0 .3zm-15 1.2c-.1 0-.2 0-.3.1v.1c.2-.1.2-.1.3-.2zm-12.8 6.2c-.3 0-.3 0-.5.2.2-.1.3-.1.5-.2zm29.3-.1c.1 0 .3.1.3-.2-.1.1-.2.2-.3.2zm-5.4-.8c-.2-.1-.3 0-.4.1v.1c.2-.1.3-.1.4-.2zm-9-6.7c-.1 0-.2 0-.3.2.2-.1.3-.2.3-.2zm-16 6.1c-.2 0-.2 0-.3.2.1 0 .2-.1.3-.2zm-2.8.9c-.1 0-.3 0-.4.2.1-.1.2-.1.4-.2zm18.2-16.9c.3-.1.3-.1.3-.3l-.3.3zm1 1.8c0-.1 0-.1 0 0-.1 0-.2.1-.3.2.1-.1.2-.2.3-.2zm.1 10.8c0 .1.1.1 0 0 .1 0 .2 0 .3-.1v-.1c-.1.1-.2.2-.3.2zm9.3-1.7c-.2.1-.3.2-.4.2v.1c.1-.1.3-.1.4-.3zm-1.9-13.6c-.2-.1-.3 0-.3.1v.1c.1-.1.2-.1.3-.2zM49.5 45h-.3v.1c.1 0 .2-.1.3-.1zm-1.7 13.8c-.1 0-.1 0 0 0-.1 0-.2 0-.3.1v.1c0-.1.2-.1.3-.2zm11.4 1.1c.2.2.3 0 .3-.1-.1 0-.2 0-.3.1zm-16.3-9.4c-.1 0-.1-.1 0 0-.1 0-.2 0-.2.1l.1.1c-.1-.1 0-.2.1-.2zm-9 9.6c-.2 0-.2 0-.3.2.1-.1.2-.1.3-.2zm8.7-14s0-.1 0 0c-.1 0-.2.1-.3.1.2 0 .3-.1.3-.1zm-.1 12.7s0 .1 0 0c.1 0 .2-.1.3-.1-.1 0-.2.1-.3.1zm-.5 7.1c.1-.1.1-.2.2-.3-.2.1-.3.1-.2.3zM52.5 47c0-.1 0-.1 0 0-.1-.1-.2-.1-.3.1.2-.1.3-.1.3-.1zM23.1 63.3c.1.2.1.2.3.1-.1-.1-.2-.1-.3-.1zm27-7.3s0 .1 0 0h.1v-.1l-.1.1zM47 47.3c.2.1.3 0 .3-.1-.1 0-.2.1-.3.1zm-2.8 7.9c-.1 0-.1 0 0 0-.1 0-.2 0-.2.1 0 0 .1 0 .2-.1zm5-9h.2c-.1-.1-.2-.1-.2 0zm-4 16.6s-.1 0 0 0c0 .1 0 .1.1.2h.1c-.1-.2-.2-.2-.2-.2zm7.6-17.6s.1 0 0 0c.1 0 .2 0 .3-.1V45c-.1.1-.2.1-.3.2zm-11.5 9.6c0-.1 0-.1 0 0-.1 0-.2.1-.2.1.1 0 .2-.1.2-.1zM53 41.6c-.2-.2-.2-.1-.3.1.1-.1.1-.1.3-.1zm-6.8 16c-.1 0-.2 0-.2.2l.2-.2zm-5.5-.5s0-.1 0 0c-.1 0-.2 0-.2.1l.1.1c0-.1 0-.2.1-.2zm-16.9.6c0-.1 0-.1 0 0h-.2v.1c.1-.1.2-.1.2-.1zm6.4 2c.1 0 .1 0 0 0h.2-.2zm1.6-10.1h-.2v.1c.1 0 .2 0 .2-.1zm9.7 9.8c.1 0 .1.1 0 0 .1 0 .1 0 .2-.1 0 0-.1.1-.2.1zm3 2.6c.1 0 .1 0 0 0 .1-.1 0-.1 0-.2h-.1c.1.1.1.2.1.2zM56 58.7s0 .1 0 0c.1 0 .1 0 .2-.1-.1.1-.1.1-.2.1zm-19.1-6.9s0 .1 0 0c.1 0 .1 0 .2-.1-.1.1-.2.1-.2.1zm-11.4 5.1h-.1c0 .1 0 .1.1 0 0 .1 0 .1 0 0zm22.9-1.5c.1 0 .2 0 .2-.1v-.1l-.2.2zm-13.5-7.8c-.1 0-.1 0-.2.1.1 0 .2 0 .2-.1zm.5-.3c-.1 0-.2 0-.2.1.1 0 .1-.1.2-.1zm21.5 15.3h.1c0-.1-.1 0-.1 0zm-8.5-18.5s-.1 0 0 0h-.2v.1c.1-.1.1-.1.2-.1zm.4 3.7h-.2v.1c.1 0 .1-.1.2-.1zM30.7 59.6s0-.1 0 0l-.1-.1c0 .1 0 .1.1.1zm10.2-3.1c.1.1.1.1.2-.1-.1.1-.1.1-.2.1zm4.5-5.1s0 .1 0 0c.1 0 .2 0 .2-.1v-.1c0 .1-.1.2-.2.2zm11.3 6.9s0 .1 0 0c-.1 0-.1.1-.1.1l.1-.1zM41.1 44.1c-.1 0-.1.1-.1.1.1 0 .1-.1.1-.1z"/><path class="st0" d="M34.4 40.8c.1.1.2.1.2.2.2.2.2.3-.1.4H34c-.1 0-.2-.1-.4-.1s-.4-.1-.6-.1c-.2 0-.3 0-.5-.1-.1-.1-.3-.2-.5-.1-.2 0-.3.1-.5 0h-.3c-.2-.1-.6 0-1 0H30c-.4-.2-.7 0-1 .1-.7.2-1.4.4-2 .8-.7.4-1.3.9-1.8 1.5-.3.5-.5 1-.8 1.5-.1.1-.1.2-.1.4 0 .5 0 1-.1 1.6 0 .5.1.9.3 1.3.1.2.2.5.2.7 0 .3.2.5.4.7l.7.7.2.2c-.1.1-.2.1-.2.1h-.1c-.3 0-.4.2-.7.2-.3 0-.5 0-.8.1-.5.1-1.1.2-1.6.4-.2 0-.3.1-.5.1-.8.1-1.6.4-2.4.7-.8.4-1.7.8-2.3 1.5-.2.2-.4.5-.5.7-.3.5-.5 1.1-.6 1.8 0 .3-.1.6-.1.9 0 .7 0 1.4.2 2.1.2.5.3 1.1.4 1.6.3.9.8 1.7 1.5 2.4.3.3.8.6 1.2.7.6.2 1.1.5 1.7.7.2.1.3.1.5.2.1 0 .2.1.3.2.1.4.3.8 0 1.2-.3.4-.6.8-.9 1.1-.7.6-1.5 1.2-2.4 1.6-1.4.5-2.7.5-4.1-.2-.7-.4-1.3-.8-1.6-1.5-.2-.3-.4-.7-.5-1-.2-.9-.2-1.8 0-2.7.1-.3.2-.7.3-1.1-.4.1-.7.2-1.1.2-1.1.1-2.2.2-3.3.1-.6-.1-1.2-.2-1.8-.5-1.3-1-2.6-1.7-3.6-2.7-.8-.8-1.6-1.7-2.2-2.7-.5-1-.9-2-.8-3 .1-1.3.4-2.5 1.1-3.7.5-.8 1-1.5 1.8-2 1.1-.7 2.3-1.1 3.6-1.2.4 0 .8-.1 1.3-.1l-.2-.2c-.8-.5-1.5-1-2.2-1.6 0 0-.1-.1-.2-.1h-.1c-.4-.1-.5-.2-.3-.5-.1-.4-.3-.9-.4-1.3 0-.1-.1-.1-.1-.2-.2-.1-.2-.3-.1-.5s.2-.5.2-.7c.2-1.3.9-2.4 2.1-3.2.1-.1.2-.1.3-.2.1-.1.1-.2.1-.2h.6c.9-.4 1.9-.6 2.9-.7 1.2-.1 2.3 0 3.5.1 1.3.2 2.5.6 3.6 1.2.4.2.9.5 1.4.7v-1.2c0-.8.2-1.5.4-2.2.4-1 1.1-1.7 2-2.2.3-.1.6-.2.9-.4.3-.2.7-.2 1.1-.3 1.4-.3 2.8-.1 4.2.1.8.1 1.6.3 2.4.6 1.1.3 2.1.7 3 1.4 1 .7 1.6 1.7 1.7 2.9 0 .7.1 1.4 0 2.1-.1.2-.2.5-.2.7zm-1.2-2.7c.2-.1.3-.2.4-.3l-.1-.1c-.1.1-.2.3-.3.4-.2.1-.3.1-.3.3l.3-.3zM8.5 44.9c.3-.2.4-.5.5-.8-.2.2-.4.5-.5.8-.1.1-.2.2-.2.4.1-.1.1-.3.2-.4zm20.6-4.8c.7-.3 1.2-.9 1.8-1.4.1-.1.1-.2.2-.3.1-.1.2-.1.3-.1 0-.1-.1-.1-.1-.2-.3.3-.7.5-1 .8-.3.3-.7.6-1 .9 0 .1-.1.2-.2.3-.2 0-.2.1-.3.3.1-.2.2-.2.3-.3zm-20.7.4h-.1l-.3.3c-.2.3-.5.7-.7 1.1-.4.7-.9 1.3-1.3 2-.3.4-.3.4.1.8l.2.2c.1-.2.2-.3.3-.5-.1-.1-.1-.1-.2-.1h-.1c-.3-.2-.3-.4-.2-.5.6-.8 1.1-1.6 1.6-2.3.3-.4.5-.7.7-1 0-.1.1-.2.1-.3-.1.1-.1.2-.1.3zm1.4 4.1c.3-.2.5-.3.6-.6l.6-.9c0-.1.1-.1.1-.2-.1-.2 0-.4.1-.5.1-.2.3-.4.4-.6l-.1-.1c-.1.1-.2.1-.2.2l-.3.3c-.4.5-.7 1-1.1 1.5-.1.1-.2.3-.1.4.2.2.1.3 0 .5zm6.8-.5c-.3.3-.3.3-.4.6 0 .1-.1.1-.1.2-.3.4-.7.8-1 1.1-.2.3-.4.5-.6.8.6-.5 1.1-.9 1.7-1.4l.1-.1c.1-.2.3-.4.4-.6.1-.1.2-.3.3-.4-.1-.1-.3-.1-.4-.2zM5.2 42.6c.7-1.1 1.4-2.2 1.8-3.4l-.3.3c-.5.8-1 1.7-1.5 2.5 0 .2-.1.3 0 .6zm19.3-2.5c-.3.2-.7.3-1 .6-.4.5-.8 1-1.2 1.4-.1.1 0 .2.1.3.7-.8 1.4-1.5 2.1-2.3zm.1-1.4c.2.1.4.1.5-.1.6-.7 1.1-1.3 1.7-2 0-.1.1-.1.1-.3-.9.8-1.5 1.7-2.3 2.4zm.1-5.2c0-.1 0-.1 0 0H24c-.1.3-.1.5-.2.7-.1.2-.2.3-.3.4-.2.3-.4.6-.6.8h.1c.6-.6 1.2-1.2 1.7-1.9zm-5.8 12.4s.1 0 0 0c.9-.8 1.5-1.8 2.2-2.7-.1 0-.1.1-.1.1-.7.8-1.3 1.5-2 2.3-.1.1-.1.2-.1.3zm-7.5 15.6c-.3-.1-.5-.2-.7-.3-.3.3-.5.5-1 .3-.1.1-.1.2-.2.4.7 0 1.2 0 1.8-.2.1-.1.1-.2.1-.2zm.1-18.1c.1.1.2.1.2.2.7-.7 1.6-1.9 1.7-2.2-.7.7-1.3 1.3-1.9 2zm.6 7.3c.4-.3 1.4-1.9 1.4-2.2-.4.4-.8.7-1 1.2 0 .1-.1.2-.1.2-.2.2-.1.5-.4.7 0-.1.1 0 .1.1 0-.1 0-.1 0 0zm2.5-7.6h-.1c-.3.3-.5.6-.8.9-.3.5-.7.9-1.1 1.4-.1.1-.1.2-.2.3.3-.1.5-.3.7-.5.1-.1.2-.2.2-.4 0-.1.1-.2.1-.3.1-.2.3-.3.4-.5.4-.3.6-.6.8-.9zM8 42.2c.7-1 1.4-2 2-3-.8.9-1.4 2-2 3zm17.3-1.4c-.5.4-1.4 1.5-1.5 1.7l1.8-1.5c-.1-.1-.2-.2-.3-.2zM13.8 43s.1 0 0 0l.9-.6c.2-.2.6-.4.7-.8-.2 0-.4 0-.5.1-.4.4-.7.9-1.1 1.3zm0-4.2c-.3.2-2 2.5-2 2.8.3-.4.6-.7.8-1.1.1-.1.1-.2.2-.3.5-.4.7-.9 1-1.4zm7.7 2.5c.3-.4.6-.7.8-1.1-.6 0-.8.4-1.1.7.1.1.2.2.3.4zm-14.3 16c.5-.6 1-1.1 1.3-1.8-.5.5-1 1-1.5 1.6v.1c.1 0 .1 0 .2.1zM24 36.9c1.1-.5 1.4-.8 1.3-1.2-.5.3-.8.8-1.3 1.2zm-4.9 6s-.1 0 0 0l-1.5 1.5c.1.1.1.2.2.3.4-.6.9-1.2 1.3-1.8zm-8.5-5.1c-.5 0-.9 0-1 .5.1.1.2.2.3.4.3-.3.5-.6.7-.9zm5.6 6c.1-.1.2-.2.4-.3.4-.4.8-.8.9-1.4-.2.1-.9 1-1.3 1.7zM9.1 58.1c.2.4.5.3.8.3.1 0 .1-.1.2-.3-.3-.1-.6-.2-.6-.5-.2.2-.3.3-.4.5zm-3.6-7.9c.5-.4 1-.7 1.3-1.2-.2 0-.4 0-.5.2-.3.3-.5.7-.8 1zm12.2 17.6c-.4.1-.8.1-1 .4.3.1 1 0 1.3-.2-.1 0-.2-.1-.3-.2zm.1-16.9c-.4.2-.7.7-.8 1.2.2-.2.3-.4.5-.5.3-.2.3-.4.3-.7zm-1.8-.6c-.1.2-.3.4-.4.5-.2.2-.3.3-.4.6.1.1.2.1.2.2.3-.4.4-.9.6-1.3zm.5 16.5c-.3.1-.4.4-.6.5-.2.1-.4.2-.5.2v.1c0 .1.1.1.1.2.4-.2.8-.5 1-1zm-2.3-19l.2.2c.4-.5.8-.9 1.1-1.5-.4.5-.8.9-1.3 1.3zm-6.1-2.3c-.4.2-.4.2-.8 0-.1-.1-.2-.1-.3-.1-.1-.1-.2-.2-.1-.3V45h-.1c-.1.2-.1.3-.2.5.4.2.7.5 1 .7.1-.1.2-.3.3-.4.2-.2.2-.2.2-.3zM5.9 56.9c.2 0 .2 0 .6-.5.2-.2.3-.4.5-.6.2-.2.3-.4.4-.7-.5.5-1 1.1-1.5 1.8 0-.1.1 0 0 0zm12.6-9.7c-.2-.1-.3.1-.3.2-.2.3-.3.7-.5 1v.2c.4-.5.6-.9.8-1.4zM5.7 54.5c-.4.5-.8.9-1.1 1.5.4-.3.9-1 1.1-1.5zm6.7-.2s0-.1 0 0c-.3.3-.5.6-.8.9-.2.3-.6.5-.7 1 .6-.6 1.1-1.2 1.5-1.9zm20-18.5c.4.1.4.3.3.6.2.1.4.1.6 0l-.8-.8c.1.1 0 .1-.1.2zm-7.3 1.5s0-.1 0 0c-.5.3-.8.7-1.2 1h.3c.3-.3.6-.7.9-1zM5.6 60.6c.3.2.5.4.8.4v-.4c-.2-.1-.5-.1-.6-.5 0 .2-.1.3-.2.5zm7-22.3c.2-.1.3-.1.5-.2s.3-.1.3-.3c-.2 0-.4 0-.6-.1-.1.1-.1.3-.2.4-.1.1 0 .2 0 .2zm2.6 11c-.3.1-.7.8-.7 1.1.2-.1.6-.9.7-1.1zm-6.6 2.3s0 .1 0 0c.4-.3.7-.6 1.1-.9v-.1h-.3c-.3.3-.6.7-.8 1zm11.6-6.2c.1 0 .1 0 0 0 .4-.3.6-.6.9-.9 0 0 0-.1-.1-.3-.2.5-.6.8-.8 1.2zm-.9 3.2c.2-.3.4-.5.6-.8-.1 0-.2-.1-.2-.1-.3.3-.3.6-.4.9zM7.7 61.7c.3 0 .5.1.8.1.2 0 .2-.1.2-.2-.3 0-.6.1-.7-.2-.1 0-.2.1-.3.3zM21.3 35c.3-.2.7-.8.8-1.1-.1.1-.3.1-.4.2.1.4-.4.6-.4.9zM3.8 55.9c.2-.2.4-.5.6-.7.1-.3.4-.5.4-.8-.3.5-.8.9-1 1.5zm17.8-19.8c.4-.2.9-.9.9-1.2-.4.3-.6.7-.9 1.2zM8.7 46.6c.4-.4.8-.8 1.1-1.2h-.1l-1.2 1.2c.1-.1.2-.1.2 0zm1.4 12.7c-.1 0-.1 0 0 0-.3.5-.7.9-.8 1.5.2-.2.3-.5.5-.7 0-.3.1-.5.3-.8zm-8-7.7c.3-.4.5-.8.8-1.1h-.1c-.3.3-.8.6-.7 1.1zm13.5-8c-.3.1-.4.3-.6.5-.1.1-.1.2.1.3.1-.2.3-.5.5-.8zm-1.9 11.5c.4-.6.4-.6.2-.8-.3.5-.3.6-.2.8zm-5.9 3.4c-.4.1-.6.5-.6 1 .2-.3.4-.6.6-1zm9.1-11.1c-.3-.1-.3-.1-.5.2.1.1.1.2.2.4l.3-.6zm-7.6-.3c.4-.3.6-.7.9-1-.4.2-.8.7-.9 1zm-.5 3c.4-.2.8-.7.9-.9-.4.2-.7.5-.9.9zm-2.4 9.2c.2-.3.4-.5.4-1-.2.3-.5.6-.4 1zM20.8 51c.3-.1.6-.1.9-.2 0-.1-.1-.1-.1-.2-.4.1-.7 0-.8.4zM3.1 52.8s.1 0 0 0c.2-.2.5-.5.3-.9l-.3.9zM8 55.3c.3-.2.5-.4.7-.7 0 0 0-.1-.1-.2-.2.4-.4.6-.6.9zm9 7.7s0-.1 0 0c-.1-.3-.2-.5-.4-.7 0 .1-.1.2-.1.3.2.1.3.2.5.4zm-6.2-14.6c0-.1 0-.1 0 0-.3.1-.5.3-.7.5.1 0 .3.1.3 0 .2-.2.3-.4.4-.5zm17.9-14.5c-.3-.1-.6-.1-.8-.2v.1c.2.1.4.2.7.3 0-.1 0-.1.1-.2zM13.4 65.4c-.1 0-.2-.1-.4-.1.1.2.1.4.2.6h.1c0-.2.1-.3.1-.5zm.7-11.3c.3-.2.5-.5.5-.8-.2.2-.3.5-.5.7v.1zm.7 12.6c-.2.1-.4.1-.6.2.4.3.5.2.6-.2zM19 40.3c-.1-.1-.2-.1-.2-.2-.1.2-.2.3-.3.5.1-.1.3-.2.5-.3zm-10.7 17c.2-.2.4-.4.6-.7v-.1h-.1c-.2.2-.4.4-.5.8zm7.4-18.9c.1.4.3.4.5.2-.1 0-.3-.1-.5-.2zM7.2 49.8c-.2.2-.4.4-.5.7.2-.3.3-.5.5-.7zM7 52.4c0 .1 0 .1 0 0 .3 0 .5-.2.6-.4l-.1-.1-.5.5zm15.5-15.6s0 .1 0 0c.3-.2.5-.3.6-.6l-.6.6zM7.4 50.5c.4-.3.5-.3.5-.6-.2.2-.3.4-.5.6zm9.3 15.8c0 .1 0 .1 0 0 .3-.1.5-.3.5-.5-.2.2-.3.4-.5.5zm-5.6-16.2c.2-.2.3-.4.4-.6-.4.3-.4.3-.4.6zm1-6l.1.1c.1-.2.3-.4.4-.6l-.1-.1c0 .2-.2.4-.4.6zm15-3c.4-.1.4-.1.5-.3-.2 0-.4.2-.5.3zM12.2 59.9c0-.1.1-.3.1-.4h-.4c.1.1.2.2.3.4zm-1-13.6c.1-.2.3-.3.4-.5l-.1-.1c-.1.2-.3.3-.3.6zm19.1-11.9c0 .2.1.3.1.4.1-.1.2-.1.4-.2-.2-.1-.3-.1-.5-.2zm-7 15.1c.2 0 .4 0 .3-.3-.2.1-.3.2-.3.3zm-8.6 18.3c.1 0 .2.1.4.1-.1-.3-.1-.3-.4-.1zm6.5-18.9c-.1.1-.2.2-.3.4.2-.1.4-.2.3-.4zM4.9 60.1c.1-.2.1-.2-.4-.3.1.1.2.2.4.3zm-1.5-1.3c.1.1.1.2.3.3v-.3h-.3zm20.1-10.7c0-.1.1-.2.1-.4-.1.2-.3.2-.1.4zM6.8 53.9c.2-.1.3-.2.4-.3 0 0-.1 0-.1-.1-.1.1-.2.3-.3.4zm7.5-3.1c-.2 0-.3.1-.2.3 0-.1.1-.2.2-.3zm1.6-8.2c.2-.2.2-.2.3-.4-.2.1-.3.2-.3.4zM1.1 52.1c-.2 0-.1.2-.1.3 0-.1.1-.2.1-.3zm12.5 12.1c.2-.1.1-.2 0-.3h-.1c.1.1.1.2.1.3zm0-13.4c0-.1 0-.1 0 0-.1.1-.3.2-.2.4.1-.2.2-.3.2-.4zm-7.4 4.7c-.1 0-.1-.1 0 0-.2.1-.2.2-.3.3l.3-.3zm19.4-21s.1 0 0 0c.2 0 .2-.1.3-.2h-.1l-.2.2zm3.2 2s-.1 0 0 0c-.1 0-.2.1-.3.2.1 0 .2-.1.3-.2zM18.2 66.7c.2-.1.2-.1.2-.3-.1.1-.2.2-.2.3zm.4 1c.3-.1.3-.1.3-.2-.1 0-.2.1-.3.2zm-4.5-21.5c.1 0 .1 0 0 0 .2 0 .2-.1.3-.2h-.1l-.2.2zm9 .6c.1.1.1.1 0 0 .2 0 .3-.1.4-.2l-.1-.1c-.1.2-.2.2-.3.3zm3.6-7.3c0-.1-.1-.1 0 0-.1 0-.2.1-.3.2.1-.1.2-.2.3-.2zm-13.3 1.2s-.1 0 0 0c-.2 0-.2.1-.3.2h.1l.2-.2zm-7.9 7.1c.1-.1.1-.2.3-.3-.2.1-.4 0-.3.3zm9.8 16.6c-.1 0-.2.1-.2.2h.1s.1-.1.1-.2zM17.9 50c0 .1 0 .1 0 0 .1 0 .2-.1.2-.1-.1 0-.2.1-.2.1zM5.4 56.3s.1 0 0 0c.1 0 .2-.1.2-.2h-.1s0 .1-.1.2zm12.3 8.5c.1-.1.2-.1.3-.2-.2-.1-.2 0-.3.2zM14.2 66c.1 0 .2 0 .2-.1-.1 0-.1 0-.2.1zm13.1-27.1c-.1 0-.1-.1 0 0-.1 0-.1.1-.2.1.1 0 .1-.1.2-.1zm-7.9 2.2c-.1-.1-.1-.1 0 0-.1-.1-.1-.1 0 0-.1 0-.2 0-.2.1v.1c0-.1.1-.2.2-.2zm3.5-2.6s0-.1 0 0c-.1 0-.1 0-.2.1.1 0 .2-.1.2-.1zm-8.5 6.8c.1 0 .2-.1.2-.1-.1 0-.2 0-.2.1zm-9.6 6.5c-.1 0-.1.1-.2.1.1 0 .1 0 .2-.1z"/><g><path class="st1" d="M99.6 38c.1-.2.3-.4.3-.7.3-1.1 0-1.4-1.1-1.2-.9.1-1.6.6-2.4 1-.8.4-1.5 1-2.1 1.6-1.1 1-2.2 1.7-3.5 2.4-.4.2-.9.3-1.4.5-.5.2-1 .5-1.6.5-.1 0-.2.1-.3.1-.3.2-.7.3-1.1.5-.4.2-.9.3-1.4.6-.6.4-1.2.8-1.9.9l-.9.3c-.9.3-1.9.7-2.9.9-.8.1-1.7.2-2.5.3-.7.1-1.4.2-2.1.2-.4 0-.9 0-1.2.2-.4.2-.8.2-1.1.1-.6-.1-1.2 0-1.8.1-.3 0-.7 0-1 .1-.3.1-.5.2-.8.1-.5 0-1-.1-1.4-.1-.5 0-.9 0-1.4-.1-.9-.2-1.8-.3-2.7-.4-.4-.1-.9-.1-1.3-.1s-.5.2-.5.6c.1.4.2.7.3 1 .2.5.5.8 1.1.9.4.1.9.2 1.3.3.3.1.6.2.9.2.5.1 1 0 1.5.1 1 .1 2 .2 3 .2.7 0 1.5-.2 2.2 0 .2 0 .4 0 .5-.1.4-.2.8-.2 1.2-.2.5-.1 1-.1 1.6-.2.4-.1.7-.2 1.2-.1.3.1.8.1 1-.2.2-.3.5-.4.7-.3.3 0 .5-.2.9 0 .2.1.7.1.8-.2.1-.3.2-.2.4-.3.2-.1.5 0 .7-.1.4-.2.9.1 1.3-.2.2-.1.4 0 .7 0 .3 0 .2-.4.5-.4.4 0 .7-.4 1.1-.2h.2c.2-.3.5-.4.9-.3.1 0 .2-.1.3-.2.1-.1.3-.2.4-.1h.3c.5-.3 1.2-.3 1.6-.8l.1-.1c.3.1.6-.2.8-.4.1 0 .1-.2.2-.1.5.1.8-.2 1.2-.4.7-.3 1.3-.8 2.1-1.1.5-.2.8-.6 1.2-.9.7-.5 1.3-.9 2-1.5 1.1-.9 2.1-1.7 3.3-2.5.1-.1.2-.2.4-.1-.1.3 0 .1.2-.1zM59.9 40.5c.4.4 1 .5 1.6.6.9.1 1.9.1 2.8.2.7.1 1.5.1 2.2.1h2.1c1 0 2-.1 2.9-.1.7 0 1.3-.2 2-.3.3 0 .5-.1.8-.2.2-.1.5-.2.7-.2.4.1.7-.1 1-.1 1.1-.3 2.3-.6 3.4-.9.8-.3 1.7-.5 2.5-.8 1.1-.4 2.1-.8 3.2-1.2 1.2-.5 2.5-.9 3.7-1.4.4-.1.7-.4 1.1-.4 1.4-.3 2.7-1 3.9-1.8.4-.2.7-.6.7-1-.1-.5-.1-1.1-.4-1.5-.2-.3-.6-.4-.9-.2-.2.1-.4.1-.5.2-.9.6-1.9 1-2.9 1.5-.5.2-.9.4-1.4.7-.1.1-.3.2-.4.3-1.1.4-2 1-3 1.5-.6.3-1.3.5-1.9.7l-2.4.6c-1 .3-2 .6-3.1.7-.8.1-1.6.1-2.3.3-1.9.4-3.8.8-5.7.9-.3 0-.6.1-1 .1-1.5.1-3 .1-4.4-.1-1.1-.2-2.1-.3-3.2-.4-.8 0-1.5.1-2.2.4-.4.2-.5.5-.3.8.2.3.4.5.8.6.2 0 .4 0 .5.2-.2.1-.1.2.1.2zM94.1 49.6c-.3-.2-.5-.6-.9-.5-.5.1-1 0-1.5.2-.8.2-1.6.5-2.3.9-.6.3-1.2.5-1.9.6-.3 0-.6.1-.9.2-.6.3-1.2.4-1.8.6-1.2.3-2.4.4-3.6.6-.7.1-1.5.2-2.2.4-.8.2-1.5.4-2.3.5-1.1.1-2.2.1-3.3-.2h-.3c-.9.1-1.8.1-2.7.2-.5 0-1 .1-1.5-.1-.7-.2-1.4-.3-2.1-.3-.2 0-.3 0-.4.1-.4.2-.6.8-.5 1.2.1.7.6 1 1 1.4.2.2.3 0 .5 0s.1.3.4.3h.2c.5-.2.8-.1 1.1 0 .4.2.7.4 1.1.1.2-.2.6-.2 1-.2.7.1 1.5.1 2.2.2.1 0 .2.1.3 0 .5-.2 1-.1 1.6-.2 1.1-.1 2.2-.1 3.3-.1.3 0 .5-.1.8-.1 1.1.1 2.1-.1 3.1-.3.6-.2 1.2-.3 1.9-.3.3 0 .5 0 .8-.1.4-.2.8-.3 1.2-.3.5 0 1-.1 1.4-.3.9-.3 1.9-.6 2.8-1 1.1-.4 2.2-.9 3.3-1.4.5-.2.8-.5.9-1 .1-.4.1-.6-.2-.8-.2-.1-.3-.2-.5-.3z"/><path class="st0" d="M99.6 38c-.1.2-.3.4-.5.2-.1-.1-.2 0-.4.1-1.1.8-2.2 1.6-3.3 2.5-.6.5-1.3 1-2 1.5-.4.3-.7.7-1.2.9-.7.3-1.4.8-2.1 1.1-.4.2-.7.5-1.2.4-.1 0-.1.1-.2.1-.2.2-.4.4-.8.4-.1 0-.1 0-.1.1-.5.4-1.1.5-1.6.8-.1 0-.2.1-.3 0-.2-.1-.3 0-.4.1-.1.1-.2.2-.3.2-.4 0-.7 0-.9.3 0 0-.1.1-.2 0-.4-.2-.7.1-1.1.2-.3 0-.2.4-.5.4-.2 0-.5-.1-.7 0-.4.3-.9.1-1.3.2-.2.1-.4 0-.7.1-.2.1-.3 0-.4.3-.1.2-.5.3-.8.2-.3-.2-.6.1-.9 0-.2 0-.5 0-.7.3-.2.3-.7.3-1 .2-.4-.1-.8 0-1.2.1-.5.1-1 .1-1.6.2-.4.1-.8 0-1.2.2-.1.1-.3.1-.5.1-.7-.2-1.5-.1-2.2 0-1 0-2 0-3-.2-.5-.1-1 0-1.5-.1-.3-.1-.6-.1-.9-.2-.4-.2-.9-.3-1.3-.3-.6-.1-.9-.4-1.1-.9-.2-.3-.2-.7-.3-1-.1-.4.1-.6.5-.6s.9 0 1.3.1c.9.1 1.8.2 2.7.4.4.1.9.1 1.4.1.5 0 .9.1 1.4.1.3 0 .6 0 .8-.1.3-.2.7-.1 1-.1.6-.1 1.2-.2 1.8-.1.3.1.7 0 1.1-.1.4-.2.8-.2 1.2-.2.7 0 1.4-.1 2.1-.2.8-.1 1.7-.2 2.5-.3 1-.1 1.9-.5 2.9-.9.3-.1.6-.3.9-.3.7-.2 1.3-.5 1.9-.9.4-.3.9-.4 1.4-.6.4-.2.7-.3 1.1-.5.1-.1.2-.1.3-.1.6 0 1-.3 1.6-.5.5-.2 1-.2 1.4-.5 1.3-.7 2.4-1.5 3.5-2.4.7-.6 1.3-1.2 2.1-1.6.8-.4 1.5-.9 2.4-1 1.1-.1 1.4.2 1.1 1.2.2.2.1.4 0 .6zM78 46.3h-.8c-.7.1-1.4 0-2 .2-.7.2-1.3.3-2 .3-.9 0-1.9.1-2.8.1-.1 0-.2 0-.2.2 1.8.2 3.6 0 5.4-.2.8-.1 1.6-.4 2.4-.4v-.2zm-9.4 2.2c.4 0 .8.1 1.1 0 .3-.1.6-.1.8 0 .8.1 1.6 0 2.4-.1-.3-.3-.3-.3-.8-.3-.6.1-1.2-.1-1.8 0-.1 0-.2 0-.3-.1-.6-.3-.9-.2-1.4.5zm12.7-1.9c.7-.2 1.5-.4 2.2-.6.1 0 .1-.1.1-.2v-.3c0-.3-.1-.4-.4-.3-.5.2-1 .3-1.4.5-.4.2-.6.4-.5.9zm7.5-3.8c-.1-.1-.2 0-.3 0-.7.2-1.3.5-2 .8-.3.2-.7.3-1 .5-.1.1-.2.2-.1.3.1.1 0 .3.3.2.4-.1.8-.2 1.1-.5.4-.3.9-.5 1.2-.9.1-.1.2-.1.3-.1.2-.1.4-.1.5-.3zm1.6-.1c.2 0 .3-.1.5-.2.9-.5 1.6-1.2 2.5-1.8.1-.1.1-.2 0-.4-.4.2-.7.5-1.1.7-.4.2-.8.5-1.2.7-.4.3-.7.5-.7 1zm5.7-4.1c.7-.1 2.6-1.2 3-1.8-.1-.1-.1 0-.2 0-.4.1-.8.3-1.2.6-.5.4-1.1.8-1.6 1.2zm-9.2 6.1c.4-.1.8-.3 1.2-.5.1-.1.1-.2.1-.3-.1-.2-.2-.1-.3 0-.3.3-.6.5-1 .7v.1zm-18.3 2.4c.3.2.4.3.6.3.2 0 .4-.1.6 0 .1 0 .2 0 .2-.1s-.1-.1-.2-.1c-.4-.1-.8 0-1.2-.1zm-5.9.5c0-.2-.1-.5 0-.7 0-.1-.1-.1-.1-.1-.1 0-.2.1-.2.2s0 .4.3.6zm11.7.4c.3.1.5.2.7 0v-.1c-.2-.1-.4-.1-.7.1zm20.5-8.1h-.2c-.1 0 0 .1 0 .1.1.1.1 0 .2 0s.1-.1 0-.1zM59.9 40.5c-.2-.1-.3-.2-.4-.4-.1-.1-.3-.1-.5-.1-.4-.1-.6-.3-.8-.6-.2-.4-.1-.7.3-.8.7-.3 1.4-.4 2.2-.4 1.1.1 2.1.2 3.2.4 1.5.3 3 .2 4.4.1.3 0 .6-.1 1-.1 1.9-.1 3.8-.5 5.7-.9.8-.2 1.5-.2 2.3-.3 1-.1 2.1-.4 3.1-.7l2.4-.6c.7-.2 1.3-.3 1.9-.7 1-.5 2-1.1 3-1.5.2-.1.3-.2.4-.3.4-.3.9-.5 1.4-.7 1-.4 2-.9 2.9-1.5.2-.1.3-.2.5-.2.4-.1.7 0 .9.2.4.4.4 1 .4 1.5.1.4-.3.8-.7 1-1.2.8-2.5 1.4-3.9 1.8-.4.1-.7.3-1.1.4-1.2.5-2.5.9-3.7 1.4-1.1.4-2.1.8-3.2 1.2-.8.3-1.6.6-2.5.8-1.1.3-2.3.6-3.4.9-.3.1-.6.2-1 .1-.2 0-.5.1-.7.2 0 .2-.3.3-.5.3-.7.1-1.4.3-2 .3-1 0-2 .1-2.9.1h-2.1c-.7 0-1.5 0-2.2-.1-.9-.1-1.9-.1-2.8-.2-.6 0-1.2-.1-1.6-.6zM87.7 35s0 .1.1.1c.8-.2 1.6-.4 2.3-.9.6-.5 1.3-.9 1.9-1.5-.1 0-.2 0-.2.1-.7.6-1.5.9-2.3 1.3-.7.2-1.2.6-1.8.9zm-17.8 4.1c.4.3.8.5 1.4.3.3-.1.6-.1.9-.2.1 0 .2 0 .2-.1-.8-.3-1.6.1-2.5 0zm23-5.6c-.8.4-1.6.7-2.3 1.3.9-.1 1.7-.6 2.3-1.3zm-31.8 5.3c.6.8 1.4.3 2.1.2-.7-.1-1.4 0-2.1-.2zm15.4-.4v-.1h-.1c-.6 0-1.1.4-1.7.1h-.1c-.1 0-.1.1-.1.2s.1.1.2.1c.5.1 1.1-.1 1.8-.3zm-15.7.4c-.6-.2-1 .2-1.5.3-.1 0-.2.1-.2.2 0 .2.2.2.3.2.2.1.3-.1.3-.2.1-.2.3-.2.5-.3.1 0 .3 0 .6-.2zm1.3 1.6c.2.1.5.1.7.2.1 0 .2 0 .2-.1s0-.1-.1-.1c-.3-.1-.5-.2-.8 0zm1.4 0c.3.4.7 0 1.1.1-.4-.3-.8-.2-1.1-.1zM77.4 39c.7 0 .7 0 .9-.3-.4-.1-.6.2-.9.3zm-10.9 1.5c-.3-.1-.5-.1-.8 0 .2.1.5.3.8 0zm26.2-8.2c.2-.1.5-.1.7-.4-.4.1-.6.1-.7.4zm-16.4 7c.2 0 .3 0 .4-.2-.2 0-.3.1-.4.2zm17.2-6.1c.1.1.1 0 .2 0 0-.1.1-.1 0-.2s-.1 0-.2 0c-.1.1-.1.2 0 .2zM94.1 49.6c.1.1.2.2.4.3.3.3.3.4.2.8-.2.5-.4.8-.9 1-1.1.5-2.2 1-3.3 1.4-.9.3-1.9.6-2.8 1-.4.2-.9.2-1.4.3-.4 0-.9.1-1.2.3-.2.1-.5.1-.8.1-.6 0-1.2.1-1.9.3-1 .3-2.1.5-3.1.3-.3 0-.5.1-.8.1-1.1 0-2.2 0-3.3.1-.5 0-1.1-.1-1.6.2h-.3c-.7-.1-1.5-.1-2.2-.2-.3-.1-.7 0-1 .2-.4.3-.8.1-1.1-.1-.4-.2-.7-.2-1.1 0h-.2c-.2.1-.2-.2-.4-.3-.2 0-.3.2-.5 0-.4-.4-.9-.7-1-1.4 0-.4.2-1 .5-1.2.1-.1.3-.1.4-.1.7 0 1.4.1 2.1.3.5.1 1 .1 1.5.1.9-.1 1.8-.1 2.7-.2h.3c1.1.3 2.2.2 3.3.2.8 0 1.5-.3 2.3-.5.7-.2 1.5-.3 2.2-.4l3.6-.6c.6-.1 1.2-.3 1.8-.6.3-.1.6-.2.9-.2.7-.1 1.3-.3 1.9-.6.7-.4 1.5-.6 2.3-.9.5-.1 1-.1 1.5-.2.5 0 .8.3 1 .5zm-2.3.9c-.2-.1-.4 0-.6.2.2.1.4-.2.6-.2.1-.2.4-.1.5-.3-.3 0-.4.2-.5.3zm-10.4 3.9c2-.4 3.8-.6 5.8-1.2-.5-.1-.9 0-1.3.1-1.3.4-2.5.6-3.8.6-.4-.1-.6 0-.7.5zm-9.5.1c0-.2-.2-.3-.1-.5v-.1c-.1-.1-.8-.3-.9-.2-.1.1-.3.1-.4.1-.3-.1-.5.1-.8-.1-.1 0-.2 0-.2.1s0 .1.1.1c.4 0 .7.1 1.1.1.3 0 .5 0 .7.3 0 .2.2.2.5.2zm3.5-.6c.5.2 1.1.2 1.6.2.1 0 .2 0 .2-.2 0-.1-.1-.2-.3-.2-.5.1-1 .1-1.5.2zm-6.8-.4c-.6-.1-1.2-.3-1.8 0 .6.3 1.2.1 1.8 0zm5.5.2c-.7-.3-1-.3-1.4.1.8.1.9.1 1.4-.1zm13.1-1.9c-.4.1-.7.2-1 .3.1.1.1.4.3.4.4 0 .6-.3.7-.7zm2.2-.6c.6-.1 1.1-.2 1.7-.7-.7.1-1.2.4-1.7.7zM81 53.1c.5.2.9.1 1.4-.3-.5 0-1 .1-1.4.3zM92.9 51c.4-.1.7-.2.9-.5 0-.1.1-.1 0-.2s-.2-.1-.2 0c-.1.3-.4.4-.7.7zM72 53.6h-.1v.1s.1.1.1 0c.1 0 .1-.1 0-.1z"/><path class="st2" d="M78 46.3v.2c-.8 0-1.6.3-2.4.4-1.8.1-3.6.4-5.4.2 0-.1.1-.1.2-.2.9-.1 1.9-.1 2.8-.1.7 0 1.3-.1 2-.3.7-.2 1.4-.2 2-.2h.8zM68.6 48.5c.5-.7.8-.8 1.4-.6.1 0 .2.1.3.1.6-.1 1.2.1 1.8 0 .5 0 .5 0 .8.3-.8.1-1.6.2-2.4.1-.3 0-.6-.1-.8 0-.3.2-.6.1-1.1.1zM81.3 46.6c-.1-.5.2-.7.6-.9.5-.2 1-.3 1.4-.5.3-.1.4 0 .4.3v.3c0 .1 0 .2-.1.2-.8.2-1.6.4-2.3.6zM88.8 42.8c-.1.2-.3.2-.5.3-.1 0-.3.1-.3.1-.3.4-.8.6-1.2.9-.3.3-.7.4-1.1.5-.2.1-.2-.1-.3-.2-.1-.1 0-.2.1-.3.3-.2.7-.4 1-.5.6-.3 1.3-.6 2-.8.1 0 .2-.1.3 0zM90.4 42.7c0-.5.3-.7.7-.9.4-.2.8-.4 1.2-.7.4-.2.7-.5 1.1-.7.1.2.1.3 0 .4-.9.5-1.6 1.3-2.5 1.8-.2 0-.3.1-.5.1zM96.1 38.6c.5-.4 1.1-.8 1.6-1.2.3-.3.7-.5 1.2-.6h.2c-.4.6-2.3 1.7-3 1.8zM86.9 44.7v-.2c.3-.2.7-.4 1-.7.1-.1.2-.1.3 0 .1.1.1.2-.1.3-.4.3-.8.4-1.2.6zM68.6 47.1c.4 0 .8-.1 1.3 0 .1 0 .2 0 .2.1s-.1.2-.2.1h-.6c-.4.1-.5.1-.7-.2zM62.7 47.6c-.2-.2-.3-.4-.3-.7 0-.1 0-.2.2-.2.1 0 .2 0 .1.1-.1.3-.1.5 0 .8zM74.4 48c.3-.2.5-.2.7-.1v.1c-.2.2-.4 0-.7 0zM94.9 39.9c.1 0 0 .1 0 .1-.1 0-.1.1-.2 0 0 0-.1-.1 0-.1h.2zM87.7 35c.6-.3 1.1-.7 1.7-.9.8-.4 1.6-.7 2.3-1.3.1 0 .1-.1.2-.1-.6.6-1.2 1-1.9 1.5s-1.5.6-2.3.9c.1 0 .1-.1 0-.1zM69.9 39.1c.9 0 1.7-.3 2.6 0 0 .1-.1.1-.2.1-.3.1-.7.1-.9.2-.7.3-1.1 0-1.5-.3zM92.9 33.5c-.6.7-1.4 1.2-2.3 1.3.7-.5 1.5-.9 2.3-1.3zM61.1 38.8c.7.1 1.4 0 2.1.2-.8.1-1.5.6-2.1-.2zM76.5 38.4c-.6.2-1.3.3-2 .3-.1 0-.2 0-.2-.1s0-.1.1-.2h.1c.6.2 1.2-.1 1.7-.1h.1c.2 0 .2.1.2.1zM60.8 38.8c-.2.2-.4.2-.6.2-.2 0-.4.1-.5.3-.1.1-.2.2-.3.2-.1 0-.3-.1-.3-.2s.1-.2.2-.2c.5 0 .9-.5 1.5-.3zM62.1 40.4c.3-.2.5 0 .8 0 .1 0 .1.1.1.1 0 .1-.1.1-.2.1-.2-.1-.4-.2-.7-.2zM63.5 40.4c.4 0 .7-.1 1.1.1-.4-.1-.8.2-1.1-.1zM77.4 39c.3-.1.6-.3.9-.3-.2.3-.2.3-.9.3zM66.5 40.5c-.3.3-.5.1-.8 0 .3-.1.5-.1.8 0zM92.7 32.3c.1-.3.3-.3.7-.4-.2.3-.5.3-.7.4zM76.3 39.3c.1-.2.2-.2.4-.2-.1.3-.2.3-.4.2zM93.5 33.2c-.1-.1-.1-.1 0-.2.1 0 .1-.1.2 0s0 .1 0 .2c-.1.1-.1.1-.2 0zM81.4 54.4c.1-.4.3-.6.6-.5 1.3 0 2.6-.2 3.8-.6.3-.1.8-.2 1.3-.1-1.9.6-3.7.8-5.7 1.2zM71.9 54.5c-.2.1-.4.1-.5-.1-.2-.4-.4-.4-.7-.4-.4 0-.8-.1-1.1-.1-.1 0-.2 0-.1-.1 0-.1.1-.1.2-.1.3.2.5 0 .8.1.1.1.3.1.4-.1.1-.1.8 0 .9.2v.1c-.1.1.1.3.1.5zM75.4 53.9c.5-.1 1-.1 1.6-.2.1 0 .2 0 .3.2 0 .2-.1.2-.2.2-.6 0-1.2 0-1.7-.2zM68.6 53.5c-.6 0-1.2.3-1.8 0 .6-.3 1.2-.1 1.8 0zM74.1 53.7c-.4.2-.6.2-1.4.1.4-.3.7-.3 1.4-.1zM87.2 51.8c-.1.4-.3.7-.6.7-.2 0-.2-.2-.3-.4.2-.1.5-.2.9-.3zM89.4 51.2c.5-.3 1-.6 1.7-.7-.6.5-1.1.6-1.7.7zM81 53.1c.4-.2.9-.3 1.4-.3-.5.4-.9.5-1.4.3zM92.9 51c.3-.3.6-.4.7-.7 0-.1.1-.1.2 0s0 .2 0 .2c-.2.3-.4.4-.9.5zM91.8 50.5c-.2-.1-.3.2-.6.2.2-.2.3-.3.6-.2zM91.8 50.5c.1-.2.2-.3.5-.3-.1.3-.4.2-.5.3zM72 53.6s.1.1 0 .1c0 .1-.1 0-.1 0v-.1c0-.1.1-.1.1 0z"/></g></svg>