<svg id="Layer_1" xmlns="http://www.w3.org/2000/svg" viewBox="0 0 100 100"><style>.st0{fill-rule:evenodd;clip-rule:evenodd}.st1,.st2{fill:none}.st2{fill-rule:evenodd;clip-rule:evenodd}</style><path class="st0" d="M90.1 90.9c-1.2-.1-2.4-.3-3.5-.4-1.5 0-3 0-4.5.1-2.1.1-4.3.2-6.4.3-2.8.2-5.7.5-8.5.5-5.3.2-10.5.2-15.8.3-2.3.1-4.5.3-6.8.3-2.5.1-4.9.1-7.4.2-3.3.2-6.5.4-9.8.6-3.3.2-6.7.5-10 .7-1.2.1-2.4-.1-3.5.2-1.8.4-3.5 0-5.2-.2-1.3-.2-2.4-1-3.1-2.1-.6-.9-1-2-1.5-3 0-.1-.1-.2-.2-.2-.8-.1-.7-.7-.7-1.2 0-.6-.2-1.2-.2-1.8 0-2.4.1-4.8-.1-7.2-.2-3.1-.5-6.2-.8-9.3-.1-1.1-.1-2.2-.2-3.2-.1-2-.3-4.1-.4-6.1 0-3.8-.4-7.4-.5-11.1-.1-3.5 0-7 0-10.6 0-2.3-.2-4.6-.4-6.9-.2-2.7-.3-5.4-.6-8.1-.2-1.7.2-3.3.7-4.8.7-2.2 2.2-3.8 4.3-4.8.9-.4 1.8-.9 2.6-1.4.8-.6 1.8-.5 2.7-.6 2.4-.2 4.9-.3 7.3-.5 3.4-.2 6.7-.3 10.1-.6 2.3-.2 4.7-.2 6.9-.8 3.1-.8 6.2-.8 9.3-1 1.4-.1 2.8-.3 4.2-.4 1.9.2 3.7.2 5.5.1 1.9-.1 3.7-.3 5.6-.4 2.8-.1 5.7-.2 8.5-.3 3.7-.1 7.3-.1 11-.2 1.8 0 3.5-.1 5.3-.2.4 0 .7-.3 1.1-.4.8-.1 1.7-.4 2.6-.4 1.9.1 3.8.6 5.2 2 1.1 1.2 2.3 2.3 2.9 3.9.4 1 .8 2 1.2 2.9.3.8.7 1.6 1.1 2.4.1.2.1.4.1.6-.4 3-.1 5.9.2 8.9.2 1.7.2 3.4.3 5.1.1 2.1.1 4.2.2 6.3.1 3.5.2 7 .4 10.6.1 2.5.4 5 .5 7.5.2 3.5.3 6.9.3 10.4 0 2.5-.1 5-.2 7.4 0 1.4-.1 2.8-.2 4.2 0 .6-.1 1.2-.1 1.9.1 2.3.2 4.6-.7 6.7-.7 1.8-1.7 3.3-3.9 3.6-1.6.1-3.3.3-4.9.5zM11.3 75.8c.1 2.2.4 4.4.5 6.5.1 1.5.4 2.7 1.9 3.3h.1c.9.5 1.8 1.2 3 1.1 1.5-.1 3-.2 4.5-.2 2.2-.1 4.4-.1 6.5-.2 2.1-.1 4.1-.2 6.2-.3 3.2-.1 6.4-.1 9.5-.3 2-.1 4.1-.3 6.1-.5l8.1-.6c3.1-.2 6.2-.6 9.3-.7 4-.2 8-.3 12-.5l9-.6c.6 0 1.2-.1 1.8-.2 2-.6 2.9-1.8 2.9-3.9 0-1.9 0-3.9.1-5.8 0-2.5.1-4.9.1-7.4 0-1.9-.2-3.7-.3-5.6-.2-4.5-.3-9.1-.6-13.6-.3-4.3-.8-8.6-1.2-13-.3-3.2-.4-6.3-.6-9.5-.1-1.8-.2-3.7-.3-5.5 0-.1 0-.2-.1-.3-.7-1.3-2.9-2.4-4.3-2-.3.1-.9 0-1.1-.2-.5-.4-.9-.4-1.4-.3-3.6.2-7.3.5-10.9.7-2.7.2-5.3.4-8 .6-1.9.2-3.8.4-5.7.5-1.8.1-3.6.1-5.3.3-2.4.2-4.8.5-7.2.7-3.7.3-7.5.5-11.2.8-2 .2-4 .5-6.1.6-4.8.1-9.4.7-14.2 1.3-1.1.1-2.3.6-3.4 1-.7.2-1.1.7-1.1 1.5s-.1 1.6-.2 2.4c-.1 3.1-.4 6.3-.2 9.4.1 2.4.3 4.8.4 7.1.1 3.5.3 7 .4 10.6.1 2.4-.1 4.8 0 7.2.1 2.6.3 5.3.4 7.9.4 2.6.5 5.1.6 7.7zm83.9-23h.2c0-.1.1-.1.1-.2v-6.7c0-.2-.3-.5-.4-.7-.1 0-.2.1-.3.1.1 2.5.3 5 .4 7.5zM4.7 30.6c-.5 1-.3 5.7.2 6.6.2-2.3.2-4.5-.2-6.6zm80.9-20.1c-.6-1.2-1.7-.6-2.6-.9.3 1.4.3 1.4 2.6.9zm8.1 23.6h.3c.3-.6.1-4.4-.3-5v5zm-5.3-20.9c.8.5 1.5.9 2.2 1.4.3-1.1-.3-1.6-2.2-1.4zM6.3 86.1c.1 0 .2 0 .3-.1-.2-.9-.3-1.8-.5-2.7h-.3c.1 1-.2 2 .5 2.8zm56.3 2.6v-.3c-1.4.1-2.8.2-4.3.3v.2c1.4-.1 2.9-.1 4.3-.2zm33-18h.3c-.1-.7-.1-1.5-.2-2.2h-.2c.1.8.1 1.5.1 2.2zM3.8 23.8H2.6c.1.4.3.7.4.9.3-.3.5-.5.8-.9zm87 63.6c.9.3 1.3.2 1.4-.5-.5.1-1 .3-1.4.5zM18.5 17.8v.3c.7-.1 1.4-.1 2.1-.2v-.2c-.7 0-1.4.1-2.1.1z"/><path class="st0" d="M55.9 49.9c-.3-1.9 1.3-3.8 2.7-4.3 1.4-.5 3.6.3 3.8 2.2.1 1 .4 2 .5 3 .1.8-.4 1.5-1.2 1.9-.2.1-.5.2-.7.4-1.6 1.1-3 .4-4-.9 0-.1 0-.2-.1-.2-1.1-.4-1.2-1.3-1-2.1zM49.9 35.8c-.2-1.7.7-2.9 2-3.8.6-.4 1.4-.3 2 .1.4.3.9.6 1.3.8.2.1.4.2.4.4.4 1.4 1.4 2.6 1.2 4.1-.1.4-.4.7-.7 1-.5.4-1.1.8-1.6 1.2-1.1.8-3.2 1.1-3.7-.8-.2-.6-.6-1.2-.8-1.8-.1-.4-.1-.8-.1-1.2zM70.8 28.3c.1-.4.1-.9.3-1.4.3-.9 1.1-1.3 2-1.6 1.1-.4 2.2-.5 3.1.6.7.9 1.2 1.7 1.3 2.9 0 1.6-.9 2.6-1.8 3.6-.8.8-2.7.6-3.4-.3-1.1-1.1-1.4-2.4-1.5-3.8zM41.2 27.3c.4 1.4-.8 2.1-1.5 2.9-1.4 1.6-3.3 1.1-4.1-.9-.3-.7-.4-1.4-.6-2.2 0-.1 0-.2-.1-.3-.5-.4-.4-.9-.2-1.4.3-.7.6-1.4 1.4-1.7.6-.2 1.2-.5 1.9-.6.9-.2 1.6.4 2.1 1 .7.9 1.3 2 1.1 3.2zm-3.3 1.4c.8-.2 1.3-.7 1.2-1.2-.4.3-.8.7-1.2 1.2zM81.4 75.8c0 .9-.5 1.2-1.1 1.6-.7.5-1.4 1-2.3 1-.7 0-1.2-.1-1.7-.6-.1-.1-.3-.2-.4-.3-1-.7-1.6-1.6-1.2-2.9.3-1.4.8-2.7 2.2-3.3.8-.4 1.6.1 2.3.2 1.3.3 1.4 1.4 1.7 2.4.3.7.4 1.3.5 1.9zm-3.7.1c0-.1.1-.1.1-.2-.2-.6-.5-1.2-.8-1.9-.2.4-.5.9-.3 1.1.2.4.6.7 1 1zM45.5 70.8c.1-.4.1-.9.3-1.4.1-.4.5-.8.8-1 .8-.4 1.6-.7 2.4-1 .6-.2 1 .1 1.3.6.4.9.8 1.7 1.2 2.6.3.7.3 1.3-.2 1.8-.7.7-1.5 1.3-2.4 1.9-.5.3-1.1.3-1.6-.2-.1-.1-.2-.2-.4-.3-1.3-.4-1.3-1.6-1.4-3zM69.7 62c0 1.2-.9 2.3-2 2.7-.4.1-.7.2-1.1.4-1.7.9-2.6-.3-3.1-1.6-.8-2 .3-3.1 2-3.8.8-.3 1.7-.4 2.6 0 1 .3 1.6 1.1 1.6 2.3zM16.9 36c.3-1 .5-2 .9-2.9.1-.3.6-.6 1-.7 1.3-.2 2.7.9 3.5 1.9.9 1.1.5 2.1 0 3.1-.2.4-.6.7-1 .8-.7.2-1.4.4-2.1.4-1.4 0-1.9-.6-2-2V36c-.1.1-.2 0-.3 0zM31.2 44.7c.3-.8.5-1.6.8-2.3.6-1.3 2.8-1.3 3.7-.9 1 .5 1.7 2.8 1.2 3.8-.1.2-.1.5-.2.7-.2.3-.4.7-.7.9-.6.3-1.2.4-1.8.5-1.4.4-3.1-.6-2.8-2.6-.1 0-.2-.1-.2-.1zm2.8-1.1c.2.4.3.5.5.7.1.1.2.3.4.4 0 0 .2-.1.2-.2 0-.2 0-.5-.2-.7-.2-.1-.5-.1-.9-.2zM44.8 57c-.1.4-.2 1.2-.5 1.8-.6 1.2-1.9 1.2-2.9 1.2-.8 0-1.7-.5-2.1-1.5-.6-1.5.6-4.1 2-4.5 1.9-.7 3.5.5 3.5 3zM22.7 66.6c-1 0-1.6-.5-1.9-1.4-.2-.6-.3-1.2-.4-1.9-.2-.9.1-1.8.9-2.3.8-.5 1.8-.6 2.6-.2.8.4 1.5.9 1.6 1.8v.1c.6 1.2.6 1.3-.3 2.4-.6.9-1.4 1.6-2.5 1.5zM75.5 48.5c0-1.4.9-2 1.8-2.5 1.2-.8 2.5-.7 3.3.2.3.3.6.9.6 1.4 0 1.5-.7 2.7-2 3.5-1.4.9-2.7.3-3.3-1.3-.3-.5-.3-1-.4-1.3zM22.9 76.3c1.4 0 2.6 1.4 2.5 2.8 0 1.4-.9 2.2-1.7 3.1-.4.4-1 .4-1.4.1-.7-.5-1.3-1.2-1.8-1.8-.7-.8-.6-1.4-.1-2.4.7-1.1 1.6-1.8 2.5-1.8z"/></svg>