<svg id="Layer_1" xmlns="http://www.w3.org/2000/svg" viewBox="0 0 100 100"><style>.st0{fill-rule:evenodd;clip-rule:evenodd}.st1,.st2{fill:none}.st2{fill-rule:evenodd;clip-rule:evenodd}</style><path class="st0" d="M91.6 93.1c-1.3-.5-2.4.1-3.5.3-.9.1-1.8.3-2.7.4-.9.1-1.9.2-2.8.2-1.2.1-2.5.1-3.7.1-1.6.1-3.2.2-4.8.2H62.2c-1.6 0-3.3.1-4.9.1H54c-.8 0-1.5 0-2.3.1-1.1 0-2.2.1-3.2.1s-2 .1-3 .1c-1.4 0-2.8.1-4.3.1-1.7 0-3.4.1-5.2.2-1.5 0-3-.1-4.6-.1-.8 0-1.5.1-2.3.1h-7.3c-.8 0-1.6 0-2.4.1-.9 0-1.8 0-2.7-.2-.5-.1-1.1-.1-1.6-.2-1.3-.2-2.5-.4-3.8-.8-1-.3-1.9-.7-2.9-1.1-.6-.4-1.4-.8-2.2-1.2-1.2-.7-1.9-1.8-2.3-3.1-.4-1.3-.9-2.5-1.2-3.8-.2-.7-.2-1.4-.3-2.1-.1-.5-.2-1-.3-1.4-.1-.9-.1-1.7-.1-2.6V77c0-.4-.2-.7-.3-1.1l-.3-1.5c-.1-.9-.1-1.8-.2-2.7-.1-3-.2-6-.4-9-.1-2-.2-3.9-.2-5.9 0-.7-.1-1.5-.1-2.2v-.1c-.4-.3-.1-.7-.2-1.1 0-.8-.1-1.6-.2-2.4 0-.3-.2-.6.2-.7 0 0 .1-.1.1-.2 0-.3-.1-.7-.1-1-.1-.8-.3-1.6-.3-2.3V40c0-1.6.1-3.1.2-4.7.1-2 .2-4.1.3-6.1 0-1.7 0-3.3-.1-5 0-1.6-.1-3.2-.1-4.8 0-.5.1-1 .2-1.4.1-.4.3-.7.7-.9.2-.2.3-.6.4-.9l.6-2.1c0-.1.1-.2.1-.3.5-.6.9-1.3 1.5-1.7.5-.4 1-.9 1.5-1.3.5-.3 1-.5 1.5-.8.6-.4 1.3-.5 2-.7.3-.1.7-.2 1-.3h.4c.5-.1 1.1-.2 1.6-.2 1.3-.1 2.6-.2 4-.2 1.5-.1 3-.1 4.5-.2 1.4 0 2.9 0 4.3-.1.9 0 1.8-.1 2.7-.2l5.1-.6c1.4-.2 2.7-.4 4.1-.6 1.9-.2 3.7-.4 5.6-.5 1.3-.1 2.6-.1 3.9-.2.7-.1 1.4-.2 2.1-.2 1.3-.1 2.5-.1 3.8-.2 1.2-.1 2.3-.2 3.5-.3 1.9-.1 3.9-.2 5.8-.3h3.4c1 0 2.1-.1 3.1-.1 2 0 4 0 6 .1 2.4.1 4.8.2 7.2.4 1.8.1 3.7.3 5.5.5 1.1.1 2.3.4 3.4.6.7.1 1.3.2 2 .3 1.5.3 2.9.7 3.9 1.9 1.1 1.6 2.2 3.1 2.7 5.1.2.9.6 1.8.8 2.7.4 1.6.7 3.3.7 4.9 0 .9.1 1.7 0 2.6 0 .5.1 1 .1 1.4 0 .9-.1 1.7-.1 2.6 0 .4-.1.8-.1 1.1 0 1.6-.1 3.2-.3 4.8-.2 1.1-.2 2.3-.2 3.5-.1 1.4-.1 2.7-.1 4.1v2.8c0 1.3.2 2.6.2 3.9v2.3c0 .8.1 1.6.1 2.4 0 .9-.1 1.8-.1 2.7v3.3c0 1.1 0 2.3-.1 3.4-.1 1.6-.2 3.1-.2 4.7 0 1.3 0 2.6-.1 3.9 0 1-.1 2-.2 3l-.3 5.4c0 1.4-.2 2.7-.4 4.1-.3 1.6-1 2.9-1.6 4.4l-.6 1.8c-.1.2-.1.4-.3.5-.7.6-1.4 1.3-2.1 1.9-.4.3-.8.6-1.3.9-.1-.1-.4-.1-.6 0zm-22.2-9.2h.4c-.1-.1-.2-.2-.3-.2-.2-.2-.5-.3-.6-.5-.7-.8-1.3-1.7-1.9-2.6-.2-.2-.5-.4-.7-.6l-.1.1c.6.9 1.1 1.8 1.7 2.7.3.6.9.8 1.5 1.1 0 .1-.1.1-.1.2.1.3.8.5 1.2.4-.4-.3-.8-.5-1.1-.6zM28.8 52.1h-.1c0 .4 0 .9.1 1.3.3 1.2.7 2.5 1.1 3.7.2.5.4 1.1.6 1.6.4.9.8 1.9 1.4 2.7.7 1 1.5 1.9 2.3 2.8.3.4.7.8 1.1 1.1.2.2.6.4.8.5.8.5 1.5 1.1 2.4 1.5.8.4 1.7.7 2.6 1 .7.2 1.4.2 2 .4.9.2 1.8.1 2.7.1.8 0 1.6-.4 2.4-.1h.1c.6 0 1.2-.2 1.8 0 .6-.1 1.3-.2 1.9-.4.8-.2 1.5-.5 2.3-.7.7-.1 1.4-.2 2-.7 1.1-.7 2.3-1.3 3.2-2.1.6-.5 1.2-1 1.7-1.6.6-.7 1.1-1.4 1.7-2.2.9-1.1 1.4-2.5 1.9-3.9.3-.9.5-1.8.8-2.7.4-1.3.6-2.6.7-4l.3-2.7c.1-.8.2-1.6.1-2.4-.1-1.1-.4-2.3-.6-3.4-.3-1.2-.8-2.4-1.6-3.3-1-1.1-2.1-2.3-3.1-3.4-.6-.7-1.4-1.3-2-2-.8-.9-1.9-1.4-3-1.8-.9-.3-1.9-.6-2.8-.8-.6-.2-1.3-.3-1.9-.3-.9-.1-1.7 0-2.6-.1-1.7-.2-3.4-.2-5 .3-.6.1-1.1.2-1.7.4-.9.2-1.9.4-2.8.7-1.8.7-3.4 1.7-4.9 2.9-.4.3-.7.7-1.3.7l-.1.1c-.4.6-.9 1.1-1.3 1.7-.5.7-.8 1.5-1.3 2.3-1 1.5-1.6 3.1-1.8 4.9-.1.7-.2 1.4-.2 2.1-.1.5-.1 1.1-.1 1.6 0 .6 0 1.1.1 1.7 0 .4 0 .8.1 1.2-.2.2-.1.8 0 1.3zm.2 17.6c-.2.1-.3.3-.5.4-.1.1-.2.3-.2.4-1 2-2.3 3.8-3.6 5.6-.9 1.2-1.8 2.4-2.6 3.6-.8 1.2-1.4 2.5-2.4 3.5-.1.1-.1.5 0 .6.2.3.6.6.9.9.3.2.6.3.9.5.5.3.9.3 1.2-.2.1-.1.2-.3.3-.3.6-.3.8-.9 1.2-1.4.8-1.4 1.6-2.9 2.4-4.4.7-1.2 1.5-2.4 2.1-3.7.7-1.3 1.3-2.6 2.1-3.8.3-.4.1-1.1-.3-1.3-.4-.2-.9-.3-1.5-.4zM9.5 62.4c.1.6.2 1.2.3 1.7 0 .2.2.5.5.4.4-.2.7-.1 1 0 .3.1.6.1.9 0 .3-.2.7-.3 1-.4.2-.1.4-.1.6-.1 1.4-.6 2.7-1.3 4.1-1.9 1.2-.6 2.5-1.1 3.7-1.6.4-.2.7-.4 1.1-.6.2-.1.4-.3.6-.4.5-.2.7-.7.5-1.2-.2-.6-.5-1.3-.8-1.9-.1-.2-.2-.2-.4-.1-.7.3-1.4.7-2.2 1-1.4.6-2.9 1.1-4.3 1.7-2 .9-4 1.8-6.1 2.7-.3 0-.5.3-.5.7zm32.6 12.5c-.1.5-.1.9-.2 1.4-.4 1.6-.8 3.3-1.3 4.9l-1.8 6.9c-.2.6-.1 1.1 0 1.6 0 .1.1.2.2.3.5.5 1.1.6 1.7.7.4.1.8.1 1-.3.2-.3.4-.7.5-1.1.4-1.8.8-3.7 1.1-5.6.4-1.9.8-3.9 1.2-5.8v-.4c-.3-.3-.2-.6-.1-.9.1-.4.2-.7.2-1.1 0-.2-.1-.4-.3-.5-.8 0-1.6 0-2.2-.1zM81.8 27c-.1-.3-.3-.8-.6-1.2-.3-.4-.6-.4-1.1-.1-.2.1-.5.1-.7.1-.1 0-.2 0-.3.1-.7.5-1.4 1.1-2.1 1.6-1.3 1-2.7 2-4 3l-2.4 1.8c-.7.5-1.5 1-2.2 1.5-.3.2-.4.5-.2.8.2.5.5.9.7 1.4.1.3.3.4.5.3.4-.1.8-.3 1.2-.5.6-.4 1.2-.8 1.9-1.2 1.9-1.2 3.7-2.3 5.4-3.7.9-.7 1.9-1.3 2.9-1.9.6-.6 1.1-1 1-2zm-46.2.2V27c-.1-1-.5-1.8-.9-2.7-.8-1.8-1.7-3.7-2.6-5.5-.3-.7-.8-1.3-1.2-2-.1-.2-.4-.3-.2-.7 0 0 0-.2-.1-.2-.4-.5-.8-.9-1.2-1.3-.4-.4-1-.5-1.5-.3-.6.3-1.1 1.2-.9 1.8.1.4.1.9.6 1.1.1 0 .1.2.1.3.1.2 0 .4.1.6 1.6 2.7 3.2 5.3 4.5 8.2.2.4.4.7.6 1 .3.4.6.7.9 1 .2.2.4.4.7.3.7-.2 1.1-.7 1.1-1.4zm28.3 42.7c-.4.6-.8 1.1-1.1 1.6-.1.1 0 .3.1.4l3 3c1.5 1.5 3 3 4.5 4.4 1.1 1.1 2.2 2.1 3.4 3.2.3-.2.8-.3 1.2-.6.4-.3 1.1-.6.9-1.4-.1-.2-.2-.5-.4-.6-1.3-1.2-2.7-2.5-4.1-3.7-1-.9-2-1.7-3.1-2.6-1.5-1.2-2.9-2.5-4.4-3.7zm20.9-3.7c.1 0 .1-.1 0 0 .3-.1.6-.1.9-.1h.1c.8-.1.8-.1.9-.9 0-.1.1-.2.1-.3 0-.2-.1-.5-.2-.6-.2-.2-.4-.3-.6-.5-.3-.2-.6-.3-.9-.4-.9-.4-1.7-.9-2.6-1.3-1.5-.7-3.1-1.5-4.6-2.1-1.1-.5-2.1-.9-3.2-1.3-.4-.2-.8-.1-1.1-.5-.3-.3-.6-.1-.7.3-.2.4-.3.8-.5 1.2-.1.2 0 .3.1.3.5.3 1 .5 1.5.8.8.4 1.6.9 2.4 1.3.9.5 1.9.8 2.7 1.4 1.5.9 3.1 1.8 4.7 2.5.4 0 .7.1 1 .2zM8.2 47.5c.7-.1 1.4-.2 2.1-.2h5.2c2.3 0 4.7.2 6.9-.6.4-.2.8-.6.7-1.1-.1-.3-.2-.7-.3-1 0-.1-.2-.2-.3-.2-.5 0-.9.1-1.4.1h-3.3c-1.1 0-2.2.1-3.3.1-1.7.1-3.4.2-5.2.4-.3 0-.7.1-1.3.2-.4.7-.1 1.5.2 2.3zm17-9.9c.2-.3.5-.6.7-.9.2-.3.1-.6-.2-.9-.1-.1-.3-.2-.4-.3-.1-.3-.3-.4-.5-.5-.2-.1-.4-.1-.6-.3-.7-.5-1.4-1-2.1-1.6-1.1-.9-2-1.9-3.1-2.8-1-.8-2.1-1.6-3.2-2.4-.3-.3-.7-.2-1 .1-.5.5-.7 1.9-.3 2.5.5.6.9 1.3 1.6 1.7.2.1.3.2.5.3l1.8 1.2c1.7 1 3.4 1.9 5 2.9.7.2 1.2.6 1.8 1zm62.5 7.3c-.1 0-.1-.1-.1-.1-.3 0-.7.2-1-.3H76.1c-1 0-2 .1-2.7 1.1-.1.1-.2.3-.2.4.1.3.2.6.3.8h5.2c1.4 0 2.8 0 4.2.2 1.6.1 3.1-.1 4.7-.2.3 0 .4-.1.3-.4 0-.4-.1-1-.2-1.5zM55.8 74.5c-.2 0-.4.1-.7.1-.5.1-.7.3-.6.8.1.5.2.9.3 1.3.2.9.5 1.9.6 2.8.3 1.7.4 3.5.9 5.2.2.7.3 1.4.5 2.1.1.5.2.6.7.5h.2c.5 0 .7.3.5.7-.1.1-.1.3-.2.5.3 0 .6-.1.8-.1.4.1.7-.2 1-.5.1-.2.2-.5.2-.8-.5-1.9-1-3.7-1.5-5.5-.3-1.2-.5-2.4-1-3.6-.4-1.1-1.1-2.3-1.7-3.5zM59 26c-.1.4.2.6.5.9.5.5 1 .5 1.3-.1.9-1.7 1.9-3.4 2.8-5.1.7-1.3 1.4-2.6 2.3-3.9.4-.6.7-1.2 1-1.8.2-.4.1-.8-.4-1l-.9-.3c-.2 0-.5 0-.6.3-.2.3-.4.5-.6.8-.5.8-1.1 1.5-1.6 2.3l-3.3 6c-.3.7-.4 1.3-.5 1.9zm-9.2-12.9c-.1-.2-.1-.5-.1-.7-.1-.3-.3-.6-.4-.9-.1-.3-.6-.8-.8-.7-.3.1-.5.3-.7.5-.6.5-.6 1.3-.5 1.9.1 1 0 1.9 0 2.9 0 .8-.2 1.7-.2 2.5v.5c0 .7-.1 1.4-.1 2.1 0 .5-.2.9-.1 1.3 0 .4.1.8.3 1.1.1.3.2.5.4.7.2.3.5.4.8.3.3-.1.6-.3.6-.8 0-.3.1-.7.1-1l.3-3c.1-.7.1-1.5.2-2.2-.1-1.5.1-3 .2-4.5zM6.3 89.7s0 .1 0 0c0 .2.1.3.1.3.6.7 1.5 1 2.3 1.3 1.4.6 2.9 1.1 4.3 1.6.4.1.9.2 1.3.3 0 0 0-.1.1-.1-.1-.1-.3-.2-.5-.3-1.1-.8-2.4-1-3.7-1.3-.5-.2-1.1-.2-1.2-.9h-.1c-.4.3-.5.3-.8-.2l-.2-.2c-.5-.3-1-.4-1.6-.5zm4.9.6v.1c.5.2.9.4 1.4.5 1.2.3 2.3.5 3.5.8.1 0 .2 0 .3-.1 0-.1-.1-.2-.1-.3-.3-.3-.8-.3-1.3-.4-.3 0-.6-.1-.8-.2-.6-.2-1.1-.8-1.9-.6h-.1c-.3.2-.6.2-1 .2zM9.6 60.1s0 .1.1.1c.6-.3 1.2-.6 1.9-.9.6-.3 1.3-.6 1.9-.8.6-.3 1.3-.5 1.9-.8.6-.3 1.3-.5 2-.8.6-.3 1.3-.5 1.9-.8.6-.3 1.2-.5 1.9-.8 0 0 0-.1-.1-.1s-.2.1-.3.1c-.6.3-1.2.5-1.8.8-1.4.6-2.9 1.2-4.3 1.8-1.3.5-2.7 1.1-4 1.6-.5.2-.8.3-1.1.6zm34.2 28.2c-.2.9-.5 1.9-.7 3 .2-.1.4-.2.5-.3.1-.1.2-.2.3-.4.1-.1.1-.2.1-.3.1-.7.3-1.4.9-1.9l.3-.3c-.2-.1-.3-.2-.5-.3-.2.6-.3.7-.9.5zm18.8-23.6c.4-.4 1.1-.8 1.6-1.5.8-1 1.5-2 2.2-3 0-.1 0-.2.1-.3h-.1c-1.3 1.6-2.6 3.3-3.8 4.8zM3.3 72.3h-.2c.1 2.5.3 5 .4 7.5h.1v-.2c0-1.7 0-3.4-.1-5.1 0-.1 0-.2-.1-.3-.1-.3-.2-.5-.2-.8.1-.4.1-.8.1-1.1zm89.3 18.8c.8-.3 2.2-1.8 2.2-2.3h-.7c-.5.8-1 1.6-1.5 2.3zM9.3 66.9c.3-.1.7-.2 1-.2.3 0 .4-.3.6-.4 0 0 0-.2-.1-.2 0-.1-.1-.1-.1-.1-.5-.1-.9-.2-1.4-.2v1.1zM88.2 28c-.5-.5-.9-.8-1.3-1.2.3.6 0 1-.2 1.5-.1.2-.1.4.1.6.4-.4.9-.6 1.4-.9zM25 84.5s.1 0 0 0c.5-.2.9-.4 1-1 .1-.4.3-.8.5-1.1.5-.9 1-1.7 1.6-2.6.1-.1.1-.2.1-.4 0 0-.1 0-.1-.1-1.1 1.8-2.1 3.5-3.1 5.2zm71-20.7h.2c.1-2.2.2-4.3.4-6.5h-.1c-.1 1.1-.3 2.2-.3 3.3-.1 1.1-.2 2.2-.2 3.2zm-14 23v.5c.1.2.2.4.3.4.5-.1 1-.2 1.6-.4-.5-.4-1.6-.7-1.9-.5zm3-78.1c.2.1.2.1.3.1.5.2 1.1.3 1.6.6.3.1.4-.1.6-.1 0-.1 0-.2-.1-.3 0-.1-.2-.1-.3-.1-.5-.2-1.2-.5-2.1-.2zM61.1 33l3.6 3.9c-.8-1.7-2.2-2.8-3.6-3.9zM19.8 93.8h2.1c.1 0 .1-.1.2-.1-.1-.1-.1-.2-.2-.2-.7-.1-1.4-.2-2.2-.3.1.2.1.4.1.6zm78.6-74.9c-.2-1.3-.5-2.5-.8-3.8-.1.2-.2.3-.2.3.3 1.1.5 2.1.8 3.2 0 .2.1.2.2.3zm-32 47c-.3.2-.5.4-.7.6v.2c.4.2.8.4 1.2.7l.1-.1c-.1-.3-.2-.5-.2-.8h.3c-.4-.2-.5-.4-.7-.6zm-17.8 18c.5-.9.4-1.8-.2-2.4-.2 1.2-.2 2 .2 2.4zM28.1 40.8c.5-1 1.1-1.9 1.6-2.9-.4.3-.6.8-1 1.1-.7.4-.5 1.1-.6 1.8zM50.8 83c0-.2-.1-.3-.1-.4-.1-.3-.1-.6-.1-.9-.1-.5-.1-1-.1-1.5 0-.2-.1-.4-.2-.6h-.1c0 .8.1 1.6.1 2.4 0 .4 0 .7.5 1zm44.9-37.7s.1 0 .1.1c.1-.1.2-.1.2-.2V43c-.3-.1-.4 0-.4.3.1.6.1 1.3.1 2zM8.5 73.4c-.1.3-.2.6.1.8.2.2.4.4.5.7 0 .1.1.1.2.2 0-.1.1-.2 0-.3-.2-.4-.3-.8-.1-1.3v-.3c-.2.3-.4.5-.7.2zm9.3 7.9h-.1c.1.4.3.9.4 1.3.3-.3.5-.6.7-.9.3-.3.3-.3-.1-.6-.4.5-.5.6-.9.2zm48.8-19l.1.1c.7-.2 1-.8 1.4-1.1-.2-.2-.3-.3-.5-.4-.2.2-.4.5-.5.7-.2.2-.4.4-.5.7zM80.5 93c.7 0 1.3-.1 1.9-.1.1 0 .2-.1.3-.1-.1-.1-.2-.2-.3-.2-.7-.2-1.2.1-1.8.4-.1-.2-.1-.1-.1 0zm9.7-10.2c-.2.3-.5.6-.7.8-.1.1-.1.2 0 .3.1.2.3.3.4.4 0 0 0-.1.1-.1-.2-.4-.1-.6.4-.8.3-.1.3-.4.3-.6-.1.1-.2.2-.2.3-.1-.1-.2-.1-.3-.3zM4.9 84.6c-.1.4.6 2.7 1 3.1v-.1c-.2-.7-.3-1.5-.5-2.2-.1-.3-.1-.7-.5-.8zm91.2-13.5h-.2c-.1 1.2-.7 2.3-.5 3.5h.1c.3-1.1.4-2.3.6-3.5zM70.2 93c.1-.1.2-.2.4-.3-.5-.1-.8-.1-1.2-.2-.1.2-.1.4-.2.7h1.2v-.1s-.1-.1-.2-.1zM44.7 25.9c-.1-.3-.2-.5-.3-.7-.1-.1 0-.3-.3-.3s-.4.2-.4.4 0 .5.1.5c.3.1.6.1.9.1zm-8 64.5c.3-.8.4-1.5.6-2.3 0-.1-.1-.3-.1-.4h-.1c0 .3-.1.6-.1.9 0 .2-.1.5-.2.6-.3.2-.3.5-.1.7v.5zM94.6 9.2l-1.5-.9s0 .1-.1.1c.4.4.8.8 1.2 1.3.2-.2.3-.3.4-.5zm-61.8 3.7c.1.5.3.9.4 1.3h.1c-.2-.7.4-.9.8-1.3h-1.3zm53.1 39.7v.1l1.2.3s.1 0 .1-.1c.1-.2.2-.4.4-.6-.6.1-1.2.2-1.7.3zM60.5 14.4c-.4-.2-.5-.1-.6.2-.1.4-.3.7-.4 1.1-.1.2-.2.4-.2.6h.1c.4-.5.7-1.2 1.1-1.9zM7.2 88.6c-.1-.2-.1-.4-.2-.6 0-.1-.2-.2-.3-.2-.1.1-.2.2-.2.3 0 .6.3.8 1.1.7l-.3-.6h-.1v.4zm56.9-55.2c.2.2.5.5.8.7.1-.4.1-.7.1-1-.7 0-.7 0-.9.3zm-38 60.3c-.8-.4-1.2-.5-2 .2.7-.1 1.3-.2 2-.2zM97 73.8c-.2.8-.4 1.5-.3 2.3.5-.8.3-1.6.3-2.3zm-36.6-5.1c-.9-.4-1.4 0-2 .5.7-.2 1.3-.4 2-.5zm-32.8-7.2c-.5.1-.9.2-1.3.3.1.2.1.3.2.4 1.1-.3 1-.2 1.1-.7zm7.8-38.7c.3 1 .8 1.9 1.2 2.8h.1c-.3-1-.7-1.9-1.3-2.8zM21.6 74.1c-.5.2-1.6 1.7-1.7 2.1.6-.7 1.2-1.4 1.7-2.1zM86 77.9c-.5-.3-.9-.5-1.4-.8 0 .6.8 1.1 1.4.8zM13.2 27.7c-.2 0-.4 0-.4.3 0 .2-.1.4-.2.6 0 .1-.1.2-.2.3.5 0 .6-.2.8-1.2zm24 51.5h-.1c-.2.8-.7 1.4-.8 2.2h.1c.4-.7.6-1.5.8-2.2zm29.3-22.9c-.2.7-.5 1.3-.7 2 .5-.5.6-1.2.7-2zm4.9 18.1c.6.5 1.2 1.1 1.9 1.6l.1-.1c-.6-.6-1.3-1.1-2-1.5zM52.7 93.3c-.6-.1-1.2-.5-1.8.1.6 0 1.2 0 1.8-.1zM54.4 17c-.2.5-.2 1 0 1.2.4-.7.4-.9 0-1.2zm13.4 33.3c-.1.6-.1 1.3-.2 1.9h.1c.4-.6.2-1.3.1-1.9zm-8.7-21s-.1 0 0 0c.3.3.6.5 1 .8l.3-.3c-.5-.2-.9-.4-1.3-.5zm3.4 53.4c.1.4 0 .8.3 1.1.3-.5.3-.7-.3-1.1zm26.3-13.5c.7.1 1.2-.3 1.1-.8-.3.2-.7.5-1.1.8zM24.1 17.7s-.1 0-.1.1c.1.6.5 1.1.8 1.7 0 0 .1 0 .1-.1-.3-.5-.6-1.1-.8-1.7zm18.3-8.2c.2-.1.5-.2.7-.2.1 0 .1-.1.1-.2S43.1 9 43 9h-.7c0 .2 0 .3.1.5zM19 68.7c.5.1 1.2-.3 1.3-.8-.3.2-.8.5-1.3.8zM80.2 6.6v-.1c-.6 0-1.3-.1-1.9-.1v.1c.7 0 1.3 0 1.9.1zM8.8 51.4c-.1-.4-.2-.4-.7-.4-.3 0-.3.2-.3.4h1zm23.4 29.7c-.4.6-.7 1.3-1.1 2 .1 0 .1 0 .2.1l.9-2.1zm55.5-32.7c-.4 0-.7.1-1.1.1.3.3.7.3 1.1-.1zM35.9 31.2c-.4 0-.7 0-.8.3v.3s.2.1.2 0l.6-.6zm-.8 60.1c-.3-.3-.5-.6-.8-1 .1.9.2 1 .8 1zm-21.7-26c-.3.1-.5.2-.7.3v.1c.2.1.4.2.7.3v-.7zm14.1 17.9c.1 0 .1 0 .2.1.3-.6.5-1.2.8-1.8h-.1c-.3.6-.6 1.2-.9 1.7zm-5.6-46.3c-.4-.2-.7-.4-1.1-.7.2.6.7.9 1.1.7zM71.5 7.7c.4 0 .7-.1 1.1-.1-.4-.3-1-.3-1.1.1zM17.8 24.6c-.2-.5-.7-.8-1.1-.6.4.2.7.4 1.1.6zm17.7 44c0-.2.1-.4 0-.4-.3-.2-.5-.4-.8-.6l-.1.1c.3.3.6.5.9.9zm-25.6-.8c-.7.1-.8.3-.5.7.2-.2.3-.5.5-.7zm4.2 17.3l.1-.1c-.3-.3-.7-.5-1-.8l-.1.1c.3.3.5.7 1 .8zm-8-33.5c-.1-.5-.1-1-.2-1.5-.1.4 0 1.4.2 1.5zm81 9.4c.1-.7 0-.8-.6-.9l.6.9zM33.2 82.4c-.1 0-.1 0 0 0-.3.5-.5 1.1-.7 1.6 0 0 .1 0 .1.1.2-.6.4-1.1.6-1.7zM13.8 18.1V18c-.4 0-.9 0-1.3-.1.4.4.9.1 1.3.2zm76.8 49.6c.5-.4.6-.7.4-1.2 0 .2-.1.4-.1.6-.1.1-.2.3-.3.6zM8.3 34.2s-.1 0-.1.1l.3.6c.1-.1.2-.1.2-.2 0-.3-.2-.4-.4-.5zm36-23.2c-.2 0-.4 0-.4.3s.2.3.4.3V11zm39.5 14.8c.2-.3-.1-.7-.6-.8.3.3.4.6.6.8zm8 9.3h.2c0-.4.1-.8.1-1.2h-.2c0 .4 0 .8-.1 1.2zM27.2 45.6c0-.5.1-1 .1-1.6-.2.5-.3 1-.1 1.6zM6.6 44.5c.2-.2.4-.3.6-.5-.3-.1-.4-.1-.6-.2v.7zm57-32.1c.2-.3.3-.5.5-.7v-.2h-.2c-.2.2-.4.5-.3.9zM9.5 34.8c-.2-.1-.5-.2-.7-.3-.1.4 0 .5.7.3zm75.2 23.1s.1 0 0 0c.2-.2.3-.4.4-.6-.2 0-.3-.1-.5-.1.1.2.1.4.1.7zm-65.5 22s.1 0 .1.1c.2-.4.5-.8.7-1.2 0 0-.1 0-.1-.1-.2.4-.5.8-.7 1.2zm69.9-37.1c-.1.1-.3.1-.5.2.3.2.5.3.7.4v-.1c-.1-.1-.1-.3-.2-.5zM22 9.6c-.6-.2-1.1-.2-1.1.1.4 0 .7 0 1.1-.1zm65.4 58.8c-.3.1-.5.2-.8.4.6.2.7.2.8-.4zm-.6-59.9v.1c.3.1.7.2 1 .3 0-.1 0-.1.1-.2-.4 0-.8-.1-1.1-.2zm-35.5 2.9h-.2c0 .4-.1.8-.1 1.2h.1c.1-.4.1-.8.2-1.2zm3.1 58v.1c.4-.1.7-.3 1.1-.4 0 0 0-.1-.1-.1-.3.1-.6.3-1 .4zm1.1-43.9c.1.2.2.4.3.5.1-.2.1-.3.1-.4v-.3c-.1.1-.2.2-.4.2zM91.4 7.8c0 .1-.1.1-.1.2.2.1.4.2.5.4 0-.1.1-.2.1-.2-.1-.2-.3-.3-.5-.4zm3.8 5s.1 0 .1-.1c-.2-.4-.4-.7-.6-1.1 0 0-.1 0-.1.1.2.4.4.7.6 1.1zm-1.9 36.4l.1-.1c-.1-.1-.2-.3-.3-.3-.1 0-.3.1-.4.2v.1c.2.1.4.1.6.1zM27.9 68.6h.7c-.4-.5-.5-.5-.7 0zm29.7 6.6c.2.3.3.6.4.9.1-.4-.1-.7-.4-.9zm2.9 9.6s.1 0 0 0c.1-.2.1-.4.1-.6 0-.1-.1-.1-.1-.2 0 .1-.1.2-.1.3 0 .2.1.3.1.5zm11.2-38.6c-.2 0-.4.1-.6.1.1.1.1.2.2.2s.3 0 .5-.1c-.1 0-.1-.1-.1-.2zM44.8 10.9c-.1 0-.2 0-.3.1v.9c.1-.4.2-.7.3-1zM24.1 47.4c.4-.1.5-.4.3-.7 0 .2-.1.4-.3.7zM83.4 57c-.2.1-.3.2-.5.3l.6.3c0-.2-.1-.4-.1-.6zM52.7 17.8s-.1 0 0 0c-.1.3-.1.6-.1 1h.1v-1zm29.1 39v.1c.2.1.3.2.5.3v-.3c-.2-.1-.4-.1-.5-.1zM9.7 80.6c-.2-.1-.3-.1-.4-.2 0 0-.1 0-.1.1.1.2.1.3.2.6.1-.2.2-.3.3-.5zm86.1-65.8h.1c-.1-.4-.3-.7-.4-1.1h-.1c.2.3.3.7.4 1.1zM20.9 69.1l.1.1c.2-.2.4-.3.6-.5l-.1-.1c-.3.2-.5.4-.6.5zM4.6 59c.3-.2.4-.4.2-.8-.1.3-.1.5-.2.8zm70.5-9.4v.2c.2 0 .5 0 .7.1v-.2c-.2-.1-.5-.1-.7-.1zm-67.9-.7c.3-.4.2-.6-.1-.7.1.2.1.4.1.7zm16.6-30.3s-.1 0-.1.1c.2.3.4.6.5 1h.1c-.1-.5-.3-.8-.5-1.1zm29-2.7c.1.2.2.3.3.6.1-.4 0-.6-.3-.6zM38.2 91.2c-.2-.4-.2-.4-.7-.1.2 0 .4 0 .7.1zM91 33.3v-.1c-.3 0-.6-.1-.9-.1v.1c.4.1.6.1.9.1zm-42.1 54h-.1c.1.2.1.4.2.7.1 0 .1 0 .2-.1-.2-.2-.2-.4-.3-.6z"/><path class="st0" d="M31.2 50.3c0-.7-.2-1.5-.1-2.2.1-1.4.2-2.8.9-4.1.4-.7.6-1.5.9-2.2.2-.4.4-.9.7-1.3.7-1.1 1.5-2.1 2.5-3 1.4-1.1 2.8-2.2 4.5-2.8.3-.1.5-.3.7-.4.5-.2 1.1-.5 1.7-.6 1.3-.2 2.6-.3 3.9-.3 1.5 0 3-.2 4.5.1.6.1 1.2.3 1.7.5 1.1.4 2.1.8 3.2 1.1.7.2 1.3.8 1.9 1.2 1.2.8 2 2 2.9 3.1.5.7.9 1.5 1.2 2.3.3.8.5 1.6.9 2.4.4.8.6 1.6.8 2.4.2.8.2 1.7.1 2.5-.1 1.7-.7 3.2-1.1 4.8-.3 1-.6 1.9-1 2.8-.5 1-1.1 2-2 2.7-.8.7-1.6 1.5-2.4 2.2-1.4 1.2-2.8 2.2-4.6 2.8-1 .3-2 .5-3 .5-.9 0-1.8 0-2.8.1-1.3.1-2.6.1-3.9-.2-.8-.2-1.5-.5-2.3-.9-.8-.4-1.5-.8-2.2-1.2-.3-.2-.7-.4-.9-.6-.8-.6-1.6-1.2-2.3-1.9-.7-.7-1.3-1.5-1.9-2.3-.5-.7-.9-1.5-1.3-2.4-.3-.7-.5-1.5-.7-2.3-.2-.7-.3-1.5-.5-2.2v-.6c-.1 0 0 0 0 0zm9.2-14.1c-1.5.3-5 3.4-5.4 4.6.3-.3.7-.6.9-.9.2-.3.4-.5.7-.6.3-.1.5-.2.8-.4.1 0 .2-.2.2-.2 0-.5.3-.6.6-.9.7-.6 1.5-1.1 2.2-1.6zm11.5 27.5c-.1-.2-.2-.4-.3-.5-.1-.2-.2-.2-.4 0-.4.4-.8.4-1.3.5h-.8s0 .1-.1.1c.1.1.2.2.3.2.6 0 1.3 0 1.9-.1.3 0 .5-.1.7-.2zm10.6-14.3c.2-1.2-.1-2.2-.6-3.3-.1.1-.1.3 0 .4.2.6.4 1.3.5 1.9h-.1c-.1-.3-.1-.5-.2-.8H62c.1.7.3 1.2.5 1.8zm-3.2 5.4c-1 .5-1.2 1.4-1.8 2 .6-.5 1.1-1 1.7-1.5.1-.1.1-.3.1-.5zm-25.8-10h-.1c-.1.4-.2.7-.3 1.1-.1.4-.1.8.4 1.1v-2.2zm4-1.6c-.6.1-.9 1.1-.4 1.8.1-.6.2-1.2.4-1.8zm23.8 11.2s-.1 0-.1-.1c-.4.9-.8 1.8-1.2 2.8 0 0 .1 0 .1.1.4-.9.8-1.8 1.2-2.8zm-4-4h-.2l-.3 1.5c0 .1.1.1.1.2h.1c.1-.6.2-1.2.3-1.7zm5.2-3h.1c-.1-.7-.3-1.3-.4-2h-.1c-.1.7.4 1.3.4 2zm-5.7 4.8c-.1 0-.1 0-.2-.1l-.3.9h.2c.1-.3.2-.5.3-.8zm-1-14c0 .1 0 .1-.1.2.3 0 .5.1.8.1v-.1c-.2 0-.5-.1-.7-.2zm1.4 12.1c0-.2.1-.4.1-.6-.2.1-.4.3-.1.6z"/></svg>