<svg id="Layer_1" xmlns="http://www.w3.org/2000/svg" viewBox="0 0 100 100"><style>.st0{fill-rule:evenodd;clip-rule:evenodd}.st1,.st2{fill:none}.st2{fill-rule:evenodd;clip-rule:evenodd}</style><path class="st1" d="M80.9 88.5c1.2.2 2-.2 2.8-.3 1.6-.1 3.2-.4 4.7-.9 1.8-.5 3.7-1 5.2-2.3.3-.2.5-.5.8-.7.8-.6 1.6-1.2 1.8-2.4.3-1.8 1.1-3.5 1.7-5.3.5-1.6 1-3.3.8-5 0-.1 0-.3.2-.4.6-.3.5-.8.5-1.4 0-.7-.4-1.5.1-2.3.1-.1.2-.6.1-1-.2-.7.1-1.3.2-2s.3-1.4.2-2.1c-.1-.5-.2-1.1-.2-1.6 0-.7.3-1.5.2-2.2 0-.2-.2-.5-.1-.6.2-.7.1-1.3-.1-2-.1-.5-.4-1.1-.3-1.6.2-1.3-.1-2.6-.1-3.9 0-.4-.1-1 0-1.2.2-.5.1-1 .1-1.4.1-1.9-.4-3.7-.3-5.5 0-.6-.4-1.2 0-1.8.1-.2.1-.8-.4-.9-.1 0-.3-.1-.1-.4.5-.8.4-1.3-.3-2-.1-.1 0-.1 0-.2.1-.9-.3-1.7-.2-2.5.1-.7-1-1.3-.1-2v-.1c-.5-.7-.4-1.4-.6-2.2-.2-1.1-.5-2.2-.3-3.3.1-.6.1-1.2-.1-1.7-.2-.7-.4-1.4-.5-2.1-.2-1-.3-2-.2-3.1.1-.6 0-1.2-.1-1.8-.2-1-.6-1.9-.7-2.9-.1-.3.5-.4.2-.6-.3-.2-.2-.4-.2-.7 0-1-.4-1.9-.9-2.7-.8-1.2-1.9-2.2-3-3.1-1.2-1-2.6-1.6-4-2-1.7-.5-3.4-.6-5.2-.7-3.3-.2-6.5-.2-9.8 0l-9.6.6c-2.4.1-4.8.2-7.2.2-1.5 0-3-.1-4.5-.1-2.5 0-5 .2-7.5.2-2.2 0-4.4.4-6.6.4-1.8 0-3.6.2-5.4.2-1.8 0-3.7-.1-5.5.1-2.3.2-4.7.1-7 .3-2.2.1-4.3.3-6.4.8-2.9.6-5.7 1.4-8.2 3-.9.6-2.1.8-3 1.5-.2.2-.4.3-.5.6-.1 1.2-.5 2.3-.9 3.5-.6 2.1-.2 4.2-.2 6.4.1 3.1.4 6.1.6 9.2.2 3.4.4 6.9.6 10.3.3 3.9.8 7.7 1.2 11.6.5 4.6.8 9.1 1.1 13.7.1 1.7.1 3.4-.2 5.1-.2.8-.2 1.7 0 2.5.4 1.6.7 3.2.9 4.8.3 2.4.6 4.8 1.3 7.2.7 2.4 2.1 4.2 4.5 5.2 1.5.6 3 .9 4.5 1.1 1.1.2 2.2.1 3.2.2 1.4.3 2.9.3 4.3.4 2.2.1 4.3.4 6.6.2 1.9-.2 3.9-.4 5.8-.5 1.5-.1 2.9-.6 4.3-.8l3.6-.6c3.2-.3 6.3-.9 9.5-1.1 1.9-.1 3.8-.2 5.7-.5 1.2-.2 2.4-.2 3.6-.4 1.2-.2 2.4-.4 3.5-.5 1.1-.1 2.2-.2 3.4-.1 1.8.1 3.6-.4 5.5-.5 1.8-.1 3.6-.3 5.5-.6.7-.2 1.3-.8 1.7-.7z"/><path class="st0" d="M80.9 88.5c-.4-.1-1 .4-1.7.5-1.8.3-3.6.5-5.5.6-1.8.1-3.6.6-5.5.5-1.1-.1-2.3 0-3.4.1-1.2.1-2.3.3-3.5.5-1.2.2-2.4.2-3.6.4-1.9.3-3.8.4-5.7.5-3.2.2-6.3.7-9.5 1.1-1.2.1-2.4.4-3.6.6-1.5.2-2.9.8-4.3.8-1.9.1-3.9.3-5.8.5-2.2.2-4.4-.1-6.6-.2-1.4-.1-2.9-.1-4.3-.4-1-.2-2.1-.1-3.2-.2-1.5-.2-3.1-.5-4.5-1.1-2.4-.9-3.8-2.7-4.5-5.2-.7-2.4-1-4.8-1.3-7.2-.2-1.6-.5-3.2-.9-4.8-.2-.8-.1-1.6 0-2.5.3-1.7.3-3.4.2-5.1-.2-4.6-.5-9.2-1.1-13.7-.4-3.8-1-7.7-1.2-11.6-.2-3.4-.4-6.9-.6-10.3-.2-3.1-.5-6.1-.6-9.2-.1-2.1-.4-4.2.2-6.4.3-1.2.8-2.3.9-3.5 0-.3.2-.5.5-.6.9-.7 2.1-.9 3-1.5 2.5-1.6 5.4-2.4 8.2-3 2.1-.5 4.2-.7 6.4-.8 2.3-.1 4.7-.1 7-.3 1.8-.1 3.7-.1 5.5-.1 1.8 0 3.6-.1 5.4-.2 2.2-.1 4.4-.4 6.6-.4 2.5 0 5-.2 7.5-.2 1.5 0 3 .1 4.5.1 2.4.1 4.8 0 7.2-.2l9.6-.6c3.3-.2 6.5-.2 9.8 0 1.7.1 3.5.3 5.2.7 1.4.4 2.8 1 4 2 1.1.9 2.2 1.9 3 3.1.5.8.9 1.7.9 2.7 0 .2-.1.5.2.7.3.2-.2.3-.2.6.2 1 .6 1.9.7 2.9.1.6.2 1.2.1 1.8-.2 1 0 2.1.2 3.1.2.7.3 1.4.5 2.1.2.5.2 1.2.1 1.7-.1 1.1.1 2.2.3 3.3.1.7.1 1.5.6 2.2v.1c-1 .7.2 1.3.1 2-.1.9.3 1.7.2 2.5 0 .1-.1.1 0 .2.7.7.8 1.2.3 2-.1.2 0 .3.1.4.5.2.5.7.4.9-.4.6 0 1.2 0 1.8-.1 1.8.4 3.7.3 5.5 0 .5.1.9-.1 1.4-.1.2.1.8 0 1.2 0 1.3.3 2.6.1 3.9-.1.5.1 1.1.3 1.6.2.7.2 1.3.1 2 0 .2.1.4.1.6.1.8-.2 1.5-.2 2.2 0 .5.1 1.1.2 1.6.1.7-.1 1.4-.2 2.1-.1.7-.4 1.3-.2 2 .1.4 0 .9-.1 1-.5.8-.1 1.5-.1 2.3 0 .5.1 1.1-.5 1.4-.2.1-.2.3-.2.4.2 1.8-.3 3.4-.8 5-.6 1.8-1.3 3.5-1.7 5.3-.2 1.1-1 1.7-1.8 2.4-.3.2-.5.5-.8.7-1.5 1.3-3.3 1.8-5.2 2.3-1.5.4-3.1.7-4.7.9-.8.3-1.6.7-2.8.5zM22.5 67.4c-1.1.1-2.4.1-3.5.7-1.2.6-2.5 1-3.8 1.4-2.1.6-4.1 1.4-5.2 3.4-.3.6-.7 1.1-1 1.7-.1.3-.5.6-.2.8.3.2.5-.2.7-.3 3-2.1 6.3-3.5 9.8-4.3 1.7-.4 3.4-.4 5 .4l4.8 2.4c1.7.8 3.5 1.6 5.3 2.5 1.1.6 2.4.9 3.5 1.5 1.2.7 2.5.9 3.9.9.5 0 .9-.1 1.4 0 .7.1 1.3-.4 2-.2.8.2 1.4 0 2.1-.3 1.3-.5 2.6-1.1 3.9-1.6.5-.2 1-.5 1.5-.8 1.5-1.1 3.1-2.2 5-2.7 1.1-.3 2.3-.6 3.3.1.8.6 1.7 1 2.5 1.6.9.7 1.8 1.2 2.9 1.5.8.2 1.6.5 2.1 1.2.6.9 1.5 1.1 2.4.9 1.7-.3 3.3-1.1 4.7-2.1.9-.7 1.7-1.4 2.6-2l4.8-3.3c1.3-.9 2.5-2.1 4-2.7 2.2-.8 3.7-2.6 5.6-3.7.1-.1.3-.3.3-.5 0 0-.1-.1-.2-.1-.2 0-.4.1-.5.3-.2.4-.5.5-.9.6-1.1.2-2.2 0-3.3.2-1.3.3-2.5 1-3.9 1.4-.8.2-1.6.5-2.3.9-1.2.6-2.4 1.1-3.5 2-.4.4-1 .6-1.5 1-.9.8-1.8 1.7-3 2.2-.7.3-1.3.5-2.1.4-1.7-.2-3.1-1.1-4.4-2.1-.9-.7-1.6-1.6-2.7-2.1-.8-.3-1.5-.6-1.8-1.5 0-.1-.3-.2-.4-.2-1.8-.5-3.6-.3-5.5 0-.3.1-.7.2-1 .4-2.7 1.5-5.2 3.3-7.5 5.5-.7.7-1.5 1.2-2.4 1.6-1.5.6-3 .4-4.4.1-2.1-.5-4.1-1.5-6.1-2.5-1.8-.9-3.4-2.1-5.1-3.1-1.3-.8-2.8-1-4.3-1.3-1.1-.6-2.3-.1-3.6-.2zm0-21.4c-1.1.1-2.4.1-3.5.7-1.2.6-2.5 1-3.8 1.4-2.1.6-4.1 1.4-5.2 3.4-.3.6-.7 1.2-1 1.8-.1.2-.5.5-.2.8.3.3.5-.2.7-.3 3-2.1 6.2-3.5 9.8-4.3 2-.5 3.9-.3 5.7.7.8.4 1.6 1 2.5 1.3 3 1.3 6 2.8 9 4.1 1.6.6 3 1.7 4.8 1.5.6-.1 1.2-.1 1.7 0 .7.1 1.4-.4 2.1-.2.8.2 1.5-.1 2.2-.3 2.9-1 5.5-2.6 8.1-4.2 1.2-.8 2.5-1.1 3.9-1.2.6 0 1.2 0 1.5.4.8.7 1.7 1.1 2.5 1.7.8.7 1.8 1.1 2.8 1.4.8.2 1.6.4 2.1 1.2.6.9 1.5 1.1 2.4.9 1.7-.3 3.3-1 4.7-2.1l2.7-2.1c1.6-1.1 3.2-2.2 4.8-3.2 1.4-1 2.6-2.2 4.2-2.8 2.1-.8 3.5-2.6 5.4-3.7.1-.1.3-.2.3-.4 0-.1-.1-.1-.2-.1-.2 0-.4 0-.5.3-.2.4-.5.6-1 .6-.2 0-.3.1-.5.1-2-.1-3.7.5-5.6 1.2-1.9.7-3.9 1.5-5.7 2.5-.5.3-.9.8-1.4 1-.5.2-.9.5-1.3.8-.9.8-1.8 1.7-3 2.2-.7.3-1.3.5-2.1.4-1.7-.2-3.1-1-4.4-2.1-.9-.8-1.8-1.7-2.9-2.1-.6-.2-1.2-.5-1.4-1-.2-.4-.5-.5-.9-.6-1.5-.4-3.1-.3-4.6-.1-.6.1-1.1.2-1.6.5-2.7 1.5-5.2 3.3-7.5 5.4-.7.7-1.5 1.2-2.4 1.6-1.5.6-3 .4-4.5 0-2.2-.5-4.1-1.5-6.1-2.6-1.8-.9-3.3-2.1-5-3.1-1.3-.7-2.8-1-4.3-1.3-.8-.4-2 0-3.3-.1zm-5.7-11.7h.3c1.8-.8 3.7-1.1 5.6-1.3 2-.2 3.8.7 5.4 1.6 2.2 1.3 4.2 2.9 6.5 4.1 2.6 1.4 5.2 1.7 8.1 1.1 2.3-.5 4.4-1.7 6.4-2.9 3.2-1.9 6.4-3.4 10.2-3.9 2.1-.3 4.1-.2 6 .8 1.8.9 3.4 2.1 5.2 3 1.3.7 2.6 1 4.1.5 1.8-.7 3.6-1.3 5.4-2 .7-.3 1.5-.6 2-1.3.4-.5.7-1.1 1.1-1.6 1.2-1.4 2.3-2.7 2.8-4.5 0-.2.2-.4 0-.5-.2-.1-.3.1-.4.2-.5.8-1.4 1.1-2.1 1.5-2.4 1.1-4.8 2-7.3 2.6-1.8.5-3.4.4-5.1-.3-1.3-.5-2.6-1.2-3.7-2.1-.9-.7-1.9-1.1-3-1.2-2.4-.2-4.7.5-7 1.2-1 .3-1.9.7-2.8 1-1.5.5-2.9 1.2-4.3 1.8-.7.3-1.3.9-2.1 1.1-.9.2-1.7.6-2.5 1.1-.9.6-1.9.9-3 1-2.1.2-4-.6-5.8-1.5-2.4-1.2-4.8-2.5-7.3-3.6-1.3-.5-2.6-.9-3.9-.4-.1 0-.3 0-.3.2.2 1.2-.7 1-1.4 1-1.5 0-3.1 0-4.4 1.1-1 .9-1.9 1.4-2.7 2.2zm69-16.8c-.1 0-.2-.1-.2-.1-1.7.8-3.6 1-5.4 1.3-2.1.3-3.9-.6-5.7-1.6-2.2-1.2-4.2-2.9-6.4-4.1-2.6-1.4-5.4-1.8-8.3-1.1-2.3.5-4.3 1.7-6.3 2.9-3.2 2-6.5 3.4-10.2 3.9-2.1.3-4 .1-5.9-.8-1.8-.9-3.4-2.1-5.2-3-1.3-.6-2.6-1-4.1-.4-1.8.7-3.6 1.3-5.4 2-.7.3-1.5.5-2 1.2-.8 1.3-1.8 2.3-2.7 3.5-.6.8-1.1 1.7-1.3 2.7 0 .1-.1.3.1.3.1 0 .2 0 .2-.1.7-1.1 1.9-1.4 3-2a31 31 0 0 1 5.8-2.1c1-.3 2-.6 3.1-.5 1.7.1 3.2.7 4.7 1.6 1 .6 1.9 1.4 2.9 1.9 1.5.7 3.2.6 4.8.3 1.2-.2 2.4-.2 3.4-1h.1c1-.2 2-.2 2.9-.9.2-.1.4-.2.6-.2.9-.2 1.7-.6 2.6-1 1.5-.6 2.8-1.5 4.4-2 .6-.2 1.3-.5 1.8-.9 1.6-1.1 3.4-1.4 5.2-1 2.5.5 4.7 1.8 6.9 2.9 1.6.8 3.2 1.7 5 2.3 1 .4 2.1.5 3.1.1.1 0 .3 0 .3-.2-.2-1.2.7-1.1 1.3-1 2.2.2 4.1-.6 5.8-2 .4-.2.7-.5 1.1-.9zm10.7 16.9h-.2c.1 1.6.3 3.2.4 4.8 0 .5.3.9.2 1.3-.2.8 0 1.4.1 2.2.1.8.4 1.6.3 2.5-.1 1.2 0 2.4.1 3.6 0 .2 0 .5.3.5s.2-.3.3-.5v-.3c-.2-3.3-.3-6.7-.8-10-.2-1.3-.4-2.7-.7-4.1zm-6.2 37.5c-.4.2-.5.2-.6.3-.5.2-1 .4-.8 1.2.1.4-.3.8-.6 1.2 0 .1-.3.4-.5.1-.1-.2-.2-.3-.4-.1-.1.1-.1.2-.1.3 0 .2.2.2.4.2.4.1.6.5.2.8-.4.3-.6.9-1 1.2-.1.1-.2.1-.1.2.4.3 0 .4-.2.4-.6.1-.8.5-1.1.9-.1.1-.2.3 0 .4.5.3 1.9-.2 2.1-.8.4-1 .8-1.9 1.3-2.8.4-1.2.8-2.3 1.4-3.5zM37.6 46.2c.7.6 1.5 1 2.4 1.2.9.2 1.9.1 2.6.5.8.4 1.2.2 1.8-.2.2-.1.3-.2.5-.3.2-.1.3-.1.3-.3 0-.2-.2-.1-.4-.2-1.7-.3-3.5-.3-5.2-.7-.6-.1-1.3-.2-2 0zM66.4 67c.4.3.7.6 1.3.6 1.7 0 3.4-.4 4.9-1.1.1-.1.3-.1.3-.3 0-.2-.1-.3-.3-.4-.2-.1-.5-.2-.7-.1-1.8.5-3.7.9-5.5 1.3zm23.8-56.5v-.3c-.2-1.1-1.2-1.6-1.9-2-1.5-.9-3.3-1.1-5.1-1.2-.3 0-.6 0-.9.1-.2.1-.3.1-.3.3 0 .2.2.2.4.2.7 0 1.4-.1 2 0 1 .1 2 .1 2.7.9.3.3.5.6.9.6.6 0 1 .2 1.4.6.2.4.5.6.8.8zM48.1 49c-.8.1-2.5 1.1-3 1.7-.3.3-.6.6-1 .6-2.2 0-4.3-.4-6.1-1.7-.5-.3-1-.4-1.5-.3 0 .1 0 .2.1.2 2 1 4 2 6.2 2.4.9.2 1.9 0 2.7-.6.9-.8 1.8-1.5 2.6-2.3zM18.6 8.8c1 .2 2 .2 3 .1 1.2-.1 2.5 0 3.7-.3.4-.1.7-.1 1 0 .7.4 1.4.2 2.1.1.4-.1 1-.3 1.3-.1.9.4 1.6-.4 2.4-.3-4.5-.1-9 .2-13.5.5zM28.9 61c1.7.8 6.3 1.1 7.7.5-2.4-.7-5-.6-7.7-.5zm24.3 1.3c-2.4-.2-4.9-.7-7.5.4 2.7.6 5.1-.3 7.5-.4zM29.2 45c.2-.3.5-.1.6-.3-2.1-.4-4.2-.5-6.3-.5-.3 0-.7-.2-.7.2 0 .3.4.2.7.1 2.7-.1 5.3.3 7.7 1.6.5.2.8.7 1.4.6-1.1-.7-1.9-1.9-3.4-1.7zm.5 21c-.1 0-.2-.1-.3-.1-2-.3-4-.4-6-.5-.2 0-.6-.1-.6.2 0 .3.4.1.6.2h.1c2.6-.1 5.2.3 7.6 1.5.5.2.9.7 1.5.7-1.1-.7-1.9-1.8-3.4-1.7.2-.2.4-.1.5-.3zm24.7 16.9c-.3-.2-.7-.2-.8-.4-.2-.5-.7-.4-1.1-.4-.2 0-.4.1-.6.1-.4 0-.9 0-.9.4-.1.4.3.8.2 1.3 0 .1.2 0 .4 0 .8-.4 1.7-.7 2.8-1zM78.9 7c-1.9-.2-3.8 0-5.7.5.4.6 3.3.7 4.2.3-.2-.2-.4 0-.7-.1.7-.4 1.4-.6 2.2-.7zM25.7 60c.6-.1 1.1-.1 1.7-.2 1.3 0 2.6 0 3.8-.1.1 0 .3.2.4 0 .1-.2-.2-.2-.3-.3-.8-.3-1.6-.5-2.5-.8-.2-.1-.5-.2-.7 0-.6.7-1.5 1-2.4 1.4zm26.5 7.8c-1.8.1-3.6-.3-5.5-.3-.2 0-.6 0-.3.3.2.3.1 1.1.7.9 1.3-.3 2.6-.5 3.9-.6.4-.1.8.1 1.2-.3zM18.3 57c-.4-.2-.7-.1-1 0-1.6.3-3.2.6-4.9.6-.2 0-.5-.1-.5.3 0 .3.3.4.5.4.9.3 1.6.3 2.5-.2 1.1-.6 2.2-.8 3.4-1.1zm27.2 15.4c-1.8.5-3.5.2-5.1-.4-1-.3-2.2-.6-3.1-1.3-.2-.1-.4-.2-.8 0 .7.3 1.3.6 1.9.9 1.4.6 2.7 1.2 4.2 1.5 1 .2 2 0 2.9-.7zM6.2 16.8c.3.1.3-.2.5-.1 1.5.2 2.3-.9 3.5-1.4.1-.1.3-.2.2-.4-.1-.2-.3-.1-.4-.1-1.2.3-2.3.8-3.4 1.3-.3.2-.4.4-.4.7zM93 38.9c0-.2 0-.4-.1-.5-.2-.3-.6-.6-.6-1.1 0-.2-.2-.2-.3.1-.3.8-.6 1.5-.9 2.3-.1.1-.1.3.1.3.3 0 .6.3.8 0 .3-.4 1.1-.3 1-1.1zm1.5-20c-.2.5-.3.8-.4 1.1-.5 1.1-.2 2.1.6 2.9.1.1.2.2.3.1.1-.1.1-.2.1-.3-.3-1.2-.3-2.4-.6-3.8zm1.7 14.6h.2c-.2-1.7-.4-3.4-.6-5h-.3c.1.7-.6 1.4-.1 2.1.1.3.2.5.3.8.3.7.3 1.4.5 2.1zM71.1 85.4c.4.1.8.1 1.2.1.4 0 .9-.1 1.1.4.3.7 1 .6 1.6.6.3 0 .4-.1.4-.4 0-.3-.1-.4-.4-.4-.6-.1-1.2-.1-1.6-.5-.1-.1-.3-.1-.4 0-.7-.1-1.3.1-1.9.2zM5.5 12.5c-.8.4-1.5.8-2.2 1.1-.3.1-.4.4-.2.6.2.3.4 0 .6-.1.2-.2.5-.3.4-.1 0 .3.1.5.3.5.3 0 .6-.2.7-.6.2-.4.2-.8.4-1.4zm79.6 28.1c1.2-.2 2.4-.4 3.5-.6.2 0 .3-.1.2-.3 0-.2-.2-.2-.3-.2-.4.3-.7 0-1-.2-.1-.1-.3-.2-.4-.1-.6.5-1.4.6-2 1.4zM36.4 65.4c-1.7-.2-3.2-.3-4.7.4 1.5.1 3 .5 4.7-.4zm1.7-39.7c2.2.3 4.4.5 6.6-.5-.1-.1-.1-.1-.2-.1-.9.1-1.8.1-2.6.6-.2.1-.3.1-.5 0-1.1-.4-2.2 0-3.3 0zm17.6-2.9c-.2 0-.4.1-.7.1-1 0-1.7.5-2.4 1.2-.1.1-.2.3-.1.4.1.2.3 0 .4 0 .3-.2.6-.3.9-.4.7-.5 1.5-.6 1.9-1.3zm-42-3.7c1.5-.1 3 .1 4.2-1.2-1.5.1-2.9.6-4.2 1.2zM40 12.3v-.2c-.1 0-.3-.1-.4-.1-.8 0-1.5-.1-2.3-.4-.7-.3-2.3-.1-2.8.2 1.9 0 3.6.7 5.5.5zm3.6 16.2c1 .3 4-.4 5.2-1.3-1.1 0-4.6 1-5.2 1.3zm18 15.1c-.1-.3-.3-.4-.4-.7-.1-.3.4-.3.4-.7-.9.6-1.9.6-2.8 1.4h2.8zm-57.7.7c-.1-.7-.3-1.6-.5-2.5 0-.1 0-.3-.2-.3-.1 0-.2.2-.2.3V44c0 .3.3.5.5.7.1.1.2.1.2.1.3-.2.2-.3.2-.5zm59.9 41.9c2.7 0 6.5-.8 7.2-1.4-2.4.5-4.8 1.2-7.2 1.4zm18.6-74.3c.4.2.8.1 1.1 0 .8-.3 1.6-.6 2.4-1 .2-.1.6-.1.5-.4-.1-.3-.5-.3-.8-.2-1 .6-2 1.1-3.2 1.6zm-63 28.3c1.3.3 4.1-.3 4.8-.9-1.7.3-3.2.4-4.8.9zm11.8-.7c-.8-1-1.3-1.1-1.9-.4-.1.1-.4.2-.3.5.1.2.4.3.7.2l1.5-.3zm48.7-24.4c1.5-.1 2.9-.6 4.2-.9-1.5-.2-2.9-.1-4.2.9zM48.6 42.7l-.1-.1c-.9 0-1.9.5-2.8-.1-.1-.1-.4.1-.5.3-.1.3.2.5.4.5 1 0 2.1.2 3-.6zM9.9 44.6c-.1-.7-.5-1.1-1-1.5-.3-.2-.7-.1-1 .1-.2.1-.2.2 0 .3.6.4 1.2.9 2 1.1zM8.2 22.1c.8-.2 1.7-.3 2.5-.6.1 0 .4 0 .4-.3 0-.2-.2-.2-.4-.2-1.1-.3-1.8.4-2.5 1.1zM2.7 36.6c.1 1.4.1 2.7.2 4.1 0 .1 0 .4.2.4s.2-.3.2-.4c-.1-1.4-.1-2.8-.6-4.1zm21.7 21.5c-1.8-.1-3.6.2-5.4.6 1.8 0 3.6-.2 5.4-.6zm64.4-32.7c-.2.3-.5.6-.6 1-.1.2-.1.3.1.5.4.2.8.1 1.2 0 .2 0 .2-.3.2-.5 0 0 0-.1-.1-.1-.4 0-.3-.7-.8-.9zM36.5 69.5c1.4 0 2.8-.4 4.2-.8-1.7-.7-2.8.6-4.2.8zm44 9.9c.8.1 1.5-.1 2.2-.2.3-.1.4-.4.4-.7 0-.2-.2-.3-.3-.2-.8.3-1.6.5-2.3 1.1zm-46.2 5.9c.1.2.3 0 .4.1.6.5 1.1 0 1.6-.1.1 0 .2-.2.2-.3 0-.1 0-.2-.2-.3-.4-.2-1.7.1-2 .6zm17.9-39.4c-.7-.4-1.2.1-1.8.2-.1 0-.4 0-.4.2s.1.4.3.6c.2.2.4.1.6 0 .3-.3.8-.6 1.3-1zM59.7 63c-1.5-.4-3-.7-4.6-.5 1.6.2 3.1.9 4.6.5zm29.2-37.9c.4-.6.4-1.3.5-2 0-.1.1-.3-.2-.4-.2 0-.3.1-.4.2-.3.4-.7.8-.2 1.3.3.2.4.5.3.9zM5.3 61.9c-.1-.6-.2-1.2-.3-1.7 0-.2.1-.5-.3-.5-.3.1-.1.3-.1.5 0 .7.6 1.3.1 2 0 .1 0 .2.1.2h.3c.2 0 .2-.3.2-.5zm20 31.1v.2c.9 0 1.8-.1 2.7-.1.1 0 .4.1.3-.2 0-.2-.2-.4-.4-.4-.8.1-1.7.3-2.6.5zm35.5-18.4c-.6-.6-1.1-.8-1.8-.7-.2 0-.4.1-.4.3 0 .2.2.3.3.3.6 0 1.2.3 1.9.1zm-2-9.6h2.8c-.9-.7-1.9-.7-2.8 0zm2-11.7c-.6-.5-1.1-.8-1.8-.7-.2 0-.4.1-.4.3-.1.3.2.3.3.3.6 0 1.2.2 1.9.1zM4.9 19.6c-.5.1-1.3 1.4-1.2 1.7 0 .1.1.2.2.1.3-.3.8-.4.8-.8s.1-.7.2-1zm56.9 36.1v-.1c-.6-.1-1.2-.2-1.8-.2h-1.1c-.1 0-.2.1-.2.2 0 .2.1.2.2.2.9-.1 1.9-.1 2.9-.1zM47.5 86.8c1.3 0 2.7-.2 4-.6-1.4-.2-2.7.2-4 .6zm36.8-63.5c-1.6.3-2 .4-2.1 1.3.8-.4 1.5-.6 2.1-1.3zM50.1 89.1c.3-.1.7-.1 1.1-.2.1 0 .2-.1.2-.3 0-.1-.2-.1-.3-.1-.4 0-.8 0-1.1.1-.2 0-.5-.1-.5.3.1.2.3.2.6.2zm-8.8-55.4c.9.2 1.7 0 2.5-.3.1 0 .2-.1.2-.2 0-.2-.2-.2-.3-.1-.5.2-1.1.2-1.7.3-.3-.1-.5 0-.7.3zm-20.8-9.6v.3c1.1.1 2.2-.3 3.2-.6-1 0-2.1.1-3.2.3zm-7 19.4l-1.8.3c-.2 0-.2.2-.2.4.1.2.2.3.4.2.5-.2 1.2-.4 1.6-.9zm35.4-28.3c-.8.1-1.6.3-2.4.6-.1 0-.2.1-.1.2 0 .1.2.2.3.2.7-.4 1.6-.4 2.2-1zm22.5 30.4h-1.7c-.1 0-.4-.1-.4.1s.2.3.3.3c.6.3 1.2-.1 1.8-.4zm-17.7-9.1c0 .1 0 .1.1.2.8-.2 1.6-.5 2.3-.8.1 0 .2-.1.1-.2 0-.1-.2-.2-.3-.1-.7.4-1.5.4-2.2.9zM41.8 12.4c.7.1 1.5.3 2.2.1-.7-.3-1.4-.6-2.2-.1zm29.5 58.7c.8.3 1.2-.2 1.7-.5.1-.1.2-.1.2-.2s-.2-.2-.3-.2c-.6.2-1.1.4-1.6.9zM73.2 49c-.5-.2-1.4.1-1.8.7.7.1 1 0 1.8-.7zM8.7 12.2H7.5c-.3 0-.4.3-.5.6 0 .2 0 .3.2.3.2.1.4-.1.5-.2.3-.2.7-.4 1-.7zM34.8 87l-.3-.6c-.1-.1-.3-.3-.4-.1-.2.3-.5.3-.8.5.4.3.9.3 1.5.2zM17.4 66.6c.9-.2 1.7-.7 2.4-1.2-.9.2-1.6.7-2.4 1.2zm0-21.4c.9-.2 1.7-.7 2.4-1.2-.9.2-1.6.8-2.4 1.2zM2.8 26.3c0-.1 0-.3-.1-.3h-.2c-.5.4-.2.9-.2 1.3 0 .1 0 .3.2.2.4-.1.2-.6.3-.8v-.4zM33 92.7c-1.2 0-2.4.2-3.6.3 1.2 0 2.4-.2 3.6-.3zm65.1-37.1c0-.8.2-1.6-.1-2.5-.3.9 0 1.7.1 2.5zM33.4 28.4c-.4-.7-.8-.9-1.4-.8-.1 0-.2 0-.3.1 0 .1.1.2.2.2.5.2 1 .3 1.5.5zM6.7 49.9c.2-.4 0-.8.2-1.2.1-.1 0-.3-.2-.3s-.5 0-.4.3c.1.4.1.8.4 1.2zm19.2-36.6c.3-.1.7-.2 1-.4.3-.2-.2-.7.3-.7-.8-.2-.8.7-1.3 1.1zM98 50.4v-.2c0-.2.2-.5-.1-.5-.3 0-.1.4-.2.6v.1c0 .1 0 .2-.1.3-.1.4.1.7.3.5.3-.2.1-.5.1-.8zM32.8 30c-.5-.5-1.7-1-2.1-.9.6.3 1.2.6 2.1.9zm61.4 27c-.1.2-.3.3-.4.5-.1.2-.3.3-.2.5 0 .1.2.1.3.1.2-.1.5-.2.4-.5 0-.2.1-.4-.1-.6zM24 13.3c.6 0 1.1-.1 1.7-.4-.7-.3-1.2 0-1.7.4zm10.6 76c-.4-.2-.9.1-1.3-.1-.1-.1-.4 0-.3.2 0 .2.2.4.4.3.3-.3.8-.2 1.2-.4zM5 26c.2-.1.5-.2.5-.6 0-.2-.2-.4-.4-.3-.4.1-.3.5-.4.8 0 0 .1.1.3.1zm3.6 62.7c-.2-.5-.2-1.1-.9-1.3.2.6.3 1.1.9 1.3zm56-69.5c0-.2-.2-.4-.3-.3-.3.1-.6.3-.7.6 0 .1.2.2.3.2.3-.1.6-.2.7-.5zm28.7 62.6c.4 0 .6-.1.7-.3.1-.2.5-.6.3-.7-.3-.2-.4.3-.6.5-.2.1-.3.3-.4.5zm-2.8-25.9c-.9.1-1.5.5-1.7.9.6-.4 1.2-.4 1.7-.9zm-15-16.7c.6.1.9-.2 1.2-.6-.4.1-.9-.1-1.2.6zm14-5.2c-.4.3-.5.7-.8 1.2.7-.3 1-.6.8-1.2zM16.2 9.1c.5 0 1.1.1 1.6-.3-.6 0-1.1-.1-1.6.3zM40 89c-.9 0-.9 0-1.3.2.5.2.5.2 1.3-.2zM57.6 8.9c-.6 0-1-.1-1.6 0 1.3.3 1.3.3 1.6 0zM19.4 60.5c.4.1.6.4.9.3.1-.1.2-.2 0-.3-.2-.3-.5-.3-.9 0zm-2.3-33.1c-.1-.3-.2-.4-.4-.3-.2.1-.5.1-.5.4 0 .2.2.2.3.1.2-.1.5 0 .6-.2zm43.1-9.2c0-.1 0-.1-.1-.2-.5.1-1 .2-1.4.7.6-.2 1.1-.3 1.5-.5zM8.8 29.4c.8 0 1.1-.1 1.4-.6-.5.1-.8.4-1.4.6zm53.3 49.7c-.3-.2-.6-.4-1-.2v.2c.3.2.6.1 1 0z"/><path class="st2" d="M22.5 67.4c1.3.1 2.5-.4 3.6-.1 1.4.4 2.9.6 4.3 1.3 1.7 1 3.3 2.2 5.1 3.1 2 1 3.9 2 6.1 2.5 1.4.3 3 .6 4.4-.1.9-.4 1.7-.9 2.4-1.6 2.3-2.1 4.8-4 7.5-5.5.3-.2.7-.3 1-.4 1.8-.3 3.6-.5 5.5 0 .1 0 .4.1.4.2.3.8 1.1 1.2 1.8 1.5 1.1.4 1.9 1.3 2.7 2.1 1.3 1.1 2.7 1.9 4.4 2.1.8.1 1.4-.1 2.1-.4 1.2-.5 2.1-1.4 3-2.2.5-.4 1.1-.6 1.5-1 1.1-.9 2.3-1.4 3.5-2 .7-.4 1.5-.7 2.3-.9 1.3-.4 2.5-1.1 3.9-1.4 1.1-.3 2.2 0 3.3-.2.4-.1.7-.2.9-.6.1-.2.2-.3.5-.3.1 0 .2.1.2.1 0 .2-.2.4-.3.5-1.9 1.1-3.4 2.9-5.6 3.7-1.5.6-2.7 1.8-4 2.7-1.6 1.1-3.2 2.1-4.8 3.3-.9.6-1.8 1.3-2.6 2-1.4 1.1-3 1.8-4.7 2.1-.9.2-1.8-.1-2.4-.9-.5-.8-1.3-1-2.1-1.2-1.1-.3-2-.8-2.9-1.5-.8-.6-1.6-1.1-2.5-1.6-1-.7-2.2-.4-3.3-.1-1.8.6-3.4 1.6-5 2.7-.5.3-.9.6-1.5.8-1.3.5-2.6 1.1-3.9 1.6-.7.3-1.3.5-2.1.3-.7-.2-1.3.3-2 .2h-1.4c-1.4.1-2.6-.2-3.9-.9-1.1-.6-2.4-1-3.5-1.5-1.7-.9-3.5-1.6-5.3-2.5l-4.8-2.4c-1.6-.7-3.3-.8-5-.4-3.6.8-6.8 2.2-9.8 4.3-.2.2-.5.6-.7.3-.3-.3.1-.6.2-.8.3-.6.6-1.1 1-1.7 1.2-2 3.1-2.8 5.2-3.4 1.3-.4 2.6-.8 3.8-1.4 1.2-.3 2.4-.3 3.5-.4zM22.5 46c1.3.1 2.4-.4 3.6-.1 1.4.3 2.9.6 4.3 1.3 1.7 1 3.3 2.2 5 3.1 2 1 4 2 6.1 2.6 1.5.4 3 .6 4.5 0 .9-.4 1.7-.9 2.4-1.6 2.3-2.1 4.8-4 7.5-5.4.5-.3 1-.4 1.6-.5 1.5-.2 3.1-.3 4.6.1.4.1.7.2.9.6.3.6.8.8 1.4 1 1.2.4 2 1.4 2.9 2.1 1.3 1.1 2.7 1.9 4.4 2.1.8.1 1.4-.1 2.1-.4 1.2-.5 2-1.4 3-2.2.4-.3.8-.6 1.3-.8.5-.2.9-.7 1.4-1 1.8-1 3.7-1.7 5.7-2.5 1.8-.7 3.6-1.3 5.6-1.2.2 0 .3-.1.5-.1.5 0 .8-.2 1-.6.1-.2.3-.3.5-.3.1 0 .2 0 .2.1 0 .2-.2.4-.3.4-1.9 1.1-3.3 2.9-5.4 3.7-1.6.6-2.8 1.8-4.2 2.8-1.6 1.1-3.2 2.1-4.8 3.2-.9.6-1.8 1.4-2.7 2.1-1.4 1.1-3 1.8-4.7 2.1-.9.1-1.8-.1-2.4-.9-.5-.8-1.3-1-2.1-1.2-1-.3-2-.7-2.8-1.4-.8-.6-1.7-1-2.5-1.7-.4-.3-1-.4-1.5-.4-1.4.1-2.7.5-3.9 1.2-2.6 1.6-5.2 3.2-8.1 4.2-.7.2-1.4.5-2.2.3-1-.1-1.7.3-2.4.3h-1.7c-1.8.2-3.2-.9-4.8-1.5-3-1.3-6-2.8-9-4.1-.9-.4-1.7-.9-2.5-1.3-1.8-1-3.7-1.1-5.7-.7-3.5.8-6.8 2.2-9.8 4.3-.2.1-.4.6-.7.3-.3-.2.1-.5.2-.8.3-.6.7-1.2 1-1.8 1.2-2 3.1-2.8 5.2-3.4 1.3-.4 2.6-.8 3.8-1.4 1.2-.5 2.5-.4 3.5-.6zM16.8 34.3c.8-.8 1.7-1.3 2.5-2 1.3-1 2.8-1 4.4-1.1.7 0 1.6.2 1.4-1 0-.2.2-.1.3-.2 1.4-.6 2.7-.2 3.9.4 2.5 1.1 4.9 2.4 7.3 3.6 1.8.9 3.7 1.7 5.8 1.5 1.1-.1 2.1-.5 3-1 .8-.5 1.6-.9 2.5-1.1.8-.2 1.4-.8 2.1-1.1 1.4-.6 2.8-1.3 4.3-1.8 1-.3 1.9-.7 2.8-1 2.3-.7 4.6-1.4 7-1.2 1.1.1 2.1.5 3 1.2 1.1.9 2.4 1.6 3.7 2.1 1.7.7 3.3.7 5.1.3 2.5-.6 4.9-1.6 7.3-2.6.8-.4 1.6-.7 2.1-1.5.1-.1.2-.3.4-.2.2.1 0 .3 0 .5-.5 1.8-1.6 3.2-2.8 4.5-.4.5-.7 1.1-1.1 1.6-.5.7-1.3 1-2 1.3-1.8.7-3.6 1.4-5.4 2-1.4.6-2.8.2-4.1-.5-1.8-.9-3.4-2.1-5.2-3-1.9-1-3.9-1.1-6-.8-3.7.5-7 2-10.2 3.9-2 1.2-4.1 2.4-6.4 2.9-2.8.6-5.5.3-8.1-1.1-2.3-1.2-4.2-2.9-6.5-4.1-1.7-.9-3.4-1.8-5.4-1.6-1.9.2-3.8.5-5.6 1.3.2-.1.1-.2-.1-.2zM85.8 17.5c-.4.3-.8.7-1.1 1-1.7 1.4-3.5 2.2-5.8 2-.7-.1-1.5-.2-1.3 1 0 .2-.2.1-.3.2-1 .4-2.1.3-3.1-.1-1.7-.6-3.3-1.5-5-2.3-2.2-1.1-4.4-2.4-6.9-2.9-1.8-.4-3.6-.1-5.2 1-.6.4-1.2.7-1.8.9-1.6.5-2.9 1.5-4.4 2-.9.3-1.7.8-2.6 1-.2 0-.5.1-.6.2-.9.6-1.9.6-2.9.9h-.1c-1 .7-2.3.8-3.4 1-1.6.3-3.3.4-4.8-.3-1-.5-1.9-1.3-2.9-1.9-1.4-.8-3-1.5-4.7-1.6-1.1-.1-2.1.3-3.1.5-2 .5-4 1.3-5.8 2.1-1.1.5-2.3.9-3 2 0 .1-.2.1-.2.1-.2-.1-.1-.2-.1-.3.2-1 .8-1.9 1.3-2.7.8-1.2 1.9-2.3 2.7-3.6.4-.7 1.3-.9 2-1.2 1.8-.7 3.6-1.4 5.4-2 1.4-.6 2.8-.2 4.1.4 1.8.9 3.4 2.1 5.2 3 1.9 1 3.9 1.1 5.9.8 3.7-.5 7.1-2 10.2-3.9 2-1.2 4-2.3 6.3-2.9 2.9-.7 5.6-.3 8.3 1.1 2.2 1.2 4.2 2.8 6.4 4.1 1.8 1 3.6 1.9 5.7 1.6 1.8-.2 3.7-.5 5.4-1.3 0 0 .1.1.2.1zM96.5 34.4c.2 1.4.5 2.7.7 4.1.5 3.3.6 6.7.8 10v.3c0 .2 0 .5-.3.5s-.3-.3-.3-.5c-.2-1.2-.2-2.4-.1-3.6.1-.8-.2-1.6-.3-2.5-.1-.7-.3-1.4-.1-2.2.1-.4-.2-.9-.2-1.3-.1-1.6-.2-3.2-.4-4.8h.2zM90.3 71.9c-.5 1.2-.9 2.3-1.4 3.3-.5.9-.9 1.9-1.3 2.8-.2.5-1.5 1-2.1.8-.2-.1-.1-.3 0-.4.3-.3.5-.8 1.1-.9.2 0 .6-.1.2-.4-.1-.1 0-.2.1-.2.4-.3.5-.9 1-1.2.4-.3.2-.6-.2-.8-.1 0-.3 0-.4-.2 0-.1.1-.2.1-.3.2-.1.3 0 .4.1.2.3.4 0 .5-.1.2-.4.6-.8.6-1.2-.1-.8.4-.9.8-1.2.1.2.2.1.6-.1z"/><path class="st2" d="M37.6 46.2c.7-.2 1.4 0 2 .1 1.7.4 3.4.4 5.2.7.1 0 .3-.1.4.2 0 .2-.1.2-.3.3-.2.1-.3.2-.5.3-.6.3-1 .6-1.8.2-.7-.4-1.8-.3-2.6-.5-.9-.3-1.7-.8-2.4-1.3zM66.4 67c1.9-.4 3.7-.8 5.5-1.3.2-.1.5 0 .7.1.2.1.3.2.3.4s-.2.2-.3.3c-1.6.7-3.2 1-4.9 1.1-.6 0-.9-.3-1.3-.6zM90.2 10.5c-.3-.2-.6-.4-.8-.6-.4-.4-.8-.7-1.4-.6-.4 0-.7-.4-.9-.6-.8-.8-1.8-.8-2.7-.9-.7-.1-1.3 0-2 0-.2 0-.4 0-.4-.2s.2-.3.3-.3c.2-.3.6-.3.9-.3 1.8.1 3.6.3 5.1 1.2.7.4 1.7.9 1.9 1.9v.4zM48.1 49c-.8.8-1.7 1.5-2.6 2.2-.8.6-1.8.8-2.7.6-2.2-.4-4.2-1.4-6.2-2.4 0 0 0-.1-.1-.2.5 0 1 0 1.5.3 1.8 1.3 3.9 1.7 6.1 1.7.4 0 .7-.2 1-.6.6-.5 2.2-1.5 3-1.6zM18.6 8.8c4.5-.3 9-.6 13.6-.4-.8-.1-1.5.7-2.4.3-.4-.1-.9.1-1.3.1-.7.1-1.4.2-2.1-.1-.3-.2-.7-.1-1 0-1.2.3-2.5.1-3.7.3-1.1 0-2.1 0-3.1-.2zM28.9 61c2.6-.1 5.2-.2 7.7.5-1.3.6-5.9.3-7.7-.5zM53.2 62.3c-2.4.1-4.8 1-7.5.4 2.6-1.1 5.1-.6 7.5-.4zM29.2 45c1.5-.1 2.4 1 3.4 1.7-.6.1-1-.4-1.4-.6-2.4-1.3-5-1.7-7.7-1.6-.2 0-.7.1-.7-.1 0-.4.5-.2.7-.2 2.1 0 4.2.1 6.3.5-.1.2-.4 0-.6.3zM29.7 66c-.1.2-.4 0-.6.3 1.5-.1 2.4 1 3.4 1.7-.6 0-1-.4-1.5-.7-2.4-1.2-4.9-1.6-7.6-1.5h-.1c-.2 0-.6.1-.6-.2 0-.3.4-.2.6-.2 2 0 4 .1 6 .5.2.1.3.1.4.1zM54.4 82.9c-1.1.3-2 .6-2.9.9-.1 0-.4.1-.4 0 .1-.5-.2-.9-.2-1.3.1-.4.6-.4.9-.4.2 0 .4-.1.6-.1.4 0 .9-.1 1.1.4.2.3.5.3.9.5zM78.9 7c-.7.2-1.4.3-2.1.7.2.1.5-.1.7.1-.9.4-3.8.3-4.2-.3 1.8-.5 3.6-.7 5.6-.5zM25.7 60c.8-.4 1.8-.6 2.5-1.3.2-.2.4-.1.7 0 .8.3 1.6.5 2.5.8.1 0 .4.1.3.3-.1.2-.3 0-.4 0-1.3 0-2.6 0-3.8.1-.7-.1-1.2 0-1.8.1zM52.2 67.8c-.4.3-.8.2-1.2.2-1.3.1-2.6.3-3.9.6-.7.2-.5-.6-.7-.9-.2-.3.2-.3.3-.3 1.8.1 3.6.5 5.5.4zM18.3 57c-1.2.3-2.4.6-3.4 1.1-.8.4-1.6.4-2.5.2-.2-.1-.5-.1-.5-.4 0-.3.3-.2.5-.3 1.7-.1 3.3-.3 4.9-.6.4-.1.6-.2 1 0zM45.5 72.4c-.9.7-1.9.8-2.9.6-1.5-.3-2.8-.9-4.2-1.5-.6-.3-1.2-.6-1.9-.9.4-.2.6-.1.8 0 .9.7 2 1 3.1 1.3 1.6.7 3.3 1.1 5.1.5zM6.2 16.8c0-.3.1-.5.4-.7 1.1-.5 2.2-1 3.4-1.3.1 0 .3-.1.4.1.1.2-.1.3-.2.4-1.1.5-2 1.7-3.5 1.4-.2 0-.2.3-.5.1zM93 38.9c.1.7-.7.7-.9 1.1-.2.3-.5 0-.8 0-.2 0-.2-.2-.1-.3.3-.8.6-1.5.9-2.3.1-.2.3-.2.3-.1 0 .5.4.7.6 1.1v.5zM94.5 18.9c.4 1.3.3 2.6.5 3.9 0 .1.1.2-.1.3-.1 0-.2-.1-.3-.1-.8-.8-1.1-1.8-.6-2.9.2-.4.3-.7.5-1.2zM96.2 33.5c-.2-.7-.2-1.5-.5-2.1-.1-.3-.2-.5-.3-.8-.4-.7.2-1.4.1-2.1h.3c.2 1.7.4 3.3.6 5h-.2zM71.1 85.4c.6-.1 1.2-.2 1.8-.4.1 0 .3-.1.4 0 .5.4 1.1.5 1.6.5.3 0 .4.1.4.4 0 .3-.1.4-.4.4-.6 0-1.2.1-1.6-.6-.2-.4-.7-.4-1.1-.4-.3.2-.7.2-1.1.1zM5.5 12.5c-.1.6-.2 1-.3 1.4-.1.3-.4.6-.7.6-.2 0-.4-.1-.3-.5 0-.2-.3-.1-.4.1-.2.2-.4.4-.6.1-.2-.2 0-.5.2-.6.6-.4 1.2-.7 2.1-1.1zM85.1 40.6c.5-.7 1.4-.9 2-1.4.1-.1.3 0 .4.1.3.2.6.5 1 .2.1-.1.3 0 .3.2.1.2-.1.3-.2.3-1.1.2-2.2.4-3.5.6zM36.4 65.4c-1.6.9-3.2.5-4.7.4 1.5-.7 3-.6 4.7-.4zM38.1 25.7c1.1 0 2.2-.4 3.3 0 .2.1.4.1.5 0 .8-.5 1.8-.5 2.6-.6 0 0 .1.1.2.1-2.1.9-4.4.8-6.6.5zM55.7 22.8c-.4.8-1.2.8-1.8 1.2-.3.2-.6.3-.9.4-.1.1-.3.2-.4 0-.1-.2 0-.3.1-.4.7-.7 1.4-1.2 2.4-1.2.2.1.4 0 .6 0zM13.7 19.1c1.3-.6 2.7-1 4.2-1.2-1.2 1.2-2.8 1.1-4.2 1.2zM40 12.3c-1.8.2-3.6-.5-5.4-.4.5-.3 2.1-.5 2.8-.2.7.3 1.5.4 2.3.4.1 0 .3 0 .4.1-.1 0-.1.1-.1.1zM43.6 28.5c.6-.3 4-1.3 5.2-1.3-1.2.9-4.1 1.6-5.2 1.3zM61.6 43.6h-2.8c.9-.8 1.9-.8 2.8-1.4 0 .4-.5.4-.4.7.1.3.3.4.4.7zM3.9 44.3c0 .3.1.4-.1.4-.1 0-.2 0-.2-.1-.2-.2-.6-.3-.6-.6v-2.2c0-.1.1-.2.2-.3.2 0 .2.2.2.3.2.8.3 1.7.5 2.5zM63.8 86.2c2.4-.2 4.8-.9 7.2-1.4-.7.6-4.5 1.4-7.2 1.4zM82.4 11.9c1.2-.5 2.2-1 3.2-1.5.3-.2.6-.1.8.2.1.3-.3.3-.5.4-.8.3-1.6.7-2.4 1-.3 0-.7.1-1.1-.1zM19.4 40.2c1.5-.5 3.1-.6 4.8-.9-.6.6-3.5 1.2-4.8.9zM31.2 39.5l-1.5.3c-.3 0-.5 0-.7-.2-.2-.2.2-.3.3-.5.6-.7 1.1-.6 1.9.4zM79.9 15.1c1.3-1 2.8-1.2 4.2-.9-1.4.3-2.7.8-4.2.9zM48.6 42.7c-.9.8-2 .5-3 .5-.2 0-.5-.2-.4-.5 0-.2.4-.3.5-.3.9.6 1.9.1 2.8.1 0 .1 0 .2.1.2zM9.9 44.6c-.8-.2-1.4-.7-2-1.1-.2-.1-.2-.2 0-.3.3-.1.8-.3 1-.1.5.4.9.8 1 1.5zM8.2 22.1c.7-.6 1.4-1.3 2.5-1.1.1 0 .4 0 .4.2 0 .3-.2.2-.4.3-.8.3-1.7.4-2.5.6zM2.7 36.6c.5 1.3.5 2.7.6 4 0 .2.1.4-.2.4-.2 0-.2-.2-.2-.4-.1-1.2-.1-2.6-.2-4zM24.4 58.1c-1.8.4-3.6.6-5.4.6 1.7-.3 3.5-.7 5.4-.6zM88.8 25.4c.5.2.4.9.9.9l.1.1c0 .2-.1.4-.2.5-.4.1-.8.2-1.2 0-.2-.1-.2-.2-.1-.5s.3-.6.5-1zM36.5 69.5c1.4-.2 2.5-1.4 4.2-.8-1.4.4-2.8.7-4.2.8zM80.5 79.4c.7-.6 1.5-.7 2.3-1.1.1-.1.4 0 .3.2 0 .3-.1.7-.4.7-.7.1-1.4.3-2.2.2zM34.3 85.3c.3-.5 1.6-.9 2.1-.6.1.1.2.1.2.3 0 .1-.1.3-.2.3-.5.2-1 .6-1.6.1-.2-.1-.4.1-.5-.1zM52.2 45.9c-.5.4-.9.7-1.4 1-.2.1-.4.2-.6 0-.2-.2-.3-.4-.3-.6 0-.3.3-.2.4-.2.6-.1 1.1-.6 1.9-.2zM59.7 63c-1.6.3-3-.4-4.6-.5 1.6-.2 3.1.2 4.6.5zM88.9 25.1c.1-.4 0-.7-.2-.9-.5-.5-.1-.9.2-1.3.1-.1.2-.2.4-.2s.2.2.2.4c-.1.7-.2 1.3-.6 2zM5.3 61.9c-.1.2 0 .5-.3.6h-.3c-.1 0-.1-.2-.1-.2.5-.7-.1-1.4-.1-2 0-.2-.2-.5.1-.5.5-.2.4.1.4.3l.3 1.8zM25.3 93c.9-.2 1.8-.4 2.7-.5.2 0 .4.2.4.4 0 .3-.2.2-.3.2-.9 0-1.8.1-2.7.1-.1-.1-.1-.1-.1-.2zM60.8 74.6c-.7.1-1.3-.1-1.9-.2-.1 0-.3-.1-.3-.3 0-.2.2-.3.4-.3.7.1 1.3.3 1.8.8zM58.8 65c.9-.7 1.9-.6 2.8 0h-2.8zM60.8 53.3c-.7.2-1.3-.1-1.9-.1-.2 0-.4-.1-.3-.3 0-.2.2-.3.4-.3.7-.1 1.3.2 1.8.7zM4.9 19.6c-.1.4-.2.7-.1 1 0 .4-.5.6-.8.8-.1.1-.2 0-.2-.1-.2-.3.6-1.6 1.1-1.7zM61.8 55.7h-3c-.1 0-.2 0-.2-.2 0-.1.1-.2.2-.2h1.1c.6.1 1.2.1 1.8.2.1.1.1.2.1.2zM47.5 86.8c1.3-.3 2.6-.7 4-.6-1.3.4-2.7.5-4 .6zM84.3 23.3c-.6.7-1.4.9-2.1 1.3.1-.9.6-1.1 2.1-1.3zM50.1 89.1c-.3 0-.6 0-.6-.3 0-.4.3-.2.5-.3.4-.1.8-.1 1.1-.1.1 0 .2 0 .3.1 0 .2-.1.3-.2.3-.4.2-.8.2-1.1.3zM41.3 33.7c.2-.3.4-.4.7-.4.6 0 1.1-.1 1.7-.3.1 0 .3-.1.3.1 0 .1-.1.2-.2.2-.8.4-1.6.6-2.5.4zM20.5 24.1l3.3-.3c-1.1.3-2.1.7-3.2.6-.1-.2-.1-.3-.1-.3zM13.5 43.5c-.4.5-1 .7-1.6.9-.2.1-.3 0-.4-.2-.1-.2 0-.4.2-.4.6-.2 1.2-.2 1.8-.3zM48.9 15.2c-.6.6-1.5.6-2.2 1-.1 0-.2 0-.3-.2 0-.1.1-.2.1-.2.8-.3 1.6-.5 2.4-.6zM71.4 45.6c-.6.4-1.1.7-1.8.5-.2-.1-.4-.1-.3-.3 0-.2.3-.1.4-.1.5-.1 1.1-.1 1.7-.1zM53.7 36.5c.7-.5 1.5-.5 2.3-.9.1 0 .2 0 .3.1 0 .1-.1.2-.1.2-.8.3-1.6.5-2.3.8-.2 0-.2-.1-.2-.2zM41.8 12.4c.7-.5 1.5-.3 2.2.1-.7.2-1.4 0-2.2-.1zM71.3 71.1c.5-.5 1-.6 1.6-.8.1 0 .3 0 .3.2 0 .1-.1.2-.2.2-.5.2-1 .6-1.7.4zM73.2 49c-.8.7-1.1.8-1.8.7.4-.5 1.3-.9 1.8-.7zM8.7 12.2c-.3.2-.7.5-1.1.7-.2.1-.3.3-.5.2-.1 0-.1-.1 0-.2.1-.2.1-.6.5-.6s.8 0 1.1-.1zM34.8 87c-.6.1-1.1.1-1.5-.3.3-.2.7-.2.8-.5.1-.2.3 0 .4.1.1.3.2.5.3.7zM17.4 66.6c.8-.5 1.5-1 2.4-1.2-.7.5-1.5 1-2.4 1.2zM17.4 45.2c.8-.5 1.5-1.1 2.4-1.2-.7.5-1.5 1-2.4 1.2zM2.8 26.3c0 .1 0 .3-.1.4-.2.3 0 .7-.3.8-.1 0-.2-.1-.2-.2.1-.4-.2-1 .2-1.3.1 0 .2-.1.2 0 .3 0 .2.2.2.3zM33 92.7c-1.2.1-2.4.3-3.6.3 1.2-.2 2.4-.3 3.6-.3zM98.1 55.6c-.1-.8-.4-1.6-.1-2.5.3.9.1 1.7.1 2.5zM33.4 28.4c-.6-.2-1-.3-1.4-.5-.1 0-.2-.1-.2-.2s.2-.1.3-.1c.5 0 1 .1 1.3.8zM6.7 49.9c-.3-.4-.3-.8-.4-1.2-.1-.3.2-.2.4-.3.2 0 .3.1.2.3-.2.4 0 .8-.2 1.2zM25.9 13.3c.5-.4.5-1.3 1.4-1.1-.5.1 0 .6-.3.7-.4.2-.7.3-1.1.4zM98 50.4c0 .2.1.6-.1.8-.2.2-.4-.1-.3-.5 0-.1 0-.2.1-.3v-.1c0-.2-.1-.6.2-.6.4 0 .1.3.1.5v.2zM32.8 30c-.8-.3-1.5-.5-2.1-.9.3-.1 1.6.4 2.1.9zM94.2 57c.2.2.1.4.2.6.1.3-.2.4-.4.5-.1 0-.3 0-.3-.1-.1-.2.1-.3.2-.5 0-.2.1-.3.3-.5zM24 13.3c.5-.3 1-.6 1.7-.4-.6.3-1.2.4-1.7.4zM34.6 89.3c-.4.2-.9.1-1.3.3-.2.1-.4-.1-.4-.3 0-.2.2-.2.3-.2.5.2 1 0 1.4.2zM5 26c-.2.1-.3 0-.3-.2.1-.3 0-.7.4-.8.2 0 .4.2.4.3 0 .4-.3.5-.5.7zM8.6 88.7c-.6-.2-.7-.7-1-1.3.8.2.8.8 1 1.3zM64.6 19.2c-.2.3-.4.4-.7.5-.1 0-.3 0-.3-.2.1-.3.4-.5.7-.6.1-.1.3.1.3.3zM93.3 81.8c.2-.2.2-.4.4-.6.2-.2.2-.7.6-.5.3.2-.1.5-.3.7-.2.3-.3.4-.7.4zM90.5 55.9c-.5.5-1.1.5-1.7.9.2-.4.9-.8 1.7-.9zM75.5 39.2c.3-.6.8-.5 1.2-.6-.2.3-.6.6-1.2.6zM89.5 34c.1.7-.2 1-.8 1.2.3-.5.4-.9.8-1.2zM16.2 9.1c.5-.4 1.1-.2 1.6-.3-.5.3-1.1.2-1.6.3zM40 89c-.8.4-.8.4-1.3.2.4-.2.4-.2 1.3-.2zM57.6 8.9c-.3.3-.3.3-1.6 0 .5-.1 1 0 1.6 0zM19.4 60.5c.4-.2.7-.3 1-.1.1.1.1.3 0 .3-.4.2-.6-.2-1-.2zM17.1 27.4c-.1.2-.4.1-.6.2-.1.1-.3 0-.3-.1 0-.3.3-.3.5-.4.2-.1.3 0 .4.3zM60.2 18.2c-.5.2-1 .4-1.5.5.4-.5.9-.5 1.4-.7.1.1.1.1.1.2zM8.8 29.4c.5-.2.9-.5 1.4-.6-.3.5-.6.6-1.4.6zM62.1 79.1c-.3.1-.7.2-1 0v-.2c.4-.2.7 0 1 .2z"/></svg>