<svg id="Layer_1" xmlns="http://www.w3.org/2000/svg" viewBox="0 0 100 100"><style>.st0{fill-rule:evenodd;clip-rule:evenodd}.st1,.st2{fill:none}.st2{fill-rule:evenodd;clip-rule:evenodd}</style><path class="st0" d="M82.3 91.4c.1.6.1 1.2.1 1.9 0 .4.1.9.1 1.3v2c.2.9-.5 1.2-1.2 1.2H80c-.6 0-1.1.1-1.7.1-1.4 0-2.8.1-4.3.1-.9 0-1.9 0-2.8.1-1.2.1-2.5.2-3.7.2-1.4.1-2.8.1-4.2.1h-4.9c-.9 0-1.7-.1-2.6-.1-.8 0-1.6.1-2.4.1h-2.7c-.9 0-1.9.2-2.8.2h-2.4c-1 0-1.9.1-2.9.2l-3.9.3c-1.3.1-2.6.3-3.8.3h-2.4c-1.2 0-2.4-.1-3.6.1-.6.1-1.2.1-1.8.1-.6 0-1.2.1-1.8.2-.4 0-.9.1-1.3.1h-.6c-.6-.2-.6-.2-.7-.9-.1-1.5-.1-3 0-4.5.1-1.3.1-2.6 0-4s-.2-2.8-.3-4.1c0-.2 0-.4-.1-.5-.1-.5-.1-.5.4-.8.2-.1.5-.1.8 0 .3.1.7.2 1 .2.7 0 1.3-.1 2-.1.9-.1 1.7-.2 2.6-.2 1.2-.1 2.5-.1 3.7-.1 1.5 0 3-.1 4.6-.2.7-.1 1.4-.1 2.1-.2.3 0 .5 0 .8.1v-.1c-.3-.2-.7-.4-1-.6-1.2-.7-2.3-1.5-3.4-2.3-.8-.6-1.5-1.1-2.1-1.9-1-1.1-2-2.2-2.7-3.5-.6-1.1-1.1-2.2-1.6-3.4-.4-.9-.7-1.9-1-2.9-.3-1.1-.6-2.2-.8-3.3-.1-.3 0-.6 0-.9v-.3c-.9 0-1.8.4-2.8.2-.6-.1-1.2 0-1.8 0-1.1 0-2.1-.1-3.2-.1h-1.2c-.2 0-.4-.1-.6-.1-.3-.1-.5-.3-.3-.7v-.3c0-.5.1-.9.1-1.4v-1.9c0-.5-.1-1 0-1.5 0-.2 0-.4-.1-.6-.1-.3.2-.4.4-.5.2-.1.5-.1.7-.1.2.1.4 0 .7 0h6c1 0 1.9 0 2.9-.1.5 0 .9-.1 1.4-.2.8-.1 1.7-.1 2.5-.1s1.6-.1 2.4-.1h8.9c.3 0 .6-.1.9-.1.4 0 .8 0 1.3-.1.1 0 .2-.1.3-.1.3-.2.6-.3 1-.2l.6.3c.2.1.2.4.2.6 0 .4-.1.9-.1 1.3v2.5c0 .3 0 .6.1.9 0 .1.2.2.2.3.1.2.1.4.1.6 0 .1-.2.3-.4.3-.8.1-1.6.1-2.4.2-.9.1-1.8.1-2.6.2-1.2.1-2.3.4-3.5.5-.7.1-1.4 0-2-.1-.2 0-.2 0-.2.2.2 1.1.3 2.2.7 3.3.5 1.4 1.2 2.8 2.1 4.1 1 1.3 2.1 2.5 3.4 3.4 1 .7 2.2 1.2 3.4 1.6.9.3 1.8.6 2.8.7 2 .4 4 .6 6 .3 1.4-.2 2.8-.5 4.1-1 2.3-.9 4.5-2 6.4-3.5 1-.8 1.8-1.8 2.5-2.9.8-1.3 1.6-2.5 2.2-3.9.5-1 .8-2.2 1.1-3.3.4-1.4.7-2.8.9-4.2.2-1.2.2-2.4.1-3.6-.1-.8-.1-1.5-.2-2.3-.1-.7-.3-1.4-.4-2.1-.2-1-.6-1.9-1.1-2.8-.6-1.1-1.1-2.1-2.1-2.9-.4.2-.8.3-1.2.5-1.2.5-2.4.5-3.7.4-.8-.1-1.5-.3-2.2-.7-.1 0-.1-.1-.2-.1-.7.1-1.2-.3-1.8-.7-.3-.3-.7-.5-1-.8-.1-.1-.3-.3-.4-.5-.1-.4-.4-.6-.7-.8-.6-.3-.9-.8-1.1-1.4l-.3-.6c-.1-.3-.3-.6-.3-1-.2-.8-.4-1.6-.5-2.4-.1-.3 0-.7.1-1 0-.1 0-.2.1-.3l-.1-.1c0 .1 0 .2-.1.2-.7.8-1.3 1.5-2 2.3-.1.1-.3.3-.5.2-.2-.1-.5 0-.6.2-.2.2-.2.4-.1.7 0 .1.1.1.1.2-.4.5-.9 1-1.3 1.5-.6.7-.6.7 0 1.3.6.6 1.3 1.2 1.9 1.8l.1.1c0 .3 0 .5.4.4 0 .2.1.4 0 .5-.8.7-1.3 1.7-2 2.5-1 1.1-1.9 2.3-2.8 3.4-.2.3-.5.3-.9 0-.6-.5-1.3-.9-1.9-1.5-.8-.7-1.5-1.3-2.3-2-1-.9-1.9-1.9-2.9-2.8-1.3-1.3-2.7-2.5-4-3.7-1.8-1.6-3.6-3.2-5.4-4.9-.3-.3-.7-.5-1-.8-.2-.1-.3-.3-.1-.5.2-.2.3-.5.6-.5l.1-.1c1.2-1.3 2.4-2.6 3.7-3.9l1.7-1.7c.1-.1.3-.2.5-.3.1 0 .3 0 .4.1l2.5 2.5.3.3c.5-.6 1-1.1 1.5-1.7 1.5-1.6 3.1-3.2 4.6-4.8.8-.9 1.7-1.8 2.6-2.7 1.5-1.6 3-3.3 4.6-4.8 1.1-1.2 2.4-2.3 3.5-3.4 1.2-1.2 2.4-2.4 3.7-3.5C62 10 63.3 9 64.6 7.8c.8-.7 1.5-1.4 2.3-2.2.1-.1.2-.3.4-.5.3-.3.6 0 .8.1.5.3 1.1.4 1.7.5.5.1 1.1.1 1.6.1.1 0 .2 0 .3-.1 1.2-1 2.4-2.1 3.5-3.1.6-.6 1.2-1.3 1.8-1.9l.2-.2c0-.6.5-.4.8-.4.2-.1.9.5 1 .7.1.2.3.5.4.6l1.5 1.2c-.1.2.1.6.1 1.1 0 .2-.1.5-.3.6-1.1 1.1-2.2 2.1-3.3 3.2-.4.6-.9 1-1.4 1.5-.1.1-.1.2-.1.3l.3 1.8c0 .1 0 .1.1.2.3.3.2.6.1 1s-.1.8.2 1.1c.2.3.2.6 0 .8-1 1.1-2 2.1-3 3.2-1.7 1.8-3.3 3.5-5 5.3-1.1 1.2-2.2 2.3-3.3 3.5-.9.9-1.7 1.8-2.6 2.7-.1.1-.1.2-.3.3.6-.2 1-.4 1.5-.6.9-.3 1.8-.4 2.7-.2.3.1.7 0 1 .1.1 0 .3.1.4.2.8.4 1.7.8 2.5 1.2.8.4 1.3 1 1.8 1.6.9 1.1 1.3 2.4 1.8 3.6.6 1.2.6 2.5.6 3.8 0 .1 0 .2.1.2l1.2 1.2c.6.7 1.1 1.5 1.4 2.3.4 1 .8 2 1.1 3.1.2.6.4 1.2.5 1.8.2 1 .4 1.9.6 2.9.2 1.4.5 2.8.7 4.2.3 2 .3 4 .2 6 0 1.8-.2 3.6-.7 5.3-.4 1.5-.8 3-1.3 4.5-.3 1-.8 1.9-1.3 2.9-.3.7-.8 1.3-1.2 1.9-.9 1.5-2 2.8-3.2 4-.5.6-1.1 1-1.7 1.6-.8.8-1.6 1.5-2.5 2.1l-2.1 1.2c-.1 0-.1.1-.3.2h.6c.9-.1 1.8-.3 2.7-.4l4.8-.3 2.7-.3c.5 0 1.1 0 1.6-.1.5 0 .9-.2 1.4-.2.7-.1 1.3-.2 1.9.2.2.1.3.3.3.6.1 1.6.1 3.2.1 4.8 0 .4-.1.8-.1 1.2v.2c.3.2.2.6.3 1 .3.2.2.3-.2.4zM47.9 25.6c.1-.1.2-.3.3-.4h.1c-.1.1-.1.2-.2.4h.1c.1-.2.1-.3.2-.5s.3-.6.4-.6c.4 0 .5-.3.7-.5h-.2c.3-.4.6-.7.9-1.1v.4l.3-.3c.3-.4.5-.7.8-1.1.4-.5.9-1 1.4-1.5 0 0 .1-.1.1-.2h-.1c-.4.5-.8.9-1.3 1.4h-.1c.1-.1.1-.3.2-.4.2-.2.4-.3.5-.5l2.7-2.7c1.2-1.2 2.5-2.4 3.8-3.6.3-.2.5-.5.8-.8l-.1-.1c-.5.4-.9.8-1.4 1.2-.5.4-1 .8-1.4 1.3-.5.4-.8.9-1.3 1.3s-.8.9-1.3 1.4c-.4.4-.8.9-1.2 1.4l-.1-.1c.1-.2.2-.3.3-.5-3.2 3.3-6.3 6.6-9.5 9.9l.1.1s0-.1.1-.1c.6-.6 1.2-1.2 1.9-1.8.7-.6 1.3-1.3 2-1.9.4-.3.7-.7 1.1-1.1 0 .1 0 .2-.1.2-.5.5-.9 1-1.4 1.5-.4.4-.8.7-1.2 1.1-.1.1-.1.1-.1.2h.1l.3-.3c.1.2.2.2.4 0l.4-.4c.3-.3.7-.6 1-1 .1 0 .3-.1 0-.3zM24 64.5c-.2-.1-.3-.1-.5-.2-.3-.1-.6 0-.7-.3h-.2c-.8-.1-1.6-.1-2.4-.3-.5-.1-1.1-.2-1.6-.6 0 .4.1.8.1 1.1 0 .1.1.2.2.2.3 0 .6.1.9.1H24zm49.6 24.4v-.1h-.3c-1.5.2-3 .4-4.5.4h-2.9c-.5 0-1 .1-1.4.1v.5c.3 0 .5 0 .8-.1v-.2c.5-.1 1-.2 1.4.1.1 0 .2 0 .2-.1.1-.2.3-.1.4 0 .1 0 .2.1.3.1.4 0 .8 0 1.2-.1 1.5-.1 3.1-.3 4.6-.5 0 0 .1-.1.2-.1zm-26.2 8.9c1.3-.1 2.6-.2 3.8-.2 1.3 0 2.5 0 3.8-.2-.2-.1-.3-.1-.5-.1-1.2 0-2.5-.1-3.7 0-.9 0-1.8.1-2.7.2-.3 0-.6 0-.7.3zm21.7-53.5c-1.4.6-2.7 1.2-4.1 1.7.7 0 1.3-.1 2-.3.5-.2 1-.4 1.6-.6.6-.2.7-.3.5-.8zM39.7 90.4c.3 0 .6-.1.8 0 .3.2.4 0 .6-.1v-.1c-.6 0-1.3-.1-1.9-.1-.1-.1-.2-.3-.3-.3-.3 0-.6.1-.9.1-.6 0-1.3.4-1.9.2-.1 0-.2.1-.3.1.5.1 1-.1 1.4.1.4.2.9-.2 1.3.1.1-.2 1-.2 1.2 0zm-8.2-15.9c-1.1-2.8-2.1-5.5-2.9-8.4.5 2.9 1.5 5.7 2.9 8.4zm15.3 4.9c-1.4-.7-2.8-1.3-4.1-1.9.6.8 3.4 2.1 4.1 1.9zM48 50.5c-1.4-1-2.6-2.4-4.1-3.3 1.2 1.2 2.4 2.5 4.1 3.3zM40.8 64v-.1c-1.2 0-2.3-.1-3.5.2.1.1.2.1.3.2.8.2 1.6 0 2.5-.1.2-.1.4-.2.7-.2zM27.4 98.9c-.4-.2-.8-.4-1.3-.6H25.3c0 .1-.1.4-.2.7.8 0 1.5 0 2.3-.1zm5.2-.2c1.2.1 2.3.1 3.5-.1-1.2-.2-2.3-.4-3.5.1zm3-32.1h.1v-.2c0-.6-.1-1.1-.1-1.7 0-.2-.1-.3-.3-.3h-.5c.3.9.6 1.6.8 2.2zm1.7 2.6c0-.1 0-.1 0 0 .1-.1 0-.2 0-.2-.2-.9-.4-1.8-.6-2.6-.1-.3-.1-.7-.1-1 0-.1-.1-.2-.2-.3 0 1.4.4 2.7.9 4.1zm15.5 27.4s0-.1 0 0c-.1-.2-.2-.3-.3-.3-.5 0-1 0-1.5.1-.4 0-.8.1-1.3.1.1.1.2.1.3.1H52.8zM24.2 86.3c-.6-.2-.6-.2-.6.4v.4c0 .3.1.6.1.9.5-.4.5-.6.1-.7.4-.3.3-.7.4-1zM40 33l.1.1c1.1-1.2 2.3-2.3 3.3-3.6l-.1-.1c-1.1 1.3-2.2 2.4-3.3 3.6zm4.1 25.9v.1l1.5.3h.6c0-.2 0-.4-.1-.6-.7.4-1.3.2-2 .2zM67.8 7c.2-.1.3-.2.5-.3.2-.1.3-.1.5-.2-.5-.3-1.4-.4-1.6-.1.3.1.6.2.6.6zM36.6 80.6c-.7-.6-1.3-1.3-2.1-1.9.2.5 1.3 1.5 2.1 1.9zm33-73.3c.1 0 .2.1.3.1.3-.2.5-.4.8-.7v-.1h-.9c-.1.2-.2.4-.2.7zm-2.9 75.8c.5-.1 2.6-1.6 2.8-2-.9.7-1.9 1.4-2.8 2zm-1.3 14.1c.5.3 2 .4 2.5.1-.9-.1-1.7-.1-2.5-.1zM53 37.4c0 .1 0 .1 0 0 .9-.9 1.8-1.8 2.6-2.8l-.1-.1c-.9 1-1.7 2-2.5 2.9zm17.9 9.1s.1 0 0 0c-.1-.5-.4-1-.6-1.5-.5.3-.5.4-.1.7.2.1.3.3.5.5.1.1.1.2.2.3zM57.8 84.6c.7-.5 1.3-.9 2-1.4 0 0 0-.1-.1-.1-.3.2-.6.4-1 .7-.2.1-.4.3-.6.3-.2 0-.3.1-.3.5zm11.3-54.3s0 .1 0 0c.2.6.9 1 1.4.9-.4-.3-.9-.6-1.4-.9zM28.6 65v-.4c0-.1-.1-.2-.2-.2h-1.2c.1.2.1.3.2.5l.6-.3c.4-.1.4.2.6.4zM74 53h-.2c-.2.7-.2 1.4 0 2.1.1-.7.1-1.4.2-2.1zm.7-48.8l-1.9 1.9.1.1c.6-.7 1.4-1.2 1.8-2zm-.6 80.4v-.1c-.6.1-1.3.1-1.9.2v.1c.6-.1 1.3-.1 1.9-.2zM62.4 30.8c-.3.1-.6.2-.8.4v.1c.3.1.5.2.8.3v-.8zM28 93.9v.2c.7 0 1.4-.1 2.1-.1-.7-.1-1.4-.1-2.1-.1zm50.7-40.5c.2-.2.2-1.2-.1-1.6 0 .5.1 1.1.1 1.6zM65.1 29.1c.4.2.7.2 1.1.3V29c-.4 0-.7 0-1.1.1zm-24.7 4.3c.3-.4.5-.8.8-1.1h-.1l-1 1c.2 0 .3 0 .3.1zm-8.3 1.5c-.1 0-.1.1-.2.2.3.3.5.6.8.9 0 0 .1 0 .1-.1-.3-.3-.5-.7-.7-1zm41.6-19.8l.1.1c.3-.2.5-.5.8-.8v-.2.1c-.3.3-.6.5-.9.8zM27.7 90v.1c.4.1.9.1 1.3 0V90h-1.3zm-.4 3.9c-.2-.2-.4-.3-.7-.5 0 .2 0 .3-.1.5h.8zm-3-29.4c.5.1.9.3 1.4 0h-1.4zm56.9 32v-.1c-.6-.1-.7-.1-.8.3.3-.1.6-.1.8-.2zm-23.5.8c.4 0 .7 0 1.1.1-.1-.4-.1-.4-1.1-.1zM43.1 30.4c-.1 0-.1 0 0 0-.4.3-.7.7-1 1 0 0 .1 0 .1.1.3-.3.6-.7.9-1.1zM79.3 3.6c-.2.5-.2.5.2.6.1-.1.1-.2.2-.3-.2-.1-.3-.2-.4-.3zM30.1 89.9v.1c.4.1.7 0 1.1-.1h-1.1zm31-78.1s.1 0 0 0c.4-.2.7-.5 1.1-.8l-.1-.1c-.3.3-.7.6-1 .9zm1.4 19.9h.2c0-.2.1-.5.1-.7 0 0-.1-.1-.2-.1-.1.3-.1.5-.1.8zm7.4 53.1v-.1c-.4.1-.8.1-1.3.2v.1c.4-.1.9-.1 1.3-.2zm.1-40.3c-.2-.1-.3-.2-.4-.3-.1.2-.1.3-.2.5.3 0 .4-.1.6-.2zM36.2 30.7c.2.3.4 0 .5-.1-.2-.3-.2-.3-.5.1zM33.4 59s0 .1 0 0c.4.1.8 0 1.2 0v-.1c-.3.1-.7.1-1.2.1zM44 90.2h-.7c.5.4.5.4.7 0zM78.9 3.1l-.5-.5c0 .5.1.7.5.5zM49.7 89.6c.3.1.5.1.8.1v-.1h-.8zm-20 8.6v-.1c-.2 0-.4 0-.6.1v.1c.1-.1.4-.1.6-.1zm18.4-7.8c-.3-.1-.5-.1-.8-.1v.1h.8zM78 96v.1c.2 0 .4-.1.6-.1v-.1c-.2.1-.4.1-.6.1zm-36.1-5.7s0-.1 0 0c-.2-.1-.4-.1-.6-.1v.1h.6z"/><path class="st0" d="M48.5 24.5c.6-.7 1.2-1.4 1.7-2.1l.1.1c-.1.1-.2.3-.3.4-.4.5-.8 1-1.2 1.4 0 .2-.2.2-.3.2zM47.9 25.6c-.4.4-.7.8-1.1 1.2-.2.2-.4.4-.7.6 0-.1 0-.2.1-.3l1.5-1.5h.2zM51.6 21.2c-.1 0-.1.1-.2.1l-.1-.1c.4-.4.7-.8 1.1-1.2 0 0 .1 0 .1.1-.2.2-.3.4-.5.6-.1.2-.3.4-.4.5zM51.3 21.4c-.3.3-.6.7-.9 1l-.1-.1c.3-.3.6-.7.8-1l.2.1z"/></svg>