<svg id="Layer_1" xmlns="http://www.w3.org/2000/svg" viewBox="0 0 100 100"><style>.st0{fill-rule:evenodd;clip-rule:evenodd}.st1,.st2{fill:none}.st2{fill-rule:evenodd;clip-rule:evenodd}</style><path class="st1" d="M91 52.3c-.2-1.2-.1-2.5-.6-3.8-.4-.8-.6-1.6-1.1-2.3-.4-.6-1-1.1-1.6-1.4-.5-.3-1.2-.6-1.7-.9-.8-.4-1.7-.5-2.6-.8-1.3-.4-2.5-.5-3.7.2-.7.4-.9.9-.9 1.6 0 .7.3 1.3.9 1.8.3.3.7.6 1 .9.5.4.7 1 1.2 1.3.5.4 1 .9 1.3 1.5.5.8 1.1 1.5 1.2 2.5.1.5.1 1-.2 1.6-.6 1.2-1.7 1.8-2.7 2.7-.8.6-1.6 1.2-2.6 1.5-.6.2-1.2.6-1.8.5-.7-.1-1.4 0-2.1.2-1.2.3-2.4.5-3.6.5-1.8 0-3.7-.2-5.5-.2-1.2 0-2.3-.1-3.5-.2-1.1 0-2.1-.2-3.2-.2-1-.1-1.9-.3-2.9-.4-1.2-.1-2.3-.7-3.5-1-.9-.2-1.5-.8-2.3-1.2-1.3-.7-1.7-2-1.8-3.3-.1-.8.1-1.5.2-2.3.2-1.1.6-2.2.9-3.3.4-1.2.7-2.4 1.2-3.6.3-.7.4-1.5.8-2.2.4-.7.9-1.4 1.3-2.2.6-1.5 1.4-2.9 2.1-4.3.5-.9.9-1.7 1.5-2.6.4-.6.7-1.3 1.1-1.9.7-1.2 1.4-2.4 2.2-3.5.6-.9 1.1-1.9 1.7-2.8.8-1.1 1.5-2.2 2.2-3.4 1-1.7 2.1-3.3 3-5 .7-1.3 1.3-2.5 2-3.8.4-.7.7-1.5 1.1-2.1.8-1.2 1.5-2.4 2.1-3.7.4-.9 1-1.7.9-2.7-.1-.9-.1-1.8-.9-2.4-.3-.2-.5-.5-.8-.7-.5-.4-1.1-.8-1.8-.6-1.5.1-2.5.9-3.2 2.1-.9 1.5-1.7 3-2.4 4.7-.4 1-1 1.8-1.5 2.8-.5 1.1-1.1 2.1-1.7 3.2-.9 1.7-1.9 3.4-3 5.1-.8 1.3-1.7 2.6-2.6 3.9-.8 1.1-1.5 2.2-2.2 3.3-1.5 2.4-2.9 4.9-4.4 7.3L46.7 36c-.9 1.8-1.7 3.7-2.5 5.6l-1.2 3c-.3.8-.6 1.5-.8 2.3-.4 1.1-.7 2.3-.9 3.5-.1.8-.2 1.6-.2 2.4 0 .8.1 1.6.3 2.4.2.8.4 1.5.8 2.2.5.8 1.1 1.6 1.8 2.3.8.8 1.7 1.6 2.8 2 1.2.5 2.4.8 3.6 1.3.4.2.8.3 1.3.4l2.1.3c1.6.2 3.2.5 4.7.6 1.2.1 2.4 0 3.5.1 2.4.2 4.8.3 7.2.4 1 .1 2 .1 3 .1 1.7 0 3.4 0 5.1-.2 1.8-.2 3.6-.4 5.3-.9.4-.1.8-.2 1.2-.4 1-.5 2-.8 3-1.3 1.1-.6 1.9-1.4 2.2-2.6.2-.7.5-1.3.7-2 .2-.5.5-1.1.6-1.6.1-.6.1-1.2.3-1.8.1-.2.2-.4.2-.7.3-.3.2-.7.2-1.1zm-81.4 14c.1.9.1 1.7.3 2.6.3 1.1.7 2.2 1 3.3.4 1.3 1 2.6 1.5 3.9.4 1.1 1.1 2.1 1.6 3.2.6 1.4 1.5 2.7 2.4 3.9.7.9 1.5 1.8 2.3 2.7.6.7 1.4 1.3 2 2.1 1.2 1.5 2.7 2.6 4.1 3.8 1 .8 2.2 1.6 3.4 2.2.9.4 1.8.9 2.7 1.3 1.2.6 2.4 1.1 3.6 1.6.9.4 1.8.6 2.7.9.9.3 1.8.5 2.7.8 1.1.4 2.2.8 3.4 1.1.8.2 1.7.5 2.6.3.8-.2 1.6-.2 2.4-.3 1-.1 1.5-.8 1.2-1.8 0-.1-.1-.2-.2-.3-.1-.3-.3-.6-.3-.9.1-.7.1-.9-.7-.9-1.5 0-3.1-.2-4.6-.7l-3.9-1.2c-1.5-.4-3-.8-4.5-1.4-1.4-.6-2.9-1.2-4.2-2-1-.6-2-1.2-3-1.9-.8-.5-1.6-1.1-2.4-1.6-1.2-.8-2-2-3-3-.7-.8-1.4-1.7-2.2-2.6-.7-.8-1.3-1.6-1.9-2.5l-1.8-3.3c-1-2-2.1-4.1-2.7-6.3-.5-1.7-.9-3.4-1.2-5.2-.4-2.6-.5-5.3-.4-8 .1-1.6.3-3.2.5-4.8.2-1.9.6-3.8 1-5.6.3-1.4.7-2.7 1.1-4.1.5-1.9 1.1-3.7 1.9-5.4.6-1.4 1.1-2.7 1.7-4.1.7-1.7 1.5-3.3 2.4-4.8.5-.8 1-1.7 1.6-2.4.6-.7 1-1.6 1.9-2.1.5-.2.4-.7.1-1-.1-.1-.1-.2-.1-.4.2-.4.1-.7-.2-1-.2-.2-.4-.4-.7-.6-.4-.3-.9-.5-1.5-.3-.9.3-1.6.8-2.1 1.4-.9 1-1.9 2-2.5 3.3-.7 1.3-1.4 2.7-2 4.1-.5 1.1-1 2.1-1.5 3.1-.4.9-1 1.8-1.3 2.8-.5 1.5-1 3-1.6 4.5-.5 1.4-.7 2.8-.9 4.2-.1.7-.1 1.5-.3 2.2-.2.7-.3 1.3-.4 2-.1 1.6-.2 3.2-.4 4.9-.2 2.2-.5 4.3-.4 6.5.1 2 .1 4 .4 6 .3.5.4 1.2.4 1.8zm42.2 20.4c.4 0 .9-.2 1.3-.4.8-.4 1-1.1 1.1-1.8 0-.4.2-.5.5-.6.3-.1.3-.3.3-.6 0-.4-.4-.7-.8-.6-.8.1-1.7 0-2.5 0-1.1 0-2.2-.1-3.3-.3-1.5-.3-3.1-.4-4.6-.8-1.5-.4-2.9-.8-4.3-1.3-.5-.2-1.1-.3-1.5-.7-.4-.4-.9-.7-1.4-1-.3-.2-.7-.4-1.1-.3-.1 0-.2 0-.3-.1-1-.8-2-1.5-3-2.3-1.7-1.4-3.2-3.1-4.5-4.9-.8-1.1-1.6-2.2-2.3-3.4-.5-.9-1-1.8-1.3-2.8-.5-1.4-1-2.7-1.3-4.2-.2-1-.4-2-.5-3-.1-1.1-.1-2.2-.1-3.3v-2.2c.1-1.3.3-2.7.5-4 .1-.8.2-1.6.4-2.4.3-1.2.8-2.2 1.2-3.4.3-.8.6-1.5 1-2.2.6-1 1.1-2.1 1.7-3.2.5-1.1 1.1-2.1 1.8-3.1 1-1.4 1.9-2.8 2.9-4.1.5-.7.8-1.4 1.6-1.9.2-.1.4-.4.5-.6.2-.4.1-.8-.2-.8-.4-.1-.5-.3-.5-.6 0-.2-.1-.3-.1-.4-.3-.6-.9-1-1.5-1.1-.5 0-1 .4-1.3.8-.4.5-.7 1-1.1 1.4-.9.9-1.8 1.7-2.5 2.8-.7 1-1.4 2-2 3-.6 1-1.4 1.9-1.9 2.9-.5 1.1-1 2.2-1.5 3.2-.2.4-.5.8-.6 1.3-.4 1.3-.8 2.6-1.1 3.9-.4 1.6-.9 3.2-1.1 4.9-.1.7-.3 1.3-.3 2s0 1.5.1 2.2c0 .4.1.8 0 1.2-.1 1.3 0 2.6.1 3.9.1 1.2.3 2.4.5 3.5s.4 2.2.7 3.2c.3 1 .9 2 1.4 2.9.4.8.8 1.6 1.2 2.3.4.6.8 1.2 1.1 1.8.4.7.9 1.3 1.4 1.9.9 1 1.8 2 2.8 3 1.1 1 2.2 2 3.4 3.1.9.9 2 1.5 3 2.3.2.2.4.4.6.5l1.8.9c.8.4 1.7.8 2.6 1.1.9.3 1.7.6 2.5.9 1 .4 2 .8 3.1.9 1.5.2 2.9.4 4.4.9.6.2 1.4.5 2 .1.4-.3.8-.3 1.3-.2-.5-.2-.4-.2-.3-.2zm3.3-15.4c-.2-.5-.3-1-.5-1.4 0-.1-.1-.2-.2-.2-.2-.1-.3-.2-.3-.4 0-.4-.2-.6-.6-.6-.5.1-1 0-1.6-.1-1.2-.2-2.4-.6-3.6-.9-.8-.2-1.6-.4-2.4-.7-1.6-.7-3.3-1.2-4.9-2-.6-.3-1.3-.6-1.7-1.2-.3-.4-.6-.9-1.2-.9-.1 0-.1-.1-.2-.2-.8-.9-1.6-1.8-2.2-2.8-.5-.8-.9-1.7-1.3-2.6-.4-.8-.7-1.7-.9-2.5-.2-.7-.2-1.4-.4-2.1-.2-.8-.2-1.6-.2-2.3.1-1.5.4-3 .8-4.4.5-1.8 1.2-3.6 2.1-5.3.6-1.1 1.2-2.1 1.5-3.2.6-2 1.8-3.6 3.2-5.1.2-.3.3-.6.2-.9-.1-.3-.2-.7-.3-1-.3-.9-1.8-1.5-2.7-1-.5.3-.9.6-1.2 1-.2.3-.2.6-.3.9-.5.9-1 1.7-1.5 2.7-.2.5-.6.9-.9 1.4-.8 1.2-1.7 2.3-2.2 3.7-.3.8-.6 1.5-1 2.2-.4.6-.7 1.3-.9 2-.4.9-.5 1.8-.7 2.8-.3 1.7-.5 3.4-.5 5 0 1.5 0 3.1.3 4.6.3 1.5.6 2.9 1.3 4.2.5.9 1 1.9 1.6 2.7.6.9 1.3 1.8 2 2.6.6.7 1.3 1.4 2.2 1.9.8.4 1.7.8 2.5 1.1 1 .4 1.9.9 2.8 1.3.8.4 1.6.7 2.5.9 1 .3 2.1.6 3.1.9 1.2.3 2.4.8 3.7 1 1 .2 2 .4 2.9.6.6.1 1.1-.2 1.4-.7.2-.2.3-.6.3-1zm14.6-13.4c.8.1 1.7-.2 2.6-.6.4-.2.7-.5.8-.8.3-.6.3-1.2.1-1.8-.2-.8-.6-1.4-1.3-1.9-.2-.1-.4-.3-.6-.5-.5-.6-1.1-.8-1.9-.9-.7-.1-1.3.1-2 .1s-1.5.1-2.2.1c-1 .1-2.1.2-3.1.4-1.1.2-2.2.6-3.1 1.4-.6.5-.6 1.7-.1 2.3.3.4.7.7 1.1 1 .6.4 1.3.8 2 1.1 1 .4 2.1.4 3.2.4 1.5 0 2.9-.3 4.5-.3z"/><path class="st0" d="M91 52.3v1.1c0 .3-.2.5-.2.7-.2.6-.1 1.2-.3 1.8-.1.6-.4 1.1-.6 1.6-.3.7-.5 1.3-.7 2-.3 1.2-1.1 2.1-2.2 2.6-1 .5-2 .8-3 1.3-.4.2-.8.2-1.2.4-1.8.5-3.5.7-5.3.9-1.7.1-3.4.2-5.1.2-1 0-2 0-3-.1-2.4-.1-4.8-.2-7.2-.4-1.2-.1-2.4 0-3.5-.1-1.6-.1-3.2-.4-4.7-.6l-2.1-.3c-.5 0-.9-.2-1.3-.4-1.2-.5-2.4-.8-3.6-1.3-1.1-.5-2-1.2-2.8-2-.7-.7-1.3-1.5-1.8-2.3-.4-.7-.6-1.4-.8-2.2-.2-.8-.3-1.6-.3-2.4 0-.8.1-1.6.2-2.4.2-1.2.5-2.4.9-3.5.3-.8.5-1.5.8-2.3l1.2-3c.7-1.9 1.6-3.8 2.5-5.6.6-1.1 1.1-2.2 1.8-3.3 1.5-2.4 2.9-4.9 4.4-7.3.7-1.1 1.5-2.2 2.2-3.3.9-1.3 1.7-2.6 2.6-3.9 1.1-1.7 2-3.4 3-5.1.6-1 1.2-2.1 1.7-3.2.5-.9 1.1-1.8 1.5-2.8.7-1.6 1.5-3.2 2.4-4.7.5-1.2 1.5-2 2.9-2.4.7-.2 1.3.2 1.8.6.3.2.5.5.8.7.8.7.9 1.6 1 2.5.1 1-.5 1.8-.9 2.7-.6 1.3-1.4 2.5-2.1 3.7-.4.7-.7 1.4-1.1 2.1-.7 1.3-1.3 2.5-2 3.8-.9 1.7-2 3.3-3 5-.7 1.2-1.4 2.3-2.2 3.4-.6.9-1.1 1.8-1.7 2.8-.7 1.2-1.5 2.3-2.2 3.5-.4.6-.7 1.3-1.1 1.9-.5.8-1 1.7-1.5 2.6-.8 1.4-1.5 2.8-2.1 4.3-.3.8-.8 1.5-1.3 2.2-.4.7-.5 1.5-.8 2.2-.5 1.1-.8 2.4-1.2 3.6-.4 1.1-.7 2.2-.9 3.3-.1.8-.3 1.5-.2 2.3.2 1.3.5 2.6 1.8 3.3.7.4 1.4 1 2.3 1.2 1.2.3 2.3.9 3.5 1 1 .1 1.9.3 2.9.4 1.1.1 2.1.2 3.2.2 1.2 0 2.3.2 3.5.2 1.8 0 3.7.2 5.5.2 1.2 0 2.4-.2 3.6-.5.7-.2 1.4-.3 2.1-.2.7.1 1.2-.3 1.8-.5 1-.3 1.8-.8 2.6-1.5 1-.8 2.1-1.5 2.7-2.7.3-.5.3-1 .2-1.6-.1-1-.7-1.7-1.2-2.5-.4-.6-.8-1.1-1.3-1.5-.5-.4-.7-.9-1.2-1.3-.3-.3-.7-.6-1-.9-.6-.5-.9-1.1-.9-1.8 0-.6.3-1.2.9-1.6 1.2-.7 2.4-.6 3.7-.2.9.3 1.8.4 2.6.8.6.3 1.2.5 1.7.9.6.4 1.1.9 1.6 1.4.5.7.8 1.5 1.1 2.3.6 1.5.4 2.8.6 4zM48.7 35.1c-.4.8-.8 1.6-1.2 2.3-.5 1.1-1 2.2-1.5 3.4-.5 1.2-.9 2.5-1.5 3.7-.4 1-.7 2-1.1 2.9-.2.6-.4 1.2-.5 1.8 0 .1 0 .2.1.2.5.1.6.4.8.8l.3 1.2c.3-1.1.6-2.3.8-3.4.1-.3 0-.5-.3-.7-.2-.1-.2-.4-.2-.6.2-.8.4-1.6.7-2.3.4-.9.8-1.8.7-2.8 0-.3.2-.6.6-.7.4-.1.5-.3.6-.6.7-1.4 1.3-2.7 2-4.1.2-.3.1-.5-.2-.6 0 .1-.2-.1-.1-.5zm4.8.7c.5-1 1-1.9 1.6-2.9l1.5-2.7c.4-.7.9-1.5 1.4-2.2.6-1 1.2-1.9 1.7-2.9.6-.9 1.2-1.9 1.9-2.8 1.1-1.5 1.9-3.3 3-4.9.2-.3.4-.5.4-.8-.1 0-.1.1-.2.1-1.3 1.8-2.6 3.5-3.7 5.3-1 1.6-2 3.2-2.8 5-.1.3-.3.5-.7.6-.4 0-.6.3-.7.6-.6 1.1-1.4 2.2-2.1 3.3-.7 1.1-1.4 2.2-1.8 3.5 0 .1-.2.3 0 .4.3.2.3.3.5.4zm.9 26.6c-.1-.2-.3-.3-.4-.3-1.3-.5-2.7-.8-3.9-1.4-.8-.4-1.6-.7-2.3-1.2-.4-.3-.7-.7-1.3-.6-.3.1-.6-.1-.8-.3-.3-.4-.7-.8-.9-1.1-.7.4-.3.6 0 .9l.3.3c.8.9 1.7 1.6 2.8 2 1.2.4 2.3.8 3.5 1.2.9.3 1.9.4 3 .5zm25.4-.1c-2.8 1.1-5.8.9-8.7 1.3.8.1 1.5.1 2.3.1 2.1 0 4.2-.2 6.3-.4.1 0 .2.1.3-.1 0-.1 0-.2-.1-.3-.4-.2-.4-.4-.1-.6zM69.1 61v-.1c-3-.1-6-.3-9.1-.4.7.4 1.3.9 2.1 1 .6 0 1.2-.1 1.8-.1.1 0 .2-.1.3-.2.2-.2.4-.3.6-.2 1 .3 2.1.2 3.2.1.4 0 .7 0 1.1-.1zm-23.5-7.1c-.5.2-.7.5-.5 1 .1.2.2.4.2.6.1.2.2.2.4.3.2 0 .5-.1.7.1.6.4 1.1.8 1.6 1.4.1.2.3.3.5.4.3.2.4-.2.6-.3.2-.1-.1-.2-.2-.3-.7-.5-1.1-1.2-1.4-1.9-.1-.2.1-.4-.1-.5-.3.7-.6.9-1.5.6-.7-.3-.2-.9-.3-1.4zm40.5-4.5c0-.1 0-.1 0 0-.2-1-.6-2-.9-3-.1-.4-.3-.6-.7-.6-.2 0-.6-.2-.7 0-.2.2 0 .6.1.8.6.9 1.4 1.8 2.2 2.8zM57.8 20.5c-.1 0-.1.1-.2.1-.5.8-1 1.5-1.5 2.2-.4.6-.9 1.2-1.3 1.8-.2.2-.2.5.2.4.1 0 .2.1.3.1.2.2.3.1.4-.1.5-1.3 1-2.6 1.6-3.9.3 0 .5-.3.5-.6zM56.1 60c0 .2.1.2.1.2.4.3.7.7.4 1.2-.1.1 0 .2.1.2.9.5 1.8.2 2.7.2.1 0 .1 0 .1-.1 0 0 0-.1-.1-.1-1-.6-2.2-1.1-3.3-1.6zm14.7 1.1c1.6.5 5.6.2 6.7-.4-2.2-.3-4.4.4-6.7.4zM47.5 48.7h.2c1-2.7 2.1-5.4 3.1-8.1-1.4 2.7-2.5 5.3-3.3 8.1zm37.7 12.8c1.2-.3 2.6-1.2 2.9-2.9-.9 1.2-2 1.9-2.9 2.9zm-15.7 2c-.2-.1-.4-.4-.6-.4-.8-.1-1.6-.1-2.4-.2-.1 0-.2.1-.1.1.2.2.2.4.5.4.8 0 1.5.1 2.3.1.1.1.2.1.3 0zm13-5.3c.7-.3 1.3-1 2.1-.2-.1-.6.1-1.2 0-1.8-.3.4-.7.8-1 1.1-.4.3-.9.5-1.1.9zm6.5-1.8c.4-1.2 1-4.3.5-4.9 0 .1 0 .2-.1.3v.1c.2 1.3-.2 2.5-.6 3.6-.1.4-.1.6.2.9zm-28-41l1.5-1.8c0-.1.1-.1.1-.2-.2-.4 0-.7 0-1.1-.6 1-1.2 2-1.6 3.1zm20.6 28.8c-.6 0-1 .3-1.2.7-.1.1-.1.3 0 .5.1.1.2.2.2 0 .2-.5.6-.8 1.1-1 .1 0 .2-.1.1-.2 0-.1-.1 0-.2 0zm-1 17.8c.7-.3 1.3-.6 2-.9l.3-.3s.1-.1 0-.2-.2 0-.2 0c-.2.2-.4.3-.7.4-.5.2-1 .5-1.4 1zM71.4 3.3c0-.5-.2-.8-.6-1.1 0 .5.6.7.6 1.1zm15.5 49.4c-.3.3-.4.8-.4 1.3.3-.4.4-.8.4-1.3zM65 10.3c.2-.3.3-.6.4-1.1-.4.4-.4.8-.4 1.1zM9.6 66.3c0-.7-.1-1.3-.2-1.9-.3-2-.3-4-.4-6-.1-2.2.2-4.3.4-6.5.1-1.6.3-3.2.4-4.9 0-.7.2-1.4.4-2 .2-.7.2-1.5.3-2.2.2-1.4.4-2.8.9-4.2.5-1.5 1-3 1.6-4.5.3-1 .9-1.9 1.3-2.8.5-1 1-2.1 1.5-3.1.6-1.4 1.3-2.7 2-4.1.7-1.2 1.6-2.2 2.5-3.3.6-.6 1.2-1.2 2.1-1.4.6-.2 1 0 1.5.3.3.2.5.4.7.6.3.3.4.6.2 1-.1.2-.1.3.1.4.4.4.4.8-.1 1-.9.5-1.3 1.3-1.9 2.1-.6.8-1.1 1.6-1.6 2.4-.9 1.5-1.7 3.1-2.4 4.8-.6 1.4-1.1 2.7-1.7 4.1-.7 1.8-1.4 3.6-1.9 5.4-.4 1.3-.7 2.7-1.1 4.1-.4 1.9-.8 3.7-1 5.6-.2 1.6-.4 3.2-.5 4.8-.1 2.7-.1 5.3.4 8 .3 1.8.7 3.5 1.2 5.2.7 2.2 1.7 4.2 2.7 6.3l1.8 3.3c.5.9 1.2 1.7 1.9 2.5.8.8 1.4 1.7 2.2 2.6.9 1.1 1.8 2.2 3 3 .8.6 1.6 1.1 2.4 1.6 1 .6 2 1.2 3 1.9 1.3.8 2.8 1.4 4.2 2 1.4.6 3 1 4.5 1.4l3.9 1.2c1.5.4 3 .6 4.6.7.7 0 .8.2.7.9 0 .3.2.6.3.9 0 .1.1.2.2.3.4.9-.2 1.7-1.2 1.8-.8 0-1.6.1-2.4.3-.9.2-1.7-.1-2.6-.3-1.2-.3-2.3-.7-3.4-1.1-.9-.3-1.8-.5-2.7-.8l-2.7-.9c-1.2-.5-2.4-1-3.6-1.6-.9-.5-1.8-.9-2.7-1.3-1.2-.6-2.4-1.3-3.4-2.2-1.5-1.2-2.9-2.3-4.1-3.8-.6-.7-1.3-1.3-2-2.1-.8-.9-1.6-1.8-2.3-2.7-1-1.2-1.8-2.5-2.4-3.9-.5-1.1-1.2-2.1-1.6-3.2-.5-1.3-1.1-2.5-1.5-3.9-.3-1.1-.7-2.2-1-3.3-.4-.8-.5-1.6-.5-2.5zm11.7 20.2c-.3-.1-.5-.5-.7-.7-.3-.3-.6-.7-1-.9.5.5.8 1.1 1.4 1.5.1.1.2.2.3.1-.1.1 0 .2.1.4.5.5 1 1.1 1.5 1.6.3.3.7.6 1 .9-.1-.4-.4-.6-.6-.8-.7-.7-1.4-1.3-2-2.1zm9.7 7.4c1 .6 2.2 1.1 3.3 1.5.6.2 1.3.5 1.9.7.9.2 1.8.7 2.7.9.1 0 .2.2.3 0 .1-.2-.1-.2-.2-.2-.8-.4-1.6-.7-2.4-1.1-1.8-.8-3.7-1.3-5.6-1.8zm-19.7-32v-.5c-.1-.9-.2-1.8-.3-2.6-.1-.7-.1-1.3-.2-2 0-.2-.1-.3-.3-.3-.2 0-.1.2-.1.3-.1 1.4 0 2.8 0 4.1 0 .4 0 .7.5.7.1.1.2.2.4.3zm2.7-27c.4.1.6 0 .7-.4.3-.8.6-1.7.9-2.5.5-1.2 1.1-2.3 1.7-3.4.9-1.6 1.5-3.3 2.5-4.8 0 0 0-.1-.1-.1-.6.8-1.1 1.6-1.5 2.4-.6 1.2-1.1 2.4-1.7 3.6-.6 1.2-1.3 2.4-1.9 3.7-.2.4-.4.9-.6 1.5zM16.2 77c0 .3 0 .4.1.6.5 1.1 1 2.2 1.6 3.2.3.5.6 1.1 1 1.5.2.3.6.1.8 0 .2-.1-.1-.3-.2-.4-.9-1.1-1.8-2.2-2.4-3.4-.4-.5-.6-.9-.9-1.5zm-3-39.7c-.8 1.7-1.8 6.7-1.6 7.4.7-2.4.8-5 1.6-7.4zm12.1 51c.5.6 1.1 1.1 1.8 1.5 1 .5 1.9 1.3 3 1.8.5.2.9.6 1.5.6-2.2-1.2-4.3-2.6-6.3-3.9zM12.6 71.1c-.1-.5-.3-1-.4-1.6-.1-.3-.2-.2-.4-.1-.2 0-.3.1-.3.3.1.5.4 1 .6 1.5 0 .1.1.3.2.2.1 0 .3-.1.3-.3zm31.3 25.4c.4.4.8.5 1.3.7h.2c.4-.3.8-.2 1.2 0 .4.2.8.3 1.2.5-.1-.4-.2-.7-.7-.7-.5 0-1-.1-1.5-.2-.6-.1-1.1-.2-1.7-.3zM15.1 37.6c.6-1.6 1.4-3.2 1.9-4.9-.9 1.5-1.3 3.2-1.9 4.9zm-4.3 27.6c.1.7.1 1.4.2 2.1.2-.7.2-1.4-.2-2.1zm5.1 15v-.1c-.1-.3-.3-.5-.4-.9 0 .3.1.6.4 1zm-3.6-31.8c.1-.4.3-.7.2-1.2-.1.4-.4.8-.2 1.2zm10.1-27.5c0 .2.3.2.3.4 0 .1 0 .2.2.2.1-.1.1-.2 0-.3-.1-.2-.3-.3-.5-.3z"/><path class="st0" d="M51.8 86.7h-.3c-.4-.1-.8-.1-1.3.2-.6.4-1.4.2-2-.1-1.4-.5-2.9-.7-4.4-.9-1.1-.2-2.1-.5-3.1-.9-.8-.3-1.7-.6-2.5-.9-.9-.3-1.7-.7-2.6-1.1l-1.8-.9c-.3-.1-.4-.3-.6-.5-1-.8-2.1-1.4-3-2.3-1.1-1-2.2-2-3.4-3.1-1-.9-1.9-1.9-2.8-3-.5-.6-1-1.2-1.4-1.9-.3-.6-.7-1.2-1.1-1.8-.5-.7-.8-1.5-1.2-2.3-.5-.9-1.1-1.9-1.4-2.9-.3-1.1-.5-2.2-.7-3.2-.3-1.2-.4-2.3-.5-3.5-.1-1.3-.2-2.6-.1-3.9v-1.2c-.1-.7-.1-1.5-.1-2.2 0-.7.2-1.3.3-2 .2-1.6.7-3.3 1.1-4.9.3-1.3.7-2.6 1.1-3.9.1-.4.4-.9.6-1.3.6-1 1-2.1 1.5-3.2s1.3-1.9 1.9-2.9c.7-1 1.4-2 2-3 .7-1.1 1.6-1.9 2.5-2.8.4-.4.7-1 1.1-1.4.3-.4.8-.9 1.3-.8.7.1 1.2.5 1.5 1.1.1.1.1.3.1.4.1.3.2.6.5.6.3.1.4.4.2.8-.1.3-.3.5-.5.6-.7.5-1.1 1.2-1.6 1.9-1 1.4-1.9 2.8-2.9 4.1-.7 1-1.2 2-1.8 3.1-.5 1.1-1.1 2.1-1.7 3.2-.4.7-.8 1.5-1 2.2-.4 1.1-.9 2.2-1.2 3.4-.2.8-.3 1.6-.4 2.4-.2 1.3-.4 2.7-.5 4-.1.7 0 1.4 0 2.2 0 1.1 0 2.2.1 3.3.1 1 .3 2 .5 3 .3 1.4.8 2.8 1.3 4.2.3 1 .8 1.9 1.3 2.8.7 1.2 1.5 2.3 2.3 3.4 1.3 1.8 2.7 3.5 4.5 4.9 1 .8 2 1.5 3 2.3.1.1.2.2.3.1.4-.1.8.1 1.1.3.5.3.9.6 1.4 1 .4.4 1 .5 1.5.7 1.4.5 2.8 1 4.3 1.3 1.5.4 3.1.5 4.6.8 1.1.2 2.2.3 3.3.3.8 0 1.7.1 2.5 0 .4 0 .8.3.8.6s0 .5-.3.6c-.3.1-.5.2-.5.6-.1.8-.3 1.5-1.1 1.8.2.4-.2.6-.7.6zM20.9 42.1c-.1 0-.1.1-.1.1-.3.9-.5 1.8-.7 2.8-.3 1.3-.7 2.7-.8 4-.1 1.1-.4 2.1-.2 3.2v.7c0 .4.1.5.5.4.3-.1.2-.3.2-.5 0-1.4.2-2.8.4-4.1.1-.4 0-1 .4-1.3.4-.3.4-.7.5-1.1.1-.7.2-1.4.4-2 .1-.3.1-.6.2-.9 0-.2 0-.3-.3-.4-.4-.1-.5-.4-.4-.7-.1 0 0-.1-.1-.2zm5.6 29.6c-.4-.6-.8-1.1-1.1-1.6-1.2-1.7-2.2-3.5-2.8-5.4-.3-.8-.6-1.7-.9-2.5 0-.1-.1-.2-.3-.2-.2 0-.2.1-.2.3 0 .3 0 .6.2.9.4.9.9 1.9 1.3 2.8.8 1.6 1.7 3.1 2.7 4.6.3.4.6.8 1.1 1.1zm14 11.7c-.5-.3-1-.7-1.5-1-.1-.1-.3-.1-.4-.1-.3.1-.6.1-.8 0-.6-.4-1.3-.7-2-1-.6-.3-1.1-.6-1.7-.9 0 0 0 .1-.1.1 2 1.4 4.1 2.3 6.5 2.9zm4.3-.3c0 .1 0 .1.1.2.5.5 1.2.7 1.8 1.2.1.1.2 0 .2-.1 0-.3 0-.5.1-.8 0-.1 0-.2-.1-.2-.7 0-1.4-.2-2.1-.3zM21.1 41.3c.5-1 .9-2 1.2-3.1-.5 1-1 2-1.2 3.1zm9-14.2L30 27c-.2.2-.4.4-.6.7-.1.1 0 .2.1.3.1.1.2 0 .2-.1.1-.2.2-.5.4-.8zM27 74.3c0-.3 0-.5-.4-.5-.1 0-.2.1-.1.2.2.1.3.3.5.3z"/><path class="st0" d="M55.1 71.3c0 .4 0 .8-.2 1.1-.3.6-.8.9-1.4.7-1-.2-2-.4-2.9-.6-1.3-.2-2.4-.7-3.7-1-1-.3-2.1-.6-3.1-.9-.9-.2-1.7-.6-2.5-.9-.9-.5-1.8-.9-2.8-1.3-.9-.3-1.7-.7-2.5-1.1-.9-.5-1.6-1.2-2.2-1.9-.7-.8-1.4-1.7-2-2.6-.6-.9-1.1-1.8-1.6-2.7-.7-1.3-1-2.8-1.3-4.2-.3-1.5-.3-3.1-.3-4.6.1-1.7.2-3.4.5-5 .2-.9.3-1.9.7-2.8.3-.7.6-1.4.9-2 .4-.7.7-1.5 1-2.2.5-1.4 1.4-2.5 2.2-3.7.3-.5.6-.9.9-1.4.4-.9 1-1.8 1.5-2.7.2-.3.1-.6.3-.9.4-.4.8-.7 1.2-1 .9-.5 2.4.1 2.7 1 .1.3.2.7.3 1 .1.3 0 .6-.2.9-1.4 1.5-2.6 3.1-3.2 5.1-.4 1.1-1 2.2-1.5 3.2-.9 1.7-1.6 3.5-2.1 5.3-.4 1.5-.7 2.9-.8 4.4-.1.8 0 1.6.2 2.3.2.7.2 1.4.4 2.1.2.9.5 1.7.9 2.5.4.9.8 1.7 1.3 2.6.6 1 1.4 1.9 2.2 2.8.1.1.1.2.2.2.6.1.9.5 1.2.9.4.6 1.1.9 1.7 1.2 1.6.8 3.3 1.2 4.9 2 .8.3 1.6.5 2.4.7 1.2.3 2.4.7 3.6.9.5.1 1 .2 1.6.1.4-.1.6.2.6.6 0 .2 0 .4.3.4.1 0 .2.1.2.2.1.4.2.8.4 1.3zm-21-9.7c-.1.6-.3.9-.9.7-.3-.1-.1.2-.1.3.5.7 1.1 1.4 1.6 2 .6.7 1.3 1.3 2.2 1.7-1.1-1.4-2-3-2.8-4.7zm.3-21.2c.7-1.3 1.4-2.5 1.8-4-.8 1.3-1.5 2.5-1.8 4zm-4.6 11.2v2.1c0 .6.1 1.2.2 1.8 0 .1 0 .3.1.3.2 0 .2-.2.2-.3-.1-.9-.2-1.7-.3-2.6 0-.5.1-.9-.2-1.3zm3 5.8c-.3-.8-.5-1.6-.8-2.3 0-.1 0-.3-.2-.2-.1 0-.2.2-.2.3.1.9.5 1.7 1.2 2.2zm-2.7-9.9c.4-.8 1.1-3.7.9-4.2-.4 1.4-.7 2.8-.9 4.2zm13.5 21.7c-.8-.4-1.6-1-2.4-1.4-.2-.1-.2.1-.3.2-.1.2.1.2.2.2.5.2 1.1.4 1.6.7.2.2.6.3.9.3zm-4.1-2.6c.1 0 .1-.1 0 0-.4-.5-.8-1-1.3-1.4l-.1.1c.4.5.9.9 1.4 1.3zm-5.8-5.3s.1 0 .1-.1c-.2-.4-.1-1-.7-1.3.2.5.4.9.6 1.4zM69.7 57.9c-1.6 0-2.9.3-4.3.3-1.1 0-2.2 0-3.2-.4-.7-.3-1.4-.7-2-1.1-.4-.3-.8-.6-1.1-1-.5-.6-.5-1.8.1-2.3.9-.8 1.9-1.2 3.1-1.4 1-.2 2.1-.3 3.1-.4.7-.1 1.5-.2 2.2-.1.7 0 1.3-.1 2-.1.7.1 1.4.3 1.9.9.1.2.4.3.6.5.7.4 1 1.1 1.3 1.9.2.6.2 1.2-.1 1.8-.2.4-.4.7-.8.8-1.1.3-2 .6-2.8.6zm1.5-1.8c.7-.4.8-1.5.2-1.9-.1-.1-.2-.1-.2 0-.1.2-.2.4-.4.6-.1.1-.1.2 0 .3.2.3.3.6.4 1zm-10.1-2.2c.6-.2 1.3-.3 1.9-.4.4 0 .8-.1 1.2-.2.1 0 .2 0 .2-.2 0-.1-.2-.1-.2-.1-.7.1-1.5.2-2.2.4-.3.1-.6.2-.9.5z"/><path class="st2" d="M48.7 35.1c-.1.4.1.5.4.6.3.1.4.2.2.6-.7 1.4-1.4 2.7-2 4.1-.1.3-.3.5-.6.6-.3.1-.6.4-.6.7 0 1-.3 1.9-.7 2.8-.3.7-.6 1.5-.7 2.3 0 .2-.1.4.2.6.3.2.3.4.3.7-.2 1.2-.5 2.3-.8 3.4l-.3-1.2c-.1-.4-.2-.8-.8-.8-.2 0-.2-.1-.1-.2.2-.6.3-1.2.5-1.8.4-1 .7-2 1.1-2.9.5-1.2 1-2.5 1.5-3.7.4-1.1.9-2.3 1.5-3.4.1-.8.5-1.6.9-2.4zM53.5 35.8c-.2-.1-.3-.3-.5-.3-.2-.1-.1-.3 0-.4.4-1.3 1.1-2.4 1.8-3.5l2.1-3.3c.2-.3.3-.6.7-.6.3 0 .5-.3.7-.6.8-1.7 1.8-3.4 2.8-5 1.2-1.8 2.5-3.6 3.7-5.3 0-.1.1-.1.2-.1 0 .3-.3.6-.4.8-1.1 1.6-1.8 3.3-3 4.9-.6.9-1.3 1.8-1.9 2.8-.6 1-1.2 1.9-1.7 2.9-.4.7-.9 1.5-1.4 2.2L55.1 33c-.6.9-1.1 1.9-1.6 2.8zM54.4 62.4c-1.1-.2-2-.2-3-.6-1.2-.4-2.3-.8-3.5-1.2-1.1-.4-2-1.1-2.8-2l-.3-.3c-.3-.3-.7-.6 0-.9.3.4.6.8.9 1.1.2.2.4.4.8.3.6-.1.9.3 1.3.6.7.5 1.5.9 2.3 1.2 1.3.6 2.6.9 3.9 1.4l.4.4zM79.8 62.3c-.2.2-.2.4 0 .6.1.1.2.2.1.3 0 .1-.2.1-.3.1-2.1.3-4.2.5-6.3.4-.8 0-1.5 0-2.3-.1 2.9-.5 5.9-.2 8.8-1.3zM69.1 61c-.3.1-.7 0-1.1.1-1.1.1-2.1.2-3.2-.1-.2-.1-.4 0-.6.2-.1.1-.2.2-.3.2-.6 0-1.2.1-1.8.1-.8 0-1.4-.6-2.1-1 3 .1 6 .3 9.1.4v.1zM45.6 53.9c0 .4-.4 1 .3 1.2.9.3 1.2.1 1.5-.6.2.1.1.4.1.5.3.8.7 1.4 1.4 1.9.1.1.3.2.2.3-.2.1-.2.5-.6.3-.2-.1-.3-.2-.5-.4-.5-.5-1.1-.9-1.6-1.4-.2-.2-.5-.1-.7-.1-.2 0-.3-.1-.4-.3-.1-.2-.2-.4-.2-.6-.1-.3 0-.5.5-.8zM86.1 49.4c-.8-.9-1.6-1.8-2.2-2.9-.1-.2-.3-.6-.1-.8.2-.2.5 0 .7 0 .4 0 .6.3.7.6.3 1 .6 2 .9 3.1 0-.1 0-.1 0 0zM57.8 20.5c0 .3-.2.5-.4.8-.6 1.3-1.1 2.6-1.6 3.9-.1.3-.2.4-.4.1-.1-.1-.2-.1-.3-.1-.5 0-.4-.2-.2-.4.4-.6.9-1.2 1.3-1.8.5-.7 1-1.5 1.5-2.2-.1-.2 0-.3.1-.3zM56.1 60c1.2.4 2.3 1 3.4 1.5l.1.1c0 .1-.1.1-.1.1-.9 0-1.8.3-2.7-.2-.1 0-.2-.1-.1-.2.3-.5 0-.9-.4-1.2-.2.1-.3.1-.2-.1zM70.8 61.1c2.3 0 4.5-.6 6.7-.4-1.1.6-5.1.9-6.7.4zM47.5 48.7c.8-2.8 2-5.4 3.3-8-1 2.7-2.1 5.4-3.1 8.1-.1 0-.2-.1-.2-.1zM85.2 61.5c.9-1 2-1.7 2.9-2.9-.2 1.7-1.6 2.6-2.9 2.9zM69.5 63.5c-.1.1-.2.1-.3.1-.8 0-1.6-.1-2.3-.1-.3 0-.4-.3-.5-.4-.1-.1 0-.2.1-.1.8 0 1.6.1 2.4.2.2-.1.4.1.6.3zM82.5 58.2c.3-.4.7-.6 1.1-1 .4-.3.7-.6 1-1.1.1.6-.1 1.2 0 1.8-.9-.7-1.5 0-2.1.3zM89 56.4c-.3-.2-.3-.5-.2-.8.4-1.2.7-2.4.6-3.6v-.1c0-.1 0-.2.1-.3.5.5-.1 3.5-.5 4.8zM61 15.4c.5-1.1 1.1-2 1.6-3.1 0 .4-.2.7 0 1.1 0 0 0 .1-.1.2-.6.6-1.1 1.2-1.5 1.8zM81.6 44.2s.2 0 .2.1-.1.2-.1.2c-.5.2-.9.4-1.1 1 0 .1-.2.1-.2 0-.1-.2-.1-.4 0-.5.3-.5.6-.8 1.2-.8zM80.6 62c.4-.5.9-.8 1.4-1 .2-.1.5-.3.7-.4.1 0 .2-.1.2 0v.2c-.1.1-.2.3-.3.3-.7.3-1.3.6-2 .9zM71.4 3.3c-.1-.4-.6-.6-.6-1.1.5.3.6.6.6 1.1zM86.9 52.7c0 .4-.2.8-.4 1.3 0-.5.2-.9.4-1.3zM65 10.3c0-.3 0-.7.3-1 0 .4-.1.7-.3 1zM31 93.9c1.9.5 3.8 1 5.6 1.8.8.4 1.6.7 2.4 1.1.1 0 .3.1.2.2-.1.1-.2 0-.3 0-.9-.2-1.8-.6-2.7-.9-.7-.2-1.3-.5-1.9-.7-1.1-.4-2.2-.8-3.3-1.5zM11.3 61.9c-.2-.1-.3-.2-.4-.2-.6 0-.5-.4-.5-.7 0-1.4-.1-2.8 0-4.1 0-.1-.1-.3.1-.3s.2.2.3.3c.2.6.2 1.3.2 2 .1.9.2 1.8.3 2.6v.4zM14 34.9c.2-.5.4-1.1.6-1.6.6-1.2 1.3-2.4 1.9-3.7.5-1.2 1.1-2.4 1.7-3.6.4-.9.9-1.7 1.5-2.4.1 0 .1.1.1.1-1 1.5-1.6 3.2-2.5 4.8-.6 1.1-1.2 2.2-1.7 3.4-.3.8-.7 1.6-.9 2.5-.1.4-.3.6-.7.5zM16.2 77c.3.6.6 1 .8 1.5.7 1.2 1.5 2.3 2.4 3.4.1.1.4.3.2.4-.2.1-.5.3-.8 0-.4-.5-.7-1-1-1.5-.5-1.1-1-2.2-1.6-3.2 0-.2-.1-.3 0-.6zM13.2 37.3c-.7 2.4-.9 5-1.6 7.4-.3-.7.8-5.7 1.6-7.4zM25.3 88.3c2 1.3 4.1 2.6 6.2 3.8-.6 0-1-.3-1.5-.6-1-.5-2-1.2-3-1.8-.7-.3-1.2-.8-1.7-1.4zM12.6 71.1c0 .2-.2.3-.3.4-.1.1-.2-.1-.2-.2-.2-.5-.5-1-.6-1.5 0-.2.1-.3.3-.3.2 0 .3-.1.4.1.1.5.2 1 .4 1.5zM43.9 96.5c.5.1 1.1.2 1.6.3.5.1 1 .2 1.5.2s.6.3.7.7c-.4-.2-.8-.3-1.2-.5-.4-.2-.8-.3-1.2 0-.1 0-.2.1-.2 0-.4-.2-.8-.4-1.2-.7zM15.1 37.6c.6-1.6 1-3.4 1.9-4.9-.5 1.7-1.2 3.2-1.9 4.9zM21.3 86.5c.6.8 1.3 1.4 1.9 2 .2.2.5.4.6.8-.3-.3-.7-.6-1-.9-.5-.5-1-1.1-1.5-1.6 0 0-.1-.1 0-.3zM10.8 65.2c.4.7.5 1.4.2 2.1-.1-.7-.2-1.4-.2-2.1z"/><path class="st2" d="M21.3 86.5c-.1.1-.2 0-.3-.1-.6-.4-.9-1-1.4-1.5.4.2.7.6 1 .9.2.3.4.6.7.7zM15.9 80.2c-.3-.4-.5-.7-.4-1 .2.3.3.6.4.9v.1zM12.3 48.4c-.1-.4.1-.8.2-1.2.1.5-.1.8-.2 1.2zM22.4 20.9c.2 0 .4.1.5.2.1.1.1.2 0 .3-.1.1-.2-.1-.2-.2s-.2 0-.3-.3zM20.9 42.1c.1.1 0 .2 0 .3-.1.3 0 .6.4.7.3 0 .3.2.3.4-.1.3-.1.6-.2.9-.2.7-.2 1.4-.4 2-.1.4-.1.8-.5 1.1-.4.3-.3.8-.4 1.3-.2 1.4-.4 2.7-.4 4.1 0 .2 0 .4-.2.5-.4.1-.5 0-.5-.4v-.7c-.2-1.1.1-2.1.2-3.2.2-1.4.5-2.7.8-4 .2-.9.5-1.8.7-2.8.1-.1.1-.2.2-.2zM26.5 71.7c-.5-.3-.8-.7-1-1.1-1-1.5-1.8-3-2.7-4.6-.5-.9-.9-1.9-1.3-2.8-.1-.3-.1-.6-.2-.9 0-.2 0-.3.2-.3s.2.1.3.2c.3.8.6 1.7.9 2.5.7 2 1.6 3.7 2.8 5.4.2.5.6 1 1 1.6zM40.5 83.4c-2.3-.6-4.5-1.6-6.5-2.9 0 0 0-.1.1-.1.6.3 1.1.6 1.7.9.7.3 1.4.6 2 1 .2.1.5.1.8 0 .2 0 .3 0 .4.1.5.3 1 .7 1.5 1zM44.8 83.1c.7.1 1.4.3 2.1.3.1 0 .1.1.1.2-.1.3-.1.5-.1.8 0 .1-.1.2-.2.1-.6-.4-1.2-.7-1.8-1.2 0 0-.1-.1-.1-.2zM21.1 41.3c.2-1.1.7-2.1 1.2-3.1-.3 1.1-.7 2.1-1.2 3.1zM30.1 27.1c-.1.3-.3.5-.4.8-.1.1-.1.2-.2.1s-.2-.2-.1-.3c.2-.2.4-.5.6-.7 0 .1 0 .1.1.1zM27 74.3c-.2 0-.3-.2-.5-.3-.1-.1 0-.2.1-.2.4 0 .4.3.4.5zM34.1 61.6c.7 1.7 1.7 3.3 2.9 4.7-.9-.4-1.6-1-2.2-1.7-.6-.7-1.1-1.3-1.6-2-.1-.1-.2-.3.1-.3.5.1.7-.2.8-.7zM34.4 40.4c.3-1.5 1-2.7 1.8-4-.3 1.5-1.1 2.7-1.8 4zM29.8 51.6c.2.4.1.8.2 1.2.1.9.2 1.7.3 2.6 0 .2 0 .3-.2.3s-.1-.2-.1-.3c-.1-.6-.2-1.2-.2-1.8v-2zM32.8 57.4c-.7-.6-1.1-1.3-1.1-2.2 0-.1 0-.3.2-.3s.1.1.2.2c.2.8.4 1.6.7 2.3zM30.1 47.5c.2-1.4.5-2.8.9-4.2.2.5-.5 3.4-.9 4.2zM43.6 69.2c-.4 0-.7-.1-1-.3-.5-.3-1.1-.5-1.6-.7-.1 0-.3-.1-.2-.2.1-.1.1-.3.4-.2.8.5 1.6 1 2.4 1.4zM39.5 66.6c-.5-.4-1-.8-1.4-1.3l.1-.1c.5.4 1 .9 1.3 1.4.1-.1.1 0 0 0zM33.7 61.3c-.2-.4-.4-.8-.6-1.3.6.3.5.9.7 1.3 0-.1 0-.1-.1 0zM71.2 56.1c0-.4-.1-.7-.4-1-.1-.1-.1-.2 0-.3.2-.2.3-.3.4-.6 0-.1.1-.1.2 0 .5.4.5 1.5-.2 1.9zM61.1 53.9c.2-.3.6-.3.9-.4.7-.2 1.5-.2 2.2-.4.1 0 .2-.1.2.1 0 .1-.1.1-.2.2-.4.1-.8.1-1.2.2-.6-.1-1.2.1-1.9.3z"/></svg>