<?xml version="1.0" encoding="utf-8"?>
<!-- Generator: Adobe Illustrator 19.2.1, SVG Export Plug-In . SVG Version: 6.00 Build 0)  -->
<svg version="1.1" id="Layer_1" xmlns="http://www.w3.org/2000/svg" xmlns:xlink="http://www.w3.org/1999/xlink" x="0px" y="0px"
	 viewBox="0 0 366.7 87.9" style="enable-background:new 0 0 366.7 87.9;" xml:space="preserve">
<style type="text/css">
	.st0{fill:none;}
	.st1{fill-rule:evenodd;clip-rule:evenodd;}
	.st2{fill-rule:evenodd;clip-rule:evenodd;fill:none;}
</style>
<g>
	<path class="st0" d="M93.3,64.1c0.2-0.7,0.5-1.3,0.7-2c0.6-1.4,1.1-2.8,1.6-4.3c0.4-1.5,1.2-2.8,1.2-4.4c0-1.1,0.3-2.2,0.2-3.3
		c-0.1-4.1-0.5-8.1-1.4-12c-0.7-3.3-2.3-6.2-4.4-8.9c-0.1-0.2-0.3-0.4-0.4-0.5c-2-2.8-4.8-4.7-8-5.8C77.3,20.9,71.7,20.6,66,22
		c-3.8,0.9-7.5,2-11.1,3.6c-1.9,0.8-3.7,2-5.5,3c-1.6,0.9-3.2,2-4.7,3.1c-1.6,1.1-3.4,1.8-4.9,3.1c-0.3,0.3-0.6,0.5-0.9,0.7
		c-0.4,0.4-0.6,0.2-0.8-0.1c-0.2-0.3-0.5-0.7-0.7-1c-0.6-0.9-1.1-1.9-1.7-2.8c-2.3-3.9-5.2-7.5-7.5-11.4c-0.2-0.4-0.5-0.5-1-0.4
		c-0.7,0.2-1.3,0.5-1.8,1c-0.3,0.3-0.6,0.5-1,0.7c-0.6,0.2-1,0.7-0.8,1.4c0,0.2,0,0.3,0,0.5c-0.4,1.7-0.7,3.4-1.2,5
		c-0.3,1.1-0.6,2.2-0.6,3.4c0,1-0.1,2-0.3,3c-0.6,2.7-1.2,5.4-1.2,8.2c0,1.9-0.2,3.7-0.8,5.5c-0.4,1.2-0.6,2.5-0.9,3.7
		c-0.1,0.6-0.3,1.2-0.2,1.8c0.1,0.5,0.1,1.1,0,1.6c-0.4,1.3-0.2,2.7-0.7,3.9c-0.2,0.6,0.1,1,0.8,1.1c0.2,0,0.4,0.1,0.6,0
		c0.7-0.3,1.3-0.1,2,0c0.8,0.1,1.6,0.2,2.4,0.2c0.5,0,0.9,0,1.3,0.1c0.9,0.2,1.9,0.4,2.7,0.8c0.8,0.5,1.8,0.3,2.7,0.5
		c1.7,0.3,3.4,0.7,5.1,1c2.3,0.4,4.6,0.8,7,0.8c1.2,0,2.5-0.1,3.7,0.2c1.4,0.3,2.7,0.5,4.1,0.7c0.8,0.1,1.5,0.2,2.2-0.2
		c0.1-0.1,0.3-0.1,0.5,0c0.8,0.1,1.5,0,2.3,0.3c0.5,0.2,1.2-0.2,1.4-0.6c0.1-0.3,0.2-0.5-0.2-0.7c-0.5-0.2-0.8-0.6-1.1-1
		c-0.6-0.8-1.1-1.7-1.7-2.6c-1.4-2.2-2.7-4.3-3.9-6.6c-0.6-1.2-1.3-2.4-2.1-3.5c-0.2-0.4-0.2-0.7,0.1-1c0.5-0.4,0.9-0.8,1.4-1.1
		c0.7-0.4,1.4-0.9,2.1-1.4c1.3-1,2.5-2,4-2.7c1.3-0.6,2.6-1.2,3.9-1.8c3.5-1.5,7.1-1.6,10.6-0.4c2.7,0.9,4.7,2.6,5.5,5.4
		c0.8,2.6,1.1,5.3,0.6,8c-0.4,2.4-1.4,4.5-2.9,6.3c-0.6,0.8-1.2,1.7-2.3,1.8c-0.2,0-0.4,0.2-0.4,0.4c0.1,0.6-0.4,0.8-0.6,1.2
		c-0.2,0.3-0.3,0.5,0,0.8"/>
	<path class="st1" d="M65.2,71.8c-0.3-0.3-0.3-0.5,0-0.8c0.3-0.4,0.7-0.6,0.6-1.2c0-0.2,0.2-0.4,0.4-0.4c1.1-0.1,1.7-1.1,2.3-1.8
		c1.5-1.8,2.5-3.9,2.9-6.3c0.5-2.7,0.3-5.4-0.6-8c-0.9-2.8-2.8-4.5-5.5-5.4c-3.6-1.2-7.1-1.2-10.6,0.4c-1.3,0.6-2.6,1.2-3.9,1.8
		c-1.5,0.7-2.7,1.7-4,2.7c-0.7,0.5-1.4,1-2.1,1.4c-0.5,0.3-1,0.7-1.4,1.1c-0.4,0.3-0.4,0.6-0.1,1c0.7,1.2,1.4,2.3,2.1,3.5
		c1.2,2.3,2.5,4.4,3.9,6.6c0.5,0.9,1.1,1.7,1.7,2.6c0.3,0.4,0.6,0.8,1.1,1c0.4,0.2,0.3,0.4,0.2,0.7c-0.2,0.4-0.9,0.8-1.4,0.6
		c-0.7-0.3-1.5-0.1-2.3-0.3c-0.2,0-0.3,0-0.5,0c-0.7,0.4-1.5,0.2-2.2,0.2c-1.4-0.1-2.8-0.4-4.1-0.7c-1.2-0.3-2.5-0.2-3.7-0.2
		c-2.4,0-4.7-0.4-7-0.8c-1.7-0.3-3.4-0.7-5.1-1c-0.9-0.2-1.9,0-2.7-0.5c-0.9-0.5-1.8-0.7-2.7-0.8c-0.4-0.1-0.9-0.1-1.3-0.1
		c-0.8,0-1.6-0.1-2.4-0.2c-0.6-0.1-1.3-0.3-2,0c-0.2,0.1-0.4,0-0.6,0c-0.7-0.1-1-0.5-0.8-1.1c0.4-1.3,0.3-2.7,0.7-3.9
		c0.2-0.5,0.1-1.1,0-1.6c-0.1-0.6,0-1.2,0.2-1.8c0.3-1.2,0.6-2.5,0.9-3.7c0.5-1.8,0.8-3.6,0.8-5.5c-0.1-2.8,0.5-5.5,1.2-8.2
		c0.2-1,0.4-2,0.3-3c0-1.2,0.2-2.3,0.6-3.4c0.5-1.6,0.8-3.3,1.2-5c0-0.2,0-0.3,0-0.5c-0.1-0.7,0.3-1.2,0.8-1.4
		c0.4-0.2,0.7-0.4,1-0.7c0.5-0.5,1.1-0.8,1.8-1c0.4-0.1,0.7,0,1,0.4c2.4,3.9,5.2,7.5,7.5,11.4c0.6,0.9,1.1,1.9,1.7,2.8
		c0.2,0.4,0.5,0.7,0.7,1c0.2,0.4,0.5,0.5,0.8,0.1c0.3-0.3,0.6-0.5,0.9-0.7c1.5-1.3,3.3-2,4.9-3.1c1.5-1.1,3.1-2.1,4.7-3.1
		c1.8-1,3.6-2.2,5.5-3c3.6-1.6,7.3-2.7,11.1-3.6c5.7-1.3,11.3-1.1,16.8,0.9c3.2,1.1,6,3,8,5.8c0.1,0.2,0.3,0.4,0.4,0.5
		c2,2.7,3.6,5.5,4.4,8.9c0.9,4,1.3,8,1.4,12c0,1.1-0.2,2.2-0.2,3.3c0,1.6-0.7,2.9-1.2,4.4c-0.4,1.5-1,2.9-1.6,4.3
		c-0.3,0.7-0.5,1.3-0.7,2 M34,59.1c-0.1-0.2,0-0.5-0.3-0.5c0,0-0.1,0.1-0.1,0.1C33.6,58.9,33.8,59,34,59.1C34,59.1,34,59.1,34,59.1
		c0.2,0.5,0.3,0.7,0.8,1C34.5,59.8,34.3,59.4,34,59.1z M57.2,27.2c0.6,0,1.1-0.2,1.6-0.6c0.8,0,1.4-0.4,2-0.7
		c-0.8,0.1-1.4,0.3-2,0.8C58.2,26.6,57.7,26.9,57.2,27.2c-0.2,0.1-0.5,0-0.6,0.4C56.9,27.6,57.1,27.5,57.2,27.2z M78.5,42.6
		c-0.7-0.2-1.1-1-1.9-1.1c0.5,0.3,0.9,0.7,1.4,1.1C78.2,42.6,78.3,42.6,78.5,42.6c0.4,0.5,0.9,1,1.6,1.2C79.5,43.4,79,43,78.5,42.6z
		 M27.8,62.4c0.1-0.1,0.1-0.2,0.1-0.2c-0.1-0.1-0.1-0.3-0.2-0.2c0,0,0,0.2,0,0.3C27.6,62.3,27.7,62.4,27.8,62.4
		c0.1,0.9,0.6,1.6,1,2.4c0.2-0.2,0.2-0.4,0.1-0.5c-0.2-0.5-0.5-0.9-0.6-1.5C28.2,62.6,28,62.5,27.8,62.4z M73.1,30.7L73.1,30.7
		c0.1,0.5,0.4,0.6,0.9,0.6c0.7-0.1,1.3-0.4,1.8-0.9c-0.5,0.1-0.7-0.4-1.1-0.5c-1.2-0.2-2.3-0.5-3.5-0.6c-0.4,0-0.6,0-0.9,0.3
		c-0.5,0.5-1,0.9-1.6,1.2c-0.1,0.1-0.2,0.2-0.1,0.4c0.7-0.2,1.5,0.1,2-0.7c0.2-0.3,0.5-0.3,0.8-0.2C72,30.5,72.5,30.5,73.1,30.7z
		 M46,39.1c1-0.3,1.7-0.6,2.3-1c1.5-0.9,2.8-2.1,4.5-2.9c0.4-0.2,0.7-0.5,1-0.8c0.1-0.1,0.3-0.3,0.1-0.4c-0.4-0.4-0.2-0.8,0.2-1.2
		c-0.3,0.1-0.4,0.1-0.4,0.1c-1.9,1.2-3.8,2.4-5.6,3.8C47.3,37.3,46.6,38,46,39.1z M69.2,36.4c-1.7-0.3-3.4-0.2-5,0.3
		c-0.3,0.1-0.6,0.2-0.5,0.6c0.1,0.4,0.2,0.8,0.8,0.8c0.4,0,0.8,0,1.2,0.1c0.6,0.2,1.1,0,1.6-0.2c0.6-0.3,1.2-0.7,1.7-1
		C69,36.9,69.2,36.7,69.2,36.4z M56.1,40.1c-0.4-0.3-0.6-0.1-0.9,0c-1.9,0.8-3.7,1.8-5.5,2.8c-0.7,0.4-1.2,0.9-1.7,1.5
		c-0.4,0.5-0.2,0.8,0.4,0.9c0.2,0,0.3,0,0.5,0c0.6-0.2,1-0.5,1.4-1c0.7-0.8,1.5-1.6,2.4-2.1C53.8,41.5,54.6,40.4,56.1,40.1z
		 M75.9,32.3c1.1,0,1.9,0.3,2.3,1.3c0.2,0.6,0.5,0.5,0.8-0.1c0.3-0.6,1.2-0.9,1.8-0.6c0.4,0.2,0.7,0.5,1.1,0.8
		c-0.1-0.4-0.2-0.7-0.6-0.8c-1-0.4-1.9-1.1-2.8-1.8c-0.3-0.3-0.7-0.5-1-0.8C77.2,31.1,76.6,31.6,75.9,32.3z M83.7,51
		c0.3-0.4,0.4-0.8,0.3-1.1c-0.2-0.9,0-1.9-0.1-2.8c0-0.5-0.1-1-0.2-1.5c0-0.2,0-0.3-0.2-0.4c-0.5-0.3-1-0.6-1.5-0.9
		c-0.2-0.1-0.4,0-0.6,0.1c-0.2,0.1-0.1,0.3,0,0.4c0.2,0.2,0.1,0.4,0,0.5c-0.5,0.5-0.2,0.8,0.3,1.1c0.3,0.2,0.5,0.6,0.9,0.6
		c0.2,0,0.2,0.2,0.3,0.4C83.2,48.6,83.5,49.7,83.7,51z M83.1,54.8c-0.3,3.2-0.4,6.3,1.3,9.2c0.2-0.7-0.2-1.5,0.1-2.2
		c0-0.1-0.1-0.2-0.1-0.3c-0.3-0.9-0.7-1.7-0.6-2.7C83.8,57.5,83.4,56.2,83.1,54.8z M35.5,50.3c0.4-0.1,0.6-0.3,0.7-0.5
		c1.4-1.8,3.1-3.3,4.7-5c0.8-0.9,1.7-1.8,2.5-2.7c0.4-0.4,0.7-0.8,1.3-0.7c0.2,0,0.4,0,0.4-0.2c0-0.2-0.2-0.3-0.4-0.4
		c-0.3-0.1-0.5,0.1-0.6,0.3c-0.7,0.7-1.4,1.3-2.2,2c-1.8,1.7-3.5,3.4-5.3,5.2C36.2,48.7,35.8,49.4,35.5,50.3z M36.3,70.9
		c-1.2-1.3-3.4-2.2-5-2c1.1,0.6,2.1,1.4,3,2.1c0.2,0.2,0.4,0.2,0.7,0.2C35.4,71.1,35.8,71,36.3,70.9z M18,39.9
		c0.5,1.7,1.4,3.7,2.1,4.6C20.6,43.2,19.6,41,18,39.9z M66.3,34.3c-1.8-0.4-3.3-0.3-4.9,0.6C62.7,35.4,65.4,35.1,66.3,34.3z
		 M59.4,28.9c1.2-0.4,2.5-0.3,3.6-0.6c0.2-0.1,0.3-0.2,0.5-0.2c0.1-0.1,0.3-0.1,0.3-0.3c0-0.1-0.2-0.2-0.3-0.3
		c-0.2-0.1-0.4-0.1-0.6-0.1c-1,0.2-2,0.5-3,0.9C59.7,28.4,59.4,28.4,59.4,28.9z M64.3,43.6c-0.1-0.1,0.1-0.5-0.2-0.6
		c-0.6-0.2-1.2-0.4-1.8-0.1c-0.6,0.3-1.1,0.7-1.7,1c0,0,0,0.1,0,0.1C61.9,43.8,63.1,43.7,64.3,43.6z M41,63.3
		c-0.4-0.6-0.8-1.3-1.5-1.3c-0.8,0-1.4-0.5-2-0.9c-0.2-0.1-0.3-0.4-0.5-0.2c0.2,0.9,0.6,1.4,1.5,1.6c0.5,0.1,1,0.3,1.4,0.5
		C40.3,63,40.5,63.4,41,63.3z M29.5,51.8c0.1-0.6,0.1-0.9,0.4-1.2c0.1-0.1,0.1-0.2,0-0.3c-0.3-0.3-0.5-0.7-0.9-1
		c-0.3-0.2-0.7-0.3-1.1,0C28.4,50.2,28.7,51,29.5,51.8z M33.5,62.3c0.2,0.9,0.7,1.7,0.9,2.5c0.1,0.4,0.5,0.5,0.9,0.2
		c0.4-0.2,0.2-0.4,0.1-0.7C35,63.4,34.1,63,33.5,62.3z M87.7,45.2c-0.5,0.9-0.6,1.8-1,2.7c-0.1,0.2,0.4,0.7,0.8,0.7
		c0.4,0,0.4-0.3,0.4-0.5c0-0.6,0.1-1.2,0-1.8C87.8,45.9,88.1,45.6,87.7,45.2z M45.4,69.1c1.4,0.8,2.5,1,3.3,0.6
		C48,69,46.7,68.7,45.4,69.1z M83.8,40.8c0.1,0.5,0.3,1,0.5,1.3c0.1,0.1,0.2,0.3,0.4,0.3c0.9,0,0.9,0.5,0.8,1.1
		c0,0.1-0.1,0.4,0.1,0.5c0.3-0.6,0.4-1.2-0.1-1.7C85.1,41.8,84.5,41.4,83.8,40.8z M69.3,72.2c-0.7-0.5-1.4-0.8-2.4-1.2 M78.4,49.7
		c0.5,0.8,1,1.3,1.7,1.7c0.1-0.8-0.3-1.5,0-2.2C79.1,50,79.1,50,78.4,49.7z M78.1,54.4c-0.3,1-0.7,2,0.5,2.7
		c0.1,0.1,0.1,0.4,0.4,0.4C78.7,56.4,78.7,55.3,78.1,54.4z M38.1,65.7c-0.5,1-0.4,1.1,0.5,1.3c0.4,0.1,0.8,0.3,1.3,0.2
		C39.3,66.7,38.8,66.2,38.1,65.7z M41.8,71.7c0.9,0.1,2.5,0,3.1-0.3c-0.9-0.5-1.8-0.2-2.6-0.2C42,71.3,41.9,71.5,41.8,71.7z
		 M43.4,53.5c1-1,2-2,2.8-3.2C45.1,51,43.8,52.6,43.4,53.5z M41.8,67.7c0.1,0.1,0.3,0.3,0.5,0.3c0.2,0,0.4,0,0.5-0.2
		c0.1-0.2-0.1-0.4-0.2-0.5c-0.3-0.3-0.7-0.5-1.1-0.8c-0.1-0.1-0.3-0.2-0.4-0.1c-0.2,0.2,0,0.3,0.1,0.5
		C41.3,67.3,41.6,67.5,41.8,67.7z M25.1,71.5c-0.1-0.1-0.1-0.2-0.2-0.3c-0.2-0.2-0.4-0.4-0.6-0.6c-0.1-0.1-0.3-0.3-0.5-0.2
		c-0.2,0.1-0.2,0.4-0.2,0.6c0.1,0.5,0.3,0.7,0.8,0.7C24.6,71.6,24.8,71.7,25.1,71.5z M22.8,48.9c-0.4,0.3-0.6,0.5-0.4,0.9
		c0.3,0.6,0.6,1.2,1.1,1.7C23.3,50.7,23.1,49.9,22.8,48.9z M21.1,56.5c0.2,0.8,0.5,1.3,1.2,1.9C22.2,57.5,22.1,56.7,21.1,56.5z
		 M19.6,47.5c-0.4-1-0.5-2.1-1.3-3.1C18.4,45.6,19.1,46.5,19.6,47.5z M86.4,62.6c0.4-0.9,0.2-1.5,0.2-2.2c0-0.1-0.1-0.2-0.2-0.2
		c-0.1,0-0.2,0-0.2,0.1C86,60.5,86,60.7,86,60.9C86.1,61.4,86.2,61.9,86.4,62.6z M68.7,34.9c0.3,0.3,0.6,0.4,0.8,0.2
		c0.4-0.2,0.2-0.8,0.7-1.2C69.4,34,69,34.5,68.7,34.9z M65.6,27c-0.3-0.1-0.6,0-0.9,0.1c-0.3,0.1-0.3,0.5-0.2,0.7
		c0.1,0.3,0.4,0.1,0.6,0C65.4,27.6,65.5,27.4,65.6,27z M40.9,72c-0.5-0.7-1.1-0.5-1.5-0.4c-0.2,0-0.3,0.1-0.3,0.3
		c0,0.2,0.2,0.2,0.4,0.2C39.8,72,40.3,72,40.9,72z M59.2,43.1c-0.5,0.1-1.1,0.2-1.5,0.5c-0.1,0.1-0.1,0.2-0.1,0.3
		c0,0.1,0.1,0.2,0.3,0.2C58.1,44.1,58.9,43.5,59.2,43.1z M21,38.9c0.2,0.7,0.7,1,1,1.4c0.1,0.1,0.2,0.1,0.2,0c0.1-0.1,0.1-0.2,0-0.2
		C22,39.6,21.6,39.3,21,38.9z M48.7,50.7c0.5-0.4,1.2-0.5,1.6-1.4C49.5,49.7,48.9,50,48.7,50.7z M84.6,55.9c0.1-0.6,0.1-1.2,0-1.9
		c0-0.1-0.1-0.2-0.2-0.2c-0.1,0-0.2,0.1-0.2,0.2C84.5,54.6,84.3,55.3,84.6,55.9z M28.3,57.4c0.2,0.8,0.2,0.9,0.9,1.5
		C29,58.3,28.8,57.9,28.3,57.4z M32,55.3c0.1,0,0.1-0.1,0.2-0.1c-0.3-0.6-0.7-1-1.3-1.3C31.3,54.4,31.7,54.8,32,55.3z M61.5,32.1
		c0-0.1,0-0.1,0-0.2c-0.5,0-1,0.1-1.5,0.5C60.6,32.3,61,32.2,61.5,32.1z M66.8,40c-0.7-0.2-1.2,0-1.6,0.3
		C65.8,40.4,66.3,40.4,66.8,40z M17.4,36.8c0-0.3,0.2-0.6,0.1-0.9c0,0-0.1-0.1-0.2,0C17,36,17,36.4,16.9,36.7c0,0,0,0.1,0.1,0.2
		C17.1,36.9,17.3,37,17.4,36.8z M33.2,51.8c0.1,0.4,0.3,0.6,0.6,0.9c0.1,0.1,0.2,0.1,0.3,0c0.1-0.1,0-0.2-0.1-0.3
		C33.7,52.2,33.5,52,33.2,51.8z M86.7,57.5c-0.2,0.5-0.4,0.9-0.6,1.4C86.4,58.5,86.7,58.1,86.7,57.5z M57.3,31
		c0.1,0,0.3-0.1,0.4-0.1c0.2,0,0.2-0.2,0.2-0.3c0-0.1,0-0.1-0.1-0.2c-0.2-0.2-0.3,0-0.4,0.1C57.4,30.6,57.1,30.6,57.3,31z
		 M85.8,50.4c0.4-0.3,0.3-0.6,0.3-1.1C85.7,49.6,85.6,49.9,85.8,50.4z M25.9,72.9c-0.8-0.2-0.8-0.2-1.3,0.1
		C25.1,73,25.5,72.9,25.9,72.9z M69.6,31.9c0.3,0,0.6,0.2,0.8-0.1c0,0,0-0.1-0.1-0.2C70.1,31.5,69.8,31.6,69.6,31.9z M77.9,60.8
		c0,0-0.1,0-0.1,0c0,0.1-0.1,0.2-0.1,0.4c0,0.1,0,0.3,0.1,0.3c0.2,0,0.2-0.2,0.2-0.3C78,61,77.9,60.9,77.9,60.8z M79.6,60.1
		c-0.1,0.3-0.2,0.6,0.2,0.8C79.8,60.6,79.7,60.3,79.6,60.1z M72.5,48.1c0-0.3,0-0.7-0.5-0.8C72,47.8,72.2,48,72.5,48.1z M53.5,36.8
		c-0.4-0.1-0.6,0.1-0.7,0.4C53.2,37.3,53.3,37,53.5,36.8z M73.5,64.9c0-0.2,0-0.4,0-0.6c0-0.1-0.2-0.1-0.2,0
		c-0.1,0.1-0.3,0.3-0.1,0.5C73.1,64.9,73.3,64.9,73.5,64.9z M36.3,65.6c-0.2-0.2-0.3-0.2-0.4,0c-0.1,0.1-0.1,0.2,0,0.2
		c0.2,0.1,0.3,0.3,0.5,0.1C36.4,65.9,36.4,65.7,36.3,65.6z M29.3,71.4c-0.3-0.2-0.5-0.3-0.7,0C28.9,71.6,29.1,71.6,29.3,71.4z
		 M19,65.4c0.1-0.2,0.1-0.3,0-0.5c0-0.1-0.1-0.1-0.2-0.1c-0.2,0.1-0.1,0.3-0.1,0.5C18.8,65.4,18.9,65.4,19,65.4z M23.8,55
		c-0.1,0.3-0.1,0.5,0.1,0.7C24.2,55.4,24.2,55.2,23.8,55z M26.8,57.9c-0.1-0.2-0.1-0.4-0.3-0.5C26.6,57.6,26.6,57.8,26.8,57.9z
		 M79.5,59.3c-0.1-0.2,0.1-0.5-0.3-0.6C79.2,58.9,79.3,59.1,79.5,59.3z M68.8,40.2c-0.1,0.2-0.3,0.4-0.2,0.6c0,0,0.1,0.1,0.2,0.1
		C68.9,40.7,68.8,40.5,68.8,40.2z M24.7,64.3c0.1,0,0.2,0.1,0.2,0c0.1-0.1,0-0.2,0-0.3c-0.1-0.1-0.1-0.1-0.2,0
		C24.5,64.1,24.6,64.2,24.7,64.3z M17.6,52.9c-0.1,0.3-0.1,0.4,0.1,0.6C17.7,53.2,17.8,53.1,17.6,52.9z M46.1,71.5
		c0.3-0.1,0.3-0.2,0.3-0.2c-0.1-0.1-0.2-0.1-0.3,0c-0.1,0.1-0.1,0.2-0.1,0.2C46,71.5,46.2,71.5,46.1,71.5z"/>
	<path class="st2" d="M50.5,32.8c0.6-1.1,1.3-1.8,2.1-2.4c1.8-1.4,3.7-2.5,5.6-3.8c0.1,0,0.2-0.1,0.4-0.1c-0.3,0.5-0.6,0.8-0.2,1.2
		c0.1,0.1,0,0.3-0.1,0.4c-0.3,0.3-0.6,0.7-1,0.8c-1.6,0.7-3,1.9-4.5,2.9C52.1,32.2,51.5,32.6,50.5,32.8z"/>
	<path class="st2" d="M73.7,30.2c0,0.3-0.1,0.5-0.3,0.6c-0.6,0.4-1.1,0.7-1.7,1c-0.5,0.3-1,0.4-1.6,0.2c-0.4-0.1-0.8-0.1-1.2-0.1
		c-0.6,0-0.7-0.4-0.8-0.8c-0.1-0.4,0.2-0.5,0.5-0.6C70.3,29.9,72,29.9,73.7,30.2z"/>
	<path class="st2" d="M60.6,33.8c-1.5,0.3-2.3,1.4-3.5,2.1c-1,0.5-1.7,1.3-2.4,2.1c-0.4,0.4-0.8,0.8-1.4,1C53.2,39,53,39,52.9,39
		c-0.6-0.1-0.8-0.4-0.4-0.9c0.5-0.6,1.1-1.1,1.7-1.5c1.8-1,3.6-2,5.5-2.8C60,33.7,60.2,33.5,60.6,33.8z"/>
	<path class="st2" d="M80.4,26.1c0.7-0.8,1.3-1.3,1.6-2.1c0.4,0.3,0.7,0.6,1,0.8c0.9,0.7,1.7,1.4,2.8,1.8c0.4,0.2,0.5,0.4,0.6,0.8
		c-0.4-0.3-0.7-0.5-1.1-0.8c-0.6-0.4-1.5-0.1-1.8,0.6c-0.3,0.6-0.5,0.7-0.8,0.1C82.3,26.4,81.5,26.1,80.4,26.1z"/>
	<path class="st2" d="M88.2,44.8c-0.2-1.3-0.5-2.4-0.7-3.5c0-0.2-0.1-0.4-0.3-0.4c-0.5,0-0.6-0.4-0.9-0.6c-0.5-0.3-0.8-0.5-0.3-1.1
		c0.1-0.1,0.2-0.3,0-0.5c-0.1-0.1-0.2-0.2,0-0.4c0.2-0.1,0.4-0.3,0.6-0.1c0.5,0.3,1,0.6,1.5,0.9c0.2,0.1,0.2,0.3,0.2,0.4
		c0.1,0.5,0.2,1,0.2,1.5c0,0.9-0.2,1.9,0.1,2.8C88.6,44,88.5,44.3,88.2,44.8z"/>
	<path class="st2" d="M77.6,24.4c-0.5-0.1-1.1-0.2-1.6-0.4c-0.3-0.1-0.6-0.1-0.8,0.2c-0.5,0.8-1.3,0.5-2,0.7c-0.1-0.2,0-0.3,0.1-0.4
		c0.6-0.3,1.1-0.7,1.6-1.2c0.2-0.2,0.5-0.3,0.9-0.3c1.2,0.1,2.3,0.4,3.5,0.6c0.4,0.1,0.6,0.6,1.1,0.5c-0.5,0.5-1.1,0.8-1.8,0.9
		C78,25.1,77.6,25,77.6,24.4c0.2,0.1,0.5,0,0.7-0.1C78,24.2,77.7,24.2,77.6,24.4z"/>
	<path class="st2" d="M87.6,48.6c0.2,1.3,0.7,2.7,0.7,4c0,1,0.3,1.9,0.6,2.7c0,0.1,0.1,0.2,0.1,0.3c-0.3,0.7,0.1,1.4-0.1,2.2
		C87.2,54.9,87.3,51.7,87.6,48.6z"/>
	<path class="st2" d="M40,44c0.3-0.9,0.7-1.5,1.2-2c1.7-1.7,3.5-3.4,5.3-5.2c0.7-0.7,1.4-1.3,2.2-2c0.2-0.2,0.3-0.4,0.6-0.3
		c0.2,0.1,0.4,0.1,0.4,0.4c0,0.2-0.2,0.2-0.4,0.2c-0.6-0.1-1,0.3-1.3,0.7c-0.8,0.9-1.7,1.8-2.5,2.7c-1.5,1.7-3.3,3.2-4.7,5
		C40.6,43.7,40.5,43.9,40,44z"/>
	<path class="st2" d="M40.8,64.7c-0.5,0.1-0.9,0.2-1.2,0.2c-0.3,0.1-0.5,0-0.7-0.2c-0.9-0.7-1.9-1.5-3-2.1
		C37.4,62.5,39.7,63.4,40.8,64.7z"/>
	<path class="st2" d="M22.5,33.6c1.6,1.1,2.6,3.3,2.1,4.6C23.9,37.3,23,35.4,22.5,33.6z"/>
	<path class="st2" d="M70.8,28.1c-0.9,0.7-3.7,1.1-4.9,0.6C67.5,27.8,69.1,27.6,70.8,28.1z"/>
	<path class="st2" d="M63.9,22.7c0-0.5,0.3-0.5,0.5-0.6c1-0.4,2-0.7,3-0.9c0.2,0,0.4-0.1,0.6,0.1c0.1,0.1,0.2,0.2,0.3,0.3
		c0.1,0.2-0.1,0.3-0.3,0.3c-0.2,0.1-0.3,0.2-0.5,0.2C66.3,22.4,65.1,22.3,63.9,22.7z"/>
	<path class="st2" d="M68.8,37.3c-1.2,0.1-2.4,0.3-3.6,0.4c0,0,0-0.1,0-0.1c0.6-0.3,1.1-0.7,1.7-1c0.6-0.3,1.2-0.1,1.8,0.1
		C68.9,36.8,68.7,37.2,68.8,37.3z"/>
	<path class="st2" d="M45.5,57c-0.5,0.1-0.7-0.2-1.1-0.4c-0.5-0.2-0.9-0.4-1.4-0.5c-0.9-0.2-1.4-0.7-1.5-1.6
		c0.3-0.1,0.4,0.1,0.5,0.2c0.6,0.4,1.2,0.9,2,0.9C44.7,55.8,45.1,56.5,45.5,57z"/>
	<path class="st2" d="M34,45.6c-0.8-0.8-1.2-1.6-1.6-2.4c0.4-0.3,0.8-0.2,1.1,0c0.4,0.2,0.6,0.6,0.9,1c0,0,0,0.2,0,0.3
		C34.2,44.6,34.1,45,34,45.6z"/>
	<path class="st2" d="M38,56c0.6,0.7,1.5,1.2,1.9,2c0.1,0.3,0.3,0.5-0.1,0.7C39.4,59,39,59,38.9,58.6C38.6,57.7,38.2,56.9,38,56z"/>
	<path class="st2" d="M92.2,39c0.4,0.4,0,0.7,0.1,1c0.1,0.6,0,1.2,0,1.8c0,0.3,0,0.5-0.4,0.5c-0.4,0-0.9-0.5-0.8-0.7
		C91.6,40.8,91.7,39.8,92.2,39z"/>
	<path class="st2" d="M49.9,62.8c1.3-0.3,2.7-0.1,3.3,0.6C52.3,63.8,51.3,63.6,49.9,62.8z"/>
	<path class="st2" d="M88.3,34.6c0.7,0.6,1.2,1,1.7,1.5c0.5,0.5,0.4,1.1,0.1,1.7C90,37.7,90,37.4,90,37.3c0.1-0.6,0-1.2-0.8-1.1
		c-0.1,0-0.3-0.2-0.4-0.3C88.7,35.5,88.5,35.1,88.3,34.6z"/>
	<path class="st2" d="M71.5,64.7c1,0.4,1.7,0.7,2.4,1.2"/>
	<path class="st2" d="M82.9,43.4c0.7,0.3,0.7,0.3,1.7-0.5c-0.3,0.8,0.1,1.4,0,2.2C83.8,44.7,83.4,44.2,82.9,43.4z"/>
	<path class="st2" d="M82.6,48.1c0.6,1,0.6,2,0.9,3.1c-0.3,0-0.3-0.3-0.4-0.4C81.9,50.1,82.3,49.1,82.6,48.1z"/>
	<path class="st2" d="M42.6,59.4c0.6,0.5,1.2,1,1.8,1.5c-0.5,0.1-0.9-0.1-1.3-0.2C42.2,60.6,42.1,60.4,42.6,59.4z"/>
	<path class="st2" d="M46.3,65.5c0-0.3,0.2-0.5,0.5-0.5c0.9,0,1.7-0.3,2.6,0.2C48.9,65.5,47.3,65.6,46.3,65.5z"/>
	<path class="st2" d="M47.9,47.2c0.3-0.9,1.7-2.5,2.8-3.2C49.9,45.3,49,46.2,47.9,47.2z"/>
	<path class="st2" d="M46.3,61.5c-0.2-0.2-0.5-0.4-0.6-0.7c-0.1-0.2-0.3-0.3-0.1-0.5c0.1-0.1,0.3,0,0.4,0.1c0.4,0.3,0.7,0.5,1.1,0.8
		c0.1,0.1,0.3,0.3,0.2,0.5c-0.1,0.2-0.3,0.2-0.5,0.2C46.5,61.8,46.4,61.6,46.3,61.5z"/>
	<path class="st2" d="M29.6,65.3c-0.2,0.2-0.4,0.1-0.6,0.1c-0.6,0-0.8-0.2-0.8-0.7c0-0.2,0-0.5,0.2-0.6c0.2-0.1,0.3,0.1,0.5,0.2
		c0.2,0.2,0.4,0.4,0.6,0.6C29.5,65,29.5,65.1,29.6,65.3z"/>
	<path class="st2" d="M27.3,42.7c0.3,0.9,0.5,1.8,0.8,2.6c-0.5-0.5-0.9-1.1-1.1-1.7C26.7,43.2,26.9,42.9,27.3,42.7z"/>
	<path class="st2" d="M25.6,50.2c1.1,0.2,1.1,1.1,1.2,1.9C26.1,51.5,25.7,51,25.6,50.2z"/>
	<path class="st2" d="M24.1,41.2c-0.5-1-1.2-1.8-1.3-3.1C23.6,39.1,23.7,40.2,24.1,41.2z"/>
	<path class="st2" d="M90.9,56.4c-0.1-0.7-0.2-1.2-0.3-1.8c0-0.2,0-0.4,0.1-0.5c0.1-0.1,0.2-0.1,0.2-0.1c0.1,0,0.2,0.1,0.2,0.2
		C91.1,54.8,91.3,55.5,90.9,56.4z"/>
	<path class="st2" d="M32.3,56.2c0.2,0.1,0.4,0.2,0.5,0.4c0.1,0.5,0.4,1,0.6,1.5c0.1,0.1,0.1,0.3-0.1,0.5
		C32.8,57.8,32.3,57.1,32.3,56.2L32.3,56.2z"/>
	<path class="st2" d="M73.2,28.6c0.4-0.4,0.7-0.9,1.5-0.9c-0.5,0.4-0.3,0.9-0.7,1.2C73.7,29,73.4,28.9,73.2,28.6z"/>
	<path class="st2" d="M70.1,20.7c-0.1,0.4-0.2,0.7-0.5,0.8c-0.2,0.1-0.5,0.2-0.6,0c-0.1-0.2-0.1-0.6,0.2-0.7
		C69.5,20.7,69.8,20.6,70.1,20.7z"/>
	<path class="st2" d="M45.4,65.7c-0.6,0-1.1,0-1.5,0c-0.1,0-0.3,0-0.4-0.2c0-0.2,0.2-0.3,0.3-0.3C44.4,65.2,44.9,65.1,45.4,65.7z"/>
	<path class="st2" d="M63.7,36.9c-0.3,0.4-1.1,1-1.3,1c-0.2,0-0.2-0.1-0.3-0.2c-0.1-0.1,0-0.2,0.1-0.3
		C62.6,37.1,63.1,36.9,63.7,36.9z"/>
	<path class="st2" d="M25.5,32.7c0.6,0.3,1,0.7,1.3,1.1c0.1,0.1,0.1,0.2,0,0.2c-0.1,0.1-0.2,0.1-0.2,0
		C26.2,33.6,25.7,33.4,25.5,32.7z"/>
	<path class="st2" d="M53.2,44.4c0.2-0.7,0.8-1,1.6-1.4C54.4,43.9,53.7,44.1,53.2,44.4z"/>
	<path class="st2" d="M89.1,49.7c-0.4-0.6-0.2-1.3-0.4-1.9c0-0.1,0.1-0.2,0.2-0.2c0.1,0,0.1,0.1,0.2,0.2
		C89.2,48.4,89.2,49,89.1,49.7z"/>
	<path class="st2" d="M63.3,20.4c0.6-0.4,1.3-0.7,2-0.8C64.7,20,64.1,20.4,63.3,20.4L63.3,20.4z"/>
	<path class="st2" d="M32.8,51.2c0.5,0.4,0.7,0.8,0.9,1.5C33.1,52.1,33,52,32.8,51.2z"/>
	<path class="st2" d="M36.5,49.1c-0.4-0.5-0.8-1-1.1-1.4c0.6,0.3,1,0.8,1.3,1.3C36.7,49,36.6,49,36.5,49.1z"/>
	<path class="st2" d="M83,36.3c-0.2,0-0.3,0.1-0.5-0.1c-0.5-0.3-0.9-0.8-1.4-1.1C81.9,35.3,82.3,36.1,83,36.3L83,36.3z"/>
	<path class="st2" d="M66,25.9c-0.5,0.1-1,0.2-1.5,0.3c0.4-0.4,0.9-0.6,1.5-0.5C66,25.7,66,25.8,66,25.9z"/>
	<path class="st2" d="M71.3,33.7c-0.5,0.4-1.1,0.4-1.6,0.3C70.2,33.7,70.6,33.5,71.3,33.7z"/>
	<path class="st2" d="M21.9,30.6c-0.2,0.1-0.3,0.1-0.4,0c0,0-0.1-0.1-0.1-0.2c0.1-0.3,0.1-0.6,0.4-0.8c0,0,0.2,0,0.2,0
		C22.2,30,21.9,30.3,21.9,30.6z"/>
	<path class="st2" d="M37.7,45.6c0.3,0.2,0.6,0.4,0.8,0.6c0.1,0.1,0.2,0.2,0.1,0.3c-0.1,0.1-0.2,0.1-0.3,0
		C38,46.2,37.7,46,37.7,45.6z"/>
	<path class="st2" d="M83,36.3c0.5,0.4,1,0.8,1.6,1.2C83.9,37.4,83.4,36.9,83,36.3L83,36.3z"/>
	<path class="st2" d="M91.2,51.3c0,0.6-0.2,1-0.6,1.4C90.7,52.2,90.9,51.7,91.2,51.3z"/>
	<path class="st2" d="M61.8,24.7c-0.2-0.4,0.1-0.4,0.2-0.5c0.1-0.1,0.2-0.3,0.4-0.1c0,0,0.1,0.1,0.1,0.2c0,0.2,0,0.3-0.2,0.3
		C62,24.6,61.9,24.7,61.8,24.7z"/>
	<path class="st2" d="M61.7,21c0.5-0.3,1-0.6,1.6-0.6l0,0C62.8,20.8,62.3,21,61.7,21L61.7,21z"/>
	<path class="st2" d="M90.3,44.1c-0.2-0.4-0.1-0.7,0.3-1.1C90.7,43.5,90.8,43.8,90.3,44.1z"/>
	<path class="st2" d="M30.4,66.7c-0.4,0-0.8,0-1.3,0.1C29.6,66.5,29.6,66.5,30.4,66.7z"/>
	<path class="st2" d="M38.5,52.9c0.3,0.3,0.5,0.6,0.8,1C38.8,53.6,38.7,53.4,38.5,52.9L38.5,52.9z"/>
	<path class="st2" d="M74.1,25.6c0.2-0.3,0.5-0.4,0.8-0.3c0,0,0.1,0.1,0.1,0.2C74.7,25.9,74.4,25.6,74.1,25.6z"/>
	<path class="st2" d="M82.4,54.6c0,0.1,0.1,0.2,0.1,0.3c0,0.1,0.1,0.4-0.2,0.3c-0.1,0-0.2-0.2-0.1-0.3c0-0.1,0-0.2,0.1-0.4
		C82.3,54.6,82.3,54.6,82.4,54.6z"/>
	<path class="st2" d="M84.1,53.9c0.1,0.2,0.1,0.5,0.2,0.8C83.9,54.4,84,54.1,84.1,53.9z"/>
	<path class="st2" d="M77,41.9c-0.3-0.2-0.5-0.3-0.5-0.8C76.9,41.2,77,41.6,77,41.9z"/>
	<path class="st2" d="M58,30.5c-0.1,0.3-0.3,0.5-0.7,0.4C57.4,30.6,57.6,30.5,58,30.5z"/>
	<path class="st2" d="M78,58.7c-0.2,0-0.3,0-0.4-0.1c-0.2-0.2,0-0.3,0.1-0.5c0.1-0.1,0.2-0.1,0.2,0C78,58.2,78,58.4,78,58.7z"/>
	<path class="st2" d="M40.8,59.4c0,0.1,0.1,0.3,0.1,0.3c-0.2,0.2-0.3-0.1-0.5-0.1c-0.1,0-0.1-0.1,0-0.2
		C40.5,59.2,40.7,59.2,40.8,59.4z"/>
	<path class="st2" d="M33.8,65.2c-0.2,0.2-0.4,0.1-0.7,0C33.4,64.9,33.6,65,33.8,65.2z"/>
	<path class="st2" d="M23.5,59.1c-0.1,0.1-0.2,0-0.2-0.1c-0.1-0.2-0.1-0.4,0.1-0.5c0.1,0,0.1,0,0.2,0.1C23.6,58.8,23.7,59,23.5,59.1
		z"/>
	<path class="st2" d="M38.5,52.9C38.5,52.9,38.5,52.9,38.5,52.9c-0.2-0.1-0.4-0.2-0.5-0.4c0,0,0.1-0.1,0.1-0.1
		C38.5,52.4,38.4,52.7,38.5,52.9C38.5,52.9,38.5,52.9,38.5,52.9z"/>
	<path class="st2" d="M28.3,48.7c0.4,0.3,0.4,0.5,0.1,0.7C28.2,49.2,28.2,49,28.3,48.7z"/>
	<path class="st2" d="M31.3,51.7c-0.2-0.1-0.3-0.3-0.3-0.5C31.3,51.2,31.3,51.4,31.3,51.7z"/>
	<path class="st2" d="M84,53c-0.3-0.1-0.3-0.3-0.3-0.6C84.1,52.5,83.9,52.9,84,53z"/>
	<path class="st2" d="M73.3,33.9c0,0.3,0.1,0.5-0.1,0.6c0,0-0.1,0-0.2-0.1C73,34.3,73.2,34.2,73.3,33.9z"/>
	<path class="st2" d="M61.7,21c-0.1,0.2-0.3,0.4-0.6,0.4C61.2,21,61.5,21.1,61.7,21C61.7,21,61.7,21,61.7,21z"/>
	<path class="st2" d="M29.2,58.1c-0.1-0.1-0.1-0.2-0.1-0.3c0.1-0.1,0.2-0.1,0.2,0c0.1,0.1,0.1,0.2,0,0.3
		C29.3,58.1,29.2,58.1,29.2,58.1z"/>
	<path class="st2" d="M32.3,56.2c-0.1-0.1-0.2-0.1-0.2-0.2c0-0.1,0-0.2,0-0.3c0.2-0.1,0.2,0.1,0.2,0.2C32.4,56,32.4,56.1,32.3,56.2
		L32.3,56.2z"/>
	<path class="st2" d="M22.1,46.6c0.2,0.2,0.1,0.4,0.1,0.6C22,47,22,46.9,22.1,46.6z"/>
	<path class="st2" d="M50.6,65.2c0.1,0,0,0-0.1,0c-0.1,0,0-0.2,0.1-0.2c0.1-0.1,0.2-0.1,0.3,0C50.9,65.1,50.9,65.1,50.6,65.2z"/>
	<path class="st1" d="M77.6,24.4c0.2-0.2,0.4-0.2,0.7-0.1C78,24.4,77.8,24.6,77.6,24.4L77.6,24.4z"/>
</g>
</svg>
