<?xml version="1.0" encoding="utf-8"?>
<!-- Generator: Adobe Illustrator 19.2.1, SVG Export Plug-In . SVG Version: 6.00 Build 0)  -->
<svg version="1.1" id="Layer_1" xmlns="http://www.w3.org/2000/svg" xmlns:xlink="http://www.w3.org/1999/xlink" x="0px" y="0px"
	 viewBox="0 0 71.8 49.9" style="enable-background:new 0 0 71.8 49.9;" xml:space="preserve">
<style type="text/css">
	.st0{fill:none;}
	.st1{fill-rule:evenodd;clip-rule:evenodd;}
	.st2{fill-rule:evenodd;clip-rule:evenodd;fill:none;}
</style>
<g>
	<path class="st0" d="M9.7,41.5c-0.4,0-1.2,0-2-0.2c-0.7-0.1-0.9-0.5-0.9-1.2c0.1-1,0.2-2.1,0.3-3.1c0.1-1.2,0.2-2.3,0.4-3.5
		c0.2-1.6,0.7-3.2,1.2-4.8c0.4-1.2,0.8-2.3,1.4-3.3c0.1-0.2,0.2-0.3,0.5-0.1c0.8,0.6,1.4,1.3,2,2.1c0.7,1,1.9,0.9,2.4,0.3
		c0.4-0.5,0.9-0.8,1.4-1.2c0.6-0.5,0.6-1.2,0-1.5c-0.6-0.3-1-0.8-1.5-1.3c-0.6-0.6-1.3-1.2-1.9-1.8c-0.2-0.2-0.3-0.3-0.1-0.5
		c0.3-0.4,0.7-0.8,1.1-1.2c0.6-0.7,1.3-1.3,2-2c0.9-0.9,1.9-1.6,2.9-2.4c0.7-0.5,1.5-1,2.1-1.5c0.9-0.7,1.9-1.2,2.8-1.9
		c1-0.7,2.1-1.2,3.2-1.7c1.2-0.6,2.5-1.2,3.8-1.6c0.3-0.1,0.6-0.2,0.9-0.3c0.7-0.2,1.5-0.5,2.2-0.7c0.1,0,0.2-0.1,0.2,0.1
		c0.1,1.1,0.4,2.1,0.5,3.1c0,0.5,0.1,1-0.1,1.5c-0.1,0.2-0.1,0.4,0.1,0.6c0.4,0.5,1.3,0.6,1.8,0.3c0.2-0.1,0.4-0.2,0.6-0.2
		c0.5,0,0.9,0.2,1.4,0.2c0.6,0.1,0.8-0.1,0.9-0.6c0.1-0.5,0-1,0-1.5c0.1-1.3,0-2.5,0-3.8c0-0.9,0-1,0.9-1c0.8,0,1.6-0.1,2.4,0.2
		c0.5,0.2,1,0.3,1.4,0.3c1.4,0.1,2.8,0.3,4.2,0.7c1.1,0.3,2.1,0.7,3.1,1.2c0.9,0.5,1.7,1,2.6,1.5c0.6,0.4,1.3,0.7,1.8,1.3
		c0.4,0.6,1,1.1,1.6,1.6c0.4,0.4,1,0.7,1.3,1.2c0.8,1.3,1.6,2.7,2.1,4.2c0.7,1.9,1,3.8,1.3,5.8c0,0.2-0.1,0.2-0.3,0.3
		c-1.7,0.5-3.4,1-5.1,1.4c-0.9,0.2-1.6,0.6-1.8,1.6c-0.1,0.2,0,0.4,0,0.6c0.2,0.6,0.6,1.1,0.7,1.8c0,0.3,0.3,0.6,0.5,0.8
		c0.5,0.4,0.8,0.4,1.4,0c0.2-0.1,0.3-0.3,0.5-0.4c1.2-0.3,2.3-0.5,3.5-0.8c0.7-0.2,0.8-0.2,0.7,0.6c-0.1,1,0,2-0.1,3
		c0,1.1-0.3,2.2-0.4,3.4c-0.1,1-0.2,2-0.3,3c-0.1,0.5-0.5,1-0.2,1.5c0,0.1-0.1,0.1-0.1,0.2c-0.6,0.2-1.3,0.4-1.9,0.4
		c-2.1,0.1-4.1,0.5-6.2,0.6c-0.6,0-1.3,0.1-2,0.2c-1.2,0-2.4-0.2-3.6-0.5c-0.1,0-0.3,0-0.4-0.2c-0.2-0.3-0.5-0.5-0.9-0.6
		c-0.4-0.1-0.7,0-1,0.2c-0.3,0.2-0.3,0.6-0.1,0.9c0.2,0.3,0.2,0.7,0.3,1c0.1,0.3,0.2,0.7-0.1,1c-0.1,0.1-0.1,0.4,0,0.5
		c0.1,0.2,0.1,0.3,0.1,0.5c-0.1,0.8-0.1,1.6-0.2,2.4c-0.1,0.9,0.5,1.3,1.3,1.2c0.3-0.1,0.6-0.1,0.9-0.1c1.4-0.1,2.9,0,4.4-0.1
		c1.5-0.1,3-0.2,4.5-0.2c0.7,0,1.3-0.1,2-0.1c0.7,0,1.4-0.1,2.1-0.2c1.5-0.2,3-0.3,4.5-0.3c1.1,0,2.2-0.2,3.3-0.1
		c0.8,0.1,1.6-0.3,2.4-0.4c0.4-0.1,0.6-0.3,0.6-0.7c0.1-1.4,0.4-2.7,0.5-4c0-1.7,0-3.5,0.1-5.2c0.1-1.8,0-3.6-0.3-5.3
		c-0.1-1.2-0.2-2.4-0.3-3.7c-0.1-1.6-0.2-3.2-0.5-4.8c-0.2-1.1-0.5-2.2-0.7-3.3c-0.3-1.6-0.8-3.1-1.3-4.6c-0.5-1.3-1.1-2.5-1.7-3.7
		c-0.6-1.1-1.1-2.2-1.7-3.3c-0.7-1.2-1.6-2.2-2.7-3.1c-1-0.8-2-1.5-3.1-2.1c-0.8-0.4-1.5-0.8-2.3-1.1c-1.1-0.5-2.2-1-3.4-1.2
		c-1.7-0.3-3.3-0.9-4.9-1.2c-1.4-0.3-2.9-0.5-4.3-0.6c-0.9,0-1.8,0-2.6,0c-1.1,0-2.2,0.1-3.4,0.2c-1,0-2,0.1-3,0.3
		c-1.7,0.2-3.3,0.6-4.9,1C29.3,1.7,28.1,2,27,2.2c-1.5,0.3-2.9,0.7-4.4,1.2c-2.2,0.7-4.3,1.5-6.3,2.8c-1.6,1-3.1,2.1-4.5,3.4
		C9.8,11.5,8,13.7,6.4,16c-0.5,0.7-1,1.3-1.4,2c-0.9,1.5-1.7,3.1-2.4,4.7c-0.4,0.9-0.8,1.8-1.1,2.8c-0.3,1.2-0.7,2.3-0.9,3.5
		c-0.2,1-0.5,2-0.6,3.1c-0.1,1,0,1.9,0,2.9c0.1,1.3,0.2,2.7,0.3,4c0.1,1.2,0.4,2.3,0.6,3.4c0.1,0.7,0.2,1.4,0.3,2.1
		c0.2,1.4,0.5,2.7,0.4,4.1c0,0.3,0.4,0.9,0.7,0.8c0.4-0.1,0.7,0.1,1.1,0.2c0.3,0.1,0.6,0.1,0.8-0.1c0.5-0.3,1.1-0.4,1.7-0.4
		c0.4,0,0.8-0.2,1.1-0.1c0.7,0.1,1.3,0,2,0c0.8-0.1,1.6-0.3,2.4-0.4c1-0.2,2.1-0.2,3.1-0.4c1.5-0.2,2.9-0.2,4.4-0.4
		c1.4-0.1,2.7-0.2,4.1,0c1.4,0.2,2.9,0,4.3,0.5c0.4,0.2,0.9,0,1.2-0.4c0.2-0.3,0.3-0.6,0.1-0.9c-0.2-0.4-0.3-0.7-0.3-1.1
		c0-0.7,0-1.5,0.2-2.2c0.1-0.4,0.2-0.7,0.2-1.1c0-0.7-0.5-1.1-1.2-0.9c-0.3,0.1-0.5,0.2-0.7,0.3c-0.6,0.2-1.2,0-1.9,0
		c-0.8,0-1.5-0.1-2.2-0.4c-0.8-0.2-1.5-0.4-2.3-0.4c-1.5,0-3,0-4.6,0C14.1,41.4,12.1,41.5,9.7,41.5z M42.3,42
		c-0.1-0.9-0.3-2.4-1-3.7c-0.9-1.6-2.1-2.5-4-2.4c-0.3,0-0.5-0.1-0.6-0.4c-0.2-0.8-0.7-1.5-1-2.3c-0.6-1.5-1.3-2.8-1.9-4.2
		c-0.4-0.9-0.9-1.8-1.3-2.7c-0.6-1.4-1.2-2.8-1.8-4.2c-0.4-0.9-0.8-1.8-1.2-2.8c-0.4-1-0.9-1.9-1.4-2.8c-0.2-0.3-0.3-0.7-0.2-1.1
		c0.1-0.5-0.5-1.3-1.1-1c-0.5,0.2-1,0-1.3-0.3c-0.1-0.1-0.2-0.2-0.4-0.3c-0.4-0.3-0.7-0.3-1.2,0c-0.5,0.4-0.6,0.9-0.7,1.5
		c-0.2,0.8-0.3,1.7-0.6,2.5c-0.2,0.6-0.2,1.2,0.1,1.8c0.3,0.4,0.5,0.9,0.8,1.3c1.2,1.9,2.2,3.8,3.2,5.7c1.1,2.2,1.9,4.6,3,6.8
		c0.5,1.1,1,2.3,1.5,3.4c0.3,0.8,0.7,1.5,1.1,2.3c0.2,0.3,0.2,0.6-0.1,0.9c-0.3,0.4-0.6,0.8-0.8,1.2c-0.3,0.8-0.3,1.6,0,2.4
		c0.5,1.5,1.5,2.6,2.6,3.6c1.1,0.9,3.6,0.9,4.9-0.1c0.5-0.3,0.9-0.6,1.3-1C41.6,45.4,42.4,44.2,42.3,42z"/>
	<path class="st1" d="M9.7,41.5c2.4,0,4.3-0.2,6.3-0.2c1.5,0,3,0,4.6,0c0.8,0,1.6,0.1,2.3,0.4c0.7,0.2,1.5,0.3,2.2,0.4
		c0.6,0,1.2,0.2,1.9,0c0.3-0.1,0.5-0.2,0.7-0.3c0.7-0.2,1.2,0.2,1.2,0.9c0,0.4-0.1,0.8-0.2,1.1c-0.2,0.7-0.2,1.4-0.2,2.2
		c0,0.4,0.1,0.8,0.3,1.1c0.1,0.3,0.1,0.7-0.1,0.9c-0.3,0.4-0.8,0.5-1.2,0.4c-1.4-0.5-2.9-0.3-4.3-0.5c-1.4-0.2-2.7-0.1-4.1,0
		c-1.5,0.1-2.9,0.2-4.4,0.4c-1,0.1-2.1,0.2-3.1,0.4c-0.8,0.1-1.6,0.4-2.4,0.4c-0.7,0.1-1.3,0.1-2,0c-0.4,0-0.8,0.1-1.1,0.1
		c-0.6,0-1.2,0.1-1.7,0.4c-0.3,0.1-0.5,0.2-0.8,0.1c-0.3-0.1-0.7-0.3-1.1-0.2c-0.3,0.1-0.7-0.5-0.7-0.8c0.1-1.4-0.3-2.8-0.4-4.1
		C1.2,44,1.1,43.3,1,42.5c-0.2-1.1-0.4-2.3-0.6-3.4c-0.1-1.3-0.2-2.7-0.3-4c-0.1-1-0.1-1.9,0-2.9c0.1-1,0.3-2.1,0.6-3.1
		c0.3-1.2,0.6-2.4,0.9-3.5c0.3-1,0.7-1.9,1.1-2.8c0.7-1.6,1.5-3.2,2.4-4.7c0.4-0.7,0.9-1.4,1.4-2c1.6-2.3,3.4-4.5,5.5-6.4
		c1.4-1.3,2.9-2.4,4.5-3.4c1.9-1.3,4.1-2.1,6.3-2.8C24,2.9,25.5,2.5,27,2.2c1.2-0.2,2.3-0.5,3.5-0.8c1.6-0.4,3.3-0.7,4.9-1
		c1-0.1,2-0.3,3-0.3c1.1,0,2.2-0.2,3.4-0.2c0.9,0,1.8,0,2.6,0c1.5,0.1,2.9,0.3,4.3,0.6c1.7,0.3,3.3,0.9,4.9,1.2
		c1.2,0.2,2.3,0.8,3.4,1.2c0.8,0.3,1.6,0.7,2.3,1.1c1.1,0.6,2.1,1.3,3.1,2.1c1.1,0.9,2,1.9,2.7,3.1c0.6,1.1,1.2,2.2,1.7,3.3
		c0.6,1.2,1.3,2.4,1.7,3.7c0.5,1.5,1,3,1.3,4.6c0.2,1.1,0.5,2.2,0.7,3.3c0.3,1.6,0.4,3.2,0.5,4.8c0.1,1.2,0.2,2.5,0.3,3.7
		c0.2,1.8,0.4,3.6,0.3,5.3c-0.1,1.8-0.1,3.5-0.1,5.2c0,1.4-0.4,2.7-0.5,4c0,0.3-0.2,0.6-0.6,0.7c-0.8,0.2-1.6,0.5-2.4,0.4
		c-1.1-0.1-2.2,0.1-3.3,0.1c-1.5,0-3,0.2-4.5,0.3c-0.7,0.1-1.4,0.2-2.1,0.2c-0.7,0-1.3,0.1-2,0.1c-1.5,0-3,0.1-4.5,0.2
		c-1.5,0.1-2.9,0-4.4,0.1c-0.3,0-0.6,0-0.9,0.1c-0.9,0.2-1.4-0.3-1.3-1.2c0.1-0.8,0.1-1.6,0.2-2.4c0-0.2,0-0.3-0.1-0.5
		c-0.1-0.1-0.1-0.4,0-0.5c0.3-0.3,0.2-0.6,0.1-1c-0.1-0.3-0.1-0.7-0.3-1c-0.2-0.3-0.1-0.6,0.1-0.9c0.3-0.3,0.6-0.3,1-0.2
		c0.3,0.1,0.7,0.2,0.9,0.6c0.1,0.1,0.3,0.2,0.4,0.2c1.2,0.3,2.4,0.5,3.6,0.5c0.7,0,1.3-0.1,2-0.2c2.1-0.1,4.1-0.5,6.2-0.6
		c0.7,0,1.3-0.2,1.9-0.4c0.1,0,0.2-0.1,0.1-0.2c-0.3-0.6,0.2-1,0.2-1.5c0.1-1,0.2-2,0.3-3c0.1-1.1,0.4-2.2,0.4-3.4c0-1,0-2,0.1-3
		c0-0.7,0-0.8-0.7-0.6c-1.2,0.3-2.3,0.5-3.5,0.8c-0.2,0.1-0.4,0.3-0.5,0.4c-0.5,0.4-0.8,0.5-1.4,0c-0.3-0.2-0.5-0.5-0.5-0.8
		c-0.1-0.7-0.4-1.2-0.7-1.8c-0.1-0.2-0.1-0.4,0-0.6c0.2-1,1-1.4,1.8-1.6c1.7-0.5,3.4-0.9,5.1-1.4c0.2,0,0.3,0,0.3-0.3
		c-0.3-2-0.6-3.9-1.3-5.8c-0.6-1.5-1.3-2.8-2.1-4.2c-0.3-0.5-0.8-0.8-1.3-1.2c-0.6-0.5-1.1-1-1.6-1.6c-0.5-0.6-1.2-0.9-1.8-1.3
		c-0.9-0.5-1.7-1.1-2.6-1.5c-1-0.5-2-0.9-3.1-1.2c-1.4-0.4-2.8-0.5-4.2-0.7c-0.5,0-1-0.2-1.4-0.3c-0.8-0.3-1.6-0.3-2.4-0.2
		c-0.9,0-0.9,0.1-0.9,1c0,1.3,0.1,2.5,0,3.8c0,0.5,0.1,1,0,1.5c-0.1,0.5-0.4,0.6-0.9,0.6c-0.5,0-0.9-0.2-1.4-0.2
		c-0.2,0-0.4,0-0.6,0.2c-0.5,0.3-1.4,0.2-1.8-0.3c-0.1-0.2-0.1-0.4-0.1-0.6c0.2-0.5,0.1-1,0.1-1.5c0-1.1-0.4-2.1-0.5-3.1
		c0-0.2-0.1-0.1-0.2-0.1c-0.7,0.2-1.5,0.5-2.2,0.7c-0.3,0.1-0.6,0.2-0.9,0.3c-1.3,0.4-2.5,1-3.8,1.6c-1.1,0.5-2.2,1-3.2,1.7
		c-0.9,0.6-1.9,1.2-2.8,1.9c-0.7,0.5-1.4,1-2.1,1.5c-1,0.8-2,1.5-2.9,2.4c-0.7,0.7-1.4,1.3-2,2c-0.3,0.4-0.7,0.8-1.1,1.2
		c-0.2,0.3-0.1,0.3,0.1,0.5c0.6,0.6,1.3,1.2,1.9,1.8c0.5,0.5,0.9,0.9,1.5,1.3c0.6,0.4,0.7,1.1,0,1.5c-0.5,0.4-1,0.7-1.4,1.2
		c-0.5,0.6-1.7,0.7-2.4-0.3c-0.6-0.8-1.2-1.5-2-2.1c-0.3-0.2-0.4-0.1-0.5,0.1c-0.6,1.1-1,2.2-1.4,3.3c-0.5,1.6-0.9,3.2-1.2,4.8
		c-0.2,1.2-0.3,2.3-0.4,3.5c-0.1,1-0.2,2.1-0.3,3.1c0,0.7,0.2,1,0.9,1.2C8.5,41.5,9.3,41.5,9.7,41.5z M11.2,15.1
		c0.2,0.1,0.3,0.1,0.4,0c0.8-0.4,1.6-0.6,2.3-1.1c2.5-1.7,5-3.2,7.6-4.6c0.2-0.1,0.4-0.2,0.5-0.4c-0.2-0.1-0.3,0-0.5,0
		c-0.4,0.1-0.8,0.1-1.2,0c-0.1,0-0.2,0-0.3,0c-1.2,0.6-2.5,0.9-3.5,1.8C14.7,12.2,12.9,13.5,11.2,15.1z M24.3,10.1
		c0,0.2,0.1,0.3,0.2,0.2c0.5-0.2,1-0.5,1.4-0.7c2.4-1.1,4.9-2,7.5-2.8c0.2-0.1,0.5-0.1,0.6-0.3c0.3-0.5,0.8-0.7,1.4-0.4
		c0.2,0.1,0.3,0,0.4-0.1C36,6,36,5.9,36,5.8c-0.1-0.2-0.2-0.1-0.4-0.1c-1.5,0.3-3,0.8-4.5,1.1c-1.5,0.4-2.9,0.8-4.4,1.2
		c-1,0.3-2,0.7-2.9,1c-0.1,0-0.2,0-0.2,0.2c0,0.1,0.1,0.1,0.2,0.1C24.2,9.5,24.4,9.7,24.3,10.1z M64.1,10.8
		C64.1,10.9,64.1,10.9,64.1,10.8c-0.1,0.4-0.5,0.5-0.7,0.7c-0.1,0,0,0.2,0,0.2c0.7,1.3,1.3,2.7,2,4c0.6,1.2,1.4,2.4,2,3.6
		c0.1,0.1,0.1,0.2,0.3,0.2c0.1-0.1,0.1-0.2,0-0.3c-0.4-1.5-0.9-2.9-1.6-4.3c-0.7-1.3-1.3-2.6-2-4C64.3,11,64.3,10.9,64.1,10.8z
		 M13.1,47C13.1,47,13.1,47,13.1,47c-0.4-0.1-0.9-0.2-1.3-0.3c-1.2-0.3-2.4-0.5-3.6-0.5c-0.8,0-1.6,0-2.3,0.5
		c-0.3,0.2-0.6,0.4-1,0.3c-0.2,0-0.4,0-0.5,0c-0.1,0-0.2,0-0.2,0.1c-0.1,0.1,0,0.1,0.1,0.2c0.4,0.4,0.9,0.4,1.4,0.4
		c0.4,0,0.8,0,1.2-0.1c0.7-0.1,1.5,0.1,2.2,0c0.5,0,1-0.2,1.5-0.3C11.4,47.2,12.3,47.1,13.1,47z M55.1,47.7
		c-0.3-0.2-0.6-0.1-0.9-0.2c-0.7-0.2-1.5-0.4-2.2-0.5c-0.8-0.1-1.7-0.2-2.5-0.5c-0.5-0.2-1-0.5-1.6-0.3c-0.3,0.1-0.6,0-0.5,0.5
		c0,0.1,0,0.2-0.1,0.3c-0.4,0.7-0.3,0.9,0.5,1c1.6,0.1,3.3,0.1,4.9,0C53.4,47.8,54.3,47.7,55.1,47.7z M56.1,44.1
		c0.1,0.1,0.1,0.1,0.2,0.1c0.8,0,1.6,0.2,2.4,0.3c0.3,0,0.6,0.2,1,0.1c0.3-0.1,0.7-0.1,1-0.1c0.2,0,0.4,0.1,0.4,0.2
		c0.1,0.5,0.4,0.5,0.7,0.4c0.2,0,0.5,0,0.7,0c0.3,0,0.6,0.1,0.9-0.1c-0.6-0.2-0.6-0.6-0.5-1.1c0-0.3,0.1-0.6,0-1
		c-0.2,0.2-0.4,0.3-0.7,0.4c-0.4,0.2-0.9,0.2-1.4,0.3c-1.4,0.3-2.9,0.3-4.3,0.4C56.4,44,56.2,44.1,56.1,44.1z M52.3,3
		c1.5,0.5,2.9,1.3,4.3,2.1c0.3,0.2,0.6,0.4,1,0.3c0.5-0.1,0.9,0.1,1.2,0.4c0.2,0.2,0.5,0.4,0.7,0.6C60.4,7,61,8,61.9,8.6
		c0.5,0.4,1,0.8,1.6,1.2c0.1-0.1,0-0.2,0-0.3c-0.5-0.7-1.1-1.3-1.8-1.9c-1-0.9-2-1.6-3.2-2.3c-1.5-0.8-3-1.4-4.6-2
		C53.4,3.1,52.9,3,52.3,3z M44.1,2.9c-0.5-0.4-1.1-0.6-0.9-1.4c0-0.2-0.1-0.1-0.2-0.1c-1.1,0-2.2,0-3.2,0c-0.9,0-1.7,0-2.6,0.2
		c1.2,0.1,2.3,0.4,3.4,0.6C41.7,2.5,42.8,3,44.1,2.9z M4.2,23.8c-0.6,0.6-2.3,6.5-2,7.1c0.2-0.3,0.4-0.6,0.8-0.8
		c0.2-0.1,0.3-0.3,0.3-0.5c0.1-1.3,0.3-2.6,0.5-3.8C3.8,25.1,4,24.4,4.2,23.8z M36.2,3c-0.2-0.1-0.3-0.1-0.4-0.1
		c-1.3,0-2.6,0.1-3.8,0.5c-0.7,0.2-1.4,0.5-2.1,0.9c-0.1,0-0.2,0.1-0.2,0.2c0,0.1,0.2,0.1,0.3,0.1c0.4,0,0.9-0.1,1.3-0.2
		c1.2-0.3,2.3-0.7,3.5-1C35.2,3.3,35.7,3.2,36.2,3z M17.6,13.6c0,0,0-0.1-0.1-0.1c-0.5,0.1-0.9,0.5-1.3,0.7c-1.4,0.9-2.7,2-4,3.1
		c-0.1,0.1-0.2,0.1-0.3,0.2c-0.2,0.2-0.2,0.6,0,0.7c0.1,0.2,0.3-0.1,0.4-0.2c1.2-0.9,2.3-1.9,3.4-2.9C16.3,14.6,16.9,14.1,17.6,13.6
		z M19.9,42.9c0.4,0.2,0.8,0.5,1.3,0.6c0.8,0.2,1.5,0.2,2.3,0.2c0.5,0,1.1,0.4,1,0.7c0,0.4,0.2,0.3,0.4,0.3c0.6,0,1.1-0.3,1.7,0.1
		c0.1,0,0.2,0,0.2,0c0.1-0.2,0.1-0.5,0-0.7c0-0.2-0.2-0.1-0.4-0.1c-1.6-0.1-3.2-0.4-4.7-0.8C21.2,42.9,20.5,42.8,19.9,42.9z
		 M5.7,33.4c0,0,0.1,0,0.1,0C5.9,33,5.9,32.6,6,32.1c0.3-1.1,0.5-2.3,0.9-3.4c0.2-0.8,0.4-1.5,0.8-2.2c0.3-0.7,0.7-1.5,1.1-2.2
		c0-0.1,0.2-0.2,0-0.3c-0.1-0.1-0.1,0.1-0.2,0.2c-0.6,0.9-1.1,1.8-1.5,2.8c-0.4,0.8-0.9,1.5-1,2.4c-0.1,0.7-0.2,1.4-0.3,2.2
		C5.8,32.2,5.6,32.8,5.7,33.4z M50.1,7.4c1.4,0.3,2.5,1.2,3.8,1.9c-0.2-0.6-0.4-1.1-0.4-1.6c0-0.2-0.1-0.2-0.3-0.2
		C52.6,7.3,52,7.2,51.4,7C50.9,6.8,50.5,6.8,50.1,7.4z M17.7,42.8c-0.1,0-0.1,0-0.2,0c-1.8,0.1-3.6,0-5.3,0.1c-1.3,0.1-2.7,0.1-4,0
		c-0.6,0-1.1,0.3-1.7,0.6c0.7,0.1,1.2,0,1.8-0.1c1.2-0.1,2.4-0.3,3.6-0.3c1.6-0.1,3.1-0.1,4.7-0.2C17,43,17.4,43.1,17.7,42.8z
		 M10.4,13.6c0.1,0,0.1,0,0.2,0c1.3-1,2.6-2.1,3.9-3.1c0.1,0,0.1-0.1,0.1-0.2c-0.1-0.1-0.7-0.3-0.9-0.2c-0.4,0.3-0.7,0.7-1.1,1
		C11.8,11.9,11.1,12.7,10.4,13.6z M61.7,17.2c0.3,0.8,0.7,1.4,0.9,2.2c0.1,0.1,0,0.4,0.2,0.3c0.2-0.1,0.4-0.2,0.4-0.5
		C63.1,18.3,62.6,17.6,61.7,17.2z M45.6,1.5c0.6,0.3,1,0.5,1.5,0.7c0.3,0.1,0.5,0.4,0.8,0.3c0.5-0.1,1-0.3,1.5-0.3
		C48.2,1.9,47,1.5,45.6,1.5z M63.6,47.1c1.1,0,2.2-0.1,3.4-0.4c-0.2-0.1-0.2-0.5-0.5-0.4C65.4,46.4,64.5,46.8,63.6,47.1z M48.1,6.4
		c-1.7-0.5-3.5-0.6-5.3-0.7C44.6,5.7,46.3,6.6,48.1,6.4z M64.5,25c-0.2-0.8-0.4-1.5-0.5-2.2c-0.1-0.2-0.2-0.2-0.3-0.1
		c-0.1,0.1-0.2,0.1-0.1,0.3c0.1,0.6,0.2,1.2,0.3,1.7c0.1,0.3,0.4,0.2,0.5,0.3C64.4,25.1,64.5,25,64.5,25z M28.2,3.4
		c-0.3,0.1-0.5,0.1-0.7,0.2c-0.1,0-0.3,0-0.4,0.2c-0.1,0.4-0.4,0.5-0.7,0.6c-0.4,0.2-0.8,0.4-1.3,0.8C26.8,4.8,27.2,4.5,28.2,3.4z
		 M69.9,35.2c0,0.4,0,0.8-0.1,1.2c-0.1,1,0.1,2.1-0.2,3.1c0,0.1,0.1,0.1,0.2,0.1c0.2,0,0.2-0.2,0.2-0.3c0-1.1,0.1-2.2,0.1-3.3
		C70.1,35.8,70.1,35.5,69.9,35.2z M21.1,5.6c-1.1,0.3-3.7,1.7-4,2.1C18.5,7,19.8,6.3,21.1,5.6z M64,30.5c0.2-0.1,0.1-0.4,0.3-0.3
		c0.1,0,0.2,0.2,0.2,0.3c0,0,0,0,0,0c0,0.1,0.1,0.2,0.2,0.2c0.1,0,0.1-0.1,0.1-0.2c0-0.3,0-0.6,0.1-1c0-0.2,0-0.3-0.3-0.2
		C64,29.5,63.8,29.8,64,30.5z M56.7,8c0.3,0.2,0.4,0.7,0.9,0.6c0.5-0.1,0.9,0.1,1.3,0.4c0.1,0.1,0.2,0.2,0.3,0.2
		C58.7,8.2,57.6,8.3,56.7,8z M59.7,9.8c0.7,0.8,1.4,1.6,2.2,2.4C61.6,11.4,60.6,10.2,59.7,9.8z M55.8,9.4c0.4,0.7,0.7,1.6,1.5,1.9
		C57.1,10.5,56.4,10,55.8,9.4z M8.3,17.3c-0.5-0.4-0.5-0.4-0.8,0.1c-0.3,0.4-0.5,0.8-0.7,1.1c-0.1,0.2-0.3,0.4-0.3,0.7
		C7.1,18.5,7.5,17.8,8.3,17.3z M36.9,12.1c0.3,0,0.4,0,0.6-0.1c0.1,0,0.1-0.1,0.1-0.2c0-0.1-0.1-0.1-0.2-0.1c-0.3,0-0.6-0.1-0.9-0.2
		c-0.2-0.1-0.2,0-0.2,0.2C36.4,12.1,36.7,12.1,36.9,12.1z M2,31.6c-0.3,0.8-0.2,1.5-0.2,2.3C2,33.1,2,32.4,2,31.6z M66.6,22.8
		c0-0.2,0-0.4,0-0.6c0-0.3,0.1-0.6-0.1-0.8c-0.1-0.1-0.1-0.1-0.2-0.1c-0.1,0-0.1,0.2-0.1,0.2C66.4,22,66.4,22.4,66.6,22.8z
		 M20.2,45.5c-0.4-0.2-0.8-0.2-1.3,0C19.3,45.6,19.8,45.5,20.2,45.5z M5.3,37c0.2-0.3,0.1-0.7,0.1-1C5.2,36.3,5.2,36.6,5.3,37z"/>
	<path class="st1" d="M42.3,42c0.1,2.2-0.8,3.4-2,4.4c-0.4,0.3-0.9,0.6-1.3,1c-1.3,0.9-3.8,1-4.9,0.1c-1.1-1-2.1-2.1-2.6-3.6
		c-0.3-0.8-0.4-1.6,0-2.4c0.2-0.5,0.5-0.8,0.8-1.2c0.2-0.3,0.2-0.5,0.1-0.9c-0.4-0.8-0.7-1.5-1.1-2.3c-0.5-1.1-1-2.3-1.5-3.4
		c-1-2.3-1.9-4.6-3-6.8c-0.9-2-2-3.9-3.2-5.7c-0.3-0.4-0.5-0.9-0.8-1.3c-0.3-0.6-0.4-1.2-0.1-1.8c0.3-0.8,0.4-1.7,0.6-2.5
		c0.1-0.6,0.2-1.1,0.7-1.5c0.4-0.3,0.7-0.3,1.2,0c0.1,0.1,0.2,0.2,0.4,0.3c0.4,0.3,0.8,0.5,1.3,0.3c0.7-0.2,1.3,0.5,1.1,1
		c-0.1,0.4,0,0.8,0.2,1.1c0.5,0.9,1,1.9,1.4,2.8c0.4,0.9,0.8,1.8,1.2,2.8c0.6,1.4,1.1,2.8,1.8,4.2c0.4,0.9,0.9,1.8,1.3,2.7
		c0.6,1.4,1.4,2.8,1.9,4.2c0.3,0.8,0.8,1.5,1,2.3c0.1,0.3,0.3,0.4,0.6,0.4c1.9-0.1,3.1,0.8,4,2.4C42.1,39.7,42.3,41.1,42.3,42z
		 M24.5,17.1c0.9-0.4,1-0.3,1.4,0.4c1,2.3,2,4.6,3.1,6.8c0.5,1.1,1.1,2.2,1.6,3.3c0.6,1.2,1.2,2.4,1.7,3.7c0,0.1,0,0.1,0.1,0.1
		c0.1,0,0.1-0.1,0-0.2c-0.2-0.4-0.3-0.9-0.5-1.3c-0.4-1.1-0.9-2.2-1.4-3.3c-0.5-1.2-1.1-2.4-1.6-3.6c-0.6-1.4-1.3-2.8-1.9-4.2
		c-0.3-0.7-0.6-1.5-0.9-2.3C26,16.3,26,16,25.6,16c-0.4,0-0.8,0-0.9,0.5C24.6,16.7,24.6,16.9,24.5,17.1z M38.7,41.9
		c0-0.5-0.1-0.9-0.5-1.2c-0.2-0.1-0.3-0.1-0.4,0c-0.7,0.7-0.7,2.1-0.3,2.8c0.1,0.2,0.2,0.2,0.3,0.1C38.2,43,38.6,42.5,38.7,41.9z
		 M37.9,46.4c-0.3,0-0.6,0-0.8,0c-0.7-0.1-1.3-0.4-1.9-0.8c-0.6-0.4-1-0.8-1.1-1.5c-0.1-0.5-0.1-1.1-0.8-1.1c-0.1,0,0-0.2-0.2-0.2
		c0.1,0.3,0.1,0.6,0.2,0.8c0.3,0.9,0.9,1.7,1.6,2.3C35.7,46.7,36.9,47,37.9,46.4z M33.8,38.3c0.1,0,0.6-0.6,0.5-0.8
		c-0.1-0.5-0.3-1-0.4-1.5c-0.1-0.3-0.1-0.5-0.5-0.3c-0.2,0.1-0.4,0.1-0.6,0.1c-0.2,0-0.2,0-0.1,0.2c0.3,0.7,0.7,1.4,1,2
		C33.6,38.2,33.6,38.3,33.8,38.3z M26,21.6c0-0.4-0.2-0.6-0.3-0.9c-0.3-0.7-0.7-1.4-1-2.2c0-0.1-0.1-0.2-0.2-0.2
		c-0.2,0.1,0,0.2,0,0.3c0.1,0.5,0.3,0.9,0.6,1.3C25.3,20.6,25.5,21.1,26,21.6z M30.4,30.9c-0.1-1-0.7-1.9-1.2-2.8
		C29.5,29.1,29.9,30,30.4,30.9z M39.5,38.4c-0.2-0.4-0.5-0.6-0.7-0.8c-0.1-0.1-0.2-0.1-0.3,0c-0.1,0.3-0.4,0.5-0.8,0.6
		C38.3,38.3,38.9,38.2,39.5,38.4z M36,44.2c-0.3-0.8-0.3-1.6-0.2-2.5C35.2,42.3,35.3,43.3,36,44.2z M40.7,43.2
		c-0.4,0.5-0.4,1-0.7,1.4C40.4,44.2,40.7,43.8,40.7,43.2z M31.6,33.6c-0.2-0.3-0.1-0.7-0.5-1C31.1,33.1,31.5,33.3,31.6,33.6z"/>
	<path class="st2" d="M11.2,15.1c1.7-1.5,3.5-2.9,5.2-4.3C17.5,9.9,18.8,9.6,20,9c0.1,0,0.2,0,0.3,0c0.4,0.1,0.8,0.1,1.2,0
		c0.1,0,0.3-0.1,0.5,0c-0.1,0.2-0.3,0.3-0.5,0.4c-2.6,1.5-5.1,3-7.6,4.6c-0.7,0.5-1.5,0.7-2.3,1.1C11.5,15.2,11.4,15.2,11.2,15.1z"
		/>
	<path class="st2" d="M24.3,10.1c0.1-0.4-0.1-0.6-0.5-0.8c-0.1,0-0.2,0-0.2-0.1c0-0.1,0.1-0.1,0.2-0.2c1-0.3,1.9-0.7,2.9-1
		c1.4-0.4,2.9-0.8,4.4-1.2c1.5-0.4,2.9-0.8,4.5-1.1c0.2,0,0.3-0.1,0.4,0.1c0,0.1,0.1,0.2,0,0.2c-0.1,0.1-0.3,0.1-0.4,0.1
		c-0.6-0.3-1.1-0.1-1.4,0.4c-0.1,0.2-0.4,0.2-0.6,0.3c-2.6,0.7-5.1,1.6-7.5,2.8c-0.5,0.2-1,0.5-1.4,0.7
		C24.4,10.4,24.2,10.3,24.3,10.1z"/>
	<path class="st2" d="M64.1,10.8c0.1,0,0.1,0.1,0.2,0.2c0.7,1.3,1.3,2.6,2,4c0.7,1.4,1.1,2.8,1.6,4.3c0,0.1,0.1,0.2,0,0.3
		c-0.1,0.1-0.2,0-0.3-0.2c-0.7-1.2-1.4-2.4-2-3.6c-0.7-1.3-1.3-2.7-2-4c0-0.1-0.1-0.2,0-0.2C63.7,11.4,64,11.2,64.1,10.8
		C64.1,10.9,64.1,10.9,64.1,10.8z"/>
	<path class="st2" d="M13.1,47c-0.8,0.1-1.7,0.2-2.5,0.4c-0.5,0.1-1,0.2-1.5,0.3c-0.7,0.1-1.5-0.1-2.2,0c-0.4,0-0.8,0.1-1.2,0.1
		c-0.5,0-1,0-1.4-0.4c-0.1-0.1-0.2-0.1-0.1-0.2C4.2,47,4.3,47,4.4,47c0.2,0,0.4,0,0.5,0c0.4,0,0.7-0.1,1-0.3
		c0.7-0.5,1.4-0.5,2.3-0.5c1.2,0,2.4,0.2,3.6,0.5C12.2,46.8,12.7,46.8,13.1,47C13.1,47,13.1,47,13.1,47z"/>
	<path class="st2" d="M55.1,47.7c-0.8,0.1-1.7,0.1-2.5,0.2c-1.6,0.1-3.3,0.1-4.9,0c-0.8,0-0.9-0.3-0.5-1c0.1-0.1,0.1-0.2,0.1-0.3
		c-0.1-0.5,0.3-0.4,0.5-0.5c0.6-0.1,1.1,0.1,1.6,0.3c0.8,0.3,1.7,0.4,2.5,0.5c0.7,0.1,1.5,0.3,2.2,0.5
		C54.5,47.5,54.8,47.4,55.1,47.7z"/>
	<path class="st2" d="M56.1,44.1c0.2-0.1,0.4-0.1,0.6-0.1c1.4,0,2.9-0.1,4.3-0.4c0.5-0.1,0.9-0.1,1.4-0.3c0.2-0.1,0.5-0.2,0.7-0.4
		c0.1,0.4,0,0.7,0,1c0,0.4-0.1,0.9,0.5,1.1c-0.3,0.2-0.6,0.1-0.9,0.1c-0.2,0-0.5,0-0.7,0c-0.4,0-0.7,0-0.7-0.4
		c0-0.2-0.3-0.3-0.4-0.2c-0.3,0-0.7,0-1,0.1c-0.3,0.1-0.7-0.1-1-0.1c-0.8-0.1-1.6-0.2-2.4-0.3C56.2,44.3,56.1,44.2,56.1,44.1z"/>
	<path class="st2" d="M52.3,3c0.5,0,1,0.1,1.5,0.3c1.6,0.6,3.1,1.1,4.6,2c1.1,0.6,2.2,1.4,3.2,2.3c0.7,0.6,1.3,1.2,1.8,1.9
		c0,0.1,0.1,0.1,0,0.3c-0.5-0.4-1-0.8-1.6-1.2C61,8,60.4,7,59.6,6.3c-0.2-0.2-0.5-0.4-0.7-0.6c-0.4-0.3-0.8-0.4-1.2-0.4
		c-0.4,0.1-0.7-0.1-1-0.3C55.3,4.3,53.9,3.5,52.3,3z"/>
	<path class="st2" d="M44.1,2.9c-1.3,0.1-2.4-0.4-3.5-0.6c-1.1-0.2-2.3-0.5-3.4-0.6c0.9-0.2,1.7-0.2,2.6-0.2c1.1,0,2.2-0.1,3.2,0
		c0.1,0,0.3-0.1,0.2,0.1C43,2.3,43.6,2.5,44.1,2.9z"/>
	<path class="st2" d="M4.2,23.8c-0.2,0.7-0.3,1.4-0.4,2.1c-0.2,1.3-0.4,2.5-0.5,3.8c0,0.2-0.1,0.4-0.3,0.5c-0.3,0.1-0.5,0.5-0.8,0.8
		C1.9,30.2,3.6,24.4,4.2,23.8z"/>
	<path class="st2" d="M36.2,3c-0.5,0.2-1,0.3-1.5,0.4c-1.2,0.3-2.3,0.7-3.5,1c-0.4,0.1-0.8,0.2-1.3,0.2c-0.1,0-0.2,0-0.3-0.1
		c0-0.1,0.1-0.2,0.2-0.2c0.7-0.4,1.4-0.6,2.1-0.9c1.2-0.4,2.5-0.6,3.8-0.5C35.9,2.9,36.1,2.8,36.2,3z"/>
	<path class="st2" d="M17.6,13.6c-0.6,0.5-1.2,1.1-1.9,1.6c-1.1,1-2.3,1.9-3.4,2.9c-0.1,0.1-0.3,0.4-0.4,0.2c-0.1-0.2-0.1-0.5,0-0.7
		c0.1-0.1,0.2-0.2,0.3-0.2c1.3-1.1,2.6-2.2,4-3.1c0.4-0.3,0.8-0.6,1.3-0.7C17.5,13.5,17.5,13.5,17.6,13.6z"/>
	<path class="st2" d="M19.9,42.9c0.6-0.1,1.3,0,1.9,0.2c1.5,0.4,3.1,0.7,4.7,0.8c0.1,0,0.3-0.1,0.4,0.1c0.1,0.2,0,0.5,0,0.7
		c0,0.1-0.1,0.1-0.2,0c-0.5-0.3-1.1-0.1-1.7-0.1c-0.2,0-0.4,0.1-0.4-0.3c0-0.4-0.6-0.7-1-0.7c-0.8,0-1.6,0-2.3-0.2
		C20.7,43.4,20.3,43.1,19.9,42.9z"/>
	<path class="st2" d="M5.7,33.4c-0.1-0.6,0.1-1.2,0.1-1.8c0.1-0.7,0.1-1.4,0.3-2.2c0.2-0.9,0.6-1.7,1-2.4c0.5-0.9,1-1.9,1.5-2.8
		c0-0.1,0.1-0.2,0.2-0.2c0.2,0.1,0,0.2,0,0.3c-0.4,0.7-0.8,1.4-1.1,2.2c-0.3,0.7-0.6,1.5-0.8,2.2C6.6,29.9,6.3,31,6,32.1
		c-0.1,0.4-0.2,0.8-0.2,1.3C5.8,33.4,5.7,33.4,5.7,33.4z"/>
	<path class="st2" d="M50.1,7.4c0.3-0.6,0.7-0.6,1.3-0.4c0.6,0.2,1.2,0.4,1.8,0.5c0.1,0,0.2,0,0.3,0.2c0,0.5,0.2,1,0.4,1.6
		C52.6,8.6,51.5,7.7,50.1,7.4z"/>
	<path class="st2" d="M17.7,42.8C17.4,43.1,17,43,16.6,43c-1.6,0-3.1,0.1-4.7,0.2c-1.2,0-2.4,0.2-3.6,0.3c-0.6,0-1.1,0.1-1.8,0.1
		C7,43.3,7.5,43,8.1,43c1.3,0.1,2.7,0.1,4,0c1.8-0.1,3.6-0.1,5.3-0.1C17.6,42.8,17.6,42.8,17.7,42.8z"/>
	<path class="st2" d="M10.4,13.6c0.7-0.9,1.4-1.7,2.2-2.4c0.4-0.3,0.7-0.7,1.1-1c0.1-0.1,0.8,0,0.9,0.2c0,0.1,0,0.1-0.1,0.2
		c-1.3,1-2.6,2.1-3.9,3.1C10.6,13.6,10.5,13.6,10.4,13.6z"/>
	<path class="st2" d="M61.7,17.2c0.9,0.4,1.4,1.1,1.5,2c0,0.3-0.2,0.4-0.4,0.5c-0.2,0.1-0.2-0.2-0.2-0.3C62.3,18.6,62,18,61.7,17.2z
		"/>
	<path class="st2" d="M45.6,1.5c1.4,0,2.6,0.4,3.8,0.7c-0.5,0-1,0.2-1.5,0.3c-0.3,0.1-0.5-0.2-0.8-0.3C46.6,2,46.2,1.8,45.6,1.5z"/>
	<path class="st2" d="M63.6,47.1c0.9-0.3,1.8-0.7,2.8-0.8c0.3,0,0.3,0.3,0.5,0.4C65.8,46.9,64.7,47,63.6,47.1z"/>
	<path class="st2" d="M48.1,6.4c-1.8,0.2-3.5-0.7-5.3-0.7C44.6,5.7,46.4,5.9,48.1,6.4z"/>
	<path class="st2" d="M64.5,25c0,0,0,0.1-0.1,0.1c-0.2-0.1-0.5,0.1-0.5-0.3c-0.1-0.6-0.2-1.2-0.3-1.7c0-0.1,0.1-0.2,0.1-0.3
		c0.1-0.1,0.2-0.2,0.3,0.1C64.1,23.5,64.3,24.2,64.5,25z"/>
	<path class="st2" d="M28.2,3.4c-1,1.2-1.4,1.4-3.1,1.8c0.5-0.4,0.9-0.5,1.3-0.8c0.3-0.1,0.6-0.3,0.7-0.6c0.1-0.2,0.2-0.2,0.4-0.2
		C27.7,3.5,27.9,3.4,28.2,3.4z"/>
	<path class="st2" d="M69.9,35.2c0.2,0.3,0.1,0.6,0.1,0.8c0,1.1,0,2.2-0.1,3.3c0,0.1,0,0.3-0.2,0.3c-0.1,0-0.2,0-0.2-0.1
		c0.3-1,0-2.1,0.2-3.1C69.9,36,69.9,35.6,69.9,35.2z"/>
	<path class="st2" d="M21.1,5.6c-1.3,0.8-2.6,1.5-4,2.1C17.3,7.3,19.9,5.9,21.1,5.6z"/>
	<path class="st2" d="M64,30.5c-0.2-0.7,0-1,0.5-1.1c0.3-0.1,0.3,0,0.3,0.2c0,0.3,0,0.6-0.1,1c0,0.1,0,0.2-0.1,0.2
		c-0.1,0-0.1-0.1-0.2-0.2c0,0,0,0,0,0c0-0.1,0-0.3-0.2-0.3C64.1,30.1,64.2,30.4,64,30.5z"/>
	<path class="st2" d="M56.7,8c0.9,0.3,2,0.2,2.5,1.3c-0.1,0-0.2-0.1-0.3-0.2c-0.4-0.3-0.8-0.5-1.3-0.4C57.1,8.7,57,8.2,56.7,8z"/>
	<path class="st2" d="M59.7,9.8c0.9,0.4,1.9,1.5,2.2,2.4C61.1,11.5,60.4,10.7,59.7,9.8z"/>
	<path class="st2" d="M55.8,9.4c0.6,0.6,1.2,1.1,1.5,1.9C56.5,11,56.2,10.2,55.8,9.4z"/>
	<path class="st2" d="M8.3,17.3c-0.8,0.5-1.2,1.2-1.8,1.9c0-0.3,0.2-0.5,0.3-0.7c0.2-0.4,0.5-0.8,0.7-1.1
		C7.8,16.9,7.8,16.9,8.3,17.3z"/>
	<path class="st2" d="M36.9,12.1c-0.2,0-0.6,0-0.6-0.4c0-0.2,0.1-0.3,0.2-0.2c0.3,0.2,0.6,0.2,0.9,0.2c0.1,0,0.1,0,0.2,0.1
		c0,0.1-0.1,0.1-0.1,0.2C37.4,12.1,37.2,12.1,36.9,12.1z"/>
	<path class="st2" d="M2,31.6c0,0.8,0,1.5-0.2,2.3C1.8,33.1,1.7,32.4,2,31.6z"/>
	<path class="st2" d="M66.6,22.8c-0.2-0.4-0.3-0.9-0.4-1.3c0-0.1-0.1-0.2,0.1-0.2c0.1,0,0.1,0.1,0.2,0.1c0.3,0.2,0.1,0.5,0.1,0.8
		C66.7,22.4,66.6,22.6,66.6,22.8z"/>
	<path class="st2" d="M20.2,45.5c-0.4,0-0.8,0.2-1.3,0C19.3,45.3,19.8,45.3,20.2,45.5z"/>
	<path class="st2" d="M5.3,37c-0.1-0.4-0.1-0.7,0.1-1C5.4,36.4,5.5,36.7,5.3,37z"/>
	<path class="st2" d="M24.5,17.1c0-0.2,0.1-0.4,0.1-0.6c0.1-0.5,0.5-0.5,0.9-0.5c0.4,0,0.4,0.3,0.5,0.5c0.3,0.8,0.6,1.5,0.9,2.3
		c0.6,1.4,1.2,2.8,1.9,4.2c0.5,1.2,1.1,2.4,1.6,3.6c0.5,1.1,1,2.2,1.4,3.3c0.2,0.4,0.3,0.9,0.5,1.3c0,0.1,0.1,0.1,0,0.2
		c-0.1,0-0.1,0-0.1-0.1c-0.5-1.3-1.1-2.5-1.7-3.7c-0.5-1.1-1.1-2.2-1.6-3.3c-1.1-2.2-2.1-4.5-3.1-6.8C25.6,16.8,25.4,16.7,24.5,17.1
		z"/>
	<path class="st2" d="M38.7,41.9c-0.1,0.6-0.5,1.2-1,1.7c-0.1,0.1-0.2,0.1-0.3-0.1c-0.4-0.7-0.3-2.1,0.3-2.8c0.1-0.1,0.3-0.1,0.4,0
		C38.6,40.9,38.7,41.4,38.7,41.9z"/>
	<path class="st2" d="M37.9,46.4c-1,0.6-2.2,0.3-3-0.4c-0.7-0.7-1.3-1.4-1.6-2.3c-0.1-0.3-0.2-0.6-0.2-0.8c0.1,0,0.1,0.1,0.2,0.2
		c0.7,0.1,0.7,0.7,0.8,1.1c0.1,0.7,0.5,1.1,1.1,1.5c0.6,0.4,1.2,0.7,1.9,0.8C37.3,46.4,37.6,46.4,37.9,46.4z"/>
	<path class="st2" d="M33.8,38.3c-0.2,0-0.2-0.1-0.2-0.1c-0.3-0.7-0.6-1.4-1-2c-0.1-0.2,0-0.2,0.1-0.2c0.2,0,0.5,0,0.6-0.1
		c0.4-0.2,0.4,0,0.5,0.3c0.1,0.5,0.3,1,0.4,1.5C34.4,37.7,33.9,38.3,33.8,38.3z"/>
	<path class="st2" d="M26,21.6c-0.5-0.5-0.7-1.1-1-1.6c-0.2-0.4-0.5-0.8-0.6-1.3c0-0.1-0.1-0.2,0-0.3c0.1,0,0.2,0.1,0.2,0.2
		c0.3,0.7,0.7,1.4,1,2.2C25.8,21,26,21.2,26,21.6z"/>
	<path class="st2" d="M30.4,30.9c-0.5-0.9-0.9-1.8-1.2-2.8C29.7,29,30.3,29.8,30.4,30.9z"/>
	<path class="st2" d="M39.5,38.4c-0.6-0.1-1.2-0.1-1.7-0.1c0.3-0.2,0.6-0.3,0.8-0.6c0-0.1,0.2-0.1,0.3,0C39,37.8,39.3,38,39.5,38.4z
		"/>
	<path class="st2" d="M36,44.2c-0.6-0.9-0.7-1.9-0.2-2.5C35.7,42.6,35.7,43.4,36,44.2z"/>
	<path class="st2" d="M40.7,43.2c0,0.7-0.3,1-0.7,1.4C40.3,44.2,40.3,43.6,40.7,43.2z"/>
	<path class="st2" d="M31.6,33.6c-0.1-0.3-0.4-0.6-0.5-1C31.5,32.9,31.4,33.3,31.6,33.6z"/>
</g>
</svg>
